0
SECTION
2
HEADER
9
$INSUNITS
70
4
9
$ACADVER
1
AC1014
9
$HANDSEED
5
FFFF
0
ENDSEC
0
SECTION
2
TABLES
0
TABLE
2
VPORT
5
8
100
AcDbSymbolTable
0
ENDTAB
0
TABLE
2
LTYPE
5
5
100
AcDbSymbolTable
0
LTYPE
5
14
100
AcDbSymbolTableRecord
100
AcDbLinetypeTableRecord
2
BYBLOCK
70
0
0
LTYPE
5
15
100
AcDbSymbolTableRecord
100
AcDbLinetypeTableRecord
2
BYLAYER
70
0
0
ENDTAB
0
TABLE
2
LAYER
5
2
100
AcDbSymbolTable
70
2
0
LAYER
5
50
100
AcDbSymbolTableRecord
100
AcDbLayerTableRecord
2
0
70
0
6
CONTINUOUS
0
ENDTAB
0
TABLE
2
STYLE
5
3
100
AcDbSymbolTable
70
1
0
STYLE
5
11
100
AcDbSymbolTableRecord
100
AcDbTextStyleTableRecord
2
STANDARD
70
0
0
ENDTAB
0
TABLE
2
VIEW
5
6
100
AcDbSymbolTable
70
0
0
ENDTAB
0
TABLE
2
UCS
5
7
100
AcDbSymbolTable
70
0
0
ENDTAB
0
TABLE
2
APPID
5
9
100
AcDbSymbolTable
70
2
0
APPID
5
12
100
AcDbSymbolTableRecord
100
AcDbRegAppTableRecord
2
ACAD
70
0
0
ENDTAB
0
TABLE
2
DIMSTYLE
5
A
100
AcDbSymbolTable
70
1
0
ENDTAB
0
TABLE
2
BLOCK_RECORD
5
1
100
AcDbSymbolTable
70
1
0
BLOCK_RECORD
5
1F
100
AcDbSymbolTableRecord
100
AcDbBlockTableRecord
2
*MODEL_SPACE
0
BLOCK_RECORD
5
1B
100
AcDbSymbolTableRecord
100
AcDbBlockTableRecord
2
*PAPER_SPACE
0
ENDTAB
0
ENDSEC
0
SECTION
2
BLOCKS
0
BLOCK
5
20
100
AcDbEntity
100
AcDbBlockBegin
2
*MODEL_SPACE
0
ENDBLK
5
21
100
AcDbEntity
100
AcDbBlockEnd
0
BLOCK
5
1C
100
AcDbEntity
100
AcDbBlockBegin
2
*PAPER_SPACE
0
ENDBLK
5
1D
100
AcDbEntity
100
AcDbBlockEnd
0
ENDSEC
0
SECTION
2
ENTITIES
0
ARC
5
100
100
AcDbEntity
8
0
100
AcDbCircle
10
0
20
0
30
0
40
4.5491999999999999
210
-0
220
0
230
1
100
AcDbArc
50
332.67758452796022
51
335.89384404346839
0
ARC
5
101
100
AcDbEntity
8
0
100
AcDbCircle
10
5.0652559340997527
20
-2.2664516235885643
30
0
40
1.0000000000000004
210
0
220
-0
230
1
100
AcDbArc
50
76.353634090025977
51
155.89384404346831
0
LINE
5
102
100
AcDbEntity
8
0
100
AcDbLine
10
5.3011845176950478
20
-1.2946812271251207
30
0
11
6.3904008088081365
21
-1.5591235868908098
31
0
0
SPLINE
5
103
100
AcDbEntity
8
0
100
AcDbSpline
70
4
71
5
72
81
73
75
74
0
42
0.000000001
43
0.0000000001
44
0.0000000001
40
0
40
0
40
0
40
0
40
0
40
0
40
0.014285714285714285
40
0.028571428571428571
40
0.042857142857142858
40
0.057142857142857141
40
0.071428571428571425
40
0.085714285714285715
40
0.10000000000000001
40
0.1142857142857143
40
0.12857142857142859
40
0.14285714285714288
40
0.15714285714285717
40
0.17142857142857146
40
0.18571428571428575
40
0.20000000000000004
40
0.21428571428571433
40
0.22857142857142862
40
0.24285714285714291
40
0.25714285714285717
40
0.27142857142857146
40
0.28571428571428575
40
0.30000000000000004
40
0.31428571428571433
40
0.32857142857142863
40
0.34285714285714292
40
0.35714285714285721
40
0.3714285714285715
40
0.38571428571428579
40
0.40000000000000008
40
0.41428571428571437
40
0.42857142857142866
40
0.44285714285714295
40
0.45714285714285724
40
0.47142857142857153
40
0.48571428571428582
40
0.50000000000000011
40
0.51428571428571435
40
0.52857142857142858
40
0.54285714285714282
40
0.55714285714285705
40
0.57142857142857129
40
0.58571428571428552
40
0.59999999999999976
40
0.61428571428571399
40
0.62857142857142823
40
0.64285714285714246
40
0.6571428571428567
40
0.67142857142857093
40
0.68571428571428517
40
0.6999999999999994
40
0.71428571428571364
40
0.72857142857142787
40
0.74285714285714211
40
0.75714285714285634
40
0.77142857142857058
40
0.78571428571428481
40
0.79999999999999905
40
0.81428571428571328
40
0.82857142857142752
40
0.84285714285714175
40
0.85714285714285599
40
0.87142857142857022
40
0.88571428571428445
40
0.89999999999999869
40
0.91428571428571292
40
0.92857142857142716
40
0.94285714285714139
40
0.95714285714285563
40
0.97142857142856986
40
0.9857142857142841
40
1
40
1
40
1
40
1
40
1
40
1
41
1
41
1
41
1
41
1
41
1
41
1
41
1
41
1
41
1
41
1
41
1
41
1
41
1
41
1
41
1
41
1
41
1
41
1
41
1
41
1
41
1
41
1
41
1
41
1
41
1
41
1
41
1
41
1
41
1
41
1
41
1
41
1
41
1
41
1
41
1
41
1
41
1
41
1
41
1
41
1
41
1
41
1
41
1
41
1
41
1
41
1
41
1
41
1
41
1
41
1
41
1
41
1
41
1
41
1
41
1
41
1
41
1
41
1
41
1
41
1
41
1
41
1
41
1
41
1
41
1
41
1
41
1
41
1
41
1
41
1
41
1
41
1
41
1
41
1
41
1
10
6.3904008088081365
20
-1.5591235868908098
30
0
10
6.397500521131164
20
-1.5608472708787167
30
0
10
6.411745418061817
20
-1.5640100813691498
30
0
10
6.4332491779060259
20
-1.567900642512885
30
0
10
6.4621813870376199
20
-1.5714665838139763
30
0
10
6.4987091516810338
20
-1.5737174096090594
30
0
10
6.5355078183411495
20
-1.5743867997751342
30
0
10
6.5724858518327611
20
-1.5740855804873533
30
0
10
6.6095742282315886
20
-1.5732480510017846
30
0
10
6.6467416659663847
20
-1.5720234317935975
30
0
10
6.683981238875953
20
-1.5703798568293335
30
0
10
6.7213009386640818
20
-1.5681792452468755
30
0
10
6.75871340728151
20
-1.5652578161421118
30
0
10
6.7962243854422084
20
-1.561517429665028
30
0
10
6.8338274277489681
20
-1.5569661811378579
30
0
10
6.8715094573808377
20
-1.5516716843495968
30
0
10
6.9092539359617575
20
-1.5457334873608184
30
0
10
6.9470446704361581
20
-1.5392505436535955
30
0
10
6.9848701239065436
20
-1.5322841886840066
30
0
10
7.0227243446721621
20
-1.524850014365521
30
0
10
7.0606046463803649
20
-1.5169373863210929
30
0
10
7.0985101477015888
20
-1.5085216531473054
30
0
10
7.1364400991881478
20
-1.4995781764101359
30
0
10
7.1743919590777603
20
-1.4900984745160497
30
0
10
7.2123612485714315
20
-1.4800913455147813
30
0
10
7.2503424574929838
20
-1.4695751213016868
30
0
10
7.2883296447504247
20
-1.458572501254181
30
0
10
7.3263171119550172
20
-1.4471047739579743
30
0
10
7.3643001791920906
20
-1.4351851708660246
30
0
10
7.402275139528312
20
-1.4228192029347717
30
0
10
7.4402388810021929
20
-1.4100078256409891
30
0
10
7.478188609628531
20
-1.396749748491505
30
0
10
7.5161215515257691
20
-1.3830439263835155
30
0
10
7.5540346111653678
20
-1.3688924239911204
30
0
10
7.5919244028697239
20
-1.3543001308755811
30
0
10
7.6297873994309047
20
-1.3392734900146648
30
0
10
7.6676200449503558
20
-1.3238195334965965
30
0
10
7.7054188742099754
20
-1.3079448641151004
30
0
10
7.7431806516027653
20
-1.291654482425626
30
0
10
7.7809023476287358
20
-1.2749519480276823
30
0
10
7.8185810691218007
20
-1.2578399249765271
30
0
10
7.8562140037808605
20
-1.2403206125740505
30
0
10
7.8937983633979254
20
-1.2223961941344497
30
0
10
7.931331317138052
20
-1.2040693637664919
30
0
10
7.9688100011798682
20
-1.1853432758481157
30
0
10
8.0062315522319896
20
-1.1662213139198545
30
0
10
8.043593134833694
20
-1.1467069169159534
30
0
10
8.0808919684691567
20
-1.1268033990395234
30
0
10
8.118125363477569
20
-1.106513738166182
30
0
10
8.1552907070578691
20
-1.0858405921220298
30
0
10
8.1923854301511376
20
-1.0647864088214274
30
0
10
8.229406979177746
20
-1.0433535120825299
30
0
10
8.2663527905394609
20
-1.0215441913587975
30
0
10
8.3032202538728654
20
-0.99936081464524884
30
0
10
8.3400067309252375
20
-0.97680582834377316
30
0
10
8.3767096051781138
20
-0.95388169128745326
30
0
10
8.4133263264037303
20
-0.93059082904312085
30
0
10
8.4498544495962005
20
-0.90693558813722075
30
0
10
8.4862916977247629
20
-0.88291817913102566
30
0
10
8.5226359326862742
20
-0.85854068236346537
30
0
10
8.558885043584409
20
-0.8338051124841338
30
0
10
8.5950368520760136
20
-0.80871347232631685
30
0
10
8.6310890254393886
20
-0.78326780641281124
30
0
10
8.6670389529626739
20
-0.75747027497460362
30
0
10
8.702883755209351
20
-0.73132316099793404
30
0
10
8.7386205213735657
20
-0.70482875901632258
30
0
10
8.7742464999119836
20
-0.67798929214169168
30
0
10
8.8097592991643889
20
-0.65080682223364139
30
0
10
8.8451571079622404
20
-0.62328316059652411
30
0
10
8.8804388391502123
20
-0.59541979525398059
30
0
10
8.9156039281597863
20
-0.56721789219000751
30
0
10
8.9436425324106672
20
-0.5443862082456209
30
0
10
8.9646189162649428
20
-0.52711070594349652
30
0
10
8.978579815836218
20
-0.51552628709087445
30
0
10
8.9855544265356873
20
-0.50971722333555636
30
0
0
ARC
5
104
100
AcDbEntity
8
0
100
AcDbCircle
10
0
20
0
30
0
40
9
210
-0
220
0
230
1
100
AcDbArc
50
-3.2466978651760057
51
3.2466978651759968
0
SPLINE
5
105
100
AcDbEntity
8
0
100
AcDbSpline
70
4
71
5
72
81
73
75
74
0
42
0.000000001
43
0.0000000001
44
0.0000000001
40
-1
40
-1
40
-1
40
-1
40
-1
40
-1
40
-0.9857142857142841
40
-0.97142857142856986
40
-0.95714285714285563
40
-0.94285714285714139
40
-0.92857142857142716
40
-0.91428571428571292
40
-0.89999999999999869
40
-0.88571428571428445
40
-0.87142857142857022
40
-0.85714285714285599
40
-0.84285714285714175
40
-0.82857142857142752
40
-0.81428571428571328
40
-0.79999999999999905
40
-0.78571428571428481
40
-0.77142857142857058
40
-0.75714285714285634
40
-0.74285714285714211
40
-0.72857142857142787
40
-0.71428571428571364
40
-0.6999999999999994
40
-0.68571428571428517
40
-0.67142857142857093
40
-0.6571428571428567
40
-0.64285714285714246
40
-0.62857142857142823
40
-0.61428571428571399
40
-0.59999999999999976
40
-0.58571428571428552
40
-0.57142857142857129
40
-0.55714285714285705
40
-0.54285714285714282
40
-0.52857142857142858
40
-0.51428571428571435
40
-0.50000000000000011
40
-0.48571428571428582
40
-0.47142857142857153
40
-0.45714285714285724
40
-0.44285714285714295
40
-0.42857142857142866
40
-0.41428571428571437
40
-0.40000000000000008
40
-0.38571428571428579
40
-0.3714285714285715
40
-0.35714285714285721
40
-0.34285714285714292
40
-0.32857142857142863
40
-0.31428571428571433
40
-0.30000000000000004
40
-0.28571428571428575
40
-0.27142857142857146
40
-0.25714285714285717
40
-0.24285714285714291
40
-0.22857142857142862
40
-0.21428571428571433
40
-0.20000000000000004
40
-0.18571428571428575
40
-0.17142857142857146
40
-0.15714285714285717
40
-0.14285714285714288
40
-0.12857142857142859
40
-0.1142857142857143
40
-0.10000000000000001
40
-0.085714285714285715
40
-0.071428571428571425
40
-0.057142857142857141
40
-0.042857142857142858
40
-0.028571428571428571
40
-0.014285714285714285
40
0
40
0
40
0
40
0
40
0
40
0
41
1
41
1
41
1
41
1
41
1
41
1
41
1
41
1
41
1
41
1
41
1
41
1
41
1
41
1
41
1
41
1
41
1
41
1
41
1
41
1
41
1
41
1
41
1
41
1
41
1
41
1
41
1
41
1
41
1
41
1
41
1
41
1
41
1
41
1
41
1
41
1
41
1
41
1
41
1
41
1
41
1
41
1
41
1
41
1
41
1
41
1
41
1
41
1
41
1
41
1
41
1
41
1
41
1
41
1
41
1
41
1
41
1
41
1
41
1
41
1
41
1
41
1
41
1
41
1
41
1
41
1
41
1
41
1
41
1
41
1
41
1
41
1
41
1
41
1
41
1
10
8.9855544265356873
20
0.50971722333555636
30
0
10
8.978579815836218
20
0.51552628709087445
30
0
10
8.9646189162649428
20
0.52711070594349652
30
0
10
8.9436425324106672
20
0.5443862082456209
30
0
10
8.9156039281597863
20
0.56721789219000751
30
0
10
8.8804388391502123
20
0.59541979525398059
30
0
10
8.8451571079622404
20
0.62328316059652411
30
0
10
8.8097592991643889
20
0.65080682223364139
30
0
10
8.7742464999119836
20
0.67798929214169168
30
0
10
8.7386205213735657
20
0.70482875901632258
30
0
10
8.702883755209351
20
0.73132316099793404
30
0
10
8.6670389529626739
20
0.75747027497460362
30
0
10
8.6310890254393886
20
0.78326780641281124
30
0
10
8.5950368520760136
20
0.80871347232631685
30
0
10
8.558885043584409
20
0.8338051124841338
30
0
10
8.5226359326862742
20
0.85854068236346537
30
0
10
8.4862916977247629
20
0.88291817913102566
30
0
10
8.4498544495962005
20
0.90693558813722075
30
0
10
8.4133263264037303
20
0.93059082904312085
30
0
10
8.3767096051781138
20
0.95388169128745326
30
0
10
8.3400067309252375
20
0.97680582834377316
30
0
10
8.3032202538728654
20
0.99936081464524884
30
0
10
8.2663527905394609
20
1.0215441913587975
30
0
10
8.229406979177746
20
1.0433535120825299
30
0
10
8.1923854301511376
20
1.0647864088214274
30
0
10
8.1552907070578691
20
1.0858405921220298
30
0
10
8.118125363477569
20
1.106513738166182
30
0
10
8.0808919684691567
20
1.1268033990395234
30
0
10
8.043593134833694
20
1.1467069169159534
30
0
10
8.0062315522319896
20
1.1662213139198545
30
0
10
7.9688100011798682
20
1.1853432758481157
30
0
10
7.931331317138052
20
1.2040693637664919
30
0
10
7.8937983633979254
20
1.2223961941344497
30
0
10
7.8562140037808605
20
1.2403206125740505
30
0
10
7.8185810691218007
20
1.2578399249765271
30
0
10
7.7809023476287358
20
1.2749519480276823
30
0
10
7.7431806516027653
20
1.291654482425626
30
0
10
7.7054188742099754
20
1.3079448641151004
30
0
10
7.6676200449503558
20
1.3238195334965965
30
0
10
7.6297873994309047
20
1.3392734900146648
30
0
10
7.5919244028697239
20
1.3543001308755811
30
0
10
7.5540346111653678
20
1.3688924239911204
30
0
10
7.5161215515257691
20
1.3830439263835155
30
0
10
7.478188609628531
20
1.396749748491505
30
0
10
7.4402388810021929
20
1.4100078256409891
30
0
10
7.402275139528312
20
1.4228192029347717
30
0
10
7.3643001791920906
20
1.4351851708660246
30
0
10
7.3263171119550172
20
1.4471047739579743
30
0
10
7.2883296447504247
20
1.458572501254181
30
0
10
7.2503424574929838
20
1.4695751213016868
30
0
10
7.2123612485714315
20
1.4800913455147813
30
0
10
7.1743919590777603
20
1.4900984745160497
30
0
10
7.1364400991881478
20
1.4995781764101359
30
0
10
7.0985101477015888
20
1.5085216531473054
30
0
10
7.0606046463803649
20
1.5169373863210929
30
0
10
7.0227243446721621
20
1.524850014365521
30
0
10
6.9848701239065436
20
1.5322841886840066
30
0
10
6.9470446704361581
20
1.5392505436535955
30
0
10
6.9092539359617575
20
1.5457334873608184
30
0
10
6.8715094573808377
20
1.5516716843495968
30
0
10
6.8338274277489681
20
1.5569661811378579
30
0
10
6.7962243854422084
20
1.561517429665028
30
0
10
6.75871340728151
20
1.5652578161421118
30
0
10
6.7213009386640818
20
1.5681792452468755
30
0
10
6.683981238875953
20
1.5703798568293335
30
0
10
6.6467416659663847
20
1.5720234317935975
30
0
10
6.6095742282315886
20
1.5732480510017846
30
0
10
6.5724858518327611
20
1.5740855804873533
30
0
10
6.5355078183411495
20
1.5743867997751342
30
0
10
6.4987091516810338
20
1.5737174096090594
30
0
10
6.4621813870376199
20
1.5714665838139763
30
0
10
6.4332491779060259
20
1.567900642512885
30
0
10
6.411745418061817
20
1.5640100813691498
30
0
10
6.397500521131164
20
1.5608472708787167
30
0
10
6.3904008088081365
20
1.5591235868908098
30
0
0
LINE
5
106
100
AcDbEntity
8
0
100
AcDbLine
10
6.3904008088081365
20
1.5591235868908098
30
0
11
5.3011845176950478
21
1.2946812271251209
31
0
0
ARC
5
107
100
AcDbEntity
8
0
100
AcDbCircle
10
5.0652559340997527
20
2.2664516235885648
30
0
40
1.0000000000000004
210
0
220
0
230
1
100
AcDbArc
50
204.10615595653164
51
283.64636590997401
0
ARC
5
108
100
AcDbEntity
8
0
100
AcDbCircle
10
0
20
0
30
0
40
4.549199999999999
210
0
220
-0
230
1
100
AcDbArc
50
24.106155956531648
51
27.322415472039797
0
ARC
5
109
100
AcDbEntity
8
0
100
AcDbCircle
10
4.9301186515279491
20
2.5470670823235557
30
0
40
1.0000000000000007
210
0
220
0
230
1
100
AcDbArc
50
127.78220551859737
51
207.32241547203969
0
LINE
5
110
100
AcDbEntity
8
0
100
AcDbLine
10
4.3174570276810327
20
3.3374124085356236
30
0
11
5.2033216393713904
21
4.0241188816515336
31
0
0
SPLINE
5
111
100
AcDbEntity
8
0
100
AcDbSpline
70
4
71
5
72
81
73
75
74
0
42
0.000000001
43
0.0000000001
44
0.0000000001
40
0
40
0
40
0
40
0
40
0
40
0
40
0.014285714285714285
40
0.028571428571428571
40
0.042857142857142858
40
0.057142857142857141
40
0.071428571428571425
40
0.085714285714285715
40
0.10000000000000001
40
0.1142857142857143
40
0.12857142857142859
40
0.14285714285714288
40
0.15714285714285717
40
0.17142857142857146
40
0.18571428571428575
40
0.20000000000000004
40
0.21428571428571433
40
0.22857142857142862
40
0.24285714285714291
40
0.25714285714285717
40
0.27142857142857146
40
0.28571428571428575
40
0.30000000000000004
40
0.31428571428571433
40
0.32857142857142863
40
0.34285714285714292
40
0.35714285714285721
40
0.3714285714285715
40
0.38571428571428579
40
0.40000000000000008
40
0.41428571428571437
40
0.42857142857142866
40
0.44285714285714295
40
0.45714285714285724
40
0.47142857142857153
40
0.48571428571428582
40
0.50000000000000011
40
0.51428571428571435
40
0.52857142857142858
40
0.54285714285714282
40
0.55714285714285705
40
0.57142857142857129
40
0.58571428571428552
40
0.59999999999999976
40
0.61428571428571399
40
0.62857142857142823
40
0.64285714285714246
40
0.6571428571428567
40
0.67142857142857093
40
0.68571428571428517
40
0.6999999999999994
40
0.71428571428571364
40
0.72857142857142787
40
0.74285714285714211
40
0.75714285714285634
40
0.77142857142857058
40
0.78571428571428481
40
0.79999999999999905
40
0.81428571428571328
40
0.82857142857142752
40
0.84285714285714175
40
0.85714285714285599
40
0.87142857142857022
40
0.88571428571428445
40
0.89999999999999869
40
0.91428571428571292
40
0.92857142857142716
40
0.94285714285714139
40
0.95714285714285563
40
0.97142857142856986
40
0.9857142857142841
40
1
40
1
40
1
40
1
40
1
40
1
41
1
41
1
41
1
41
1
41
1
41
1
41
1
41
1
41
1
41
1
41
1
41
1
41
1
41
1
41
1
41
1
41
1
41
1
41
1
41
1
41
1
41
1
41
1
41
1
41
1
41
1
41
1
41
1
41
1
41
1
41
1
41
1
41
1
41
1
41
1
41
1
41
1
41
1
41
1
41
1
41
1
41
1
41
1
41
1
41
1
41
1
41
1
41
1
41
1
41
1
41
1
41
1
41
1
41
1
41
1
41
1
41
1
41
1
41
1
41
1
41
1
41
1
41
1
41
1
41
1
41
1
41
1
41
1
41
1
41
1
41
1
41
1
41
1
41
1
41
1
10
5.2033216393713904
20
4.0241188816515336
30
0
10
5.2090958680085002
20
4.028594960874055
30
0
10
5.2204502007877913
20
4.0377600896729549
30
0
10
5.2368993389389136
20
4.052146680913963
30
0
10
5.2577262414515333
20
4.0725434648351344
30
0
10
5.2822606966595451
20
4.0996986542885425
30
0
10
5.3057276403500175
20
4.128051652454257
30
0
10
5.3285475644025144
20
4.1571500503518095
30
0
10
5.351016981935369
20
4.1866691017470448
30
0
10
5.3732330544732374
20
4.2164913122782446
30
0
10
5.3951665497570716
20
4.2466311350014179
30
0
10
5.4167144945675494
20
4.2771809100915466
30
0
10
5.4377567219649725
20
4.3082526371471728
30
0
10
5.4582200824015326
20
4.3399119936348489
30
0
10
5.4781068864155813
20
4.3721488929892676
30
0
10
5.4974618433315028
20
4.4049109548322098
30
0
10
5.5163524714482577
20
4.4381231817400444
30
0
10
5.5348460395084222
20
4.4717112169851987
30
0
10
5.5529833083646176
20
4.5056277986266426
30
0
10
5.5707727574409427
20
4.5398585520383135
30
0
10
5.5882043975331452
20
4.5744080073707769
30
0
10
5.6052584058979535
20
4.6092908454714641
30
0
10
5.6219150521589807
20
4.6445218422109278
30
0
10
5.6381661203765177
20
4.6801042985464649
30
0
10
5.6540156966573329
20
4.7160292273177351
30
0
10
5.669474677915697
20
4.752280890745725
30
0
10
5.6845571070292342
20
4.7888404910673463
30
0
10
5.6992760751972096
20
4.8256902998868014
30
0
10
5.7136390093070286
20
4.8628184086234789
30
0
10
5.7276479067628099
20
4.9002184830550597
30
0
10
5.7413015743101203
20
4.9378874944220552
30
0
10
5.7545972609794926
20
4.9758240629082042
30
0
10
5.767532420189788
20
5.0140266714165183
30
0
10
5.7801067361377436
20
5.0524916124620809
30
0
10
5.7923219207008314
20
5.091213190423975
30
0
10
5.804180812023735
20
5.1301846304890608
30
0
10
5.8156866909479312
20
5.1693987681086053
30
0
10
5.8268425592172779
20
5.2088487772914496
30
0
10
5.8376503090554905
20
5.2485290105428568
30
0
10
5.8481108346071808
20
5.288434879930362
30
0
10
5.8582244148550711
20
5.3285624624743511
30
0
10
5.8679910158415618
20
5.368908188186988
30
0
10
5.8774106061311828
20
5.409468515885349
30
0
10
5.8864835270662663
20
5.4502395525842129
30
0
10
5.8952104592753738
20
5.4912170925353943
30
0
10
5.9035922628840378
20
5.5323967875245295
30
0
10
5.9116298586784737
20
5.5737742765587273
30
0
10
5.9193241041837519
20
5.6153453193713361
30
0
10
5.9266756506206972
20
5.6571059564257817
30
0
10
5.9336849469066122
20
5.6990524878244662
30
0
10
5.9403523051159759
20
5.7411813787466084
30
0
10
5.9466779499521225
20
5.7834891838463385
30
0
10
5.9526620730044915
20
5.8259724713709646
30
0
10
5.9583048981111695
20
5.8686277240354459
30
0
10
5.9636066930225038
20
5.9114513538641091
30
0
10
5.9685677487590336
20
5.9544397821231012
30
0
10
5.9731883716642651
20
5.997589502647882
30
0
10
5.9774688718902116
20
6.0408971408205661
30
0
10
5.9814095580178117
20
6.0843595381244073
30
0
10
5.9850107234360301
20
6.127973725852951
30
0
10
5.9882726271390148
20
6.1717367975275135
30
0
10
5.9911954768301392
20
6.2156458013047144
30
0
10
5.9937794165535045
20
6.259697638650171
30
0
10
5.9960245074934839
20
6.3038889215451723
30
0
10
5.9979307392612888
20
6.3482159753369558
30
0
10
5.9994980909377018
20
6.3926750936476182
30
0
10
6.0007265850623988
20
6.4372627391463419
30
0
10
6.0016163424863755
20
6.4819757564094402
30
0
10
6.0021676500992864
20
6.5268116000785383
30
0
10
6.0023809934545991
20
6.5717684924138089
30
0
10
6.002256932152596
20
6.6168452650386786
30
0
10
6.0018881866558926
20
6.6530020506650667
30
0
10
6.0014602164936584
20
6.6801731474580359
30
0
10
6.0011076316360468
20
6.6983109852815028
30
0
10
6.000914521351528
20
6.7073858475140948
30
0
0
ARC
5
112
100
AcDbEntity
8
0
100
AcDbCircle
10
0
20
0
30
0
40
9
210
0
220
-0
230
1
100
AcDbArc
50
48.181873563395357
51
54.675269293747434
0
SPLINE
5
113
100
AcDbEntity
8
0
100
AcDbSpline
70
4
71
5
72
81
73
75
74
0
42
0.000000001
43
0.0000000001
44
0.0000000001
40
-1
40
-1
40
-1
40
-1
40
-1
40
-1
40
-0.9857142857142841
40
-0.97142857142856986
40
-0.95714285714285563
40
-0.94285714285714139
40
-0.92857142857142716
40
-0.91428571428571292
40
-0.89999999999999869
40
-0.88571428571428445
40
-0.87142857142857022
40
-0.85714285714285599
40
-0.84285714285714175
40
-0.82857142857142752
40
-0.81428571428571328
40
-0.79999999999999905
40
-0.78571428571428481
40
-0.77142857142857058
40
-0.75714285714285634
40
-0.74285714285714211
40
-0.72857142857142787
40
-0.71428571428571364
40
-0.6999999999999994
40
-0.68571428571428517
40
-0.67142857142857093
40
-0.6571428571428567
40
-0.64285714285714246
40
-0.62857142857142823
40
-0.61428571428571399
40
-0.59999999999999976
40
-0.58571428571428552
40
-0.57142857142857129
40
-0.55714285714285705
40
-0.54285714285714282
40
-0.52857142857142858
40
-0.51428571428571435
40
-0.50000000000000011
40
-0.48571428571428582
40
-0.47142857142857153
40
-0.45714285714285724
40
-0.44285714285714295
40
-0.42857142857142866
40
-0.41428571428571437
40
-0.40000000000000008
40
-0.38571428571428579
40
-0.3714285714285715
40
-0.35714285714285721
40
-0.34285714285714292
40
-0.32857142857142863
40
-0.31428571428571433
40
-0.30000000000000004
40
-0.28571428571428575
40
-0.27142857142857146
40
-0.25714285714285717
40
-0.24285714285714291
40
-0.22857142857142862
40
-0.21428571428571433
40
-0.20000000000000004
40
-0.18571428571428575
40
-0.17142857142857146
40
-0.15714285714285717
40
-0.14285714285714288
40
-0.12857142857142859
40
-0.1142857142857143
40
-0.10000000000000001
40
-0.085714285714285715
40
-0.071428571428571425
40
-0.057142857142857141
40
-0.042857142857142858
40
-0.028571428571428571
40
-0.014285714285714285
40
0
40
0
40
0
40
0
40
0
40
0
41
1
41
1
41
1
41
1
41
1
41
1
41
1
41
1
41
1
41
1
41
1
41
1
41
1
41
1
41
1
41
1
41
1
41
1
41
1
41
1
41
1
41
1
41
1
41
1
41
1
41
1
41
1
41
1
41
1
41
1
41
1
41
1
41
1
41
1
41
1
41
1
41
1
41
1
41
1
41
1
41
1
41
1
41
1
41
1
41
1
41
1
41
1
41
1
41
1
41
1
41
1
41
1
41
1
41
1
41
1
41
1
41
1
41
1
41
1
41
1
41
1
41
1
41
1
41
1
41
1
41
1
41
1
41
1
41
1
41
1
41
1
41
1
41
1
41
1
41
1
10
5.2038885766316767
20
7.3429928286770343
30
0
10
5.1949982690610508
20
7.3411617504640194
30
0
10
5.1772367271885109
20
7.3374694466706911
30
0
10
5.1506516342002451
20
7.3318405488924459
30
0
10
5.1153193210859875
20
7.3241544074632312
30
0
10
5.0713451110261376
20
7.3142448327451524
30
0
10
5.0275628552062068
20
7.3040329886829616
30
0
10
4.983973817231905
20
7.2935185896949708
30
0
10
4.9405798383172215
20
7.2827015579858747
30
0
10
4.8973834638420346
20
7.2715821802544669
30
0
10
4.8543877970088491
20
7.2601610408275654
30
0
10
4.8115962914757624
20
7.2484389048607643
30
0
10
4.7690125560390841
20
7.2364166174954683
30
0
10
4.7266401709086345
20
7.2240950065471621
30
0
10
4.6844824527732296
20
7.2114747662705785
30
0
10
4.6425424545333467
20
7.1985564457218683
30
0
10
4.6008231002418452
20
7.1853404992521606
30
0
10
4.559327281137536
20
7.1718273211131853
30
0
10
4.5180579567803933
20
7.158017285871181
30
0
10
4.4770182751622709
20
7.1439107955180772
30
0
10
4.4362115953076566
20
7.1295082986011407
30
0
10
4.3956414036420641
20
7.1148102766525421
30
0
10
4.355311253931184
20
7.0998172422914383
30
0
10
4.315224703772703
20
7.084529732880239
30
0
10
4.275385232074643
20
7.0689483128624966
30
0
10
4.2357962271811527
20
7.0530735590891345
30
0
10
4.1964610980572816
20
7.0369060191521813
30
0
10
4.1573833603415808
20
7.0204461753731362
30
0
10
4.1185667210609855
20
7.003694413394661
30
0
10
4.0800151853884898
20
6.9866509794031728
30
0
10
4.041733078095687
20
6.9693159809216425
30
0
10
4.0037248557304785
20
6.9516894906620958
30
0
10
3.9659949488843536
20
6.9337716376328657
30
0
10
3.9285476093127114
20
6.9155626941371837
30
0
10
3.8913867083513236
20
6.89706319366159
30
0
10
3.8545156914032095
20
6.8782739548407346
30
0
10
3.8179380313928855
20
6.859195805177853
30
0
10
3.7816576150221688
20
6.8398293456299939
30
0
10
3.7456791141603718
20
6.8201747253816327
30
0
10
3.7100084557671398
20
6.800231356336857
30
0
10
3.6746529626426261
20
6.7799978309377202
30
0
10
3.6396203497612776
20
6.7594725448623718
30
0
10
3.6049178536241309
20
6.7386542386620825
30
0
10
3.5705514079795697
20
6.7175425107746136
30
0
10
3.536524557085285
20
6.696138494078383
30
0
10
3.5028382133338631
20
6.6744450088922633
30
0
10
3.4694931097983961
20
6.652465044251179
30
0
10
3.4364919337769573
20
6.6302004374545707
30
0
10
3.4038413051439176
20
6.6076506506744801
30
0
10
3.3715544865448321
20
6.5848110931395514
30
0
10
3.3396516749534877
20
6.5616729468134105
30
0
10
3.3081543216680513
20
6.5382267037984914
30
0
10
3.2770801946800985
20
6.5144652423742011
30
0
10
3.2464389650673926
20
6.4903865787123092
30
0
10
3.2162255864159488
20
6.4659979882296632
30
0
10
3.186421262895359
20
6.4413154186804045
30
0
10
3.1570072707623393
20
6.416354929014366
30
0
10
3.1279769706395992
20
6.3911252499322551
30
0
10
3.099346263600685
20
6.3656213132620563
30
0
10
3.071170296774083
20
6.3398138968820845
30
0
10
3.0435365313123848
20
6.3136539645460505
30
0
10
3.01653310853218
20
6.287092379276463
30
0
10
2.9902210442868564
20
6.2600972084357318
30
0
10
2.9646106863936286
20
6.2326684438874524
30
0
10
2.9396217267514499
20
6.2048627865563528
30
0
10
2.9151182341659023
20
6.1767724682907978
30
0
10
2.8909872699260415
20
6.1484773329345277
30
0
10
2.8672082385545616
20
6.120002663725308
30
0
10
2.8439173090574372
20
6.0912798801358647
30
0
10
2.8214970659787477
20
6.0620921660861269
30
0
10
2.8004821437070304
20
6.0321302427747288
30
0
10
2.7852311715420641
20
6.0072868027830415
30
0
10
2.7748655597642191
20
5.9880487611487805
30
0
10
2.7684567966139291
20
5.9749396721778867
30
0
10
2.7653778287919617
20
5.9683141941791913
30
0
0
LINE
5
114
100
AcDbEntity
8
0
100
AcDbLine
10
2.7653778287919617
20
5.9683141941791904
30
0
11
2.2930119414275101
21
4.95185349207655
31
0
0
ARC
5
115
100
AcDbEntity
8
0
100
AcDbCircle
10
1.3861521859033084
20
5.3732860297508331
30
0
40
1.0000000000000002
210
0
220
0
230
1
100
AcDbArc
50
255.53472738510305
51
335.07493733854545
0
ARC
5
116
100
AcDbEntity
8
0
100
AcDbCircle
10
0
20
0
30
0
40
4.549199999999999
210
0
220
-0
230
1
100
AcDbArc
50
75.534727385103082
51
78.750986900611224
0
ARC
5
117
100
AcDbEntity
8
0
100
AcDbCircle
10
1.0825014682626626
20
5.4425923245461973
30
0
40
1
210
0
220
0
230
1
100
AcDbArc
50
179.21077694716905
51
258.75098690061117
0
LINE
5
118
100
AcDbEntity
8
0
100
AcDbLine
10
0.082596335749839239
20
5.45636642976263
30
0
11
0.098035147069720219
21
6.5771177552446156
31
0
0
SPLINE
5
119
100
AcDbEntity
8
0
100
AcDbSpline
70
4
71
5
72
81
73
75
74
0
42
0.000000001
43
0.0000000001
44
0.0000000001
40
0
40
0
40
0
40
0
40
0
40
0
40
0.014285714285714285
40
0.028571428571428571
40
0.042857142857142858
40
0.057142857142857141
40
0.071428571428571425
40
0.085714285714285715
40
0.10000000000000001
40
0.1142857142857143
40
0.12857142857142859
40
0.14285714285714288
40
0.15714285714285717
40
0.17142857142857146
40
0.18571428571428575
40
0.20000000000000004
40
0.21428571428571433
40
0.22857142857142862
40
0.24285714285714291
40
0.25714285714285717
40
0.27142857142857146
40
0.28571428571428575
40
0.30000000000000004
40
0.31428571428571433
40
0.32857142857142863
40
0.34285714285714292
40
0.35714285714285721
40
0.3714285714285715
40
0.38571428571428579
40
0.40000000000000008
40
0.41428571428571437
40
0.42857142857142866
40
0.44285714285714295
40
0.45714285714285724
40
0.47142857142857153
40
0.48571428571428582
40
0.50000000000000011
40
0.51428571428571435
40
0.52857142857142858
40
0.54285714285714282
40
0.55714285714285705
40
0.57142857142857129
40
0.58571428571428552
40
0.59999999999999976
40
0.61428571428571399
40
0.62857142857142823
40
0.64285714285714246
40
0.6571428571428567
40
0.67142857142857093
40
0.68571428571428517
40
0.6999999999999994
40
0.71428571428571364
40
0.72857142857142787
40
0.74285714285714211
40
0.75714285714285634
40
0.77142857142857058
40
0.78571428571428481
40
0.79999999999999905
40
0.81428571428571328
40
0.82857142857142752
40
0.84285714285714175
40
0.85714285714285599
40
0.87142857142857022
40
0.88571428571428445
40
0.89999999999999869
40
0.91428571428571292
40
0.92857142857142716
40
0.94285714285714139
40
0.95714285714285563
40
0.97142857142856986
40
0.9857142857142841
40
1
40
1
40
1
40
1
40
1
40
1
41
1
41
1
41
1
41
1
41
1
41
1
41
1
41
1
41
1
41
1
41
1
41
1
41
1
41
1
41
1
41
1
41
1
41
1
41
1
41
1
41
1
41
1
41
1
41
1
41
1
41
1
41
1
41
1
41
1
41
1
41
1
41
1
41
1
41
1
41
1
41
1
41
1
41
1
41
1
41
1
41
1
41
1
41
1
41
1
41
1
41
1
41
1
41
1
41
1
41
1
41
1
41
1
41
1
41
1
41
1
41
1
41
1
41
1
41
1
41
1
41
1
41
1
41
1
41
1
41
1
41
1
41
1
41
1
41
1
41
1
41
1
41
1
41
1
41
1
41
1
10
0.098035147069720219
20
6.5771177552446156
30
0
10
0.098135780084370183
20
6.5844230187276311
30
0
10
0.098049504543314681
20
6.5990145578957353
30
0
10
0.097057484472286293
20
6.6208449048840281
30
0
10
0.094095997982540647
20
6.6498452197162532
30
0
10
0.088162198571837269
20
6.6859580128948188
30
0
10
0.080626332055327432
20
6.7219830134777778
30
0
10
0.072104278415560941
20
6.7579669028691018
30
0
10
0.063034807387614689
20
6.7939390283944787
30
0
10
0.053570358982248656
20
6.8299020974564648
30
0
10
0.043681407329853039
20
6.8658422666876584
30
0
10
0.033231555222420495
20
6.9017366015407475
30
0
10
0.022058314986364569
20
6.9375609823266258
30
0
10
0.010064729913574766
20
6.9732991676564957
30
0
10
-0.0027398734045389062
20
7.0089466751113774
30
0
10
-0.016286666531424854
20
7.044505801216995
30
0
10
-0.030474917149339309
20
7.0799825737763245
30
0
10
-0.045204549452752818
20
7.1153832249487508
30
0
10
-0.060413198592323136
20
7.1507101555138606
30
0
10
-0.076084339198393969
20
7.1859610325196126
30
0
10
-0.092227741252275952
20
7.2211308705943118
30
0
10
-0.10886724198095693
20
7.2562133250518599
30
0
10
-0.12602669531367905
20
7.2912021826674378
30
0
10
-0.14371380459740235
20
7.3260930780739351
30
0
10
-0.16191899574133251
20
7.3608836025154449
30
0
10
-0.18062317033945452
20
7.3955724631978823
30
0
10
-0.19980287611779807
20
7.4301589190715012
30
0
10
-0.21943609022916033
20
7.4646421517740427
30
0
10
-0.23950887158175005
20
7.4990205430013344
30
0
10
-0.26001502252004344
20
7.5332917050637782
30
0
10
-0.2809529190464885
20
7.5674528166368402
30
0
10
-0.30232319757870219
20
7.6015008666246153
30
0
10
-0.32412625976986437
20
7.6354329181352956
30
0
10
-0.34635940389166286
20
7.6692464126849131
30
0
10
-0.36901710959020423
20
7.7029391375116107
30
0
10
-0.39209231054902233
20
7.7365090875393534
30
0
10
-0.41557735972715754
20
7.7699543608102273
30
0
10
-0.43946504879314202
20
7.8032730482462052
30
0
10
-0.4637497825756004
20
7.8364631080919871
30
0
10
-0.48842741659444799
20
7.8695223788888757
30
0
10
-0.51349470979783463
20
7.9024486328165642
30
0
10
-0.53894889222909292
20
7.9352396174749256
30
0
10
-0.5647872148796258
20
7.967893100395278
30
0
10
-0.59100642126756131
20
8.0004069212132194
30
0
10
-0.61760279884159563
20
8.0327789898244841
30
0
10
-0.64457241175134761
20
8.0650072676349804
30
0
10
-0.67191127633446535
20
8.0970897555097672
30
0
10
-0.69961554275885118
20
8.1290244801259259
30
0
10
-0.72768170930461162
20
8.1608094818977275
30
0
10
-0.75610660337996249
20
8.1924428049544282
30
0
10
-0.78488726677547738
20
8.2239224893609748
30
0
10
-0.8140208657110497
20
8.2552465626594937
30
0
10
-0.84350459768032415
20
8.2864130349778353
30
0
10
-0.87333557319835675
20
8.3174198883283097
30
0
10
-0.90351082013320005
20
8.3482650949803254
30
0
10
-0.93402735906971923
20
8.378946651158838
30
0
10
-0.96488225777604308
20
8.4094626103150176
30
0
10
-0.99607268449304998
20
8.4398111108956293
30
0
10
-1.0275959773958425
20
8.4699904248559896
30
0
10
-1.0594496325312224
20
8.499998930618629
30
0
10
-1.0916312160424455
20
8.5298350185135021
30
0
10
-1.1241382905844852
20
8.5594970104854067
30
0
10
-1.1569683438155887
20
8.588983087247966
30
0
10
-1.1901186887282287
20
8.618291184241933
30
0
10
-1.2235864588404934
20
8.6474190022365054
30
0
10
-1.2573687694323712
20
8.6763642139875508
30
0
10
-1.2914628408540052
20
8.7051246316276139
30
0
10
-1.3258661307464537
20
8.7336983822673151
30
0
10
-1.3605764701956324
20
8.7620841032010262
30
0
10
-1.3955921665709414
20
8.790281065647088
30
0
10
-1.4309119574937217
20
8.8182889786477361
30
0
10
-1.4594103798579552
20
8.8405440689154418
30
0
10
-1.4809204337755375
20
8.8571503701247813
30
0
10
-1.4953209994728345
20
8.8681834650935603
30
0
10
-1.5025364147583655
20
8.8736905694488293
30
0
0
ARC
5
120
100
AcDbEntity
8
0
100
AcDbCircle
10
0
20
0
30
0
40
9.0000000000000018
210
0
220
0
230
1
100
AcDbArc
50
99.610444991966773
51
106.10384072231888
0
SPLINE
5
121
100
AcDbEntity
8
0
100
AcDbSpline
70
4
71
5
72
81
73
75
74
0
42
0.000000001
43
0.0000000001
44
0.0000000001
40
-1
40
-1
40
-1
40
-1
40
-1
40
-1
40
-0.9857142857142841
40
-0.97142857142856986
40
-0.95714285714285563
40
-0.94285714285714139
40
-0.92857142857142716
40
-0.91428571428571292
40
-0.89999999999999869
40
-0.88571428571428445
40
-0.87142857142857022
40
-0.85714285714285599
40
-0.84285714285714175
40
-0.82857142857142752
40
-0.81428571428571328
40
-0.79999999999999905
40
-0.78571428571428481
40
-0.77142857142857058
40
-0.75714285714285634
40
-0.74285714285714211
40
-0.72857142857142787
40
-0.71428571428571364
40
-0.6999999999999994
40
-0.68571428571428517
40
-0.67142857142857093
40
-0.6571428571428567
40
-0.64285714285714246
40
-0.62857142857142823
40
-0.61428571428571399
40
-0.59999999999999976
40
-0.58571428571428552
40
-0.57142857142857129
40
-0.55714285714285705
40
-0.54285714285714282
40
-0.52857142857142858
40
-0.51428571428571435
40
-0.50000000000000011
40
-0.48571428571428582
40
-0.47142857142857153
40
-0.45714285714285724
40
-0.44285714285714295
40
-0.42857142857142866
40
-0.41428571428571437
40
-0.40000000000000008
40
-0.38571428571428579
40
-0.3714285714285715
40
-0.35714285714285721
40
-0.34285714285714292
40
-0.32857142857142863
40
-0.31428571428571433
40
-0.30000000000000004
40
-0.28571428571428575
40
-0.27142857142857146
40
-0.25714285714285717
40
-0.24285714285714291
40
-0.22857142857142862
40
-0.21428571428571433
40
-0.20000000000000004
40
-0.18571428571428575
40
-0.17142857142857146
40
-0.15714285714285717
40
-0.14285714285714288
40
-0.12857142857142859
40
-0.1142857142857143
40
-0.10000000000000001
40
-0.085714285714285715
40
-0.071428571428571425
40
-0.057142857142857141
40
-0.042857142857142858
40
-0.028571428571428571
40
-0.014285714285714285
40
0
40
0
40
0
40
0
40
0
40
0
41
1
41
1
41
1
41
1
41
1
41
1
41
1
41
1
41
1
41
1
41
1
41
1
41
1
41
1
41
1
41
1
41
1
41
1
41
1
41
1
41
1
41
1
41
1
41
1
41
1
41
1
41
1
41
1
41
1
41
1
41
1
41
1
41
1
41
1
41
1
41
1
41
1
41
1
41
1
41
1
41
1
41
1
41
1
41
1
41
1
41
1
41
1
41
1
41
1
41
1
41
1
41
1
41
1
41
1
41
1
41
1
41
1
41
1
41
1
41
1
41
1
41
1
41
1
41
1
41
1
41
1
41
1
41
1
41
1
41
1
41
1
41
1
41
1
41
1
41
1
10
-2.4964115114576662
20
8.6468450642683337
30
0
10
-2.5005229329695418
20
8.6387526833285744
30
0
10
-2.5087103138438982
20
8.6225640369549446
30
0
10
-2.5208849987089206
20
8.5982694139319378
30
0
10
-2.5369050682636791
20
8.5658532683940329
30
0
10
-2.5565749222883256
20
8.5252943277751019
30
0
10
-2.575888771112548
20
8.4846970011706624
30
0
10
-2.5948456036143162
20
8.4440620984501731
30
0
10
-2.6134442109926685
20
8.4033910106281144
30
0
10
-2.6316832303793491
20
8.3626859065163863
30
0
10
-2.6495611838043489
20
8.3219495766182163
30
0
10
-2.6670765161697929
20
8.2811851981789424
30
0
10
-2.6842276381861465
20
8.2403961196061815
30
0
10
-2.7010129648413033
20
8.1995856561551967
30
0
10
-2.7174309710038198
20
8.1587568337784653
30
0
10
-2.7334801824907649
20
8.1179123816606076
30
0
10
-2.7491591314110186
20
8.0770548692015023
30
0
10
-2.7644663233450792
20
8.0361868026746031
30
0
10
-2.7794002058851675
20
7.9953107294953041
30
0
10
-2.793959130580407
20
7.9544293615006119
30
0
10
-2.8081413538016631
20
7.91354560454627
30
0
10
-2.8219450782751947
20
7.8726624846599016
30
0
10
-2.8353684890461279
20
7.8317830999002203
30
0
10
-2.8484097881154375
20
7.7909105667490843
30
0
10
-2.861067247719189
20
7.7500479570511063
30
0
10
-2.8733392062595744
20
7.7091982795810852
30
0
10
-2.8852239664063335
20
7.668364540993263
30
0
10
-2.8967197132888205
20
7.6275497906470768
30
0
10
-2.9078244371211182
20
7.5867571672571597
30
0
10
-2.9185358331950018
20
7.5459899556885679
30
0
10
-2.9288512891243297
20
7.505251604223365
30
0
10
-2.9387680831454865
20
7.4645456424662093
30
0
10
-2.9482835536926384
20
7.4238756148283951
30
0
10
-2.9573952627348921
20
7.3832450152444329
30
0
10
-2.9661012136304485
20
7.3426572030699297
30
0
10
-2.9743998982400024
20
7.3021153824397906
30
0
10
-2.9822897981986198
20
7.2616227845355663
30
0
10
-2.9897689600344899
20
7.2211828227936916
30
0
10
-2.9968345875218629
20
7.1807992428436762
30
0
10
-3.0034825254699449
20
7.1404763118973609
30
0
10
-3.0097071077144055
20
7.1002188775524244
30
0
10
-3.01550226973802
20
7.0600319713404591
30
0
10
-3.0208625149795285
20
7.0199204657323602
30
0
10
-3.0257838298533231
20
6.9798887495494615
30
0
10
-3.0302648902708929
20
6.9399403001421502
30
0
10
-3.0343073323788508
20
6.9000775892877293
30
0
10
-3.0379130360352042
20
6.8603030537586127
30
0
10
-3.0410817621955557
20
6.8206199401065035
30
0
10
-3.0438089629449161
20
6.7810330886273462
30
0
10
-3.0460827799494616
20
6.7415500061758529
30
0
10
-3.0478837263835561
20
6.7021809854262298
30
0
10
-3.0491909940079074
20
6.6629368696015536
30
0
10
-3.0499879366755995
20
6.6238271099568564
30
0
10
-3.0502669735489074
20
6.5848580307485358
30
0
10
-3.0500369391654267
20
6.5460302226794731
30
0
10
-3.0493220209899965
20
6.5073389338397813
30
0
10
-3.0481464484781595
20
6.4687795380089428
30
0
10
-3.0465211871506268
20
6.4303522878156265
30
0
10
-3.0444323603937629
20
6.3920664552661632
30
0
10
-3.0418227377606364
20
6.3539469364269161
30
0
10
-3.0385994500334168
20
6.3160315375809919
30
0
10
-3.0346691251641325
20
6.2783585339802448
30
0
10
-3.029968754449055
20
6.240955720065898
30
0
10
-3.0244918797683877
20
6.2038311810142623
30
0
10
-3.0183329029721735
20
6.1669574818719664
30
0
10
-3.0116486855366267
20
6.1302858529686208
30
0
10
-3.0045720680269716
20
6.0937777770867427
30
0
10
-2.9971356587445372
20
6.0574329158746743
30
0
10
-2.9892009392874614
20
6.0213149712888656
30
0
10
-2.9803598584568594
20
5.9855878773557798
30
0
10
-2.9700372732599845
20
5.9504767958934028
30
0
10
-2.960122715354967
20
5.9230634742386821
30
0
10
-2.9515446619777839
20
5.9029645898490273
30
0
10
-2.9452913619805985
20
5.8897806337694378
30
0
10
-2.9420310597320665
20
5.8832424818280913
30
0
0
LINE
5
122
100
AcDbEntity
8
0
100
AcDbLine
10
-2.9420310597320669
20
5.8832424818280913
30
0
11
-2.4418453956543513
21
4.8801790780914516
31
0
0
ARC
5
123
100
AcDbEntity
8
0
100
AcDbCircle
10
-3.3367524306299439
20
4.4339264604507322
30
0
40
1.0000000000000004
210
-0
220
0
230
1
100
AcDbArc
50
-53.036701186325509
51
26.503508767116895
0
ARC
5
124
100
AcDbEntity
8
0
100
AcDbCircle
10
0
20
0
30
0
40
4.549199999999999
210
0
220
0
230
1
100
AcDbArc
50
126.96329881367454
51
130.17955832918261
0
ARC
5
125
100
AcDbEntity
8
0
100
AcDbCircle
10
-3.5802613996101966
20
4.2397345377347895
30
0
40
1.0000000000000004
210
0
220
0
230
1
100
AcDbArc
50
230.63934837574021
51
310.17955832918273
0
LINE
5
126
100
AcDbEntity
8
0
100
AcDbLine
10
-4.2144610816591825
20
3.4665652397870717
30
0
11
-5.0810738105280064
21
4.1774128103865147
31
0
0
SPLINE
5
127
100
AcDbEntity
8
0
100
AcDbSpline
70
4
71
5
72
81
73
75
74
0
42
0.000000001
43
0.0000000001
44
0.0000000001
40
0
40
0
40
0
40
0
40
0
40
0
40
0.014285714285714285
40
0.028571428571428571
40
0.042857142857142858
40
0.057142857142857141
40
0.071428571428571425
40
0.085714285714285715
40
0.10000000000000001
40
0.1142857142857143
40
0.12857142857142859
40
0.14285714285714288
40
0.15714285714285717
40
0.17142857142857146
40
0.18571428571428575
40
0.20000000000000004
40
0.21428571428571433
40
0.22857142857142862
40
0.24285714285714291
40
0.25714285714285717
40
0.27142857142857146
40
0.28571428571428575
40
0.30000000000000004
40
0.31428571428571433
40
0.32857142857142863
40
0.34285714285714292
40
0.35714285714285721
40
0.3714285714285715
40
0.38571428571428579
40
0.40000000000000008
40
0.41428571428571437
40
0.42857142857142866
40
0.44285714285714295
40
0.45714285714285724
40
0.47142857142857153
40
0.48571428571428582
40
0.50000000000000011
40
0.51428571428571435
40
0.52857142857142858
40
0.54285714285714282
40
0.55714285714285705
40
0.57142857142857129
40
0.58571428571428552
40
0.59999999999999976
40
0.61428571428571399
40
0.62857142857142823
40
0.64285714285714246
40
0.6571428571428567
40
0.67142857142857093
40
0.68571428571428517
40
0.6999999999999994
40
0.71428571428571364
40
0.72857142857142787
40
0.74285714285714211
40
0.75714285714285634
40
0.77142857142857058
40
0.78571428571428481
40
0.79999999999999905
40
0.81428571428571328
40
0.82857142857142752
40
0.84285714285714175
40
0.85714285714285599
40
0.87142857142857022
40
0.88571428571428445
40
0.89999999999999869
40
0.91428571428571292
40
0.92857142857142716
40
0.94285714285714139
40
0.95714285714285563
40
0.97142857142856986
40
0.9857142857142841
40
1
40
1
40
1
40
1
40
1
40
1
41
1
41
1
41
1
41
1
41
1
41
1
41
1
41
1
41
1
41
1
41
1
41
1
41
1
41
1
41
1
41
1
41
1
41
1
41
1
41
1
41
1
41
1
41
1
41
1
41
1
41
1
41
1
41
1
41
1
41
1
41
1
41
1
41
1
41
1
41
1
41
1
41
1
41
1
41
1
41
1
41
1
41
1
41
1
41
1
41
1
41
1
41
1
41
1
41
1
41
1
41
1
41
1
41
1
41
1
41
1
41
1
41
1
41
1
41
1
41
1
41
1
41
1
41
1
41
1
41
1
41
1
41
1
41
1
41
1
41
1
41
1
41
1
41
1
41
1
41
1
10
-5.0810738105280064
20
4.1774128103865147
30
0
10
-5.0867225518483874
20
4.1820462457270944
30
0
10
-5.098184468467676
20
4.1910764686576663
30
0
10
-5.1158706354138488
20
4.2039118748531346
30
0
10
-5.1403904511758647
20
4.2196778920291322
30
0
10
-5.1723242332215751
20
4.2375546191026636
30
0
10
-5.2051882487544727
20
4.2541240618878096
30
0
10
-5.2386349998775454
20
4.2698968401236614
30
0
10
-5.2724138627987553
20
4.2852342955609366
30
0
10
-5.306431909458551
20
4.300257298637117
30
0
10
-5.3406967257550697
20
4.3149341338993956
30
0
10
-5.3752754230053803
20
4.3291438622600742
30
0
10
-5.4102504530846023
20
4.3427444073602457
30
0
10
-5.44566956948238
20
4.3556498390527914
30
0
10
-5.4815234526678092
20
4.3678646544179767
30
0
10
-5.5177709843087364
20
4.3794440975547575
30
0
10
-5.5543540715584641
20
4.3904706824341293
30
0
10
-5.5912151906712424
20
4.4010265371593089
30
0
10
-5.6283173348045779
20
4.4111619173944998
30
0
10
-5.665648376583662
20
4.4208882886221534
30
0
10
-5.703210509771667
20
4.430194904034888
30
0
10
-5.7410136361611812
20
4.4390591710911096
30
0
10
-5.7790677707390543
20
4.4474585661556469
30
0
10
-5.8173743034821159
20
4.4553843447474506
30
0
10
-5.8559253818011907
20
4.4628424903573745
30
0
10
-5.894708087287782
20
4.4698471286765828
30
0
10
-5.9337072183122164
20
4.4764161333942383
30
0
10
-5.9729084040324771
20
4.4825662124250956
30
0
10
-6.0123016870788568
20
4.4883072563574711
30
0
10
-6.0518813365054411
20
4.4936426220134527
30
0
10
-6.0916441339659766
20
4.4985718200183831
30
0
10
-6.1315881220907809
20
4.5030924754133412
30
0
10
-6.1717112551520383
20
4.5072024430511366
30
0
10
-6.212009848346387
20
4.5109022400393588
30
0
10
-6.252478729782589
20
4.5141948027300218
30
0
10
-6.2931119260528199
20
4.5170844056473465
30
0
10
-6.3339031822944536
20
4.5195758416373382
30
0
10
-6.3748465116090278
20
4.5216735561097963
30
0
10
-6.4159368291556751
20
4.5233806505322409
30
0
10
-6.4571698609968706
20
4.5246990175422273
30
0
10
-6.4985418445897905
20
4.5256298020728885
30
0
10
-6.5400492918973638
20
4.5261737654150398
30
0
10
-6.5816887435264704
20
4.5263316649086951
30
0
10
-6.6234564800529681
20
4.5261046996087293
30
0
10
-6.6653485526296654
20
4.5254944689459373
30
0
10
-6.7073609134569443
20
4.5245027790494312
30
0
10
-6.7494895157753234
20
4.5231314980316046
30
0
10
-6.7917304164477645
20
4.5213824054656806
30
0
10
-6.83407990012181
20
4.5192570173247946
30
0
10
-6.8765344595575186
20
4.5167565945756225
30
0
10
-6.9190907180025452
20
4.5138822280399058
30
0
10
-6.9617453664942373
20
4.5106349034487812
30
0
10
-7.004495101953764
20
4.5070155712249518
30
0
10
-7.0473365450904248
20
4.5030252322639699
30
0
10
-7.0902662574666468
20
4.498664946002819
30
0
10
-7.1332808148330651
20
4.4939357925087471
30
0
10
-7.1763768670998491
20
4.4888388506395955
30
0
10
-7.2195511932731495
20
4.483375173694343
30
0
10
-7.2628007826925423
20
4.4775457653532573
30
0
10
-7.30612280636843
20
4.4713515722487616
30
0
10
-7.349514488325239
20
4.4647934936338283
30
0
10
-7.3929729969468116
20
4.4578723888512242
30
0
10
-7.4364953434383203
20
4.4505890878223253
30
0
10
-7.4800782383405631
20
4.4429444041025752
30
0
10
-7.5237180968202679
20
4.4349391452508176
30
0
10
-7.5674113007711981
20
4.4265741156189922
30
0
10
-7.6111544065663601
20
4.4178501243118227
30
0
10
-7.654944364787001
20
4.4087679912981397
30
0
10
-7.6987787577311462
20
4.3993285626701972
30
0
10
-7.7426559602764318
20
4.3895327073919521
30
0
10
-7.7865749578627019
20
4.3793812310215854
30
0
10
-7.8217431637923243
20
4.3709760890379155
30
0
10
-7.8481377921401769
20
4.3645127111461841
30
0
10
-7.8657424189890888
20
4.3601329177146582
30
0
10
-7.8745467843979791
20
4.3579253022886322
30
0
0
ARC
5
128
100
AcDbEntity
8
0
100
AcDbCircle
10
0
20
0
30
0
40
9.0000000000000018
210
0
220
0
230
1
100
AcDbArc
50
151.03901642053825
51
157.53241215089031
0
SPLINE
5
129
100
AcDbEntity
8
0
100
AcDbSpline
70
4
71
5
72
81
73
75
74
0
42
0.000000001
43
0.0000000001
44
0.0000000001
40
-1
40
-1
40
-1
40
-1
40
-1
40
-1
40
-0.9857142857142841
40
-0.97142857142856986
40
-0.95714285714285563
40
-0.94285714285714139
40
-0.92857142857142716
40
-0.91428571428571292
40
-0.89999999999999869
40
-0.88571428571428445
40
-0.87142857142857022
40
-0.85714285714285599
40
-0.84285714285714175
40
-0.82857142857142752
40
-0.81428571428571328
40
-0.79999999999999905
40
-0.78571428571428481
40
-0.77142857142857058
40
-0.75714285714285634
40
-0.74285714285714211
40
-0.72857142857142787
40
-0.71428571428571364
40
-0.6999999999999994
40
-0.68571428571428517
40
-0.67142857142857093
40
-0.6571428571428567
40
-0.64285714285714246
40
-0.62857142857142823
40
-0.61428571428571399
40
-0.59999999999999976
40
-0.58571428571428552
40
-0.57142857142857129
40
-0.55714285714285705
40
-0.54285714285714282
40
-0.52857142857142858
40
-0.51428571428571435
40
-0.50000000000000011
40
-0.48571428571428582
40
-0.47142857142857153
40
-0.45714285714285724
40
-0.44285714285714295
40
-0.42857142857142866
40
-0.41428571428571437
40
-0.40000000000000008
40
-0.38571428571428579
40
-0.3714285714285715
40
-0.35714285714285721
40
-0.34285714285714292
40
-0.32857142857142863
40
-0.31428571428571433
40
-0.30000000000000004
40
-0.28571428571428575
40
-0.27142857142857146
40
-0.25714285714285717
40
-0.24285714285714291
40
-0.22857142857142862
40
-0.21428571428571433
40
-0.20000000000000004
40
-0.18571428571428575
40
-0.17142857142857146
40
-0.15714285714285717
40
-0.14285714285714288
40
-0.12857142857142859
40
-0.1142857142857143
40
-0.10000000000000001
40
-0.085714285714285715
40
-0.071428571428571425
40
-0.057142857142857141
40
-0.042857142857142858
40
-0.028571428571428571
40
-0.014285714285714285
40
0
40
0
40
0
40
0
40
0
40
0
41
1
41
1
41
1
41
1
41
1
41
1
41
1
41
1
41
1
41
1
41
1
41
1
41
1
41
1
41
1
41
1
41
1
41
1
41
1
41
1
41
1
41
1
41
1
41
1
41
1
41
1
41
1
41
1
41
1
41
1
41
1
41
1
41
1
41
1
41
1
41
1
41
1
41
1
41
1
41
1
41
1
41
1
41
1
41
1
41
1
41
1
41
1
41
1
41
1
41
1
41
1
41
1
41
1
41
1
41
1
41
1
41
1
41
1
41
1
41
1
41
1
41
1
41
1
41
1
41
1
41
1
41
1
41
1
41
1
41
1
41
1
41
1
41
1
41
1
41
1
10
-8.3168628139048799
20
3.4394466029706305
30
0
10
-8.3130993651018485
20
3.4311866472062533
30
0
10
-8.3055473201874985
20
3.4146920391598696
30
0
10
-8.2941438109076024
20
3.3900260375484201
30
0
10
-8.2787881977782636
20
3.3572899066607302
30
0
10
-8.2593418944952486
20
3.3166233096786146
30
0
10
-8.2396436142284042
20
3.2762111154996134
30
0
10
-8.2196933597348973
20
3.2360546195961097
30
0
10
-8.1994914648785677
20
3.1961556343300979
30
0
10
-8.1790387755703797
20
3.1565165774669861
30
0
10
-8.1583365520143794
20
3.1171403443805628
30
0
10
-8.1373863086933333
20
3.0780301318753693
30
0
10
-8.1161896725919185
20
3.0391892702060019
30
0
10
-8.094748247442185
20
3.0006210656126724
30
0
10
-8.0730634481251435
20
2.9623285971416702
30
0
10
-8.0511364892652306
20
2.9243147189743972
30
0
10
-8.028968464485013
20
2.8865821807489667
30
0
10
-8.006560401512667
20
2.8491337134855304
30
0
10
-7.9839133240873261
20
2.811972119192887
30
0
10
-7.9610283246162261
20
2.7751003774845433
30
0
10
-7.9379065878538864
20
2.7385216633560718
30
0
10
-7.9145493590621232
20
2.7022392686700316
30
0
10
-7.8909579287949185
20
2.6662565440232955
30
0
10
-7.8671336125818456
20
2.630576838242761
30
0
10
-7.8430777348445417
20
2.5952034174124576
30
0
10
-7.8187916119485781
20
2.5601394565622666
30
0
10
-7.7942765363227906
20
2.5253881573366761
30
0
10
-7.7695337604990486
20
2.4909528399032062
30
0
10
-7.744564485342246
20
2.4568370325323254
30
0
10
-7.7193698421012211
20
2.4230445851973452
30
0
10
-7.6939508979553359
20
2.3895796903126936
30
0
10
-7.6683087154687781
20
2.3564466765113639
30
0
10
-7.6424444063147252
20
2.3236498345936134
30
0
10
-7.6163591820737828
20
2.2911932491212852
30
0
10
-7.5900544243101189
20
2.2590805756557581
30
0
10
-7.5635316978078029
20
2.2273149910532584
30
0
10
-7.5367925821212456
20
2.1958996970280382
30
0
10
-7.5098385280127609
20
2.1648383491086647
30
0
10
-7.4826707205151832
20
2.1341354688342635
30
0
10
-7.4552899051499901
20
2.103796965426878
30
0
10
-7.4276963391259798
20
2.0738302912998812
30
0
10
-7.3998901750883173
20
2.0442433249924017
30
0
10
-7.3718717954382553
20
2.0150434018249919
30
0
10
-7.3436421290647864
20
1.9862363961305818
30
0
10
-7.3152030691142382
20
1.9578255112157557
30
0
10
-7.2865575682206476
20
1.9298110090175258
30
0
10
-7.2577087036017032
20
1.9021929391064665
30
0
10
-7.2286588644719885
20
1.8749735125668914
30
0
10
-7.1994089995486448
20
1.8481593029770802
30
0
10
-7.1699575843768129
20
1.8217642620031014
30
0
10
-7.1403005162561728
20
1.7958100424361334
30
0
10
-7.1104332990349031
20
1.7703196734517559
30
0
10
-7.0803529432988928
20
1.7453120622928182
30
0
10
-7.050059666975887
20
1.720797079006283
30
0
10
-7.0195594401400898
20
1.6967681847697489
30
0
10
-6.9888636282364116
20
1.6732035062943709
30
0
10
-6.9579837211584401
20
1.6500812158276874
30
0
10
-6.926926753309556
20
1.6273928976917822
30
0
10
-6.8956913219091334
20
1.6051551820614594
30
0
10
-6.8642612088856225
20
1.5834283359453658
30
0
10
-6.8326080693711688
20
1.5623085392537193
30
0
10
-6.8007036116429829
20
1.5418926574223999
30
0
10
-6.768530280986047
20
1.5222472821903028
30
0
10
-6.7360903720739094
20
1.5033825037437789
30
0
10
-6.7034212939870841
20
1.4852074103308204
30
0
10
-6.6705827185925948
20
1.4675689553188107
30
0
10
-6.6376273566548853
20
1.4503392646794058
30
0
10
-6.6045752745833148
20
1.433492633257236
30
0
10
-6.5713899117619956
20
1.4171770766199787
30
0
10
-6.5379450212127281
20
1.4018138332350603
30
0
10
-6.5040580457428732
20
1.3879929540984115
30
0
10
-6.4764438220904736
20
1.3786525411165154
30
0
10
-6.4553815527116818
20
1.3728276838593998
30
0
10
-6.4411750520089752
20
1.3694966485027391
30
0
10
-6.4340305537811346
20
1.3679691843845709
30
0
0
LINE
5
130
100
AcDbEntity
8
0
100
AcDbLine
10
-6.4340305537811338
20
1.3679691843845709
30
0
11
-5.3379433452398946
21
1.1336302807922021
31
0
0
ARC
5
131
100
AcDbEntity
8
0
100
AcDbCircle
10
-5.5470144095535314
20
0.15572983081441158
30
0
40
1
210
-0
220
0
230
1
100
AcDbArc
50
-1.6081297577539297
51
77.9320801956883
0
ARC
5
132
100
AcDbEntity
8
0
100
AcDbCircle
10
0
20
0
30
0
40
4.5491999999999999
210
0
220
0
230
1
100
AcDbArc
50
178.39187024224606
51
181.60812975775394
0
ARC
5
133
100
AcDbEntity
8
0
100
AcDbCircle
10
-5.5470144095535314
20
-0.15572983081441158
30
0
40
1.0000000000000004
210
-0
220
0
230
1
100
AcDbArc
50
-77.9320801956883
51
1.6081297577539273
0
LINE
5
134
100
AcDbEntity
8
0
100
AcDbLine
10
-5.3379433452398946
20
-1.1336302807922016
30
0
11
-6.4340305537811338
21
-1.3679691843845694
31
0
0
SPLINE
5
135
100
AcDbEntity
8
0
100
AcDbSpline
70
4
71
5
72
81
73
75
74
0
42
0.000000001
43
0.0000000001
44
0.0000000001
40
0
40
0
40
0
40
0
40
0
40
0
40
0.014285714285714285
40
0.028571428571428571
40
0.042857142857142858
40
0.057142857142857141
40
0.071428571428571425
40
0.085714285714285715
40
0.10000000000000001
40
0.1142857142857143
40
0.12857142857142859
40
0.14285714285714288
40
0.15714285714285717
40
0.17142857142857146
40
0.18571428571428575
40
0.20000000000000004
40
0.21428571428571433
40
0.22857142857142862
40
0.24285714285714291
40
0.25714285714285717
40
0.27142857142857146
40
0.28571428571428575
40
0.30000000000000004
40
0.31428571428571433
40
0.32857142857142863
40
0.34285714285714292
40
0.35714285714285721
40
0.3714285714285715
40
0.38571428571428579
40
0.40000000000000008
40
0.41428571428571437
40
0.42857142857142866
40
0.44285714285714295
40
0.45714285714285724
40
0.47142857142857153
40
0.48571428571428582
40
0.50000000000000011
40
0.51428571428571435
40
0.52857142857142858
40
0.54285714285714282
40
0.55714285714285705
40
0.57142857142857129
40
0.58571428571428552
40
0.59999999999999976
40
0.61428571428571399
40
0.62857142857142823
40
0.64285714285714246
40
0.6571428571428567
40
0.67142857142857093
40
0.68571428571428517
40
0.6999999999999994
40
0.71428571428571364
40
0.72857142857142787
40
0.74285714285714211
40
0.75714285714285634
40
0.77142857142857058
40
0.78571428571428481
40
0.79999999999999905
40
0.81428571428571328
40
0.82857142857142752
40
0.84285714285714175
40
0.85714285714285599
40
0.87142857142857022
40
0.88571428571428445
40
0.89999999999999869
40
0.91428571428571292
40
0.92857142857142716
40
0.94285714285714139
40
0.95714285714285563
40
0.97142857142856986
40
0.9857142857142841
40
1
40
1
40
1
40
1
40
1
40
1
41
1
41
1
41
1
41
1
41
1
41
1
41
1
41
1
41
1
41
1
41
1
41
1
41
1
41
1
41
1
41
1
41
1
41
1
41
1
41
1
41
1
41
1
41
1
41
1
41
1
41
1
41
1
41
1
41
1
41
1
41
1
41
1
41
1
41
1
41
1
41
1
41
1
41
1
41
1
41
1
41
1
41
1
41
1
41
1
41
1
41
1
41
1
41
1
41
1
41
1
41
1
41
1
41
1
41
1
41
1
41
1
41
1
41
1
41
1
41
1
41
1
41
1
41
1
41
1
41
1
41
1
41
1
41
1
41
1
41
1
41
1
41
1
41
1
41
1
41
1
10
-6.4340305537811338
20
-1.3679691843845694
30
0
10
-6.4411750520089752
20
-1.3694966485027373
30
0
10
-6.4553815527116818
20
-1.372827683859398
30
0
10
-6.4764438220904728
20
-1.3786525411165131
30
0
10
-6.5040580457428723
20
-1.3879929540984093
30
0
10
-6.5379450212127281
20
-1.4018138332350585
30
0
10
-6.5713899117619956
20
-1.4171770766199765
30
0
10
-6.6045752745833148
20
-1.4334926332572338
30
0
10
-6.6376273566548853
20
-1.4503392646794042
30
0
10
-6.6705827185925948
20
-1.4675689553188085
30
0
10
-6.7034212939870841
20
-1.4852074103308188
30
0
10
-6.7360903720739094
20
-1.5033825037437767
30
0
10
-6.768530280986047
20
-1.522247282190301
30
0
10
-6.800703611642982
20
-1.5418926574223977
30
0
10
-6.8326080693711679
20
-1.562308539253717
30
0
10
-6.8642612088856216
20
-1.583428335945364
30
0
10
-6.8956913219091334
20
-1.6051551820614571
30
0
10
-6.9269267533095551
20
-1.62739289769178
30
0
10
-6.9579837211584392
20
-1.6500812158276856
30
0
10
-6.9888636282364116
20
-1.6732035062943686
30
0
10
-7.0195594401400898
20
-1.6967681847697467
30
0
10
-7.050059666975887
20
-1.7207970790062808
30
0
10
-7.0803529432988928
20
-1.745312062292816
30
0
10
-7.1104332990349022
20
-1.7703196734517537
30
0
10
-7.1403005162561728
20
-1.7958100424361312
30
0
10
-7.169957584376812
20
-1.8217642620030996
30
0
10
-7.199408999548643
20
-1.848159302977078
30
0
10
-7.2286588644719876
20
-1.8749735125668898
30
0
10
-7.2577087036017023
20
-1.9021929391064643
30
0
10
-7.2865575682206458
20
-1.9298110090175236
30
0
10
-7.3152030691142382
20
-1.9578255112157534
30
0
10
-7.3436421290647864
20
-1.9862363961305796
30
0
10
-7.3718717954382553
20
-2.0150434018249896
30
0
10
-7.3998901750883173
20
-2.0442433249924004
30
0
10
-7.4276963391259798
20
-2.0738302912998789
30
0
10
-7.4552899051499892
20
-2.1037969654268762
30
0
10
-7.4826707205151832
20
-2.1341354688342613
30
0
10
-7.5098385280127609
20
-2.1648383491086625
30
0
10
-7.5367925821212456
20
-2.195899697028036
30
0
10
-7.563531697807802
20
-2.2273149910532561
30
0
10
-7.5900544243101189
20
-2.2590805756557559
30
0
10
-7.6163591820737828
20
-2.2911932491212834
30
0
10
-7.6424444063147252
20
-2.3236498345936112
30
0
10
-7.6683087154687781
20
-2.3564466765113616
30
0
10
-7.6939508979553359
20
-2.3895796903126914
30
0
10
-7.7193698421012202
20
-2.423044585197343
30
0
10
-7.744564485342246
20
-2.4568370325323228
30
0
10
-7.7695337604990486
20
-2.4909528399032039
30
0
10
-7.7942765363227897
20
-2.5253881573366739
30
0
10
-7.8187916119485781
20
-2.5601394565622644
30
0
10
-7.8430777348445417
20
-2.5952034174124554
30
0
10
-7.8671336125818456
20
-2.6305768382427583
30
0
10
-7.8909579287949185
20
-2.6662565440232928
30
0
10
-7.9145493590621232
20
-2.7022392686700289
30
0
10
-7.9379065878538864
20
-2.7385216633560692
30
0
10
-7.9610283246162261
20
-2.7751003774845411
30
0
10
-7.9839133240873252
20
-2.8119721191928844
30
0
10
-8.006560401512667
20
-2.8491337134855281
30
0
10
-8.028968464485013
20
-2.8865821807489644
30
0
10
-8.0511364892652306
20
-2.924314718974395
30
0
10
-8.0730634481251435
20
-2.9623285971416675
30
0
10
-8.094748247442185
20
-3.0006210656126702
30
0
10
-8.1161896725919185
20
-3.0391892702059997
30
0
10
-8.1373863086933333
20
-3.0780301318753667
30
0
10
-8.1583365520143794
20
-3.1171403443805601
30
0
10
-8.1790387755703797
20
-3.1565165774669839
30
0
10
-8.1994914648785677
20
-3.1961556343300952
30
0
10
-8.2196933597348973
20
-3.2360546195961075
30
0
10
-8.2396436142284042
20
-3.2762111154996103
30
0
10
-8.2593418944952486
20
-3.3166233096786115
30
0
10
-8.2787881977782636
20
-3.357289906660728
30
0
10
-8.2941438109076024
20
-3.3900260375484184
30
0
10
-8.3055473201874968
20
-3.4146920391598674
30
0
10
-8.3130993651018485
20
-3.4311866472062515
30
0
10
-8.3168628139048799
20
-3.4394466029706283
30
0
0
ARC
5
136
100
AcDbEntity
8
0
100
AcDbCircle
10
0
20
0
30
0
40
9.0000000000000018
210
0
220
0
230
1
100
AcDbArc
50
202.46758784910961
51
208.96098357946173
0
SPLINE
5
137
100
AcDbEntity
8
0
100
AcDbSpline
70
4
71
5
72
81
73
75
74
0
42
0.000000001
43
0.0000000001
44
0.0000000001
40
-1
40
-1
40
-1
40
-1
40
-1
40
-1
40
-0.9857142857142841
40
-0.97142857142856986
40
-0.95714285714285563
40
-0.94285714285714139
40
-0.92857142857142716
40
-0.91428571428571292
40
-0.89999999999999869
40
-0.88571428571428445
40
-0.87142857142857022
40
-0.85714285714285599
40
-0.84285714285714175
40
-0.82857142857142752
40
-0.81428571428571328
40
-0.79999999999999905
40
-0.78571428571428481
40
-0.77142857142857058
40
-0.75714285714285634
40
-0.74285714285714211
40
-0.72857142857142787
40
-0.71428571428571364
40
-0.6999999999999994
40
-0.68571428571428517
40
-0.67142857142857093
40
-0.6571428571428567
40
-0.64285714285714246
40
-0.62857142857142823
40
-0.61428571428571399
40
-0.59999999999999976
40
-0.58571428571428552
40
-0.57142857142857129
40
-0.55714285714285705
40
-0.54285714285714282
40
-0.52857142857142858
40
-0.51428571428571435
40
-0.50000000000000011
40
-0.48571428571428582
40
-0.47142857142857153
40
-0.45714285714285724
40
-0.44285714285714295
40
-0.42857142857142866
40
-0.41428571428571437
40
-0.40000000000000008
40
-0.38571428571428579
40
-0.3714285714285715
40
-0.35714285714285721
40
-0.34285714285714292
40
-0.32857142857142863
40
-0.31428571428571433
40
-0.30000000000000004
40
-0.28571428571428575
40
-0.27142857142857146
40
-0.25714285714285717
40
-0.24285714285714291
40
-0.22857142857142862
40
-0.21428571428571433
40
-0.20000000000000004
40
-0.18571428571428575
40
-0.17142857142857146
40
-0.15714285714285717
40
-0.14285714285714288
40
-0.12857142857142859
40
-0.1142857142857143
40
-0.10000000000000001
40
-0.085714285714285715
40
-0.071428571428571425
40
-0.057142857142857141
40
-0.042857142857142858
40
-0.028571428571428571
40
-0.014285714285714285
40
0
40
0
40
0
40
0
40
0
40
0
41
1
41
1
41
1
41
1
41
1
41
1
41
1
41
1
41
1
41
1
41
1
41
1
41
1
41
1
41
1
41
1
41
1
41
1
41
1
41
1
41
1
41
1
41
1
41
1
41
1
41
1
41
1
41
1
41
1
41
1
41
1
41
1
41
1
41
1
41
1
41
1
41
1
41
1
41
1
41
1
41
1
41
1
41
1
41
1
41
1
41
1
41
1
41
1
41
1
41
1
41
1
41
1
41
1
41
1
41
1
41
1
41
1
41
1
41
1
41
1
41
1
41
1
41
1
41
1
41
1
41
1
41
1
41
1
41
1
41
1
41
1
41
1
41
1
41
1
41
1
10
-7.8745467843979791
20
-4.3579253022886295
30
0
10
-7.8657424189890888
20
-4.3601329177146564
30
0
10
-7.8481377921401787
20
-4.3645127111461814
30
0
10
-7.8217431637923243
20
-4.3709760890379137
30
0
10
-7.7865749578627028
20
-4.3793812310215836
30
0
10
-7.7426559602764318
20
-4.3895327073919503
30
0
10
-7.6987787577311462
20
-4.3993285626701946
30
0
10
-7.654944364787001
20
-4.4087679912981379
30
0
10
-7.6111544065663601
20
-4.41785012431182
30
0
10
-7.5674113007711981
20
-4.4265741156189904
30
0
10
-7.5237180968202679
20
-4.4349391452508149
30
0
10
-7.4800782383405631
20
-4.4429444041025725
30
0
10
-7.4364953434383203
20
-4.4505890878223227
30
0
10
-7.3929729969468116
20
-4.4578723888512224
30
0
10
-7.349514488325239
20
-4.4647934936338256
30
0
10
-7.30612280636843
20
-4.4713515722487589
30
0
10
-7.2628007826925423
20
-4.4775457653532547
30
0
10
-7.2195511932731495
20
-4.4833751736943412
30
0
10
-7.1763768670998509
20
-4.4888388506395929
30
0
10
-7.1332808148330651
20
-4.4939357925087444
30
0
10
-7.0902662574666468
20
-4.4986649460028172
30
0
10
-7.0473365450904248
20
-4.5030252322639672
30
0
10
-7.004495101953764
20
-4.5070155712249491
30
0
10
-6.9617453664942373
20
-4.5106349034487794
30
0
10
-6.9190907180025452
20
-4.5138822280399031
30
0
10
-6.8765344595575186
20
-4.5167565945756198
30
0
10
-6.8340799001218109
20
-4.5192570173247919
30
0
10
-6.7917304164477645
20
-4.5213824054656779
30
0
10
-6.7494895157753234
20
-4.5231314980316029
30
0
10
-6.7073609134569452
20
-4.5245027790494294
30
0
10
-6.6653485526296654
20
-4.5254944689459347
30
0
10
-6.6234564800529681
20
-4.5261046996087266
30
0
10
-6.5816887435264704
20
-4.5263316649086933
30
0
10
-6.5400492918973638
20
-4.526173765415038
30
0
10
-6.4985418445897905
20
-4.5256298020728867
30
0
10
-6.4571698609968724
20
-4.5246990175422255
30
0
10
-6.4159368291556751
20
-4.5233806505322391
30
0
10
-6.3748465116090278
20
-4.5216735561097936
30
0
10
-6.3339031822944536
20
-4.5195758416373364
30
0
10
-6.2931119260528217
20
-4.5170844056473447
30
0
10
-6.252478729782589
20
-4.5141948027300201
30
0
10
-6.212009848346387
20
-4.510902240039357
30
0
10
-6.1717112551520383
20
-4.5072024430511348
30
0
10
-6.1315881220907809
20
-4.5030924754133395
30
0
10
-6.0916441339659766
20
-4.4985718200183804
30
0
10
-6.051881336505442
20
-4.4936426220134509
30
0
10
-6.0123016870788586
20
-4.4883072563574693
30
0
10
-5.9729084040324789
20
-4.4825662124250947
30
0
10
-5.9337072183122173
20
-4.4764161333942365
30
0
10
-5.8947080872877837
20
-4.469847128676582
30
0
10
-5.8559253818011907
20
-4.4628424903573727
30
0
10
-5.8173743034821168
20
-4.4553843447474488
30
0
10
-5.7790677707390543
20
-4.4474585661556452
30
0
10
-5.7410136361611812
20
-4.4390591710911078
30
0
10
-5.703210509771667
20
-4.4301949040348854
30
0
10
-5.665648376583662
20
-4.4208882886221517
30
0
10
-5.6283173348045787
20
-4.411161917394498
30
0
10
-5.5912151906712442
20
-4.4010265371593063
30
0
10
-5.5543540715584641
20
-4.3904706824341266
30
0
10
-5.5177709843087372
20
-4.3794440975547566
30
0
10
-5.48152345266781
20
-4.3678646544179749
30
0
10
-5.4456695694823809
20
-4.3556498390527887
30
0
10
-5.4102504530846023
20
-4.3427444073602439
30
0
10
-5.3752754230053803
20
-4.3291438622600715
30
0
10
-5.3406967257550697
20
-4.3149341338993938
30
0
10
-5.306431909458551
20
-4.3002572986371144
30
0
10
-5.2724138627987553
20
-4.2852342955609348
30
0
10
-5.2386349998775454
20
-4.2698968401236588
30
0
10
-5.2051882487544727
20
-4.2541240618878078
30
0
10
-5.1723242332215751
20
-4.2375546191026627
30
0
10
-5.1403904511758656
20
-4.2196778920291305
30
0
10
-5.1158706354138497
20
-4.2039118748531319
30
0
10
-5.098184468467676
20
-4.1910764686576654
30
0
10
-5.0867225518483874
20
-4.1820462457270935
30
0
10
-5.0810738105280073
20
-4.1774128103865129
30
0
0
LINE
5
138
100
AcDbEntity
8
0
100
AcDbLine
10
-5.0810738105280064
20
-4.1774128103865129
30
0
11
-4.2144610816591843
21
-3.4665652397870712
31
0
0
ARC
5
139
100
AcDbEntity
8
0
100
AcDbCircle
10
-3.5802613996101988
20
-4.2397345377347886
30
0
40
1
210
0
220
-0
230
1
100
AcDbArc
50
49.820441670817395
51
129.36065162425979
0
ARC
5
140
100
AcDbEntity
8
0
100
AcDbCircle
10
0
20
0
30
0
40
4.5491999999999999
210
0
220
0
230
1
100
AcDbArc
50
229.82044167081733
51
233.0367011863255
0
ARC
5
141
100
AcDbEntity
8
0
100
AcDbCircle
10
-3.3367524306299439
20
-4.4339264604507322
30
0
40
1.0000000000000002
210
-0
220
0
230
1
100
AcDbArc
50
-26.503508767116923
51
53.036701186325423
0
LINE
5
142
100
AcDbEntity
8
0
100
AcDbLine
10
-2.4418453956543518
20
-4.8801790780914525
30
0
11
-2.9420310597320674
21
-5.8832424818280913
31
0
0
SPLINE
5
143
100
AcDbEntity
8
0
100
AcDbSpline
70
4
71
5
72
81
73
75
74
0
42
0.000000001
43
0.0000000001
44
0.0000000001
40
0
40
0
40
0
40
0
40
0
40
0
40
0.014285714285714285
40
0.028571428571428571
40
0.042857142857142858
40
0.057142857142857141
40
0.071428571428571425
40
0.085714285714285715
40
0.10000000000000001
40
0.1142857142857143
40
0.12857142857142859
40
0.14285714285714288
40
0.15714285714285717
40
0.17142857142857146
40
0.18571428571428575
40
0.20000000000000004
40
0.21428571428571433
40
0.22857142857142862
40
0.24285714285714291
40
0.25714285714285717
40
0.27142857142857146
40
0.28571428571428575
40
0.30000000000000004
40
0.31428571428571433
40
0.32857142857142863
40
0.34285714285714292
40
0.35714285714285721
40
0.3714285714285715
40
0.38571428571428579
40
0.40000000000000008
40
0.41428571428571437
40
0.42857142857142866
40
0.44285714285714295
40
0.45714285714285724
40
0.47142857142857153
40
0.48571428571428582
40
0.50000000000000011
40
0.51428571428571435
40
0.52857142857142858
40
0.54285714285714282
40
0.55714285714285705
40
0.57142857142857129
40
0.58571428571428552
40
0.59999999999999976
40
0.61428571428571399
40
0.62857142857142823
40
0.64285714285714246
40
0.6571428571428567
40
0.67142857142857093
40
0.68571428571428517
40
0.6999999999999994
40
0.71428571428571364
40
0.72857142857142787
40
0.74285714285714211
40
0.75714285714285634
40
0.77142857142857058
40
0.78571428571428481
40
0.79999999999999905
40
0.81428571428571328
40
0.82857142857142752
40
0.84285714285714175
40
0.85714285714285599
40
0.87142857142857022
40
0.88571428571428445
40
0.89999999999999869
40
0.91428571428571292
40
0.92857142857142716
40
0.94285714285714139
40
0.95714285714285563
40
0.97142857142856986
40
0.9857142857142841
40
1
40
1
40
1
40
1
40
1
40
1
41
1
41
1
41
1
41
1
41
1
41
1
41
1
41
1
41
1
41
1
41
1
41
1
41
1
41
1
41
1
41
1
41
1
41
1
41
1
41
1
41
1
41
1
41
1
41
1
41
1
41
1
41
1
41
1
41
1
41
1
41
1
41
1
41
1
41
1
41
1
41
1
41
1
41
1
41
1
41
1
41
1
41
1
41
1
41
1
41
1
41
1
41
1
41
1
41
1
41
1
41
1
41
1
41
1
41
1
41
1
41
1
41
1
41
1
41
1
41
1
41
1
41
1
41
1
41
1
41
1
41
1
41
1
41
1
41
1
41
1
41
1
41
1
41
1
41
1
41
1
10
-2.9420310597320674
20
-5.8832424818280913
30
0
10
-2.9452913619806003
20
-5.8897806337694378
30
0
10
-2.9515446619777852
20
-5.9029645898490255
30
0
10
-2.9601227153549692
20
-5.9230634742386821
30
0
10
-2.9700372732599862
20
-5.9504767958934028
30
0
10
-2.9803598584568607
20
-5.9855878773557798
30
0
10
-2.9892009392874632
20
-6.0213149712888656
30
0
10
-2.9971356587445386
20
-6.0574329158746743
30
0
10
-3.0045720680269734
20
-6.0937777770867418
30
0
10
-3.0116486855366276
20
-6.1302858529686208
30
0
10
-3.0183329029721753
20
-6.1669574818719655
30
0
10
-3.0244918797683895
20
-6.2038311810142623
30
0
10
-3.0299687544490568
20
-6.240955720065898
30
0
10
-3.0346691251641338
20
-6.2783585339802448
30
0
10
-3.0385994500334181
20
-6.3160315375809919
30
0
10
-3.0418227377606382
20
-6.3539469364269152
30
0
10
-3.0444323603937651
20
-6.3920664552661632
30
0
10
-3.0465211871506281
20
-6.4303522878156247
30
0
10
-3.0481464484781604
20
-6.4687795380089428
30
0
10
-3.0493220209899978
20
-6.5073389338397813
30
0
10
-3.0500369391654285
20
-6.5460302226794722
30
0
10
-3.0502669735489096
20
-6.5848580307485358
30
0
10
-3.0499879366756009
20
-6.6238271099568564
30
0
10
-3.0491909940079092
20
-6.6629368696015536
30
0
10
-3.0478837263835579
20
-6.7021809854262298
30
0
10
-3.0460827799494639
20
-6.7415500061758511
30
0
10
-3.0438089629449183
20
-6.7810330886273453
30
0
10
-3.0410817621955575
20
-6.8206199401065026
30
0
10
-3.0379130360352056
20
-6.8603030537586127
30
0
10
-3.0343073323788521
20
-6.9000775892877293
30
0
10
-3.0302648902708951
20
-6.9399403001421502
30
0
10
-3.0257838298533244
20
-6.9798887495494615
30
0
10
-3.0208625149795312
20
-7.0199204657323584
30
0
10
-3.0155022697380218
20
-7.0600319713404591
30
0
10
-3.0097071077144077
20
-7.1002188775524244
30
0
10
-3.0034825254699471
20
-7.1404763118973609
30
0
10
-2.9968345875218647
20
-7.1807992428436762
30
0
10
-2.9897689600344917
20
-7.2211828227936916
30
0
10
-2.9822897981986216
20
-7.2616227845355663
30
0
10
-2.9743998982400042
20
-7.3021153824397906
30
0
10
-2.9661012136304512
20
-7.3426572030699297
30
0
10
-2.9573952627348943
20
-7.3832450152444329
30
0
10
-2.9482835536926402
20
-7.4238756148283951
30
0
10
-2.9387680831454888
20
-7.4645456424662093
30
0
10
-2.9288512891243315
20
-7.5052516042233641
30
0
10
-2.9185358331950035
20
-7.5459899556885679
30
0
10
-2.9078244371211204
20
-7.5867571672571588
30
0
10
-2.8967197132888227
20
-7.6275497906470768
30
0
10
-2.8852239664063357
20
-7.668364540993263
30
0
10
-2.8733392062595757
20
-7.7091982795810852
30
0
10
-2.8610672477191912
20
-7.7500479570511063
30
0
10
-2.8484097881154398
20
-7.7909105667490834
30
0
10
-2.8353684890461301
20
-7.8317830999002203
30
0
10
-2.8219450782751965
20
-7.8726624846599016
30
0
10
-2.8081413538016653
20
-7.9135456045462691
30
0
10
-2.7939591305804083
20
-7.9544293615006119
30
0
10
-2.7794002058851697
20
-7.9953107294953041
30
0
10
-2.7644663233450819
20
-8.0361868026746031
30
0
10
-2.7491591314110209
20
-8.0770548692015005
30
0
10
-2.7334801824907675
20
-8.1179123816606076
30
0
10
-2.717430971003822
20
-8.1587568337784653
30
0
10
-2.7010129648413055
20
-8.199585656155195
30
0
10
-2.6842276381861483
20
-8.2403961196061815
30
0
10
-2.6670765161697951
20
-8.2811851981789424
30
0
10
-2.6495611838043502
20
-8.3219495766182163
30
0
10
-2.6316832303793514
20
-8.3626859065163863
30
0
10
-2.6134442109926708
20
-8.4033910106281144
30
0
10
-2.5948456036143188
20
-8.4440620984501731
30
0
10
-2.5758887711125498
20
-8.4846970011706624
30
0
10
-2.5565749222883278
20
-8.5252943277751019
30
0
10
-2.5369050682636813
20
-8.5658532683940329
30
0
10
-2.5208849987089228
20
-8.5982694139319378
30
0
10
-2.5087103138439004
20
-8.6225640369549446
30
0
10
-2.500522932969544
20
-8.6387526833285744
30
0
10
-2.4964115114576684
20
-8.6468450642683337
30
0
0
ARC
5
144
100
AcDbEntity
8
0
100
AcDbCircle
10
0
20
0
30
0
40
9.0000000000000018
210
0
220
0
230
1
100
AcDbArc
50
253.89615927768105
51
260.38955500803314
0
SPLINE
5
145
100
AcDbEntity
8
0
100
AcDbSpline
70
4
71
5
72
81
73
75
74
0
42
0.000000001
43
0.0000000001
44
0.0000000001
40
-1
40
-1
40
-1
40
-1
40
-1
40
-1
40
-0.9857142857142841
40
-0.97142857142856986
40
-0.95714285714285563
40
-0.94285714285714139
40
-0.92857142857142716
40
-0.91428571428571292
40
-0.89999999999999869
40
-0.88571428571428445
40
-0.87142857142857022
40
-0.85714285714285599
40
-0.84285714285714175
40
-0.82857142857142752
40
-0.81428571428571328
40
-0.79999999999999905
40
-0.78571428571428481
40
-0.77142857142857058
40
-0.75714285714285634
40
-0.74285714285714211
40
-0.72857142857142787
40
-0.71428571428571364
40
-0.6999999999999994
40
-0.68571428571428517
40
-0.67142857142857093
40
-0.6571428571428567
40
-0.64285714285714246
40
-0.62857142857142823
40
-0.61428571428571399
40
-0.59999999999999976
40
-0.58571428571428552
40
-0.57142857142857129
40
-0.55714285714285705
40
-0.54285714285714282
40
-0.52857142857142858
40
-0.51428571428571435
40
-0.50000000000000011
40
-0.48571428571428582
40
-0.47142857142857153
40
-0.45714285714285724
40
-0.44285714285714295
40
-0.42857142857142866
40
-0.41428571428571437
40
-0.40000000000000008
40
-0.38571428571428579
40
-0.3714285714285715
40
-0.35714285714285721
40
-0.34285714285714292
40
-0.32857142857142863
40
-0.31428571428571433
40
-0.30000000000000004
40
-0.28571428571428575
40
-0.27142857142857146
40
-0.25714285714285717
40
-0.24285714285714291
40
-0.22857142857142862
40
-0.21428571428571433
40
-0.20000000000000004
40
-0.18571428571428575
40
-0.17142857142857146
40
-0.15714285714285717
40
-0.14285714285714288
40
-0.12857142857142859
40
-0.1142857142857143
40
-0.10000000000000001
40
-0.085714285714285715
40
-0.071428571428571425
40
-0.057142857142857141
40
-0.042857142857142858
40
-0.028571428571428571
40
-0.014285714285714285
40
0
40
0
40
0
40
0
40
0
40
0
41
1
41
1
41
1
41
1
41
1
41
1
41
1
41
1
41
1
41
1
41
1
41
1
41
1
41
1
41
1
41
1
41
1
41
1
41
1
41
1
41
1
41
1
41
1
41
1
41
1
41
1
41
1
41
1
41
1
41
1
41
1
41
1
41
1
41
1
41
1
41
1
41
1
41
1
41
1
41
1
41
1
41
1
41
1
41
1
41
1
41
1
41
1
41
1
41
1
41
1
41
1
41
1
41
1
41
1
41
1
41
1
41
1
41
1
41
1
41
1
41
1
41
1
41
1
41
1
41
1
41
1
41
1
41
1
41
1
41
1
41
1
41
1
41
1
41
1
41
1
10
-1.5025364147583677
20
-8.8736905694488293
30
0
10
-1.4953209994728367
20
-8.8681834650935603
30
0
10
-1.4809204337755397
20
-8.8571503701247813
30
0
10
-1.4594103798579574
20
-8.8405440689154418
30
0
10
-1.4309119574937239
20
-8.8182889786477361
30
0
10
-1.3955921665709436
20
-8.790281065647088
30
0
10
-1.3605764701956347
20
-8.7620841032010262
30
0
10
-1.3258661307464559
20
-8.7336983822673151
30
0
10
-1.2914628408540074
20
-8.7051246316276139
30
0
10
-1.2573687694323734
20
-8.6763642139875508
30
0
10
-1.2235864588404954
20
-8.6474190022365054
30
0
10
-1.1901186887282309
20
-8.618291184241933
30
0
10
-1.1569683438155909
20
-8.588983087247966
30
0
10
-1.1241382905844874
20
-8.5594970104854085
30
0
10
-1.0916312160424477
20
-8.5298350185135021
30
0
10
-1.0594496325312246
20
-8.499998930618629
30
0
10
-1.0275959773958445
20
-8.4699904248559914
30
0
10
-0.9960726844930522
20
-8.4398111108956293
30
0
10
-0.9648822577760453
20
-8.4094626103150176
30
0
10
-0.93402735906972123
20
-8.378946651158838
30
0
10
-0.90351082013320205
20
-8.3482650949803254
30
0
10
-0.87333557319835875
20
-8.3174198883283097
30
0
10
-0.84350459768032637
20
-8.2864130349778353
30
0
10
-0.81402086571105192
20
-8.2552465626594955
30
0
10
-0.78488726677547926
20
-8.2239224893609748
30
0
10
-0.75610660337996449
20
-8.1924428049544282
30
0
10
-0.72768170930461351
20
-8.1608094818977275
30
0
10
-0.6996155427588534
20
-8.1290244801259259
30
0
10
-0.67191127633446757
20
-8.0970897555097672
30
0
10
-0.64457241175134961
20
-8.0650072676349804
30
0
10
-0.61760279884159763
20
-8.0327789898244859
30
0
10
-0.5910064212675632
20
-8.0004069212132194
30
0
10
-0.5647872148796278
20
-7.967893100395278
30
0
10
-0.53894889222909481
20
-7.9352396174749256
30
0
10
-0.51349470979783651
20
-7.9024486328165642
30
0
10
-0.48842741659444994
20
-7.8695223788888757
30
0
10
-0.46374978257560234
20
-7.8364631080919871
30
0
10
-0.43946504879314396
20
-7.8032730482462052
30
0
10
-0.41557735972715948
20
-7.7699543608102273
30
0
10
-0.39209231054902427
20
-7.7365090875393534
30
0
10
-0.36901710959020617
20
-7.7029391375116107
30
0
10
-0.34635940389166481
20
-7.6692464126849131
30
0
10
-0.32412625976986603
20
-7.6354329181352965
30
0
10
-0.30232319757870385
20
-7.6015008666246153
30
0
10
-0.28095291904649045
20
-7.5674528166368402
30
0
10
-0.26001502252004538
20
-7.5332917050637782
30
0
10
-0.23950887158175171
20
-7.4990205430013344
30
0
10
-0.21943609022916227
20
-7.4646421517740436
30
0
10
-0.19980287611779973
20
-7.4301589190715021
30
0
10
-0.18062317033945646
20
-7.3955724631978832
30
0
10
-0.16191899574133445
20
-7.3608836025154449
30
0
10
-0.14371380459740402
20
-7.3260930780739351
30
0
10
-0.12602669531368099
20
-7.2912021826674378
30
0
10
-0.10886724198095887
20
-7.2562133250518599
30
0
10
-0.092227741252277617
20
-7.2211308705943136
30
0
10
-0.076084339198395634
20
-7.1859610325196126
30
0
10
-0.060413198592324802
20
-7.1507101555138606
30
0
10
-0.045204549452754483
20
-7.1153832249487516
30
0
10
-0.030474917149340974
20
-7.0799825737763245
30
0
10
-0.016286666531426519
20
-7.0445058012169959
30
0
10
-0.0027398734045405715
20
-7.0089466751113774
30
0
10
0.010064729913573101
20
-6.9732991676564957
30
0
10
0.022058314986362904
20
-6.9375609823266258
30
0
10
0.033231555222418829
20
-6.9017366015407475
30
0
10
0.043681407329851374
20
-6.8658422666876593
30
0
10
0.053570358982247268
20
-6.8299020974564648
30
0
10
0.063034807387613023
20
-6.7939390283944796
30
0
10
0.072104278415559275
20
-6.7579669028691018
30
0
10
0.080626332055325767
20
-6.7219830134777778
30
0
10
0.088162198571835604
20
-6.6859580128948188
30
0
10
0.094095997982538981
20
-6.6498452197162532
30
0
10
0.097057484472284627
20
-6.6208449048840281
30
0
10
0.098049504543313015
20
-6.5990145578957362
30
0
10
0.098135780084368518
20
-6.5844230187276311
30
0
10
0.098035147069718553
20
-6.5771177552446156
30
0
0
LINE
5
146
100
AcDbEntity
8
0
100
AcDbLine
10
0.098035147069718553
20
-6.5771177552446156
30
0
11
0.082596335749838323
21
-5.45636642976263
31
0
0
ARC
5
147
100
AcDbEntity
8
0
100
AcDbCircle
10
1.0825014682626612
20
-5.4425923245461973
30
0
40
1
210
0
220
0
230
1
100
AcDbArc
50
101.24901309938878
51
180.78922305283049
0
ARC
5
148
100
AcDbEntity
8
0
100
AcDbCircle
10
0
20
0
30
0
40
4.549199999999999
210
-0
220
0
230
1
100
AcDbArc
50
281.24901309938878
51
284.46527261489695
0
ARC
5
149
100
AcDbEntity
8
0
100
AcDbCircle
10
1.3861521859033084
20
-5.3732860297508331
30
0
40
1
210
0
220
-0
230
1
100
AcDbArc
50
24.925062661454493
51
104.46527261489686
0
LINE
5
150
100
AcDbEntity
8
0
100
AcDbLine
10
2.2930119414275096
20
-4.9518534920765509
30
0
11
2.7653778287919604
21
-5.9683141941791913
31
0
0
SPLINE
5
151
100
AcDbEntity
8
0
100
AcDbSpline
70
4
71
5
72
81
73
75
74
0
42
0.000000001
43
0.0000000001
44
0.0000000001
40
0
40
0
40
0
40
0
40
0
40
0
40
0.014285714285714285
40
0.028571428571428571
40
0.042857142857142858
40
0.057142857142857141
40
0.071428571428571425
40
0.085714285714285715
40
0.10000000000000001
40
0.1142857142857143
40
0.12857142857142859
40
0.14285714285714288
40
0.15714285714285717
40
0.17142857142857146
40
0.18571428571428575
40
0.20000000000000004
40
0.21428571428571433
40
0.22857142857142862
40
0.24285714285714291
40
0.25714285714285717
40
0.27142857142857146
40
0.28571428571428575
40
0.30000000000000004
40
0.31428571428571433
40
0.32857142857142863
40
0.34285714285714292
40
0.35714285714285721
40
0.3714285714285715
40
0.38571428571428579
40
0.40000000000000008
40
0.41428571428571437
40
0.42857142857142866
40
0.44285714285714295
40
0.45714285714285724
40
0.47142857142857153
40
0.48571428571428582
40
0.50000000000000011
40
0.51428571428571435
40
0.52857142857142858
40
0.54285714285714282
40
0.55714285714285705
40
0.57142857142857129
40
0.58571428571428552
40
0.59999999999999976
40
0.61428571428571399
40
0.62857142857142823
40
0.64285714285714246
40
0.6571428571428567
40
0.67142857142857093
40
0.68571428571428517
40
0.6999999999999994
40
0.71428571428571364
40
0.72857142857142787
40
0.74285714285714211
40
0.75714285714285634
40
0.77142857142857058
40
0.78571428571428481
40
0.79999999999999905
40
0.81428571428571328
40
0.82857142857142752
40
0.84285714285714175
40
0.85714285714285599
40
0.87142857142857022
40
0.88571428571428445
40
0.89999999999999869
40
0.91428571428571292
40
0.92857142857142716
40
0.94285714285714139
40
0.95714285714285563
40
0.97142857142856986
40
0.9857142857142841
40
1
40
1
40
1
40
1
40
1
40
1
41
1
41
1
41
1
41
1
41
1
41
1
41
1
41
1
41
1
41
1
41
1
41
1
41
1
41
1
41
1
41
1
41
1
41
1
41
1
41
1
41
1
41
1
41
1
41
1
41
1
41
1
41
1
41
1
41
1
41
1
41
1
41
1
41
1
41
1
41
1
41
1
41
1
41
1
41
1
41
1
41
1
41
1
41
1
41
1
41
1
41
1
41
1
41
1
41
1
41
1
41
1
41
1
41
1
41
1
41
1
41
1
41
1
41
1
41
1
41
1
41
1
41
1
41
1
41
1
41
1
41
1
41
1
41
1
41
1
41
1
41
1
41
1
41
1
41
1
41
1
10
2.7653778287919604
20
-5.9683141941791913
30
0
10
2.7684567966139273
20
-5.9749396721778876
30
0
10
2.7748655597642169
20
-5.9880487611487823
30
0
10
2.7852311715420623
20
-6.0072868027830424
30
0
10
2.8004821437070286
20
-6.0321302427747279
30
0
10
2.8214970659787459
20
-6.0620921660861278
30
0
10
2.8439173090574359
20
-6.0912798801358647
30
0
10
2.8672082385545599
20
-6.1200026637253089
30
0
10
2.8909872699260393
20
-6.1484773329345286
30
0
10
2.9151182341659005
20
-6.1767724682907961
30
0
10
2.9396217267514491
20
-6.2048627865563519
30
0
10
2.9646106863936259
20
-6.2326684438874533
30
0
10
2.9902210442868555
20
-6.2600972084357309
30
0
10
3.0165331085321778
20
-6.2870923792764639
30
0
10
3.0435365313123834
20
-6.3136539645460523
30
0
10
3.0711702967740804
20
-6.3398138968820845
30
0
10
3.0993462636006837
20
-6.3656213132620572
30
0
10
3.1279769706395983
20
-6.3911252499322559
30
0
10
3.157007270762338
20
-6.4163549290143651
30
0
10
3.1864212628953572
20
-6.4413154186804054
30
0
10
3.2162255864159479
20
-6.4659979882296632
30
0
10
3.2464389650673908
20
-6.4903865787123092
30
0
10
3.2770801946800967
20
-6.5144652423742002
30
0
10
3.3081543216680496
20
-6.5382267037984914
30
0
10
3.3396516749534859
20
-6.5616729468134105
30
0
10
3.3715544865448299
20
-6.5848110931395523
30
0
10
3.4038413051439154
20
-6.6076506506744801
30
0
10
3.4364919337769551
20
-6.6302004374545724
30
0
10
3.4694931097983943
20
-6.6524650442511799
30
0
10
3.5028382133338614
20
-6.6744450088922651
30
0
10
3.5365245570852832
20
-6.6961384940783839
30
0
10
3.5705514079795679
20
-6.7175425107746145
30
0
10
3.6049178536241295
20
-6.7386542386620842
30
0
10
3.6396203497612762
20
-6.7594725448623727
30
0
10
3.6746529626426243
20
-6.779997830937722
30
0
10
3.710008455767138
20
-6.800231356336857
30
0
10
3.7456791141603696
20
-6.8201747253816327
30
0
10
3.781657615022167
20
-6.8398293456299957
30
0
10
3.8179380313928828
20
-6.8591958051778548
30
0
10
3.8545156914032082
20
-6.8782739548407337
30
0
10
3.8913867083513209
20
-6.89706319366159
30
0
10
3.9285476093127096
20
-6.9155626941371846
30
0
10
3.9659949488843522
20
-6.9337716376328657
30
0
10
4.0037248557304768
20
-6.9516894906620958
30
0
10
4.0417330780956853
20
-6.9693159809216434
30
0
10
4.080015185388489
20
-6.9866509794031737
30
0
10
4.1185667210609846
20
-7.0036944133946619
30
0
10
4.1573833603415782
20
-7.0204461753731362
30
0
10
4.196461098057279
20
-7.0369060191521822
30
0
10
4.2357962271811509
20
-7.0530735590891354
30
0
10
4.2753852320746413
20
-7.0689483128624975
30
0
10
4.3152247037727012
20
-7.0845297328802399
30
0
10
4.3553112539311822
20
-7.0998172422914401
30
0
10
4.3956414036420624
20
-7.114810276652543
30
0
10
4.4362115953076557
20
-7.1295082986011407
30
0
10
4.4770182751622691
20
-7.1439107955180781
30
0
10
4.5180579567803916
20
-7.1580172858711819
30
0
10
4.5593272811375343
20
-7.1718273211131853
30
0
10
4.6008231002418425
20
-7.1853404992521615
30
0
10
4.6425424545333449
20
-7.19855644572187
30
0
10
4.6844824527732269
20
-7.2114747662705785
30
0
10
4.7266401709086328
20
-7.2240950065471621
30
0
10
4.7690125560390824
20
-7.2364166174954692
30
0
10
4.8115962914757606
20
-7.2484389048607643
30
0
10
4.8543877970088474
20
-7.2601610408275663
30
0
10
4.8973834638420328
20
-7.2715821802544678
30
0
10
4.9405798383172188
20
-7.2827015579858756
30
0
10
4.9839738172319032
20
-7.2935185896949717
30
0
10
5.0275628552062042
20
-7.3040329886829625
30
0
10
5.0713451110261349
20
-7.3142448327451532
30
0
10
5.1153193210859849
20
-7.324154407463233
30
0
10
5.1506516342002442
20
-7.3318405488924467
30
0
10
5.1772367271885091
20
-7.337469446670692
30
0
10
5.194998269061049
20
-7.3411617504640203
30
0
10
5.2038885766316749
20
-7.3429928286770352
30
0
0
ARC
5
152
100
AcDbEntity
8
0
100
AcDbCircle
10
0
20
0
30
0
40
9
210
-0
220
0
230
1
100
AcDbArc
50
305.32473070625247
51
311.81812643660459
0
SPLINE
5
153
100
AcDbEntity
8
0
100
AcDbSpline
70
4
71
5
72
81
73
75
74
0
42
0.000000001
43
0.0000000001
44
0.0000000001
40
-1
40
-1
40
-1
40
-1
40
-1
40
-1
40
-0.9857142857142841
40
-0.97142857142856986
40
-0.95714285714285563
40
-0.94285714285714139
40
-0.92857142857142716
40
-0.91428571428571292
40
-0.89999999999999869
40
-0.88571428571428445
40
-0.87142857142857022
40
-0.85714285714285599
40
-0.84285714285714175
40
-0.82857142857142752
40
-0.81428571428571328
40
-0.79999999999999905
40
-0.78571428571428481
40
-0.77142857142857058
40
-0.75714285714285634
40
-0.74285714285714211
40
-0.72857142857142787
40
-0.71428571428571364
40
-0.6999999999999994
40
-0.68571428571428517
40
-0.67142857142857093
40
-0.6571428571428567
40
-0.64285714285714246
40
-0.62857142857142823
40
-0.61428571428571399
40
-0.59999999999999976
40
-0.58571428571428552
40
-0.57142857142857129
40
-0.55714285714285705
40
-0.54285714285714282
40
-0.52857142857142858
40
-0.51428571428571435
40
-0.50000000000000011
40
-0.48571428571428582
40
-0.47142857142857153
40
-0.45714285714285724
40
-0.44285714285714295
40
-0.42857142857142866
40
-0.41428571428571437
40
-0.40000000000000008
40
-0.38571428571428579
40
-0.3714285714285715
40
-0.35714285714285721
40
-0.34285714285714292
40
-0.32857142857142863
40
-0.31428571428571433
40
-0.30000000000000004
40
-0.28571428571428575
40
-0.27142857142857146
40
-0.25714285714285717
40
-0.24285714285714291
40
-0.22857142857142862
40
-0.21428571428571433
40
-0.20000000000000004
40
-0.18571428571428575
40
-0.17142857142857146
40
-0.15714285714285717
40
-0.14285714285714288
40
-0.12857142857142859
40
-0.1142857142857143
40
-0.10000000000000001
40
-0.085714285714285715
40
-0.071428571428571425
40
-0.057142857142857141
40
-0.042857142857142858
40
-0.028571428571428571
40
-0.014285714285714285
40
0
40
0
40
0
40
0
40
0
40
0
41
1
41
1
41
1
41
1
41
1
41
1
41
1
41
1
41
1
41
1
41
1
41
1
41
1
41
1
41
1
41
1
41
1
41
1
41
1
41
1
41
1
41
1
41
1
41
1
41
1
41
1
41
1
41
1
41
1
41
1
41
1
41
1
41
1
41
1
41
1
41
1
41
1
41
1
41
1
41
1
41
1
41
1
41
1
41
1
41
1
41
1
41
1
41
1
41
1
41
1
41
1
41
1
41
1
41
1
41
1
41
1
41
1
41
1
41
1
41
1
41
1
41
1
41
1
41
1
41
1
41
1
41
1
41
1
41
1
41
1
41
1
41
1
41
1
41
1
41
1
10
6.0009145213515254
20
-6.7073858475140957
30
0
10
6.0011076316360441
20
-6.6983109852815037
30
0
10
6.0014602164936557
20
-6.6801731474580368
30
0
10
6.0018881866558917
20
-6.6530020506650676
30
0
10
6.0022569321525943
20
-6.6168452650386804
30
0
10
6.0023809934545973
20
-6.5717684924138098
30
0
10
6.0021676500992838
20
-6.5268116000785392
30
0
10
6.0016163424863747
20
-6.481975756409442
30
0
10
6.000726585062397
20
-6.4372627391463428
30
0
10
5.9994980909376991
20
-6.39267509364762
30
0
10
5.9979307392612879
20
-6.3482159753369576
30
0
10
5.9960245074934813
20
-6.3038889215451723
30
0
10
5.9937794165535019
20
-6.2596976386501719
30
0
10
5.9911954768301365
20
-6.2156458013047144
30
0
10
5.988272627139013
20
-6.1717367975275161
30
0
10
5.9850107234360284
20
-6.1279737258529519
30
0
10
5.981409558017809
20
-6.0843595381244082
30
0
10
5.9774688718902089
20
-6.0408971408205661
30
0
10
5.9731883716642633
20
-5.9975895026478829
30
0
10
5.9685677487590318
20
-5.9544397821231021
30
0
10
5.9636066930225029
20
-5.9114513538641109
30
0
10
5.9583048981111677
20
-5.8686277240354467
30
0
10
5.9526620730044888
20
-5.8259724713709655
30
0
10
5.9466779499521207
20
-5.7834891838463403
30
0
10
5.9403523051159732
20
-5.7411813787466093
30
0
10
5.9336849469066113
20
-5.6990524878244671
30
0
10
5.9266756506206955
20
-5.6571059564257826
30
0
10
5.9193241041837492
20
-5.6153453193713361
30
0
10
5.9116298586784719
20
-5.5737742765587281
30
0
10
5.9035922628840352
20
-5.5323967875245303
30
0
10
5.895210459275372
20
-5.4912170925353951
30
0
10
5.8864835270662645
20
-5.4502395525842147
30
0
10
5.8774106061311819
20
-5.4094685158853517
30
0
10
5.8679910158415591
20
-5.3689081881869889
30
0
10
5.8582244148550693
20
-5.3285624624743537
30
0
10
5.8481108346071782
20
-5.2884348799303629
30
0
10
5.8376503090554888
20
-5.2485290105428586
30
0
10
5.826842559217277
20
-5.2088487772914505
30
0
10
5.8156866909479294
20
-5.1693987681086053
30
0
10
5.8041808120237341
20
-5.1301846304890608
30
0
10
5.7923219207008287
20
-5.0912131904239768
30
0
10
5.780106736137741
20
-5.0524916124620827
30
0
10
5.7675324201897871
20
-5.0140266714165191
30
0
10
5.7545972609794909
20
-4.975824062908206
30
0
10
5.7413015743101194
20
-4.9378874944220561
30
0
10
5.7276479067628081
20
-4.9002184830550615
30
0
10
5.7136390093070277
20
-4.8628184086234807
30
0
10
5.6992760751972078
20
-4.8256902998868023
30
0
10
5.6845571070292333
20
-4.7888404910673472
30
0
10
5.6694746779156961
20
-4.7522808907457268
30
0
10
5.6540156966573303
20
-4.7160292273177369
30
0
10
5.6381661203765159
20
-4.6801042985464658
30
0
10
5.6219150521589798
20
-4.6445218422109278
30
0
10
5.6052584058979527
20
-4.6092908454714641
30
0
10
5.5882043975331452
20
-4.5744080073707778
30
0
10
5.5707727574409418
20
-4.5398585520383152
30
0
10
5.5529833083646167
20
-4.5056277986266426
30
0
10
5.5348460395084214
20
-4.4717112169852005
30
0
10
5.5163524714482559
20
-4.4381231817400462
30
0
10
5.4974618433315019
20
-4.4049109548322107
30
0
10
5.4781068864155813
20
-4.3721488929892685
30
0
10
5.4582200824015317
20
-4.3399119936348507
30
0
10
5.4377567219649725
20
-4.3082526371471737
30
0
10
5.4167144945675485
20
-4.2771809100915483
30
0
10
5.3951665497570698
20
-4.2466311350014179
30
0
10
5.3732330544732365
20
-4.2164913122782446
30
0
10
5.3510169819353672
20
-4.1866691017470457
30
0
10
5.3285475644025135
20
-4.1571500503518113
30
0
10
5.3057276403500175
20
-4.128051652454257
30
0
10
5.2822606966595433
20
-4.0996986542885443
30
0
10
5.2577262414515324
20
-4.0725434648351353
30
0
10
5.2368993389389136
20
-4.0521466809139639
30
0
10
5.2204502007877904
20
-4.0377600896729557
30
0
10
5.2090958680084984
20
-4.0285949608740568
30
0
10
5.2033216393713886
20
-4.0241188816515336
30
0
0
LINE
5
154
100
AcDbEntity
8
0
100
AcDbLine
10
5.2033216393713886
20
-4.0241188816515345
30
0
11
4.3174570276810318
21
-3.3374124085356245
31
0
0
ARC
5
155
100
AcDbEntity
8
0
100
AcDbCircle
10
4.9301186515279491
20
-2.5470670823235575
30
0
40
1.0000000000000004
210
0
220
0
230
1
100
AcDbArc
50
152.67758452796028
51
232.21779448140256
0
ENDSEC
0
SECTION
2
OBJECTS
0
DICTIONARY
5
C
100
AcDbDictionary
3
ACAD_GROUP
350
D
3
ACAD_MLINESTYLE
350
17
0
DICTIONARY
5
D
100
AcDbDictionary
0
DICTIONARY
5
1A
330
C
100
AcDbDictionary
0
DICTIONARY
5
17
100
AcDbDictionary
0
ENDSEC
0
EOF
