0
SECTION
2
HEADER
9
$INSUNITS
70
4
9
$ACADVER
1
AC1014
9
$HANDSEED
5
FFFF
0
ENDSEC
0
SECTION
2
TABLES
0
TABLE
2
VPORT
5
8
100
AcDbSymbolTable
0
ENDTAB
0
TABLE
2
LTYPE
5
5
100
AcDbSymbolTable
0
LTYPE
5
14
100
AcDbSymbolTableRecord
100
AcDbLinetypeTableRecord
2
BYBLOCK
70
0
0
LTYPE
5
15
100
AcDbSymbolTableRecord
100
AcDbLinetypeTableRecord
2
BYLAYER
70
0
0
ENDTAB
0
TABLE
2
LAYER
5
2
100
AcDbSymbolTable
70
2
0
LAYER
5
50
100
AcDbSymbolTableRecord
100
AcDbLayerTableRecord
2
0
70
0
6
CONTINUOUS
0
ENDTAB
0
TABLE
2
STYLE
5
3
100
AcDbSymbolTable
70
1
0
STYLE
5
11
100
AcDbSymbolTableRecord
100
AcDbTextStyleTableRecord
2
STANDARD
70
0
0
ENDTAB
0
TABLE
2
VIEW
5
6
100
AcDbSymbolTable
70
0
0
ENDTAB
0
TABLE
2
UCS
5
7
100
AcDbSymbolTable
70
0
0
ENDTAB
0
TABLE
2
APPID
5
9
100
AcDbSymbolTable
70
2
0
APPID
5
12
100
AcDbSymbolTableRecord
100
AcDbRegAppTableRecord
2
ACAD
70
0
0
ENDTAB
0
TABLE
2
DIMSTYLE
5
A
100
AcDbSymbolTable
70
1
0
ENDTAB
0
TABLE
2
BLOCK_RECORD
5
1
100
AcDbSymbolTable
70
1
0
BLOCK_RECORD
5
1F
100
AcDbSymbolTableRecord
100
AcDbBlockTableRecord
2
*MODEL_SPACE
0
BLOCK_RECORD
5
1B
100
AcDbSymbolTableRecord
100
AcDbBlockTableRecord
2
*PAPER_SPACE
0
ENDTAB
0
ENDSEC
0
SECTION
2
BLOCKS
0
BLOCK
5
20
100
AcDbEntity
100
AcDbBlockBegin
2
*MODEL_SPACE
0
ENDBLK
5
21
100
AcDbEntity
100
AcDbBlockEnd
0
BLOCK
5
1C
100
AcDbEntity
100
AcDbBlockBegin
2
*PAPER_SPACE
0
ENDBLK
5
1D
100
AcDbEntity
100
AcDbBlockEnd
0
ENDSEC
0
SECTION
2
ENTITIES
0
ARC
5
100
100
AcDbEntity
8
0
100
AcDbCircle
10
-2.1788126858268697e-13
20
-3.1086244689504383e-13
30
0
40
3.7491999999996213
210
0
220
0
230
1
100
AcDbArc
50
232.62300683031592
51
235.37699316968403
0
ARC
5
101
100
AcDbEntity
8
0
100
AcDbCircle
10
-2.4142859190303008
20
-3.4967018948105966
30
0
40
0.5
210
-0
220
0
230
1
100
AcDbArc
50
-27.753217057866788
51
55.376993169683459
0
LINE
5
102
100
AcDbEntity
8
0
100
AcDbLine
10
-1.9718051727169936
20
-3.7295339998606059
30
0
11
-2.1952135229915974
21
-4.1541055749056319
31
0
0
SPLINE
5
103
100
AcDbEntity
8
0
100
AcDbSpline
70
4
71
5
72
81
73
75
74
0
42
0.000000001
43
0.0000000001
44
0.0000000001
40
0
40
0
40
0
40
0
40
0
40
0
40
0.014285714285714285
40
0.028571428571428571
40
0.042857142857142858
40
0.057142857142857141
40
0.071428571428571425
40
0.085714285714285715
40
0.10000000000000001
40
0.1142857142857143
40
0.12857142857142859
40
0.14285714285714288
40
0.15714285714285717
40
0.17142857142857146
40
0.18571428571428575
40
0.20000000000000004
40
0.21428571428571433
40
0.22857142857142862
40
0.24285714285714291
40
0.25714285714285717
40
0.27142857142857146
40
0.28571428571428575
40
0.30000000000000004
40
0.31428571428571433
40
0.32857142857142863
40
0.34285714285714292
40
0.35714285714285721
40
0.3714285714285715
40
0.38571428571428579
40
0.40000000000000008
40
0.41428571428571437
40
0.42857142857142866
40
0.44285714285714295
40
0.45714285714285724
40
0.47142857142857153
40
0.48571428571428582
40
0.50000000000000011
40
0.51428571428571435
40
0.52857142857142858
40
0.54285714285714282
40
0.55714285714285705
40
0.57142857142857129
40
0.58571428571428552
40
0.59999999999999976
40
0.61428571428571399
40
0.62857142857142823
40
0.64285714285714246
40
0.6571428571428567
40
0.67142857142857093
40
0.68571428571428517
40
0.6999999999999994
40
0.71428571428571364
40
0.72857142857142787
40
0.74285714285714211
40
0.75714285714285634
40
0.77142857142857058
40
0.78571428571428481
40
0.79999999999999905
40
0.81428571428571328
40
0.82857142857142752
40
0.84285714285714175
40
0.85714285714285599
40
0.87142857142857022
40
0.88571428571428445
40
0.89999999999999869
40
0.91428571428571292
40
0.92857142857142716
40
0.94285714285714139
40
0.95714285714285563
40
0.97142857142856986
40
0.9857142857142841
40
1
40
1
40
1
40
1
40
1
40
1
41
1
41
1
41
1
41
1
41
1
41
1
41
1
41
1
41
1
41
1
41
1
41
1
41
1
41
1
41
1
41
1
41
1
41
1
41
1
41
1
41
1
41
1
41
1
41
1
41
1
41
1
41
1
41
1
41
1
41
1
41
1
41
1
41
1
41
1
41
1
41
1
41
1
41
1
41
1
41
1
41
1
41
1
41
1
41
1
41
1
41
1
41
1
41
1
41
1
41
1
41
1
41
1
41
1
41
1
41
1
41
1
41
1
41
1
41
1
41
1
41
1
41
1
41
1
41
1
41
1
41
1
41
1
41
1
41
1
41
1
41
1
41
1
41
1
41
1
41
1
10
-2.1952135229915974
20
-4.1541055749056319
30
0
10
-2.1970000097076965
20
-4.1575006650082127
30
0
10
-2.2004563392242402
20
-4.1643431156500501
30
0
10
-2.2052909055805228
20
-4.1747636013284115
30
0
10
-2.2110711834503611
20
-4.188956735554985
30
0
10
-2.2173843129458994
20
-4.2071125806633365
30
0
10
-2.2230363775535871
20
-4.2255753585868367
30
0
10
-2.2282753222602962
20
-4.2442381664939006
30
0
10
-2.233285121084696
20
-4.2630202265225172
30
0
10
-2.2381357091745606
20
-4.2818879684001292
30
0
10
-2.2428206866897868
20
-4.3008395778426651
30
0
10
-2.2472875891544977
20
-4.3198926456956235
30
0
10
-2.2514696692082263
20
-4.3390711718701054
30
0
10
-2.2553199576335703
20
-4.3583916599453918
30
0
10
-2.2588353422566207
20
-4.3778532528714704
30
0
10
-2.2620392573502248
20
-4.3974446535471703
30
0
10
-2.2649703669350778
20
-4.4171486119419985
30
0
10
-2.2676696334521056
20
-4.4369470733214706
30
0
10
-2.2701664145828118
20
-4.456826706520304
30
0
10
-2.2724703466263647
20
-4.4767821289640599
30
0
10
-2.274579131407704
20
-4.496812791395195
30
0
10
-2.2764833982462505
20
-4.5169210289459469
30
0
10
-2.2781723589021179
20
-4.5371097964174414
30
0
10
-2.2796399812832862
20
-4.5573801958558589
30
0
10
-2.280888039838247
20
-4.5777302526661572
30
0
10
-2.2819227803435607
20
-4.5981562438560566
30
0
10
-2.2827529253643735
20
-4.6186534905025898
30
0
10
-2.2833873135463896
20
-4.6392172968025953
30
0
10
-2.2838322977633188
20
-4.6598439851740601
30
0
10
-2.2840906524210558
20
-4.6805313296708819
30
0
10
-2.2841630186453319
20
-4.7012779773543576
30
0
10
-2.2840487774999554
20
-4.7220830978397812
30
0
10
-2.2837470785470257
20
-4.7429459710695721
30
0
10
-2.2832579839208504
20
-4.7638655289129233
30
0
10
-2.2825829114546883
20
-4.784840177118407
30
0
10
-2.2817240269810233
20
-4.8058680373972535
30
0
10
-2.2806838847286364
20
-4.8269470905015908
30
0
10
-2.279465000971395
20
-4.848075345992755
30
0
10
-2.2780693807171208
20
-4.8692510311697621
30
0
10
-2.2764983452301815
20
-4.890472658978454
30
0
10
-2.2747527949618256
20
-4.9117389208642255
30
0
10
-2.2728333701530961
20
-4.9330486208633273
30
0
10
-2.2707406400040893
20
-4.9544005985151278
30
0
10
-2.2684753141594105
20
-4.9757936425168356
30
0
10
-2.2660383256386258
20
-4.9972264576713412
30
0
10
-2.263430719782221
20
-5.0186977118543616
30
0
10
-2.2606535900403846
20
-5.0402060640833763
30
0
10
-2.2577080013876927
20
-5.0617501973199266
30
0
10
-2.2545949075793024
20
-5.0833288553014686
30
0
10
-2.251315116746671
20
-5.1049408553340969
30
0
10
-2.2478693391197808
20
-5.1265850609891324
30
0
10
-2.2442582172682792
20
-5.1482603632690971
30
0
10
-2.2404823621257348
20
-5.1699656600746344
30
0
10
-2.2365423934368973
20
-5.191699831597604
30
0
10
-2.2324389602090107
20
-5.2134617326339008
30
0
10
-2.2281727188074361
20
-5.2352502183510943
30
0
10
-2.2237443210825782
20
-5.2570641636137703
30
0
10
-2.2191544003455643
20
-5.2789024824840176
30
0
10
-2.2144035578145163
20
-5.3007641528118601
30
0
10
-2.2094923552715686
20
-5.3226482215421287
30
0
10
-2.2044213243922672
20
-5.3445537601115545
30
0
10
-2.199190974021326
20
-5.3664798277284316
30
0
10
-2.1938017989365828
20
-5.3884254345529223
30
0
10
-2.1882542902225248
20
-5.4103894971839894
30
0
10
-2.1825489428044804
20
-5.4323708201446568
30
0
10
-2.17668624785686
20
-5.454368184423819
30
0
10
-2.1706666886125232
20
-5.4763804207529985
30
0
10
-2.1644907355960696
20
-5.4984064869281291
30
0
10
-2.1581588441330424
20
-5.520445547759925
30
0
10
-2.1516714494704519
20
-5.5424970415192876
30
0
10
-2.1450289371080151
20
-5.5645606202771694
30
0
10
-2.1395910803432892
20
-5.5822210055377397
30
0
10
-2.1354431165685206
20
-5.5954716197838739
30
0
10
-2.1326468971251686
20
-5.6043077286410696
30
0
10
-2.1312410598382101
20
-5.6087263745755775
30
0
0
ARC
5
104
100
AcDbEntity
8
0
100
AcDbCircle
10
-2.1788126858268697e-13
20
-3.1086244689504383e-13
30
0
40
5.9999999999996323
210
0
220
0
230
1
100
AcDbArc
50
249.19387814197358
51
254.80612185802843
0
SPLINE
5
105
100
AcDbEntity
8
0
100
AcDbSpline
70
4
71
5
72
81
73
75
74
0
42
0.000000001
43
0.0000000001
44
0.0000000001
40
0
40
0
40
0
40
0
40
0
40
0
40
0.014285714285714285
40
0.028571428571428571
40
0.042857142857142858
40
0.057142857142857141
40
0.071428571428571425
40
0.085714285714285715
40
0.10000000000000001
40
0.1142857142857143
40
0.12857142857142859
40
0.14285714285714288
40
0.15714285714285717
40
0.17142857142857146
40
0.18571428571428575
40
0.20000000000000004
40
0.21428571428571433
40
0.22857142857142862
40
0.24285714285714291
40
0.25714285714285717
40
0.27142857142857146
40
0.28571428571428575
40
0.30000000000000004
40
0.31428571428571433
40
0.32857142857142863
40
0.34285714285714292
40
0.35714285714285721
40
0.3714285714285715
40
0.38571428571428579
40
0.40000000000000008
40
0.41428571428571437
40
0.42857142857142866
40
0.44285714285714295
40
0.45714285714285724
40
0.47142857142857153
40
0.48571428571428582
40
0.50000000000000011
40
0.51428571428571435
40
0.52857142857142858
40
0.54285714285714282
40
0.55714285714285705
40
0.57142857142857129
40
0.58571428571428552
40
0.59999999999999976
40
0.61428571428571399
40
0.62857142857142823
40
0.64285714285714246
40
0.6571428571428567
40
0.67142857142857093
40
0.68571428571428517
40
0.6999999999999994
40
0.71428571428571364
40
0.72857142857142787
40
0.74285714285714211
40
0.75714285714285634
40
0.77142857142857058
40
0.78571428571428481
40
0.79999999999999905
40
0.81428571428571328
40
0.82857142857142752
40
0.84285714285714175
40
0.85714285714285599
40
0.87142857142857022
40
0.88571428571428445
40
0.89999999999999869
40
0.91428571428571292
40
0.92857142857142716
40
0.94285714285714139
40
0.95714285714285563
40
0.97142857142856986
40
0.9857142857142841
40
1
40
1
40
1
40
1
40
1
40
1
41
1
41
1
41
1
41
1
41
1
41
1
41
1
41
1
41
1
41
1
41
1
41
1
41
1
41
1
41
1
41
1
41
1
41
1
41
1
41
1
41
1
41
1
41
1
41
1
41
1
41
1
41
1
41
1
41
1
41
1
41
1
41
1
41
1
41
1
41
1
41
1
41
1
41
1
41
1
41
1
41
1
41
1
41
1
41
1
41
1
41
1
41
1
41
1
41
1
41
1
41
1
41
1
41
1
41
1
41
1
41
1
41
1
41
1
41
1
41
1
41
1
41
1
41
1
41
1
41
1
41
1
41
1
41
1
41
1
41
1
41
1
41
1
41
1
41
1
41
1
10
-0.66575694701357246
20
-4.6510561409738322
30
0
10
-0.66630723279252413
20
-4.6548528971093939
30
0
10
-0.66753289505229163
20
-4.6624201354786994
30
0
10
-0.6697466565130914
20
-4.6736921722875877
30
0
10
-0.67341282846637052
20
-4.6885722211663738
30
0
10
-0.67897713741438548
20
-4.7069713728195586
30
0
10
-0.68525666967324583
20
-4.7252302741444447
30
0
10
-0.69198799762706731
20
-4.7434081773401937
30
0
10
-0.69897480313222027
20
-4.7615478689586492
30
0
10
-0.70614077535452813
20
-4.7796632969272848
30
0
10
-0.71349002546397522
20
-4.797749231727825
30
0
10
-0.72107533775270638
20
-4.8157890668080334
30
0
10
-0.72896481876346841
20
-4.8337629853897415
30
0
10
-0.73720616795186533
20
-4.8516567313357566
30
0
10
-0.74580139935812229
20
-4.8694677819881269
30
0
10
-0.75472491398779118
20
-4.8872007721199946
30
0
10
-0.76393529267753457
20
-4.9048644723046966
30
0
10
-0.77338878380984766
20
-4.9224683530738815
30
0
10
-0.78305380065912944
20
-4.9400188853005105
30
0
10
-0.79291938349771662
20
-4.9575173784649245
30
0
10
-0.80298706874280357
20
-4.9749620373750307
30
0
10
-0.81326580999052078
20
-4.9923492432446439
30
0
10
-0.8237660718987998
20
-5.0096750453897885
30
0
10
-0.83449338229908843
20
-5.0269367898098221
30
0
10
-0.84544514499455758
20
-5.0441339220184522
30
0
10
-0.85661411872586934
20
-5.0612671012270063
30
0
10
-0.86799049658767014
20
-5.0783376691024449
30
0
10
-0.87956436784153103
20
-5.0953470218858019
30
0
10
-0.89132843127618622
20
-5.1122959184762067
30
0
10
-0.90327913397182658
20
-5.1291841888003029
30
0
10
-0.9154151620094233
20
-5.1460111151519383
30
0
10
-0.9277365280309896
20
-5.1627756619342069
30
0
10
-0.94024349681601338
20
-5.1794767467334335
30
0
10
-0.95293539026524765
20
-5.1961135419352731
30
0
10
-0.96581012425001411
20
-5.212685591144707
30
0
10
-0.97886484254458617
20
-5.2291926478385919
30
0
10
-0.99209629185035419
20
-5.2456345797490931
30
0
10
-1.0055012665085035
20
-5.2620112556061756
30
0
10
-1.0190771024661383
20
-5.2783224197786458
30
0
10
-1.0328218567294276
20
-5.2945676458341264
30
0
10
-1.0467340316689095
20
-5.3107464044016695
30
0
10
-1.0608124063488453
20
-5.3268581042505181
30
0
10
-1.0750558381750388
20
-5.3429021411157249
30
0
10
-1.0894630410470292
20
-5.3588779521513787
30
0
10
-1.1040324988383696
20
-5.3747850379361477
30
0
10
-1.1187625828478354
20
-5.3906229351945703
30
0
10
-1.1336516202458924
20
-5.4063912017628901
30
0
10
-1.1486979753142257
20
-5.4220893981109644
30
0
10
-1.1639001380361111
20
-5.4377170685042628
30
0
10
-1.1792567594494283
20
-5.4532737311310653
30
0
10
-1.1947665969900345
20
-5.4687588840639716
30
0
10
-1.210428478955802
20
-5.4841720077981311
30
0
10
-1.2262412632933453
20
-5.4995125698141836
30
0
10
-1.2422037904119161
20
-5.5147800284451334
30
0
10
-1.2583148621195424
20
-5.5299738386782851
30
0
10
-1.2745732744898739
20
-5.5450934601266235
30
0
10
-1.2909778388268522
20
-5.560138365684538
30
0
10
-1.3075274044727214
20
-5.5751080490607396
30
0
10
-1.3242208842271244
20
-5.5900020367056715
30
0
10
-1.3410572634069939
20
-5.6048198877887625
30
0
10
-1.3580355660819805
20
-5.6195611635975906
30
0
10
-1.3751548276045762
20
-5.6342254021070985
30
0
10
-1.3924140658778392
20
-5.648812093343146
30
0
10
-1.4098122467989247
20
-5.6633206494681083
30
0
10
-1.4273482672810944
20
-5.6777503942306007
30
0
10
-1.4450210134391519
20
-5.6921006301350001
30
0
10
-1.4628294070507351
20
-5.7063706952603797
30
0
10
-1.4807724548612673
20
-5.7205600230133662
30
0
10
-1.498849297592701
20
-5.734668205345268
30
0
10
-1.5170592529467259
20
-5.7486950436394739
30
0
10
-1.5354018045399596
20
-5.7626404830065194
30
0
10
-1.550181637081566
20
-5.7737317427991446
30
0
10
-1.5613259259051004
20
-5.7820136029763214
30
0
10
-1.568781849428684
20
-5.7875185886549652
30
0
10
-1.5725164106005658
20
-5.7902670178837115
30
0
0
LINE
5
106
100
AcDbEntity
8
0
100
AcDbLine
10
-0.66575694701357246
20
-4.6510561409738322
30
0
11
-0.59694118871694457
21
-4.176254387903465
31
0
0
ARC
5
107
100
AcDbEntity
8
0
100
AcDbCircle
10
-0.10211146765716204
20
-4.2479729151882433
30
0
40
0.49999999999999994
210
0
220
-0
230
1
100
AcDbArc
50
88.623006830316086
51
171.75321705786683
0
ARC
5
108
100
AcDbEntity
8
0
100
AcDbCircle
10
-2.1788126858268697e-13
20
-3.1086244689504383e-13
30
0
40
3.7491999999996843
210
0
220
0
230
1
100
AcDbArc
50
268.6230068303193
51
271.37699316968741
0
ARC
5
109
100
AcDbEntity
8
0
100
AcDbCircle
10
0.10211146765716342
20
-4.2479729151882424
30
0
40
0.50000000000000011
210
0
220
-0
230
1
100
AcDbArc
50
8.2467829421330929
51
91.376993169683573
0
LINE
5
110
100
AcDbEntity
8
0
100
AcDbLine
10
0.59694118871694635
20
-4.1762543879034641
30
0
11
0.66575694701357402
21
-4.6510561409738322
31
0
0
SPLINE
5
111
100
AcDbEntity
8
0
100
AcDbSpline
70
4
71
5
72
81
73
75
74
0
42
0.000000001
43
0.0000000001
44
0.0000000001
40
0
40
0
40
0
40
0
40
0
40
0
40
0.014285714285714285
40
0.028571428571428571
40
0.042857142857142858
40
0.057142857142857141
40
0.071428571428571425
40
0.085714285714285715
40
0.10000000000000001
40
0.1142857142857143
40
0.12857142857142859
40
0.14285714285714288
40
0.15714285714285717
40
0.17142857142857146
40
0.18571428571428575
40
0.20000000000000004
40
0.21428571428571433
40
0.22857142857142862
40
0.24285714285714291
40
0.25714285714285717
40
0.27142857142857146
40
0.28571428571428575
40
0.30000000000000004
40
0.31428571428571433
40
0.32857142857142863
40
0.34285714285714292
40
0.35714285714285721
40
0.3714285714285715
40
0.38571428571428579
40
0.40000000000000008
40
0.41428571428571437
40
0.42857142857142866
40
0.44285714285714295
40
0.45714285714285724
40
0.47142857142857153
40
0.48571428571428582
40
0.50000000000000011
40
0.51428571428571435
40
0.52857142857142858
40
0.54285714285714282
40
0.55714285714285705
40
0.57142857142857129
40
0.58571428571428552
40
0.59999999999999976
40
0.61428571428571399
40
0.62857142857142823
40
0.64285714285714246
40
0.6571428571428567
40
0.67142857142857093
40
0.68571428571428517
40
0.6999999999999994
40
0.71428571428571364
40
0.72857142857142787
40
0.74285714285714211
40
0.75714285714285634
40
0.77142857142857058
40
0.78571428571428481
40
0.79999999999999905
40
0.81428571428571328
40
0.82857142857142752
40
0.84285714285714175
40
0.85714285714285599
40
0.87142857142857022
40
0.88571428571428445
40
0.89999999999999869
40
0.91428571428571292
40
0.92857142857142716
40
0.94285714285714139
40
0.95714285714285563
40
0.97142857142856986
40
0.9857142857142841
40
1
40
1
40
1
40
1
40
1
40
1
41
1
41
1
41
1
41
1
41
1
41
1
41
1
41
1
41
1
41
1
41
1
41
1
41
1
41
1
41
1
41
1
41
1
41
1
41
1
41
1
41
1
41
1
41
1
41
1
41
1
41
1
41
1
41
1
41
1
41
1
41
1
41
1
41
1
41
1
41
1
41
1
41
1
41
1
41
1
41
1
41
1
41
1
41
1
41
1
41
1
41
1
41
1
41
1
41
1
41
1
41
1
41
1
41
1
41
1
41
1
41
1
41
1
41
1
41
1
41
1
41
1
41
1
41
1
41
1
41
1
41
1
41
1
41
1
41
1
41
1
41
1
41
1
41
1
41
1
41
1
10
0.66575694701357402
20
-4.6510561409738322
30
0
10
0.66630723279252591
20
-4.654852897109393
30
0
10
0.66753289505229318
20
-4.6624201354786994
30
0
10
0.66974665651309317
20
-4.6736921722875868
30
0
10
0.67341282846637218
20
-4.688572221166373
30
0
10
0.67897713741438726
20
-4.7069713728195586
30
0
10
0.68525666967324739
20
-4.7252302741444439
30
0
10
0.69198799762706886
20
-4.7434081773401937
30
0
10
0.69897480313222204
20
-4.7615478689586492
30
0
10
0.7061407753545299
20
-4.7796632969272848
30
0
10
0.713490025463977
20
-4.797749231727825
30
0
10
0.72107533775270805
20
-4.8157890668080334
30
0
10
0.72896481876346997
20
-4.8337629853897415
30
0
10
0.737206167951867
20
-4.8516567313357566
30
0
10
0.74580139935812406
20
-4.869467781988126
30
0
10
0.75472491398779307
20
-4.8872007721199946
30
0
10
0.76393529267753624
20
-4.9048644723046966
30
0
10
0.77338878380984954
20
-4.9224683530738815
30
0
10
0.78305380065913133
20
-4.9400188853005096
30
0
10
0.79291938349771829
20
-4.9575173784649236
30
0
10
0.80298706874280523
20
-4.9749620373750298
30
0
10
0.81326580999052256
20
-4.9923492432446439
30
0
10
0.82376607189880147
20
-5.0096750453897885
30
0
10
0.83449338229909009
20
-5.0269367898098203
30
0
10
0.84544514499455936
20
-5.0441339220184522
30
0
10
0.85661411872587134
20
-5.0612671012270063
30
0
10
0.86799049658767224
20
-5.0783376691024449
30
0
10
0.8795643678415328
20
-5.0953470218858019
30
0
10
0.89132843127618799
20
-5.1122959184762067
30
0
10
0.90327913397182835
20
-5.1291841888003029
30
0
10
0.9154151620094253
20
-5.1460111151519383
30
0
10
0.92773652803099149
20
-5.1627756619342069
30
0
10
0.94024349681601516
20
-5.1794767467334335
30
0
10
0.95293539026524954
20
-5.1961135419352731
30
0
10
0.96581012425001589
20
-5.212685591144707
30
0
10
0.97886484254458783
20
-5.2291926478385919
30
0
10
0.99209629185035597
20
-5.2456345797490931
30
0
10
1.0055012665085052
20
-5.2620112556061747
30
0
10
1.0190771024661398
20
-5.2783224197786449
30
0
10
1.0328218567294298
20
-5.2945676458341264
30
0
10
1.0467340316689113
20
-5.3107464044016695
30
0
10
1.0608124063488473
20
-5.3268581042505181
30
0
10
1.0750558381750408
20
-5.3429021411157249
30
0
10
1.089463041047031
20
-5.3588779521513787
30
0
10
1.1040324988383718
20
-5.3747850379361486
30
0
10
1.1187625828478369
20
-5.3906229351945694
30
0
10
1.1336516202458942
20
-5.4063912017628901
30
0
10
1.1486979753142275
20
-5.4220893981109644
30
0
10
1.1639001380361131
20
-5.4377170685042628
30
0
10
1.1792567594494299
20
-5.4532737311310653
30
0
10
1.1947665969900365
20
-5.4687588840639698
30
0
10
1.2104284789558037
20
-5.4841720077981302
30
0
10
1.226241263293347
20
-5.4995125698141836
30
0
10
1.2422037904119179
20
-5.5147800284451325
30
0
10
1.2583148621195446
20
-5.5299738386782842
30
0
10
1.2745732744898759
20
-5.5450934601266244
30
0
10
1.290977838826854
20
-5.5601383656845371
30
0
10
1.3075274044727236
20
-5.5751080490607388
30
0
10
1.3242208842271261
20
-5.5900020367056698
30
0
10
1.3410572634069959
20
-5.6048198877887625
30
0
10
1.3580355660819823
20
-5.6195611635975897
30
0
10
1.375154827604578
20
-5.6342254021070985
30
0
10
1.392414065877841
20
-5.6488120933431452
30
0
10
1.4098122467989267
20
-5.6633206494681074
30
0
10
1.4273482672810966
20
-5.6777503942306007
30
0
10
1.4450210134391541
20
-5.6921006301350001
30
0
10
1.4628294070507368
20
-5.7063706952603797
30
0
10
1.4807724548612695
20
-5.7205600230133644
30
0
10
1.4988492975927028
20
-5.734668205345268
30
0
10
1.5170592529467282
20
-5.7486950436394721
30
0
10
1.5354018045399616
20
-5.7626404830065194
30
0
10
1.550181637081568
20
-5.7737317427991446
30
0
10
1.5613259259051024
20
-5.7820136029763214
30
0
10
1.568781849428686
20
-5.7875185886549643
30
0
10
1.572516410600568
20
-5.7902670178837115
30
0
0
ARC
5
112
100
AcDbEntity
8
0
100
AcDbCircle
10
-2.1788126858268697e-13
20
-3.1086244689504383e-13
30
0
40
5.9999999999997575
210
0
220
0
230
1
100
AcDbArc
50
285.19387814197546
51
290.80612185803017
0
SPLINE
5
113
100
AcDbEntity
8
0
100
AcDbSpline
70
4
71
5
72
81
73
75
74
0
42
0.000000001
43
0.0000000001
44
0.0000000001
40
0
40
0
40
0
40
0
40
0
40
0
40
0.014285714285714285
40
0.028571428571428571
40
0.042857142857142858
40
0.057142857142857141
40
0.071428571428571425
40
0.085714285714285715
40
0.10000000000000001
40
0.1142857142857143
40
0.12857142857142859
40
0.14285714285714288
40
0.15714285714285717
40
0.17142857142857146
40
0.18571428571428575
40
0.20000000000000004
40
0.21428571428571433
40
0.22857142857142862
40
0.24285714285714291
40
0.25714285714285717
40
0.27142857142857146
40
0.28571428571428575
40
0.30000000000000004
40
0.31428571428571433
40
0.32857142857142863
40
0.34285714285714292
40
0.35714285714285721
40
0.3714285714285715
40
0.38571428571428579
40
0.40000000000000008
40
0.41428571428571437
40
0.42857142857142866
40
0.44285714285714295
40
0.45714285714285724
40
0.47142857142857153
40
0.48571428571428582
40
0.50000000000000011
40
0.51428571428571435
40
0.52857142857142858
40
0.54285714285714282
40
0.55714285714285705
40
0.57142857142857129
40
0.58571428571428552
40
0.59999999999999976
40
0.61428571428571399
40
0.62857142857142823
40
0.64285714285714246
40
0.6571428571428567
40
0.67142857142857093
40
0.68571428571428517
40
0.6999999999999994
40
0.71428571428571364
40
0.72857142857142787
40
0.74285714285714211
40
0.75714285714285634
40
0.77142857142857058
40
0.78571428571428481
40
0.79999999999999905
40
0.81428571428571328
40
0.82857142857142752
40
0.84285714285714175
40
0.85714285714285599
40
0.87142857142857022
40
0.88571428571428445
40
0.89999999999999869
40
0.91428571428571292
40
0.92857142857142716
40
0.94285714285714139
40
0.95714285714285563
40
0.97142857142856986
40
0.9857142857142841
40
1
40
1
40
1
40
1
40
1
40
1
41
1
41
1
41
1
41
1
41
1
41
1
41
1
41
1
41
1
41
1
41
1
41
1
41
1
41
1
41
1
41
1
41
1
41
1
41
1
41
1
41
1
41
1
41
1
41
1
41
1
41
1
41
1
41
1
41
1
41
1
41
1
41
1
41
1
41
1
41
1
41
1
41
1
41
1
41
1
41
1
41
1
41
1
41
1
41
1
41
1
41
1
41
1
41
1
41
1
41
1
41
1
41
1
41
1
41
1
41
1
41
1
41
1
41
1
41
1
41
1
41
1
41
1
41
1
41
1
41
1
41
1
41
1
41
1
41
1
41
1
41
1
41
1
41
1
41
1
41
1
10
2.1952135229915988
20
-4.1541055749056319
30
0
10
2.1970000097076978
20
-4.1575006650082118
30
0
10
2.200456339224242
20
-4.1643431156500492
30
0
10
2.2052909055805241
20
-4.1747636013284106
30
0
10
2.2110711834503629
20
-4.1889567355549842
30
0
10
2.2173843129459008
20
-4.2071125806633356
30
0
10
2.2230363775535884
20
-4.2255753585868359
30
0
10
2.2282753222602976
20
-4.2442381664938997
30
0
10
2.2332851210846973
20
-4.2630202265225154
30
0
10
2.2381357091745619
20
-4.2818879684001274
30
0
10
2.2428206866897886
20
-4.3008395778426642
30
0
10
2.247287589154499
20
-4.3198926456956226
30
0
10
2.2514696692082277
20
-4.3390711718701045
30
0
10
2.2553199576335721
20
-4.35839165994539
30
0
10
2.2588353422566221
20
-4.3778532528714695
30
0
10
2.2620392573502262
20
-4.3974446535471694
30
0
10
2.2649703669350796
20
-4.4171486119419976
30
0
10
2.2676696334521069
20
-4.4369470733214698
30
0
10
2.2701664145828131
20
-4.4568267065203031
30
0
10
2.272470346626366
20
-4.476782128964059
30
0
10
2.2745791314077057
20
-4.4968127913951941
30
0
10
2.2764833982462518
20
-4.516921028945946
30
0
10
2.2781723589021197
20
-4.5371097964174405
30
0
10
2.2796399812832879
20
-4.5573801958558571
30
0
10
2.2808880398382487
20
-4.5777302526661563
30
0
10
2.2819227803435629
20
-4.5981562438560548
30
0
10
2.2827529253643752
20
-4.6186534905025898
30
0
10
2.2833873135463909
20
-4.6392172968025953
30
0
10
2.2838322977633205
20
-4.6598439851740592
30
0
10
2.2840906524210576
20
-4.680531329670881
30
0
10
2.2841630186453337
20
-4.7012779773543567
30
0
10
2.2840487774999572
20
-4.7220830978397803
30
0
10
2.2837470785470275
20
-4.7429459710695712
30
0
10
2.2832579839208527
20
-4.7638655289129233
30
0
10
2.2825829114546901
20
-4.784840177118407
30
0
10
2.2817240269810251
20
-4.8058680373972527
30
0
10
2.2806838847286377
20
-4.826947090501589
30
0
10
2.2794650009713968
20
-4.8480753459927532
30
0
10
2.2780693807171226
20
-4.8692510311697612
30
0
10
2.2764983452301832
20
-4.890472658978454
30
0
10
2.2747527949618278
20
-4.9117389208642255
30
0
10
2.2728333701530978
20
-4.9330486208633264
30
0
10
2.2707406400040915
20
-4.9544005985151269
30
0
10
2.2684753141594123
20
-4.9757936425168356
30
0
10
2.2660383256386276
20
-4.9972264576713412
30
0
10
2.2634307197822228
20
-5.0186977118543608
30
0
10
2.2606535900403864
20
-5.0402060640833763
30
0
10
2.2577080013876945
20
-5.0617501973199266
30
0
10
2.2545949075793041
20
-5.0833288553014686
30
0
10
2.2513151167466723
20
-5.1049408553340969
30
0
10
2.2478693391197826
20
-5.1265850609891315
30
0
10
2.244258217268281
20
-5.1482603632690962
30
0
10
2.2404823621257361
20
-5.1699656600746344
30
0
10
2.2365423934368986
20
-5.1916998315976031
30
0
10
2.232438960209012
20
-5.213461732633899
30
0
10
2.2281727188074374
20
-5.2352502183510925
30
0
10
2.2237443210825796
20
-5.2570641636137694
30
0
10
2.2191544003455661
20
-5.2789024824840167
30
0
10
2.214403557814518
20
-5.3007641528118583
30
0
10
2.2094923552715704
20
-5.3226482215421287
30
0
10
2.204421324392269
20
-5.3445537601115536
30
0
10
2.1991909740213282
20
-5.3664798277284316
30
0
10
2.193801798936585
20
-5.3884254345529214
30
0
10
2.1882542902225266
20
-5.4103894971839885
30
0
10
2.1825489428044822
20
-5.4323708201446568
30
0
10
2.1766862478568623
20
-5.454368184423819
30
0
10
2.1706666886125254
20
-5.4763804207529967
30
0
10
2.1644907355960714
20
-5.4984064869281282
30
0
10
2.1581588441330442
20
-5.520445547759925
30
0
10
2.1516714494704541
20
-5.5424970415192867
30
0
10
2.1450289371080173
20
-5.5645606202771694
30
0
10
2.1395910803432909
20
-5.5822210055377379
30
0
10
2.1354431165685224
20
-5.5954716197838739
30
0
10
2.1326468971251704
20
-5.6043077286410679
30
0
10
2.1312410598382119
20
-5.6087263745755775
30
0
0
LINE
5
114
100
AcDbEntity
8
0
100
AcDbLine
10
2.1952135229915988
20
-4.1541055749056319
30
0
11
1.9718051727169952
21
-3.7295339998606054
31
0
0
ARC
5
115
100
AcDbEntity
8
0
100
AcDbCircle
10
2.4142859190303021
20
-3.4967018948105961
30
0
40
0.50000000000000022
210
0
220
0
230
1
100
AcDbArc
50
124.62300683031606
51
207.75321705786678
0
ARC
5
116
100
AcDbEntity
8
0
100
AcDbCircle
10
-2.1788126858268697e-13
20
-3.1086244689504383e-13
30
0
40
3.7491999999998682
210
0
220
0
230
1
100
AcDbArc
50
304.62300683032151
51
307.37699316968951
0
ARC
5
117
100
AcDbEntity
8
0
100
AcDbCircle
10
2.579505744340727
20
-3.3766626652529559
30
0
40
0.50000000000000033
210
0
220
-0
230
1
100
AcDbArc
50
44.24678294213323
51
127.37699316968327
0
LINE
5
118
100
AcDbEntity
8
0
100
AcDbLine
10
2.9376763053457782
20
-3.0277875454330876
30
0
11
3.2724308915059237
21
-3.3714613447739517
31
0
0
SPLINE
5
119
100
AcDbEntity
8
0
100
AcDbSpline
70
4
71
5
72
81
73
75
74
0
42
0.000000001
43
0.0000000001
44
0.0000000001
40
0
40
0
40
0
40
0
40
0
40
0
40
0.014285714285714285
40
0.028571428571428571
40
0.042857142857142858
40
0.057142857142857141
40
0.071428571428571425
40
0.085714285714285715
40
0.10000000000000001
40
0.1142857142857143
40
0.12857142857142859
40
0.14285714285714288
40
0.15714285714285717
40
0.17142857142857146
40
0.18571428571428575
40
0.20000000000000004
40
0.21428571428571433
40
0.22857142857142862
40
0.24285714285714291
40
0.25714285714285717
40
0.27142857142857146
40
0.28571428571428575
40
0.30000000000000004
40
0.31428571428571433
40
0.32857142857142863
40
0.34285714285714292
40
0.35714285714285721
40
0.3714285714285715
40
0.38571428571428579
40
0.40000000000000008
40
0.41428571428571437
40
0.42857142857142866
40
0.44285714285714295
40
0.45714285714285724
40
0.47142857142857153
40
0.48571428571428582
40
0.50000000000000011
40
0.51428571428571435
40
0.52857142857142858
40
0.54285714285714282
40
0.55714285714285705
40
0.57142857142857129
40
0.58571428571428552
40
0.59999999999999976
40
0.61428571428571399
40
0.62857142857142823
40
0.64285714285714246
40
0.6571428571428567
40
0.67142857142857093
40
0.68571428571428517
40
0.6999999999999994
40
0.71428571428571364
40
0.72857142857142787
40
0.74285714285714211
40
0.75714285714285634
40
0.77142857142857058
40
0.78571428571428481
40
0.79999999999999905
40
0.81428571428571328
40
0.82857142857142752
40
0.84285714285714175
40
0.85714285714285599
40
0.87142857142857022
40
0.88571428571428445
40
0.89999999999999869
40
0.91428571428571292
40
0.92857142857142716
40
0.94285714285714139
40
0.95714285714285563
40
0.97142857142856986
40
0.9857142857142841
40
1
40
1
40
1
40
1
40
1
40
1
41
1
41
1
41
1
41
1
41
1
41
1
41
1
41
1
41
1
41
1
41
1
41
1
41
1
41
1
41
1
41
1
41
1
41
1
41
1
41
1
41
1
41
1
41
1
41
1
41
1
41
1
41
1
41
1
41
1
41
1
41
1
41
1
41
1
41
1
41
1
41
1
41
1
41
1
41
1
41
1
41
1
41
1
41
1
41
1
41
1
41
1
41
1
41
1
41
1
41
1
41
1
41
1
41
1
41
1
41
1
41
1
41
1
41
1
41
1
41
1
41
1
41
1
41
1
41
1
41
1
41
1
41
1
41
1
41
1
41
1
41
1
41
1
41
1
41
1
41
1
10
3.2724308915059237
20
-3.3714613447739517
30
0
10
3.2751077593158917
20
-3.3742095351457033
30
0
10
3.2805472520274681
20
-3.3796111333863759
30
0
10
3.2889637596703087
20
-3.3874291863872346
30
0
10
3.3006760283691539
20
-3.3973124770007961
30
0
10
3.3159923988664861
20
-3.4089270846314634
30
0
10
3.3318049601024615
20
-3.4200078296488581
30
0
10
3.3479354222278754
20
-3.4307574869567214
30
0
10
3.364250109832398
20
-3.4413260645122081
30
0
10
3.3806954845403947
20
-3.4517697008085992
30
0
10
3.39727179852453
20
-3.4620817485916522
30
0
10
3.4140119940876894
20
-3.4722177470499127
30
0
10
3.4309595225704284
20
-3.4821216320516593
30
0
10
3.4481445940957558
20
-3.4917538331030809
30
0
10
3.4655673552752999
20
-3.5011111255078822
30
0
10
3.4832098203388155
20
-3.5102123055877104
30
0
10
3.5010436356929304
20
-3.5190888144588186
30
0
10
3.5190389721743864
20
-3.5277740304977883
30
0
10
3.537174079069072
20
-3.5362917549622894
30
0
10
3.5554408594642855
20
-3.5446494892104634
30
0
10
3.573839501160212
20
-3.5528448778180288
30
0
10
3.5923751206991299
20
-3.5608697303337045
30
0
10
3.6110538620133688
20
-3.5687146996154082
30
0
10
3.6298786372300738
20
-3.5763743893537185
30
0
10
3.6488470200630276
20
-3.5838498769660103
30
0
10
3.6679535396850587
20
-3.591145952070895
30
0
10
3.6871910507551271
20
-3.5982694644540825
30
0
10
3.7065523560073057
20
-3.6052273690841865
30
0
10
3.7260319947073164
20
-3.6120245714678036
30
0
10
3.7456269925160446
20
-3.618663022366567
30
0
10
3.7653358645935735
20
-3.6251429134462283
30
0
10
3.7851580124589197
20
-3.631463399460503
30
0
10
3.8050930140963923
20
-3.6376234490848551
30
0
10
3.8251398344526706
20
-3.6436227913419517
30
0
10
3.8452965191699739
20
-3.6494622820205675
30
0
10
3.8655606126104813
20
-3.6551434005266485
30
0
10
3.8859294050552484
20
-3.6606679520942143
30
0
10
3.9064002259132229
20
-3.6660377147625489
30
0
10
3.9269707696640954
20
-3.6712540476126772
30
0
10
3.9476392137421734
20
-3.6763177477166789
30
0
10
3.9684040353833332
20
-3.6812292670889697
30
0
10
3.9892638993130958
20
-3.6859888450618428
30
0
10
4.0102175259753121
20
-3.690596664374703
30
0
10
4.0312635440603293
20
-3.6950530256265282
30
0
10
4.0524004334435908
20
-3.6993584159337392
30
0
10
4.0736266041716425
20
-3.7035134178251732
30
0
10
4.0949404429996301
20
-3.7075186568473706
30
0
10
4.1163403682543009
20
-3.7113747388640741
30
0
10
4.1378248904324284
20
-3.7150821827438687
30
0
10
4.1593926349989072
20
-3.7186413915929228
30
0
10
4.1810423016727079
20
-3.7220526897043174
30
0
10
4.2027726371696073
20
-3.7253163454990332
30
0
10
4.2245824045419793
20
-3.7284325994419931
30
0
10
4.2464703472773309
20
-3.7314016949057334
30
0
10
4.2684351756675714
20
-3.7342238952452913
30
0
10
4.2904755980843046
20
-3.7368994709285444
30
0
10
4.3125903430273125
20
-3.739428694216103
30
0
10
4.3347781820043627
20
-3.7418118318493736
30
0
10
4.3570379571064466
20
-3.7440491397590536
30
0
10
4.3793685883240085
20
-3.7461408577214605
30
0
10
4.4017690282441189
20
-3.7480872044482556
30
0
10
4.4242382248790353
20
-3.7498883731588952
30
0
10
4.4467750839403655
20
-3.7515445285377327
30
0
10
4.4693784232990446
20
-3.7530558028445387
30
0
10
4.4920469530485647
20
-3.7544222973585706
30
0
10
4.5147793620592305
20
-3.7556441025193039
30
0
10
4.5375743889634714
20
-3.7567213165846658
30
0
10
4.5604308971662233
20
-3.7576540649913777
30
0
10
4.583347951651942
20
-3.7584425226920799
30
0
10
4.6063248836857831
20
-3.7590869300474412
30
0
10
4.6293612432415969
20
-3.7595875461734902
30
0
10
4.6478376578772211
20
-3.7598731962354428
30
0
10
4.6617215321993761
20
-3.760022913246055
30
0
10
4.6709892504347028
20
-3.7600940583244844
30
0
10
4.6756260600569153
20
-3.7601224642977611
30
0
0
ARC
5
120
100
AcDbEntity
8
0
100
AcDbCircle
10
-2.1788126858268697e-13
20
-3.1086244689504383e-13
30
0
40
5.9999999999999769
210
0
220
0
230
1
100
AcDbArc
50
321.19387814197637
51
326.80612185803091
0
SPLINE
5
121
100
AcDbEntity
8
0
100
AcDbSpline
70
4
71
5
72
81
73
75
74
0
42
0.000000001
43
0.0000000001
44
0.0000000001
40
0
40
0
40
0
40
0
40
0
40
0
40
0.014285714285714285
40
0.028571428571428571
40
0.042857142857142858
40
0.057142857142857141
40
0.071428571428571425
40
0.085714285714285715
40
0.10000000000000001
40
0.1142857142857143
40
0.12857142857142859
40
0.14285714285714288
40
0.15714285714285717
40
0.17142857142857146
40
0.18571428571428575
40
0.20000000000000004
40
0.21428571428571433
40
0.22857142857142862
40
0.24285714285714291
40
0.25714285714285717
40
0.27142857142857146
40
0.28571428571428575
40
0.30000000000000004
40
0.31428571428571433
40
0.32857142857142863
40
0.34285714285714292
40
0.35714285714285721
40
0.3714285714285715
40
0.38571428571428579
40
0.40000000000000008
40
0.41428571428571437
40
0.42857142857142866
40
0.44285714285714295
40
0.45714285714285724
40
0.47142857142857153
40
0.48571428571428582
40
0.50000000000000011
40
0.51428571428571435
40
0.52857142857142858
40
0.54285714285714282
40
0.55714285714285705
40
0.57142857142857129
40
0.58571428571428552
40
0.59999999999999976
40
0.61428571428571399
40
0.62857142857142823
40
0.64285714285714246
40
0.6571428571428567
40
0.67142857142857093
40
0.68571428571428517
40
0.6999999999999994
40
0.71428571428571364
40
0.72857142857142787
40
0.74285714285714211
40
0.75714285714285634
40
0.77142857142857058
40
0.78571428571428481
40
0.79999999999999905
40
0.81428571428571328
40
0.82857142857142752
40
0.84285714285714175
40
0.85714285714285599
40
0.87142857142857022
40
0.88571428571428445
40
0.89999999999999869
40
0.91428571428571292
40
0.92857142857142716
40
0.94285714285714139
40
0.95714285714285563
40
0.97142857142856986
40
0.9857142857142841
40
1
40
1
40
1
40
1
40
1
40
1
41
1
41
1
41
1
41
1
41
1
41
1
41
1
41
1
41
1
41
1
41
1
41
1
41
1
41
1
41
1
41
1
41
1
41
1
41
1
41
1
41
1
41
1
41
1
41
1
41
1
41
1
41
1
41
1
41
1
41
1
41
1
41
1
41
1
41
1
41
1
41
1
41
1
41
1
41
1
41
1
41
1
41
1
41
1
41
1
41
1
41
1
41
1
41
1
41
1
41
1
41
1
41
1
41
1
41
1
41
1
41
1
41
1
41
1
41
1
41
1
41
1
41
1
41
1
41
1
41
1
41
1
41
1
41
1
41
1
41
1
41
1
41
1
41
1
41
1
41
1
10
4.2176870397773785
20
-2.0704278720789016
30
0
10
4.2211279217834283
20
-2.0721244871241842
30
0
10
4.2279460426772841
20
-2.0756285664597147
30
0
10
4.2379822968234153
20
-2.0812172296576974
30
0
10
4.2510011548345119
20
-2.0893021543643968
30
0
10
4.2667803218816864
20
-2.1002797771910022
30
0
10
4.2822050867823966
20
-2.1118942780730818
30
0
10
4.2974132053368539
20
-2.1239134323964723
30
0
10
4.3125060356166864
20
-2.1361637522830588
30
0
10
4.3275204242338203
20
-2.1485769719633585
30
0
10
4.3424501271994327
20
-2.1611553853823553
30
0
10
4.3572630395004959
20
-2.1739440616781924
30
0
10
4.3719192681818644
20
-2.1870016503009237
30
0
10
4.3863905149089586
20
-2.2003691107399592
30
0
10
4.4006737581188391
20
-2.2140475789171998
30
0
10
4.4147813162670282
20
-2.2280141409658323
30
0
10
4.4287343298898145
20
-2.2422321151768752
30
0
10
4.442555325991373
20
-2.2566628178446284
30
0
10
4.4562602195726075
20
-2.2712782078175939
30
0
10
4.4698536427654325
20
-2.2860682664270398
30
0
10
4.4833334134616853
20
-2.3010339001476856
30
0
10
4.4966933231778201
20
-2.3161825060890453
30
0
10
4.5099263808329546
20
-2.3315228159037469
30
0
10
4.5230283541286234
20
-2.3470592667406094
30
0
10
4.5359995179859691
20
-2.3627892181240333
30
0
10
4.5488427370244153
20
-2.3787059869146416
30
0
10
4.5615623177454818
20
-2.3948006607890844
30
0
10
4.5741626506399058
20
-2.4110642455372067
30
0
10
4.5866467136620095
20
-2.4274900318071833
30
0
10
4.5990154429750207
20
-2.4440745880159223
30
0
10
4.6112685620231337
20
-2.46081644276877
30
0
10
4.623405081988567
20
-2.4777152880719533
30
0
10
4.6354238916133808
20
-2.4947710412615081
30
0
10
4.6473244133337479
20
-2.5119828016798307
30
0
10
4.6591068571233949
20
-2.5293484461689424
30
0
10
4.670771871147168
20
-2.5468651821169135
30
0
10
4.6823203349354383
20
-2.5645298745798941
30
0
10
4.6937531142460358
20
-2.5823394342305059
30
0
10
4.7050707891968679
20
-2.6002912484095027
30
0
10
4.7162735546447561
20
-2.6183833374450858
30
0
10
4.7273613699209678
20
-2.6366141134223779
30
0
10
4.7383340500215283
20
-2.6549822324621388
30
0
10
4.7491913733373483
20
-2.6734864211645721
30
0
10
4.7599332019970548
20
-2.6921252824465047
30
0
10
4.7705595295315719
20
-2.7108972200563208
30
0
10
4.7810704186361113
20
-2.7298005418471143
30
0
10
4.7914659657207084
20
-2.7488335202273442
30
0
10
4.80174625823211
20
-2.7679944637141629
30
0
10
4.8119113293618536
20
-2.7872817953666109
30
0
10
4.8219611377319822
20
-2.8066940833574625
30
0
10
4.8318955899546072
20
-2.8262299908338981
30
0
10
4.8417145540271278
20
-2.8458882429051471
30
0
10
4.8514178764074369
20
-2.8656675888563599
30
0
10
4.8610054002728589
20
-2.8855667584668949
30
0
10
4.8704769775471988
20
-2.9055844437702829
30
0
10
4.8798324663255706
20
-2.9257193327757536
30
0
10
4.8890717326280262
20
-2.9459701320815816
30
0
10
4.8981946505157401
20
-2.9663355908945981
30
0
10
4.9072011055797082
20
-2.9868145288909584
30
0
10
4.9160909921194529
20
-3.0074058448255823
30
0
10
4.9248641944737308
20
-3.0281084749639557
30
0
10
4.9335205713230721
20
-3.0489213590981867
30
0
10
4.9420599411378969
20
-3.0698434056079025
30
0
10
4.9504820644067502
20
-3.0908734493510397
30
0
10
4.9587866388488973
20
-3.1120102322565959
30
0
10
4.9669733453160338
20
-3.133252479418795
30
0
10
4.9750418874729858
20
-3.1545989608424199
30
0
10
4.9829920333899738
20
-3.1760485567992509
30
0
10
4.990823660521154
20
-3.1976003239733215
30
0
10
4.9985367908126737
20
-3.2192535520844694
30
0
10
5.0061315316327928
20
-3.2410077330611369
30
0
10
5.0121127271031183
20
-3.2584915768745315
30
0
10
5.0165454695549734
20
-3.2716496609194143
30
0
10
5.0194770149792109
20
-3.2804417997000082
30
0
10
5.0209368836381421
20
-3.2848428897775488
30
0
0
LINE
5
122
100
AcDbEntity
8
0
100
AcDbLine
10
4.2176870397773785
20
-2.0704278720789016
30
0
11
3.7873889773658993
21
-1.85825838606934
31
0
0
ARC
5
123
100
AcDbEntity
8
0
100
AcDbCircle
10
4.0085081432084673
20
-1.4098095991414603
30
0
40
0.49999999999999994
210
0
220
0
230
1
100
AcDbArc
50
160.62300683031609
51
243.75321705786678
0
ARC
5
124
100
AcDbEntity
8
0
100
AcDbCircle
10
-2.1788126858268697e-13
20
-3.1086244689504383e-13
30
0
40
3.7492000000001018
210
0
220
0
230
1
100
AcDbArc
50
340.62300683032169
51
343.3769931696894
0
ARC
5
125
100
AcDbEntity
8
0
100
AcDbCircle
10
4.0716165008617295
20
-1.2155820457338475
30
0
40
0.5
210
0
220
-0
230
1
100
AcDbArc
50
80.246782942133137
51
163.37699316968406
0
LINE
5
126
100
AcDbEntity
8
0
100
AcDbLine
10
4.1563189212777374
20
-0.72280877132088805
30
0
11
4.6291474612781291
21
-0.80408290662684856
31
0
0
SPLINE
5
127
100
AcDbEntity
8
0
100
AcDbSpline
70
4
71
5
72
81
73
75
74
0
42
0.000000001
43
0.0000000001
44
0.0000000001
40
0
40
0
40
0
40
0
40
0
40
0
40
0.014285714285714285
40
0.028571428571428571
40
0.042857142857142858
40
0.057142857142857141
40
0.071428571428571425
40
0.085714285714285715
40
0.10000000000000001
40
0.1142857142857143
40
0.12857142857142859
40
0.14285714285714288
40
0.15714285714285717
40
0.17142857142857146
40
0.18571428571428575
40
0.20000000000000004
40
0.21428571428571433
40
0.22857142857142862
40
0.24285714285714291
40
0.25714285714285717
40
0.27142857142857146
40
0.28571428571428575
40
0.30000000000000004
40
0.31428571428571433
40
0.32857142857142863
40
0.34285714285714292
40
0.35714285714285721
40
0.3714285714285715
40
0.38571428571428579
40
0.40000000000000008
40
0.41428571428571437
40
0.42857142857142866
40
0.44285714285714295
40
0.45714285714285724
40
0.47142857142857153
40
0.48571428571428582
40
0.50000000000000011
40
0.51428571428571435
40
0.52857142857142858
40
0.54285714285714282
40
0.55714285714285705
40
0.57142857142857129
40
0.58571428571428552
40
0.59999999999999976
40
0.61428571428571399
40
0.62857142857142823
40
0.64285714285714246
40
0.6571428571428567
40
0.67142857142857093
40
0.68571428571428517
40
0.6999999999999994
40
0.71428571428571364
40
0.72857142857142787
40
0.74285714285714211
40
0.75714285714285634
40
0.77142857142857058
40
0.78571428571428481
40
0.79999999999999905
40
0.81428571428571328
40
0.82857142857142752
40
0.84285714285714175
40
0.85714285714285599
40
0.87142857142857022
40
0.88571428571428445
40
0.89999999999999869
40
0.91428571428571292
40
0.92857142857142716
40
0.94285714285714139
40
0.95714285714285563
40
0.97142857142856986
40
0.9857142857142841
40
1
40
1
40
1
40
1
40
1
40
1
41
1
41
1
41
1
41
1
41
1
41
1
41
1
41
1
41
1
41
1
41
1
41
1
41
1
41
1
41
1
41
1
41
1
41
1
41
1
41
1
41
1
41
1
41
1
41
1
41
1
41
1
41
1
41
1
41
1
41
1
41
1
41
1
41
1
41
1
41
1
41
1
41
1
41
1
41
1
41
1
41
1
41
1
41
1
41
1
41
1
41
1
41
1
41
1
41
1
41
1
41
1
41
1
41
1
41
1
41
1
41
1
41
1
41
1
41
1
41
1
41
1
41
1
41
1
41
1
41
1
41
1
41
1
41
1
41
1
41
1
41
1
41
1
41
1
41
1
41
1
10
4.6291474612781291
20
-0.80408290662684856
30
0
10
4.6329284385990972
20
-0.80473281592033763
30
0
10
4.6405040604282171
20
-0.80590554709801054
30
0
10
4.6519084944001072
20
-0.80728338577035996
30
0
10
4.6671931712869315
20
-0.80839483702501025
30
0
10
4.6864112703878851
20
-0.80878851528423723
30
0
10
4.7057169996580219
20
-0.8084586360181677
30
0
10
4.7250853076773636
20
-0.80767404371395513
30
0
10
4.7444962212321649
20
-0.8066346697930159
30
0
10
4.7639394242451232
20
-0.80541740031808351
30
0
10
4.7834112135701972
20
-0.80401670932413549
30
0
10
4.8029121066809779
20
-0.80237726425930966
30
0
10
4.8224443027805943
20
-0.80042816823109719
30
0
10
4.8420089834192748
20
-0.79811965097275483
30
0
10
4.8616043717793929
20
-0.79544901747402463
30
0
10
4.8812269652678246
20
-0.79244204604905322
30
0
10
4.9008723059701289
20
-0.78914083891924391
30
0
10
4.9205358809038033
20
-0.78558993290074741
30
0
10
4.9402140833997343
20
-0.78182136836448868
30
0
10
4.9599047721056335
20
-0.77784597328255878
30
0
10
4.9796067144713865
20
-0.77366173169050745
30
0
10
4.9993192356401757
20
-0.76925900994596064
30
0
10
5.0190418120454012
20
-0.7646266347393138
30
0
10
5.0387736277763198
20
-0.7597585286591455
30
0
10
5.0585133532161883
20
-0.75465698948968085
30
0
10
5.0782593776400393
20
-0.74932910778530215
30
0
10
5.0980099465485615
20
-0.74378462506514209
30
0
10
5.1177633252592871
20
-0.73803339846377258
30
0
10
5.137517979329818
20
-0.732082606358473
30
0
10
5.1572726490981786
20
-0.7259355752212221
30
0
10
5.1770262459619492
20
-0.71959333287987592
30
0
10
5.1967777889165383
20
-0.71305554729412235
30
0
10
5.2165263303467304
20
-0.70632163215948385
30
0
10
5.2362708736003167
20
-0.6993919766397696
30
0
10
5.2560103405886629
20
-0.69226842182532389
30
0
10
5.2757436142320362
20
-0.68495360796839488
30
0
10
5.2954695634116922
20
-0.67745058826681581
30
0
10
5.3151870726793575
20
-0.66976237091861979
30
0
10
5.3348950756777
20
-0.66189141059429013
30
0
10
5.3545925664273177
20
-0.65383942341591939
30
0
10
5.3742785786735627
20
-0.64560767012914733
30
0
10
5.3939521728326802
20
-0.63719712921251215
30
0
10
5.4136124211335286
20
-0.62860870060953189
30
0
10
5.4332583908509404
20
-0.61984343354547922
30
0
10
5.4528891384981639
20
-0.61090261561261128
30
0
10
5.472503720177694
20
-0.60178765263785072
30
0
10
5.4921011984340584
20
-0.59249999894051197
30
0
10
5.5116806497844895
20
-0.58304107435887231
30
0
10
5.5312411741788647
20
-0.57341217417446333
30
0
10
5.5507818965347875
20
-0.56361443243849008
30
0
10
5.570301955517496
20
-0.55364887579557986
30
0
10
5.5898004949726499
20
-0.54351645806485094
30
0
10
5.6092766555303335
20
-0.53321810084608345
30
0
10
5.6287295637013735
20
-0.52275473959130814
30
0
10
5.648158330886214
20
-0.51212734543062333
30
0
10
5.6675620711125614
20
-0.50133689637725898
30
0
10
5.6869399157459046
20
-0.49038436006375397
30
0
10
5.7062910277018126
20
-0.47927067437805365
30
0
10
5.7256146206445102
20
-0.46799672697428263
30
0
10
5.744909961764896
20
-0.45656334664924392
30
0
10
5.7641763322435979
20
-0.44497132599826267
30
0
10
5.7834129945762029
20
-0.43322143968204263
30
0
10
5.8026191602638368
20
-0.42131446413960405
30
0
10
5.8217939506843406
20
-0.40925120120937952
30
0
10
5.8409363818118827
20
-0.39703249101602972
30
0
10
5.8600454460792486
20
-0.3846591773893277
30
0
10
5.879120180773195
20
-0.37213208123486252
30
0
10
5.8981597400988566
20
-0.3594519721068889
30
0
10
5.917163470447349
20
-0.3466195411334147
30
0
10
5.9361309720812736
20
-0.33363537584278391
30
0
10
5.9550620332264099
20
-0.32049995038300161
30
0
10
5.9701776675554807
20
-0.30987088209950442
30
0
10
5.981497959280726
20
-0.30183126913419173
30
0
10
5.9890375188600578
20
-0.29644139861058039
30
0
10
5.9928054732562774
20
-0.29373893121207889
30
0
0
ARC
5
128
100
AcDbEntity
8
0
100
AcDbCircle
10
-2.1788126858268697e-13
20
-3.1086244689504383e-13
30
0
40
6.0000000000002025
210
0
220
0
230
1
100
AcDbArc
50
-2.8061218580242246
51
2.8061218580300955
0
SPLINE
5
129
100
AcDbEntity
8
0
100
AcDbSpline
70
4
71
5
72
81
73
75
74
0
42
0.000000001
43
0.0000000001
44
0.0000000001
40
0
40
0
40
0
40
0
40
0
40
0
40
0.014285714285714285
40
0.028571428571428571
40
0.042857142857142858
40
0.057142857142857141
40
0.071428571428571425
40
0.085714285714285715
40
0.10000000000000001
40
0.1142857142857143
40
0.12857142857142859
40
0.14285714285714288
40
0.15714285714285717
40
0.17142857142857146
40
0.18571428571428575
40
0.20000000000000004
40
0.21428571428571433
40
0.22857142857142862
40
0.24285714285714291
40
0.25714285714285717
40
0.27142857142857146
40
0.28571428571428575
40
0.30000000000000004
40
0.31428571428571433
40
0.32857142857142863
40
0.34285714285714292
40
0.35714285714285721
40
0.3714285714285715
40
0.38571428571428579
40
0.40000000000000008
40
0.41428571428571437
40
0.42857142857142866
40
0.44285714285714295
40
0.45714285714285724
40
0.47142857142857153
40
0.48571428571428582
40
0.50000000000000011
40
0.51428571428571435
40
0.52857142857142858
40
0.54285714285714282
40
0.55714285714285705
40
0.57142857142857129
40
0.58571428571428552
40
0.59999999999999976
40
0.61428571428571399
40
0.62857142857142823
40
0.64285714285714246
40
0.6571428571428567
40
0.67142857142857093
40
0.68571428571428517
40
0.6999999999999994
40
0.71428571428571364
40
0.72857142857142787
40
0.74285714285714211
40
0.75714285714285634
40
0.77142857142857058
40
0.78571428571428481
40
0.79999999999999905
40
0.81428571428571328
40
0.82857142857142752
40
0.84285714285714175
40
0.85714285714285599
40
0.87142857142857022
40
0.88571428571428445
40
0.89999999999999869
40
0.91428571428571292
40
0.92857142857142716
40
0.94285714285714139
40
0.95714285714285563
40
0.97142857142856986
40
0.9857142857142841
40
1
40
1
40
1
40
1
40
1
40
1
41
1
41
1
41
1
41
1
41
1
41
1
41
1
41
1
41
1
41
1
41
1
41
1
41
1
41
1
41
1
41
1
41
1
41
1
41
1
41
1
41
1
41
1
41
1
41
1
41
1
41
1
41
1
41
1
41
1
41
1
41
1
41
1
41
1
41
1
41
1
41
1
41
1
41
1
41
1
41
1
41
1
41
1
41
1
41
1
41
1
41
1
41
1
41
1
41
1
41
1
41
1
41
1
41
1
41
1
41
1
41
1
41
1
41
1
41
1
41
1
41
1
41
1
41
1
41
1
41
1
41
1
41
1
41
1
41
1
41
1
41
1
41
1
41
1
41
1
41
1
10
4.6291474612781291
20
0.80408290662684967
30
0
10
4.6329284385990972
20
0.80473281592033874
30
0
10
4.6405040604282171
20
0.80590554709801165
30
0
10
4.6519084944001072
20
0.80728338577036107
30
0
10
4.6671931712869315
20
0.80839483702501136
30
0
10
4.6864112703878851
20
0.80878851528423834
30
0
10
4.7057169996580219
20
0.80845863601816881
30
0
10
4.7250853076773636
20
0.80767404371395624
30
0
10
4.7444962212321649
20
0.80663466979301701
30
0
10
4.7639394242451232
20
0.80541740031808462
30
0
10
4.7834112135701972
20
0.8040167093241366
30
0
10
4.8029121066809779
20
0.80237726425931077
30
0
10
4.8224443027805943
20
0.8004281682310983
30
0
10
4.8420089834192748
20
0.79811965097275595
30
0
10
4.8616043717793929
20
0.79544901747402574
30
0
10
4.8812269652678246
20
0.79244204604905433
30
0
10
4.9008723059701289
20
0.78914083891924502
30
0
10
4.9205358809038033
20
0.78558993290074852
30
0
10
4.9402140833997343
20
0.78182136836448979
30
0
10
4.9599047721056335
20
0.77784597328255989
30
0
10
4.9796067144713865
20
0.77366173169050856
30
0
10
4.9993192356401757
20
0.76925900994596175
30
0
10
5.0190418120454012
20
0.76462663473931491
30
0
10
5.0387736277763198
20
0.75975852865914661
30
0
10
5.0585133532161883
20
0.75465698948968196
30
0
10
5.0782593776400393
20
0.74932910778530326
30
0
10
5.0980099465485615
20
0.7437846250651432
30
0
10
5.1177633252592871
20
0.73803339846377392
30
0
10
5.137517979329818
20
0.73208260635847444
30
0
10
5.1572726490981786
20
0.72593557522122354
30
0
10
5.1770262459619492
20
0.71959333287987737
30
0
10
5.1967777889165383
20
0.71305554729412368
30
0
10
5.2165263303467304
20
0.70632163215948518
30
0
10
5.2362708736003167
20
0.69939197663977104
30
0
10
5.2560103405886629
20
0.69226842182532522
30
0
10
5.2757436142320362
20
0.68495360796839622
30
0
10
5.2954695634116922
20
0.67745058826681714
30
0
10
5.3151870726793575
20
0.66976237091862123
30
0
10
5.3348950756777
20
0.66189141059429146
30
0
10
5.3545925664273177
20
0.65383942341592072
30
0
10
5.3742785786735627
20
0.64560767012914866
30
0
10
5.3939521728326802
20
0.63719712921251348
30
0
10
5.4136124211335286
20
0.62860870060953322
30
0
10
5.4332583908509404
20
0.61984343354548066
30
0
10
5.4528891384981639
20
0.61090261561261272
30
0
10
5.472503720177694
20
0.60178765263785206
30
0
10
5.4921011984340584
20
0.59249999894051331
30
0
10
5.5116806497844895
20
0.58304107435887376
30
0
10
5.5312411741788647
20
0.57341217417446477
30
0
10
5.5507818965347875
20
0.56361443243849152
30
0
10
5.570301955517496
20
0.55364887579558131
30
0
10
5.5898004949726499
20
0.54351645806485227
30
0
10
5.6092766555303335
20
0.53321810084608479
30
0
10
5.6287295637013735
20
0.52275473959130958
30
0
10
5.648158330886214
20
0.51212734543062477
30
0
10
5.6675620711125614
20
0.50133689637726031
30
0
10
5.6869399157459046
20
0.49038436006375535
30
0
10
5.7062910277018126
20
0.47927067437805504
30
0
10
5.7256146206445102
20
0.46799672697428402
30
0
10
5.744909961764896
20
0.45656334664924531
30
0
10
5.7641763322435979
20
0.44497132599826406
30
0
10
5.7834129945762029
20
0.43322143968204396
30
0
10
5.8026191602638368
20
0.42131446413960544
30
0
10
5.8217939506843406
20
0.40925120120938085
30
0
10
5.8409363818118827
20
0.39703249101603111
30
0
10
5.8600454460792486
20
0.38465917738932909
30
0
10
5.879120180773195
20
0.37213208123486391
30
0
10
5.8981597400988566
20
0.35945197210689028
30
0
10
5.917163470447349
20
0.34661954113341609
30
0
10
5.9361309720812736
20
0.33363537584278524
30
0
10
5.9550620332264099
20
0.32049995038300311
30
0
10
5.9701776675554807
20
0.30987088209950586
30
0
10
5.981497959280726
20
0.30183126913419317
30
0
10
5.9890375188600578
20
0.29644139861058183
30
0
10
5.9928054732562774
20
0.29373893121208033
30
0
0
LINE
5
130
100
AcDbEntity
8
0
100
AcDbLine
10
4.6291474612781291
20
0.80408290662684967
30
0
11
4.1563189212777365
21
0.72280877132088905
31
0
0
ARC
5
131
100
AcDbEntity
8
0
100
AcDbCircle
10
4.0716165008617295
20
1.2155820457338493
30
0
40
0.50000000000000033
210
0
220
0
230
1
100
AcDbArc
50
196.62300683031609
51
279.75321705786672
0
ARC
5
132
100
AcDbEntity
8
0
100
AcDbCircle
10
-2.1788126858268697e-13
20
-3.1086244689504383e-13
30
0
40
3.7492000000002972
210
0
220
-0
230
1
100
AcDbArc
50
16.623006830319703
51
19.376993169687474
0
ARC
5
133
100
AcDbEntity
8
0
100
AcDbCircle
10
4.0085081432084673
20
1.4098095991414603
30
0
40
0.50000000000000033
210
0
220
0
230
1
100
AcDbArc
50
116.24678294213329
51
199.37699316968252
0
LINE
5
134
100
AcDbEntity
8
0
100
AcDbLine
10
3.7873889773658984
20
1.85825838606934
30
0
11
4.2176870397773776
21
2.070427872078902
31
0
0
SPLINE
5
135
100
AcDbEntity
8
0
100
AcDbSpline
70
4
71
5
72
81
73
75
74
0
42
0.000000001
43
0.0000000001
44
0.0000000001
40
0
40
0
40
0
40
0
40
0
40
0
40
0.014285714285714285
40
0.028571428571428571
40
0.042857142857142858
40
0.057142857142857141
40
0.071428571428571425
40
0.085714285714285715
40
0.10000000000000001
40
0.1142857142857143
40
0.12857142857142859
40
0.14285714285714288
40
0.15714285714285717
40
0.17142857142857146
40
0.18571428571428575
40
0.20000000000000004
40
0.21428571428571433
40
0.22857142857142862
40
0.24285714285714291
40
0.25714285714285717
40
0.27142857142857146
40
0.28571428571428575
40
0.30000000000000004
40
0.31428571428571433
40
0.32857142857142863
40
0.34285714285714292
40
0.35714285714285721
40
0.3714285714285715
40
0.38571428571428579
40
0.40000000000000008
40
0.41428571428571437
40
0.42857142857142866
40
0.44285714285714295
40
0.45714285714285724
40
0.47142857142857153
40
0.48571428571428582
40
0.50000000000000011
40
0.51428571428571435
40
0.52857142857142858
40
0.54285714285714282
40
0.55714285714285705
40
0.57142857142857129
40
0.58571428571428552
40
0.59999999999999976
40
0.61428571428571399
40
0.62857142857142823
40
0.64285714285714246
40
0.6571428571428567
40
0.67142857142857093
40
0.68571428571428517
40
0.6999999999999994
40
0.71428571428571364
40
0.72857142857142787
40
0.74285714285714211
40
0.75714285714285634
40
0.77142857142857058
40
0.78571428571428481
40
0.79999999999999905
40
0.81428571428571328
40
0.82857142857142752
40
0.84285714285714175
40
0.85714285714285599
40
0.87142857142857022
40
0.88571428571428445
40
0.89999999999999869
40
0.91428571428571292
40
0.92857142857142716
40
0.94285714285714139
40
0.95714285714285563
40
0.97142857142856986
40
0.9857142857142841
40
1
40
1
40
1
40
1
40
1
40
1
41
1
41
1
41
1
41
1
41
1
41
1
41
1
41
1
41
1
41
1
41
1
41
1
41
1
41
1
41
1
41
1
41
1
41
1
41
1
41
1
41
1
41
1
41
1
41
1
41
1
41
1
41
1
41
1
41
1
41
1
41
1
41
1
41
1
41
1
41
1
41
1
41
1
41
1
41
1
41
1
41
1
41
1
41
1
41
1
41
1
41
1
41
1
41
1
41
1
41
1
41
1
41
1
41
1
41
1
41
1
41
1
41
1
41
1
41
1
41
1
41
1
41
1
41
1
41
1
41
1
41
1
41
1
41
1
41
1
41
1
41
1
41
1
41
1
41
1
41
1
10
4.2176870397773776
20
2.070427872078902
30
0
10
4.2211279217834274
20
2.0721244871241846
30
0
10
4.2279460426772832
20
2.0756285664597152
30
0
10
4.2379822968234144
20
2.0812172296576978
30
0
10
4.251001154834511
20
2.0893021543643977
30
0
10
4.2667803218816855
20
2.1002797771910031
30
0
10
4.2822050867823958
20
2.1118942780730827
30
0
10
4.297413205336853
20
2.1239134323964732
30
0
10
4.3125060356166847
20
2.1361637522830597
30
0
10
4.3275204242338194
20
2.148576971963359
30
0
10
4.3424501271994318
20
2.1611553853823562
30
0
10
4.357263039500495
20
2.1739440616781929
30
0
10
4.3719192681818626
20
2.1870016503009246
30
0
10
4.3863905149089577
20
2.2003691107399597
30
0
10
4.4006737581188382
20
2.2140475789172007
30
0
10
4.4147813162670282
20
2.2280141409658327
30
0
10
4.4287343298898136
20
2.242232115176876
30
0
10
4.4425553259913722
20
2.2566628178446293
30
0
10
4.4562602195726067
20
2.2712782078175948
30
0
10
4.4698536427654316
20
2.2860682664270406
30
0
10
4.4833334134616845
20
2.3010339001476861
30
0
10
4.4966933231778192
20
2.3161825060890462
30
0
10
4.5099263808329528
20
2.3315228159037478
30
0
10
4.5230283541286216
20
2.3470592667406098
30
0
10
4.5359995179859682
20
2.3627892181240342
30
0
10
4.5488427370244136
20
2.3787059869146421
30
0
10
4.5615623177454809
20
2.3948006607890853
30
0
10
4.5741626506399049
20
2.4110642455372071
30
0
10
4.5866467136620077
20
2.4274900318071841
30
0
10
4.5990154429750199
20
2.4440745880159231
30
0
10
4.6112685620231328
20
2.4608164427687709
30
0
10
4.6234050819885661
20
2.4777152880719542
30
0
10
4.6354238916133799
20
2.4947710412615089
30
0
10
4.647324413333747
20
2.5119828016798311
30
0
10
4.659106857123394
20
2.5293484461689433
30
0
10
4.6707718711471662
20
2.5468651821169139
30
0
10
4.6823203349354365
20
2.564529874579895
30
0
10
4.6937531142460349
20
2.5823394342305073
30
0
10
4.7050707891968671
20
2.6002912484095031
30
0
10
4.7162735546447552
20
2.6183833374450867
30
0
10
4.7273613699209669
20
2.6366141134223788
30
0
10
4.7383340500215274
20
2.6549822324621393
30
0
10
4.7491913733373465
20
2.6734864211645726
30
0
10
4.7599332019970539
20
2.6921252824465052
30
0
10
4.7705595295315719
20
2.7108972200563213
30
0
10
4.7810704186361104
20
2.7298005418471147
30
0
10
4.7914659657207075
20
2.7488335202273451
30
0
10
4.8017462582321091
20
2.7679944637141634
30
0
10
4.8119113293618527
20
2.7872817953666114
30
0
10
4.8219611377319813
20
2.8066940833574638
30
0
10
4.8318955899546054
20
2.8262299908338995
30
0
10
4.841714554027126
20
2.8458882429051475
30
0
10
4.8514178764074352
20
2.8656675888563612
30
0
10
4.8610054002728571
20
2.8855667584668954
30
0
10
4.8704769775471979
20
2.9055844437702842
30
0
10
4.8798324663255697
20
2.9257193327757545
30
0
10
4.8890717326280244
20
2.9459701320815821
30
0
10
4.8981946505157383
20
2.966335590894599
30
0
10
4.9072011055797065
20
2.9868145288909593
30
0
10
4.916090992119452
20
3.0074058448255832
30
0
10
4.924864194473729
20
3.0281084749639566
30
0
10
4.9335205713230712
20
3.0489213590981872
30
0
10
4.942059941137896
20
3.0698434056079043
30
0
10
4.9504820644067484
20
3.0908734493510401
30
0
10
4.9587866388488964
20
3.1120102322565968
30
0
10
4.966973345316033
20
3.1332524794187955
30
0
10
4.9750418874729849
20
3.1545989608424208
30
0
10
4.9829920333899729
20
3.1760485567992514
30
0
10
4.9908236605211522
20
3.1976003239733219
30
0
10
4.9985367908126719
20
3.2192535520844707
30
0
10
5.006131531632791
20
3.2410077330611378
30
0
10
5.0121127271031174
20
3.2584915768745319
30
0
10
5.0165454695549725
20
3.2716496609194152
30
0
10
5.0194770149792101
20
3.280441799700009
30
0
10
5.0209368836381412
20
3.2848428897775497
30
0
0
ARC
5
136
100
AcDbEntity
8
0
100
AcDbCircle
10
-2.1788126858268697e-13
20
-3.1086244689504383e-13
30
0
40
6.0000000000003526
210
0
220
-0
230
1
100
AcDbArc
50
33.193878141974047
51
38.806121858028334
0
SPLINE
5
137
100
AcDbEntity
8
0
100
AcDbSpline
70
4
71
5
72
81
73
75
74
0
42
0.000000001
43
0.0000000001
44
0.0000000001
40
0
40
0
40
0
40
0
40
0
40
0
40
0.014285714285714285
40
0.028571428571428571
40
0.042857142857142858
40
0.057142857142857141
40
0.071428571428571425
40
0.085714285714285715
40
0.10000000000000001
40
0.1142857142857143
40
0.12857142857142859
40
0.14285714285714288
40
0.15714285714285717
40
0.17142857142857146
40
0.18571428571428575
40
0.20000000000000004
40
0.21428571428571433
40
0.22857142857142862
40
0.24285714285714291
40
0.25714285714285717
40
0.27142857142857146
40
0.28571428571428575
40
0.30000000000000004
40
0.31428571428571433
40
0.32857142857142863
40
0.34285714285714292
40
0.35714285714285721
40
0.3714285714285715
40
0.38571428571428579
40
0.40000000000000008
40
0.41428571428571437
40
0.42857142857142866
40
0.44285714285714295
40
0.45714285714285724
40
0.47142857142857153
40
0.48571428571428582
40
0.50000000000000011
40
0.51428571428571435
40
0.52857142857142858
40
0.54285714285714282
40
0.55714285714285705
40
0.57142857142857129
40
0.58571428571428552
40
0.59999999999999976
40
0.61428571428571399
40
0.62857142857142823
40
0.64285714285714246
40
0.6571428571428567
40
0.67142857142857093
40
0.68571428571428517
40
0.6999999999999994
40
0.71428571428571364
40
0.72857142857142787
40
0.74285714285714211
40
0.75714285714285634
40
0.77142857142857058
40
0.78571428571428481
40
0.79999999999999905
40
0.81428571428571328
40
0.82857142857142752
40
0.84285714285714175
40
0.85714285714285599
40
0.87142857142857022
40
0.88571428571428445
40
0.89999999999999869
40
0.91428571428571292
40
0.92857142857142716
40
0.94285714285714139
40
0.95714285714285563
40
0.97142857142856986
40
0.9857142857142841
40
1
40
1
40
1
40
1
40
1
40
1
41
1
41
1
41
1
41
1
41
1
41
1
41
1
41
1
41
1
41
1
41
1
41
1
41
1
41
1
41
1
41
1
41
1
41
1
41
1
41
1
41
1
41
1
41
1
41
1
41
1
41
1
41
1
41
1
41
1
41
1
41
1
41
1
41
1
41
1
41
1
41
1
41
1
41
1
41
1
41
1
41
1
41
1
41
1
41
1
41
1
41
1
41
1
41
1
41
1
41
1
41
1
41
1
41
1
41
1
41
1
41
1
41
1
41
1
41
1
41
1
41
1
41
1
41
1
41
1
41
1
41
1
41
1
41
1
41
1
41
1
41
1
41
1
41
1
41
1
41
1
10
3.2724308915059224
20
3.3714613447739521
30
0
10
3.2751077593158904
20
3.3742095351457042
30
0
10
3.2805472520274668
20
3.3796111333863763
30
0
10
3.2889637596703079
20
3.3874291863872341
30
0
10
3.3006760283691534
20
3.3973124770007965
30
0
10
3.3159923988664852
20
3.4089270846314634
30
0
10
3.3318049601024602
20
3.4200078296488585
30
0
10
3.3479354222278745
20
3.4307574869567219
30
0
10
3.3642501098323967
20
3.4413260645122086
30
0
10
3.3806954845403938
20
3.4517697008085997
30
0
10
3.3972717985245287
20
3.4620817485916522
30
0
10
3.4140119940876885
20
3.4722177470499132
30
0
10
3.430959522570427
20
3.4821216320516593
30
0
10
3.4481445940957545
20
3.4917538331030813
30
0
10
3.4655673552752986
20
3.5011111255078822
30
0
10
3.4832098203388142
20
3.5102123055877108
30
0
10
3.5010436356929291
20
3.519088814458819
30
0
10
3.5190389721743855
20
3.5277740304977891
30
0
10
3.5371740790690707
20
3.5362917549622903
30
0
10
3.5554408594642846
20
3.5446494892104639
30
0
10
3.5738395011602107
20
3.5528448778180293
30
0
10
3.592375120699129
20
3.5608697303337045
30
0
10
3.6110538620133674
20
3.5687146996154091
30
0
10
3.6298786372300729
20
3.5763743893537194
30
0
10
3.6488470200630263
20
3.5838498769660108
30
0
10
3.6679535396850578
20
3.5911459520708955
30
0
10
3.6871910507551258
20
3.5982694644540829
30
0
10
3.7065523560073044
20
3.605227369084187
30
0
10
3.7260319947073151
20
3.6120245714678041
30
0
10
3.7456269925160433
20
3.618663022366567
30
0
10
3.7653358645935726
20
3.6251429134462287
30
0
10
3.7851580124589184
20
3.6314633994605034
30
0
10
3.805093014096391
20
3.637623449084856
30
0
10
3.8251398344526693
20
3.6436227913419521
30
0
10
3.8452965191699731
20
3.649462282020568
30
0
10
3.8655606126104796
20
3.655143400526649
30
0
10
3.8859294050552462
20
3.6606679520942143
30
0
10
3.906400225913222
20
3.6660377147625489
30
0
10
3.9269707696640941
20
3.6712540476126776
30
0
10
3.9476392137421721
20
3.6763177477166793
30
0
10
3.9684040353833323
20
3.6812292670889701
30
0
10
3.9892638993130944
20
3.6859888450618432
30
0
10
4.0102175259753112
20
3.6905966643747035
30
0
10
4.0312635440603275
20
3.6950530256265286
30
0
10
4.052400433443589
20
3.6993584159337396
30
0
10
4.0736266041716416
20
3.7035134178251736
30
0
10
4.0949404429996292
20
3.7075186568473706
30
0
10
4.1163403682543001
20
3.7113747388640745
30
0
10
4.1378248904324275
20
3.7150821827438691
30
0
10
4.1593926349989063
20
3.7186413915929228
30
0
10
4.181042301672707
20
3.7220526897043174
30
0
10
4.2027726371696055
20
3.7253163454990341
30
0
10
4.2245824045419775
20
3.7284325994419945
30
0
10
4.24647034727733
20
3.7314016949057338
30
0
10
4.2684351756675696
20
3.7342238952452917
30
0
10
4.2904755980843028
20
3.7368994709285444
30
0
10
4.3125903430273107
20
3.7394286942161035
30
0
10
4.3347781820043609
20
3.7418118318493745
30
0
10
4.3570379571064448
20
3.7440491397590541
30
0
10
4.3793685883240077
20
3.746140857721461
30
0
10
4.401769028244118
20
3.748087204448256
30
0
10
4.4242382248790344
20
3.7498883731588957
30
0
10
4.4467750839403646
20
3.7515445285377331
30
0
10
4.4693784232990428
20
3.7530558028445391
30
0
10
4.4920469530485629
20
3.7544222973585706
30
0
10
4.5147793620592296
20
3.7556441025193044
30
0
10
4.5375743889634705
20
3.7567213165846658
30
0
10
4.5604308971662224
20
3.7576540649913781
30
0
10
4.5833479516519411
20
3.7584425226920803
30
0
10
4.6063248836857813
20
3.7590869300474412
30
0
10
4.6293612432415951
20
3.7595875461734907
30
0
10
4.6478376578772194
20
3.7598731962354432
30
0
10
4.6617215321993752
20
3.7600229132460554
30
0
10
4.6709892504347019
20
3.7600940583244844
30
0
10
4.6756260600569135
20
3.7601224642977615
30
0
0
LINE
5
138
100
AcDbEntity
8
0
100
AcDbLine
10
3.2724308915059224
20
3.3714613447739521
30
0
11
2.9376763053457768
21
3.0277875454330889
31
0
0
ARC
5
139
100
AcDbEntity
8
0
100
AcDbCircle
10
2.5795057443407252
20
3.3766626652529568
30
0
40
0.49999999999999989
210
0
220
0
230
1
100
AcDbArc
50
232.62300683031603
51
315.75321705786683
0
ARC
5
140
100
AcDbEntity
8
0
100
AcDbCircle
10
-2.1788126858268697e-13
20
-3.1086244689504383e-13
30
0
40
3.7492000000003802
210
0
220
-0
230
1
100
AcDbArc
50
52.623006830316349
51
55.376993169683637
0
ARC
5
141
100
AcDbEntity
8
0
100
AcDbCircle
10
2.4142859190303021
20
3.4967018948105961
30
0
40
0.5
210
0
220
0
230
1
100
AcDbArc
50
152.24678294213319
51
235.37699316968556
0
LINE
5
142
100
AcDbEntity
8
0
100
AcDbLine
10
1.9718051727169947
20
3.7295339998606054
30
0
11
2.1952135229915979
21
4.1541055749056319
31
0
0
SPLINE
5
143
100
AcDbEntity
8
0
100
AcDbSpline
70
4
71
5
72
81
73
75
74
0
42
0.000000001
43
0.0000000001
44
0.0000000001
40
0
40
0
40
0
40
0
40
0
40
0
40
0.014285714285714285
40
0.028571428571428571
40
0.042857142857142858
40
0.057142857142857141
40
0.071428571428571425
40
0.085714285714285715
40
0.10000000000000001
40
0.1142857142857143
40
0.12857142857142859
40
0.14285714285714288
40
0.15714285714285717
40
0.17142857142857146
40
0.18571428571428575
40
0.20000000000000004
40
0.21428571428571433
40
0.22857142857142862
40
0.24285714285714291
40
0.25714285714285717
40
0.27142857142857146
40
0.28571428571428575
40
0.30000000000000004
40
0.31428571428571433
40
0.32857142857142863
40
0.34285714285714292
40
0.35714285714285721
40
0.3714285714285715
40
0.38571428571428579
40
0.40000000000000008
40
0.41428571428571437
40
0.42857142857142866
40
0.44285714285714295
40
0.45714285714285724
40
0.47142857142857153
40
0.48571428571428582
40
0.50000000000000011
40
0.51428571428571435
40
0.52857142857142858
40
0.54285714285714282
40
0.55714285714285705
40
0.57142857142857129
40
0.58571428571428552
40
0.59999999999999976
40
0.61428571428571399
40
0.62857142857142823
40
0.64285714285714246
40
0.6571428571428567
40
0.67142857142857093
40
0.68571428571428517
40
0.6999999999999994
40
0.71428571428571364
40
0.72857142857142787
40
0.74285714285714211
40
0.75714285714285634
40
0.77142857142857058
40
0.78571428571428481
40
0.79999999999999905
40
0.81428571428571328
40
0.82857142857142752
40
0.84285714285714175
40
0.85714285714285599
40
0.87142857142857022
40
0.88571428571428445
40
0.89999999999999869
40
0.91428571428571292
40
0.92857142857142716
40
0.94285714285714139
40
0.95714285714285563
40
0.97142857142856986
40
0.9857142857142841
40
1
40
1
40
1
40
1
40
1
40
1
41
1
41
1
41
1
41
1
41
1
41
1
41
1
41
1
41
1
41
1
41
1
41
1
41
1
41
1
41
1
41
1
41
1
41
1
41
1
41
1
41
1
41
1
41
1
41
1
41
1
41
1
41
1
41
1
41
1
41
1
41
1
41
1
41
1
41
1
41
1
41
1
41
1
41
1
41
1
41
1
41
1
41
1
41
1
41
1
41
1
41
1
41
1
41
1
41
1
41
1
41
1
41
1
41
1
41
1
41
1
41
1
41
1
41
1
41
1
41
1
41
1
41
1
41
1
41
1
41
1
41
1
41
1
41
1
41
1
41
1
41
1
41
1
41
1
41
1
41
1
10
2.1952135229915979
20
4.1541055749056319
30
0
10
2.1970000097076969
20
4.1575006650082127
30
0
10
2.2004563392242407
20
4.1643431156500501
30
0
10
2.2052909055805232
20
4.1747636013284115
30
0
10
2.2110711834503616
20
4.188956735554985
30
0
10
2.2173843129458999
20
4.2071125806633365
30
0
10
2.223036377553588
20
4.2255753585868367
30
0
10
2.2282753222602967
20
4.2442381664939006
30
0
10
2.2332851210846965
20
4.2630202265225172
30
0
10
2.2381357091745611
20
4.2818879684001292
30
0
10
2.2428206866897877
20
4.3008395778426651
30
0
10
2.2472875891544981
20
4.3198926456956235
30
0
10
2.2514696692082268
20
4.3390711718701045
30
0
10
2.2553199576335707
20
4.3583916599453918
30
0
10
2.2588353422566212
20
4.3778532528714704
30
0
10
2.2620392573502253
20
4.3974446535471703
30
0
10
2.2649703669350787
20
4.4171486119419985
30
0
10
2.267669633452106
20
4.4369470733214706
30
0
10
2.2701664145828122
20
4.456826706520304
30
0
10
2.2724703466263652
20
4.4767821289640599
30
0
10
2.2745791314077044
20
4.496812791395195
30
0
10
2.2764833982462509
20
4.5169210289459469
30
0
10
2.2781723589021183
20
4.5371097964174414
30
0
10
2.279639981283287
20
4.557380195855858
30
0
10
2.2808880398382474
20
4.5777302526661572
30
0
10
2.2819227803435611
20
4.5981562438560557
30
0
10
2.2827529253643739
20
4.6186534905025898
30
0
10
2.28338731354639
20
4.6392172968025953
30
0
10
2.2838322977633192
20
4.6598439851740601
30
0
10
2.2840906524210562
20
4.6805313296708819
30
0
10
2.2841630186453323
20
4.7012779773543576
30
0
10
2.2840487774999558
20
4.7220830978397812
30
0
10
2.2837470785470266
20
4.7429459710695712
30
0
10
2.2832579839208513
20
4.7638655289129233
30
0
10
2.2825829114546887
20
4.784840177118407
30
0
10
2.2817240269810242
20
4.8058680373972535
30
0
10
2.2806838847286368
20
4.8269470905015908
30
0
10
2.2794650009713955
20
4.848075345992755
30
0
10
2.2780693807171213
20
4.8692510311697621
30
0
10
2.2764983452301819
20
4.890472658978454
30
0
10
2.2747527949618265
20
4.9117389208642255
30
0
10
2.2728333701530965
20
4.9330486208633273
30
0
10
2.2707406400040901
20
4.9544005985151278
30
0
10
2.2684753141594109
20
4.9757936425168356
30
0
10
2.2660383256386267
20
4.9972264576713412
30
0
10
2.2634307197822219
20
5.0186977118543616
30
0
10
2.260653590040385
20
5.0402060640833763
30
0
10
2.2577080013876931
20
5.0617501973199266
30
0
10
2.2545949075793028
20
5.0833288553014686
30
0
10
2.2513151167466714
20
5.1049408553340969
30
0
10
2.2478693391197813
20
5.1265850609891324
30
0
10
2.2442582172682797
20
5.1482603632690971
30
0
10
2.2404823621257353
20
5.1699656600746344
30
0
10
2.2365423934368978
20
5.191699831597604
30
0
10
2.2324389602090111
20
5.2134617326339008
30
0
10
2.2281727188074365
20
5.2352502183510925
30
0
10
2.2237443210825787
20
5.2570641636137703
30
0
10
2.2191544003455648
20
5.2789024824840176
30
0
10
2.2144035578145167
20
5.3007641528118601
30
0
10
2.2094923552715691
20
5.3226482215421287
30
0
10
2.2044213243922677
20
5.3445537601115545
30
0
10
2.1991909740213265
20
5.3664798277284316
30
0
10
2.1938017989365837
20
5.3884254345529223
30
0
10
2.1882542902225257
20
5.4103894971839894
30
0
10
2.1825489428044809
20
5.4323708201446568
30
0
10
2.1766862478568609
20
5.454368184423819
30
0
10
2.1706666886125241
20
5.4763804207529976
30
0
10
2.1644907355960701
20
5.4984064869281291
30
0
10
2.1581588441330428
20
5.520445547759925
30
0
10
2.1516714494704523
20
5.5424970415192876
30
0
10
2.145028937108016
20
5.5645606202771694
30
0
10
2.1395910803432896
20
5.5822210055377397
30
0
10
2.135443116568521
20
5.5954716197838739
30
0
10
2.1326468971251691
20
5.6043077286410696
30
0
10
2.131241059838211
20
5.6087263745755775
30
0
0
ARC
5
144
100
AcDbEntity
8
0
100
AcDbCircle
10
-2.1788126858268697e-13
20
-3.1086244689504383e-13
30
0
40
6.0000000000003686
210
0
220
-0
230
1
100
AcDbArc
50
69.193878141971794
51
74.806121858026174
0
SPLINE
5
145
100
AcDbEntity
8
0
100
AcDbSpline
70
4
71
5
72
81
73
75
74
0
42
0.000000001
43
0.0000000001
44
0.0000000001
40
0
40
0
40
0
40
0
40
0
40
0
40
0.014285714285714285
40
0.028571428571428571
40
0.042857142857142858
40
0.057142857142857141
40
0.071428571428571425
40
0.085714285714285715
40
0.10000000000000001
40
0.1142857142857143
40
0.12857142857142859
40
0.14285714285714288
40
0.15714285714285717
40
0.17142857142857146
40
0.18571428571428575
40
0.20000000000000004
40
0.21428571428571433
40
0.22857142857142862
40
0.24285714285714291
40
0.25714285714285717
40
0.27142857142857146
40
0.28571428571428575
40
0.30000000000000004
40
0.31428571428571433
40
0.32857142857142863
40
0.34285714285714292
40
0.35714285714285721
40
0.3714285714285715
40
0.38571428571428579
40
0.40000000000000008
40
0.41428571428571437
40
0.42857142857142866
40
0.44285714285714295
40
0.45714285714285724
40
0.47142857142857153
40
0.48571428571428582
40
0.50000000000000011
40
0.51428571428571435
40
0.52857142857142858
40
0.54285714285714282
40
0.55714285714285705
40
0.57142857142857129
40
0.58571428571428552
40
0.59999999999999976
40
0.61428571428571399
40
0.62857142857142823
40
0.64285714285714246
40
0.6571428571428567
40
0.67142857142857093
40
0.68571428571428517
40
0.6999999999999994
40
0.71428571428571364
40
0.72857142857142787
40
0.74285714285714211
40
0.75714285714285634
40
0.77142857142857058
40
0.78571428571428481
40
0.79999999999999905
40
0.81428571428571328
40
0.82857142857142752
40
0.84285714285714175
40
0.85714285714285599
40
0.87142857142857022
40
0.88571428571428445
40
0.89999999999999869
40
0.91428571428571292
40
0.92857142857142716
40
0.94285714285714139
40
0.95714285714285563
40
0.97142857142856986
40
0.9857142857142841
40
1
40
1
40
1
40
1
40
1
40
1
41
1
41
1
41
1
41
1
41
1
41
1
41
1
41
1
41
1
41
1
41
1
41
1
41
1
41
1
41
1
41
1
41
1
41
1
41
1
41
1
41
1
41
1
41
1
41
1
41
1
41
1
41
1
41
1
41
1
41
1
41
1
41
1
41
1
41
1
41
1
41
1
41
1
41
1
41
1
41
1
41
1
41
1
41
1
41
1
41
1
41
1
41
1
41
1
41
1
41
1
41
1
41
1
41
1
41
1
41
1
41
1
41
1
41
1
41
1
41
1
41
1
41
1
41
1
41
1
41
1
41
1
41
1
41
1
41
1
41
1
41
1
41
1
41
1
41
1
41
1
10
0.66575694701357291
20
4.6510561409738322
30
0
10
0.66630723279252468
20
4.6548528971093939
30
0
10
0.66753289505229207
20
4.6624201354786994
30
0
10
0.66974665651309184
20
4.6736921722875877
30
0
10
0.67341282846637107
20
4.6885722211663738
30
0
10
0.67897713741438603
20
4.7069713728195586
30
0
10
0.68525666967324605
20
4.7252302741444447
30
0
10
0.69198799762706797
20
4.7434081773401937
30
0
10
0.69897480313222082
20
4.7615478689586492
30
0
10
0.70614077535452879
20
4.7796632969272848
30
0
10
0.71349002546397577
20
4.797749231727825
30
0
10
0.72107533775270694
20
4.8157890668080334
30
0
10
0.72896481876346897
20
4.8337629853897424
30
0
10
0.73720616795186589
20
4.8516567313357566
30
0
10
0.74580139935812273
20
4.8694677819881269
30
0
10
0.75472491398779185
20
4.8872007721199946
30
0
10
0.76393529267753513
20
4.9048644723046966
30
0
10
0.77338878380984832
20
4.9224683530738815
30
0
10
0.78305380065913011
20
4.9400188853005105
30
0
10
0.79291938349771718
20
4.9575173784649245
30
0
10
0.80298706874280412
20
4.9749620373750307
30
0
10
0.81326580999052123
20
4.9923492432446439
30
0
10
0.82376607189880036
20
5.0096750453897885
30
0
10
0.83449338229908898
20
5.0269367898098221
30
0
10
0.84544514499455814
20
5.0441339220184522
30
0
10
0.85661411872587001
20
5.0612671012270063
30
0
10
0.86799049658767102
20
5.0783376691024449
30
0
10
0.87956436784153158
20
5.0953470218858019
30
0
10
0.89132843127618688
20
5.1122959184762067
30
0
10
0.90327913397182713
20
5.1291841888003029
30
0
10
0.91541516200942397
20
5.1460111151519383
30
0
10
0.92773652803099016
20
5.1627756619342069
30
0
10
0.94024349681601394
20
5.1794767467334335
30
0
10
0.95293539026524843
20
5.1961135419352731
30
0
10
0.96581012425001478
20
5.2126855911447079
30
0
10
0.97886484254458672
20
5.2291926478385928
30
0
10
0.99209629185035486
20
5.2456345797490931
30
0
10
1.0055012665085041
20
5.2620112556061756
30
0
10
1.0190771024661389
20
5.2783224197786458
30
0
10
1.0328218567294283
20
5.2945676458341264
30
0
10
1.04673403166891
20
5.3107464044016695
30
0
10
1.0608124063488458
20
5.3268581042505181
30
0
10
1.0750558381750395
20
5.3429021411157258
30
0
10
1.0894630410470296
20
5.3588779521513787
30
0
10
1.1040324988383705
20
5.3747850379361477
30
0
10
1.118762582847836
20
5.3906229351945703
30
0
10
1.1336516202458928
20
5.4063912017628901
30
0
10
1.1486979753142261
20
5.4220893981109644
30
0
10
1.1639001380361116
20
5.4377170685042628
30
0
10
1.1792567594494288
20
5.4532737311310653
30
0
10
1.1947665969900352
20
5.4687588840639716
30
0
10
1.2104284789558026
20
5.4841720077981311
30
0
10
1.2262412632933457
20
5.4995125698141836
30
0
10
1.2422037904119168
20
5.5147800284451334
30
0
10
1.2583148621195428
20
5.5299738386782851
30
0
10
1.2745732744898743
20
5.5450934601266244
30
0
10
1.2909778388268527
20
5.560138365684538
30
0
10
1.3075274044727225
20
5.5751080490607396
30
0
10
1.324220884227125
20
5.5900020367056715
30
0
10
1.3410572634069946
20
5.6048198877887625
30
0
10
1.3580355660819809
20
5.6195611635975906
30
0
10
1.3751548276045766
20
5.6342254021070985
30
0
10
1.3924140658778397
20
5.648812093343146
30
0
10
1.4098122467989254
20
5.6633206494681083
30
0
10
1.4273482672810949
20
5.6777503942306007
30
0
10
1.4450210134391528
20
5.6921006301350001
30
0
10
1.4628294070507355
20
5.7063706952603805
30
0
10
1.4807724548612677
20
5.7205600230133662
30
0
10
1.4988492975927015
20
5.734668205345268
30
0
10
1.5170592529467268
20
5.7486950436394739
30
0
10
1.5354018045399602
20
5.7626404830065194
30
0
10
1.5501816370815666
20
5.7737317427991446
30
0
10
1.5613259259051011
20
5.7820136029763214
30
0
10
1.5687818494286845
20
5.7875185886549652
30
0
10
1.5725164106005665
20
5.7902670178837115
30
0
0
LINE
5
146
100
AcDbEntity
8
0
100
AcDbLine
10
0.66575694701357291
20
4.6510561409738322
30
0
11
0.5969411887169449
21
4.176254387903465
31
0
0
ARC
5
147
100
AcDbEntity
8
0
100
AcDbCircle
10
0.10211146765716247
20
4.2479729151882433
30
0
40
0.49999999999999994
210
0
220
0
230
1
100
AcDbArc
50
268.62300683031606
51
351.75321705786683
0
ARC
5
148
100
AcDbEntity
8
0
100
AcDbCircle
10
-2.1788126858268697e-13
20
-3.1086244689504383e-13
30
0
40
3.7492000000003167
210
0
220
-0
230
1
100
AcDbArc
50
88.623006830312889
51
91.376993169680119
0
ARC
5
149
100
AcDbEntity
8
0
100
AcDbCircle
10
-0.10211146765716299
20
4.2479729151882424
30
0
40
0.50000000000000011
210
0
220
0
230
1
100
AcDbArc
50
188.24678294213314
51
271.3769931696865
0
LINE
5
150
100
AcDbEntity
8
0
100
AcDbLine
10
-0.5969411887169459
20
4.1762543879034641
30
0
11
-0.6657569470135738
21
4.6510561409738322
31
0
0
SPLINE
5
151
100
AcDbEntity
8
0
100
AcDbSpline
70
4
71
5
72
81
73
75
74
0
42
0.000000001
43
0.0000000001
44
0.0000000001
40
0
40
0
40
0
40
0
40
0
40
0
40
0.014285714285714285
40
0.028571428571428571
40
0.042857142857142858
40
0.057142857142857141
40
0.071428571428571425
40
0.085714285714285715
40
0.10000000000000001
40
0.1142857142857143
40
0.12857142857142859
40
0.14285714285714288
40
0.15714285714285717
40
0.17142857142857146
40
0.18571428571428575
40
0.20000000000000004
40
0.21428571428571433
40
0.22857142857142862
40
0.24285714285714291
40
0.25714285714285717
40
0.27142857142857146
40
0.28571428571428575
40
0.30000000000000004
40
0.31428571428571433
40
0.32857142857142863
40
0.34285714285714292
40
0.35714285714285721
40
0.3714285714285715
40
0.38571428571428579
40
0.40000000000000008
40
0.41428571428571437
40
0.42857142857142866
40
0.44285714285714295
40
0.45714285714285724
40
0.47142857142857153
40
0.48571428571428582
40
0.50000000000000011
40
0.51428571428571435
40
0.52857142857142858
40
0.54285714285714282
40
0.55714285714285705
40
0.57142857142857129
40
0.58571428571428552
40
0.59999999999999976
40
0.61428571428571399
40
0.62857142857142823
40
0.64285714285714246
40
0.6571428571428567
40
0.67142857142857093
40
0.68571428571428517
40
0.6999999999999994
40
0.71428571428571364
40
0.72857142857142787
40
0.74285714285714211
40
0.75714285714285634
40
0.77142857142857058
40
0.78571428571428481
40
0.79999999999999905
40
0.81428571428571328
40
0.82857142857142752
40
0.84285714285714175
40
0.85714285714285599
40
0.87142857142857022
40
0.88571428571428445
40
0.89999999999999869
40
0.91428571428571292
40
0.92857142857142716
40
0.94285714285714139
40
0.95714285714285563
40
0.97142857142856986
40
0.9857142857142841
40
1
40
1
40
1
40
1
40
1
40
1
41
1
41
1
41
1
41
1
41
1
41
1
41
1
41
1
41
1
41
1
41
1
41
1
41
1
41
1
41
1
41
1
41
1
41
1
41
1
41
1
41
1
41
1
41
1
41
1
41
1
41
1
41
1
41
1
41
1
41
1
41
1
41
1
41
1
41
1
41
1
41
1
41
1
41
1
41
1
41
1
41
1
41
1
41
1
41
1
41
1
41
1
41
1
41
1
41
1
41
1
41
1
41
1
41
1
41
1
41
1
41
1
41
1
41
1
41
1
41
1
41
1
41
1
41
1
41
1
41
1
41
1
41
1
41
1
41
1
41
1
41
1
41
1
41
1
41
1
41
1
10
-0.6657569470135738
20
4.6510561409738322
30
0
10
-0.66630723279252557
20
4.6548528971093939
30
0
10
-0.66753289505229296
20
4.6624201354786994
30
0
10
-0.66974665651309273
20
4.6736921722875877
30
0
10
-0.67341282846637196
20
4.6885722211663738
30
0
10
-0.67897713741438692
20
4.7069713728195586
30
0
10
-0.68525666967324694
20
4.7252302741444447
30
0
10
-0.69198799762706875
20
4.7434081773401937
30
0
10
-0.69897480313222171
20
4.7615478689586492
30
0
10
-0.70614077535452957
20
4.7796632969272848
30
0
10
-0.71349002546397655
20
4.797749231727825
30
0
10
-0.72107533775270782
20
4.8157890668080334
30
0
10
-0.72896481876346952
20
4.8337629853897424
30
0
10
-0.73720616795186666
20
4.8516567313357575
30
0
10
-0.74580139935812362
20
4.8694677819881269
30
0
10
-0.75472491398779262
20
4.8872007721199946
30
0
10
-0.76393529267753602
20
4.9048644723046966
30
0
10
-0.7733887838098491
20
4.9224683530738815
30
0
10
-0.78305380065913088
20
4.9400188853005105
30
0
10
-0.79291938349771796
20
4.9575173784649245
30
0
10
-0.8029870687428049
20
4.9749620373750307
30
0
10
-0.81326580999052211
20
4.9923492432446439
30
0
10
-0.82376607189880113
20
5.0096750453897885
30
0
10
-0.83449338229908976
20
5.0269367898098221
30
0
10
-0.84544514499455892
20
5.0441339220184522
30
0
10
-0.85661411872587112
20
5.0612671012270063
30
0
10
-0.8679904965876718
20
5.0783376691024449
30
0
10
-0.87956436784153236
20
5.0953470218858019
30
0
10
-0.89132843127618766
20
5.1122959184762067
30
0
10
-0.90327913397182802
20
5.1291841888003029
30
0
10
-0.91541516200942474
20
5.1460111151519383
30
0
10
-0.92773652803099127
20
5.1627756619342069
30
0
10
-0.94024349681601471
20
5.1794767467334335
30
0
10
-0.95293539026524932
20
5.196113541935274
30
0
10
-0.96581012425001556
20
5.2126855911447079
30
0
10
-0.97886484254458761
20
5.2291926478385928
30
0
10
-0.99209629185035564
20
5.245634579749094
30
0
10
-1.0055012665085048
20
5.2620112556061756
30
0
10
-1.0190771024661396
20
5.2783224197786458
30
0
10
-1.0328218567294294
20
5.2945676458341264
30
0
10
-1.0467340316689111
20
5.3107464044016695
30
0
10
-1.0608124063488469
20
5.3268581042505181
30
0
10
-1.0750558381750406
20
5.3429021411157258
30
0
10
-1.0894630410470307
20
5.3588779521513787
30
0
10
-1.1040324988383714
20
5.3747850379361486
30
0
10
-1.1187625828478367
20
5.3906229351945703
30
0
10
-1.1336516202458937
20
5.4063912017628901
30
0
10
-1.148697975314227
20
5.4220893981109644
30
0
10
-1.1639001380361127
20
5.4377170685042628
30
0
10
-1.1792567594494296
20
5.4532737311310653
30
0
10
-1.1947665969900361
20
5.4687588840639716
30
0
10
-1.2104284789558033
20
5.4841720077981311
30
0
10
-1.2262412632933466
20
5.4995125698141836
30
0
10
-1.2422037904119174
20
5.5147800284451334
30
0
10
-1.2583148621195439
20
5.5299738386782851
30
0
10
-1.2745732744898752
20
5.5450934601266244
30
0
10
-1.2909778388268536
20
5.560138365684538
30
0
10
-1.3075274044727232
20
5.5751080490607396
30
0
10
-1.3242208842271257
20
5.5900020367056715
30
0
10
-1.3410572634069953
20
5.6048198877887625
30
0
10
-1.3580355660819821
20
5.6195611635975906
30
0
10
-1.3751548276045777
20
5.6342254021070985
30
0
10
-1.3924140658778408
20
5.648812093343146
30
0
10
-1.4098122467989262
20
5.6633206494681083
30
0
10
-1.4273482672810962
20
5.6777503942306007
30
0
10
-1.4450210134391537
20
5.6921006301350001
30
0
10
-1.4628294070507366
20
5.7063706952603805
30
0
10
-1.4807724548612688
20
5.7205600230133662
30
0
10
-1.4988492975927026
20
5.734668205345268
30
0
10
-1.5170592529467275
20
5.7486950436394739
30
0
10
-1.5354018045399611
20
5.7626404830065194
30
0
10
-1.5501816370815678
20
5.7737317427991455
30
0
10
-1.561325925905102
20
5.7820136029763214
30
0
10
-1.5687818494286856
20
5.7875185886549652
30
0
10
-1.5725164106005673
20
5.7902670178837115
30
0
0
ARC
5
152
100
AcDbEntity
8
0
100
AcDbCircle
10
-2.1788126858268697e-13
20
-3.1086244689504383e-13
30
0
40
6.0000000000002434
210
0
220
0
230
1
100
AcDbArc
50
105.19387814196992
51
110.8061218580242
0
SPLINE
5
153
100
AcDbEntity
8
0
100
AcDbSpline
70
4
71
5
72
81
73
75
74
0
42
0.000000001
43
0.0000000001
44
0.0000000001
40
0
40
0
40
0
40
0
40
0
40
0
40
0.014285714285714285
40
0.028571428571428571
40
0.042857142857142858
40
0.057142857142857141
40
0.071428571428571425
40
0.085714285714285715
40
0.10000000000000001
40
0.1142857142857143
40
0.12857142857142859
40
0.14285714285714288
40
0.15714285714285717
40
0.17142857142857146
40
0.18571428571428575
40
0.20000000000000004
40
0.21428571428571433
40
0.22857142857142862
40
0.24285714285714291
40
0.25714285714285717
40
0.27142857142857146
40
0.28571428571428575
40
0.30000000000000004
40
0.31428571428571433
40
0.32857142857142863
40
0.34285714285714292
40
0.35714285714285721
40
0.3714285714285715
40
0.38571428571428579
40
0.40000000000000008
40
0.41428571428571437
40
0.42857142857142866
40
0.44285714285714295
40
0.45714285714285724
40
0.47142857142857153
40
0.48571428571428582
40
0.50000000000000011
40
0.51428571428571435
40
0.52857142857142858
40
0.54285714285714282
40
0.55714285714285705
40
0.57142857142857129
40
0.58571428571428552
40
0.59999999999999976
40
0.61428571428571399
40
0.62857142857142823
40
0.64285714285714246
40
0.6571428571428567
40
0.67142857142857093
40
0.68571428571428517
40
0.6999999999999994
40
0.71428571428571364
40
0.72857142857142787
40
0.74285714285714211
40
0.75714285714285634
40
0.77142857142857058
40
0.78571428571428481
40
0.79999999999999905
40
0.81428571428571328
40
0.82857142857142752
40
0.84285714285714175
40
0.85714285714285599
40
0.87142857142857022
40
0.88571428571428445
40
0.89999999999999869
40
0.91428571428571292
40
0.92857142857142716
40
0.94285714285714139
40
0.95714285714285563
40
0.97142857142856986
40
0.9857142857142841
40
1
40
1
40
1
40
1
40
1
40
1
41
1
41
1
41
1
41
1
41
1
41
1
41
1
41
1
41
1
41
1
41
1
41
1
41
1
41
1
41
1
41
1
41
1
41
1
41
1
41
1
41
1
41
1
41
1
41
1
41
1
41
1
41
1
41
1
41
1
41
1
41
1
41
1
41
1
41
1
41
1
41
1
41
1
41
1
41
1
41
1
41
1
41
1
41
1
41
1
41
1
41
1
41
1
41
1
41
1
41
1
41
1
41
1
41
1
41
1
41
1
41
1
41
1
41
1
41
1
41
1
41
1
41
1
41
1
41
1
41
1
41
1
41
1
41
1
41
1
41
1
41
1
41
1
41
1
41
1
41
1
10
-2.1952135229915988
20
4.1541055749056319
30
0
10
-2.1970000097076974
20
4.1575006650082127
30
0
10
-2.2004563392242416
20
4.1643431156500501
30
0
10
-2.2052909055805241
20
4.1747636013284115
30
0
10
-2.211071183450362
20
4.188956735554985
30
0
10
-2.2173843129459008
20
4.2071125806633365
30
0
10
-2.2230363775535884
20
4.2255753585868367
30
0
10
-2.2282753222602976
20
4.2442381664939006
30
0
10
-2.2332851210846973
20
4.2630202265225163
30
0
10
-2.2381357091745619
20
4.2818879684001283
30
0
10
-2.2428206866897886
20
4.3008395778426651
30
0
10
-2.2472875891544986
20
4.3198926456956235
30
0
10
-2.2514696692082277
20
4.3390711718701045
30
0
10
-2.2553199576335721
20
4.3583916599453909
30
0
10
-2.2588353422566221
20
4.3778532528714704
30
0
10
-2.2620392573502262
20
4.3974446535471703
30
0
10
-2.2649703669350791
20
4.4171486119419985
30
0
10
-2.2676696334521069
20
4.4369470733214706
30
0
10
-2.2701664145828131
20
4.456826706520304
30
0
10
-2.272470346626366
20
4.4767821289640599
30
0
10
-2.2745791314077057
20
4.496812791395195
30
0
10
-2.2764833982462518
20
4.5169210289459469
30
0
10
-2.2781723589021197
20
4.5371097964174414
30
0
10
-2.2796399812832879
20
4.557380195855858
30
0
10
-2.2808880398382487
20
4.5777302526661572
30
0
10
-2.2819227803435624
20
4.5981562438560557
30
0
10
-2.2827529253643752
20
4.6186534905025898
30
0
10
-2.2833873135463909
20
4.6392172968025953
30
0
10
-2.2838322977633201
20
4.6598439851740601
30
0
10
-2.2840906524210571
20
4.6805313296708819
30
0
10
-2.2841630186453332
20
4.7012779773543576
30
0
10
-2.2840487774999567
20
4.7220830978397812
30
0
10
-2.2837470785470275
20
4.7429459710695712
30
0
10
-2.2832579839208522
20
4.7638655289129233
30
0
10
-2.2825829114546896
20
4.784840177118407
30
0
10
-2.2817240269810251
20
4.8058680373972535
30
0
10
-2.2806838847286377
20
4.8269470905015908
30
0
10
-2.2794650009713964
20
4.8480753459927541
30
0
10
-2.2780693807171222
20
4.8692510311697621
30
0
10
-2.2764983452301828
20
4.890472658978454
30
0
10
-2.2747527949618274
20
4.9117389208642255
30
0
10
-2.2728333701530974
20
4.9330486208633264
30
0
10
-2.270740640004091
20
4.9544005985151278
30
0
10
-2.2684753141594123
20
4.9757936425168356
30
0
10
-2.2660383256386272
20
4.9972264576713412
30
0
10
-2.2634307197822228
20
5.0186977118543616
30
0
10
-2.2606535900403859
20
5.0402060640833763
30
0
10
-2.257708001387694
20
5.0617501973199266
30
0
10
-2.2545949075793041
20
5.0833288553014686
30
0
10
-2.2513151167466723
20
5.1049408553340969
30
0
10
-2.2478693391197826
20
5.1265850609891324
30
0
10
-2.2442582172682806
20
5.1482603632690971
30
0
10
-2.2404823621257357
20
5.1699656600746344
30
0
10
-2.2365423934368982
20
5.191699831597604
30
0
10
-2.232438960209012
20
5.2134617326339008
30
0
10
-2.2281727188074374
20
5.2352502183510925
30
0
10
-2.2237443210825796
20
5.2570641636137703
30
0
10
-2.2191544003455661
20
5.2789024824840176
30
0
10
-2.2144035578145176
20
5.3007641528118601
30
0
10
-2.20949235527157
20
5.3226482215421287
30
0
10
-2.204421324392269
20
5.3445537601115545
30
0
10
-2.1991909740213278
20
5.3664798277284316
30
0
10
-2.1938017989365846
20
5.3884254345529223
30
0
10
-2.1882542902225262
20
5.4103894971839894
30
0
10
-2.1825489428044822
20
5.4323708201446568
30
0
10
-2.1766862478568618
20
5.454368184423819
30
0
10
-2.170666688612525
20
5.4763804207529976
30
0
10
-2.1644907355960714
20
5.4984064869281291
30
0
10
-2.1581588441330442
20
5.520445547759925
30
0
10
-2.1516714494704536
20
5.5424970415192876
30
0
10
-2.1450289371080169
20
5.5645606202771694
30
0
10
-2.1395910803432909
20
5.5822210055377388
30
0
10
-2.1354431165685224
20
5.5954716197838739
30
0
10
-2.1326468971251704
20
5.6043077286410696
30
0
10
-2.1312410598382119
20
5.6087263745755775
30
0
0
LINE
5
154
100
AcDbEntity
8
0
100
AcDbLine
10
-2.1952135229915988
20
4.1541055749056319
30
0
11
-1.971805172716995
21
3.7295339998606054
31
0
0
ARC
5
155
100
AcDbEntity
8
0
100
AcDbCircle
10
-2.4142859190303021
20
3.4967018948105961
30
0
40
0.50000000000000022
210
-0
220
0
230
1
100
AcDbArc
50
-55.376993169683971
51
27.753217057866788
0
ARC
5
156
100
AcDbEntity
8
0
100
AcDbCircle
10
-2.1788126858268697e-13
20
-3.1086244689504383e-13
30
0
40
3.749200000000132
210
0
220
0
230
1
100
AcDbArc
50
124.62300683031064
51
127.37699316967847
0
ARC
5
157
100
AcDbEntity
8
0
100
AcDbCircle
10
-2.5795057443407265
20
3.3766626652529563
30
0
40
0.50000000000000033
210
0
220
0
230
1
100
AcDbArc
50
224.24678294213319
51
307.3769931696832
0
LINE
5
158
100
AcDbEntity
8
0
100
AcDbLine
10
-2.9376763053457777
20
3.027787545433088
30
0
11
-3.2724308915059233
21
3.3714613447739517
31
0
0
SPLINE
5
159
100
AcDbEntity
8
0
100
AcDbSpline
70
4
71
5
72
81
73
75
74
0
42
0.000000001
43
0.0000000001
44
0.0000000001
40
0
40
0
40
0
40
0
40
0
40
0
40
0.014285714285714285
40
0.028571428571428571
40
0.042857142857142858
40
0.057142857142857141
40
0.071428571428571425
40
0.085714285714285715
40
0.10000000000000001
40
0.1142857142857143
40
0.12857142857142859
40
0.14285714285714288
40
0.15714285714285717
40
0.17142857142857146
40
0.18571428571428575
40
0.20000000000000004
40
0.21428571428571433
40
0.22857142857142862
40
0.24285714285714291
40
0.25714285714285717
40
0.27142857142857146
40
0.28571428571428575
40
0.30000000000000004
40
0.31428571428571433
40
0.32857142857142863
40
0.34285714285714292
40
0.35714285714285721
40
0.3714285714285715
40
0.38571428571428579
40
0.40000000000000008
40
0.41428571428571437
40
0.42857142857142866
40
0.44285714285714295
40
0.45714285714285724
40
0.47142857142857153
40
0.48571428571428582
40
0.50000000000000011
40
0.51428571428571435
40
0.52857142857142858
40
0.54285714285714282
40
0.55714285714285705
40
0.57142857142857129
40
0.58571428571428552
40
0.59999999999999976
40
0.61428571428571399
40
0.62857142857142823
40
0.64285714285714246
40
0.6571428571428567
40
0.67142857142857093
40
0.68571428571428517
40
0.6999999999999994
40
0.71428571428571364
40
0.72857142857142787
40
0.74285714285714211
40
0.75714285714285634
40
0.77142857142857058
40
0.78571428571428481
40
0.79999999999999905
40
0.81428571428571328
40
0.82857142857142752
40
0.84285714285714175
40
0.85714285714285599
40
0.87142857142857022
40
0.88571428571428445
40
0.89999999999999869
40
0.91428571428571292
40
0.92857142857142716
40
0.94285714285714139
40
0.95714285714285563
40
0.97142857142856986
40
0.9857142857142841
40
1
40
1
40
1
40
1
40
1
40
1
41
1
41
1
41
1
41
1
41
1
41
1
41
1
41
1
41
1
41
1
41
1
41
1
41
1
41
1
41
1
41
1
41
1
41
1
41
1
41
1
41
1
41
1
41
1
41
1
41
1
41
1
41
1
41
1
41
1
41
1
41
1
41
1
41
1
41
1
41
1
41
1
41
1
41
1
41
1
41
1
41
1
41
1
41
1
41
1
41
1
41
1
41
1
41
1
41
1
41
1
41
1
41
1
41
1
41
1
41
1
41
1
41
1
41
1
41
1
41
1
41
1
41
1
41
1
41
1
41
1
41
1
41
1
41
1
41
1
41
1
41
1
41
1
41
1
41
1
41
1
10
-3.2724308915059233
20
3.3714613447739517
30
0
10
-3.2751077593158913
20
3.3742095351457033
30
0
10
-3.2805472520274677
20
3.3796111333863759
30
0
10
-3.2889637596703079
20
3.3874291863872341
30
0
10
-3.3006760283691539
20
3.3973124770007961
30
0
10
-3.3159923988664857
20
3.408927084631463
30
0
10
-3.3318049601024606
20
3.4200078296488581
30
0
10
-3.347935422227875
20
3.4307574869567214
30
0
10
-3.3642501098323976
20
3.4413260645122081
30
0
10
-3.3806954845403943
20
3.4517697008085992
30
0
10
-3.3972717985245291
20
3.4620817485916522
30
0
10
-3.414011994087689
20
3.4722177470499127
30
0
10
-3.4309595225704275
20
3.4821216320516593
30
0
10
-3.4481445940957549
20
3.4917538331030809
30
0
10
-3.465567355275299
20
3.5011111255078822
30
0
10
-3.4832098203388151
20
3.5102123055877104
30
0
10
-3.5010436356929295
20
3.5190888144588186
30
0
10
-3.519038972174386
20
3.5277740304977883
30
0
10
-3.5371740790690716
20
3.5362917549622894
30
0
10
-3.555440859464285
20
3.5446494892104634
30
0
10
-3.5738395011602115
20
3.5528448778180288
30
0
10
-3.5923751206991295
20
3.560869730333704
30
0
10
-3.6110538620133683
20
3.5687146996154082
30
0
10
-3.6298786372300738
20
3.5763743893537185
30
0
10
-3.6488470200630267
20
3.5838498769660103
30
0
10
-3.6679535396850582
20
3.591145952070895
30
0
10
-3.6871910507551267
20
3.5982694644540825
30
0
10
-3.7065523560073048
20
3.6052273690841865
30
0
10
-3.7260319947073155
20
3.6120245714678036
30
0
10
-3.7456269925160441
20
3.6186630223665666
30
0
10
-3.7653358645935731
20
3.6251429134462283
30
0
10
-3.7851580124589193
20
3.631463399460503
30
0
10
-3.8050930140963919
20
3.6376234490848551
30
0
10
-3.8251398344526697
20
3.6436227913419517
30
0
10
-3.8452965191699735
20
3.6494622820205675
30
0
10
-3.86556061261048
20
3.6551434005266485
30
0
10
-3.8859294050552471
20
3.6606679520942143
30
0
10
-3.9064002259132224
20
3.6660377147625489
30
0
10
-3.926970769664095
20
3.6712540476126772
30
0
10
-3.947639213742173
20
3.6763177477166789
30
0
10
-3.9684040353833328
20
3.6812292670889697
30
0
10
-3.9892638993130953
20
3.6859888450618428
30
0
10
-4.0102175259753121
20
3.690596664374703
30
0
10
-4.0312635440603284
20
3.6950530256265282
30
0
10
-4.0524004334435908
20
3.6993584159337392
30
0
10
-4.0736266041716416
20
3.7035134178251732
30
0
10
-4.0949404429996292
20
3.7075186568473706
30
0
10
-4.1163403682543001
20
3.7113747388640741
30
0
10
-4.1378248904324275
20
3.7150821827438687
30
0
10
-4.1593926349989072
20
3.7186413915929224
30
0
10
-4.1810423016727079
20
3.7220526897043174
30
0
10
-4.2027726371696064
20
3.7253163454990332
30
0
10
-4.2245824045419784
20
3.7284325994419931
30
0
10
-4.2464703472773309
20
3.7314016949057334
30
0
10
-4.2684351756675705
20
3.7342238952452913
30
0
10
-4.2904755980843037
20
3.7368994709285444
30
0
10
-4.3125903430273116
20
3.739428694216103
30
0
10
-4.3347781820043627
20
3.7418118318493736
30
0
10
-4.3570379571064457
20
3.7440491397590536
30
0
10
-4.3793685883240077
20
3.7461408577214605
30
0
10
-4.4017690282441189
20
3.7480872044482556
30
0
10
-4.4242382248790353
20
3.7498883731588952
30
0
10
-4.4467750839403655
20
3.7515445285377327
30
0
10
-4.4693784232990437
20
3.7530558028445387
30
0
10
-4.4920469530485638
20
3.7544222973585706
30
0
10
-4.5147793620592305
20
3.7556441025193039
30
0
10
-4.5375743889634714
20
3.7567213165846658
30
0
10
-4.5604308971662224
20
3.7576540649913777
30
0
10
-4.5833479516519411
20
3.7584425226920799
30
0
10
-4.6063248836857822
20
3.7590869300474408
30
0
10
-4.629361243241596
20
3.7595875461734902
30
0
10
-4.6478376578772203
20
3.7598731962354428
30
0
10
-4.6617215321993761
20
3.760022913246055
30
0
10
-4.6709892504347019
20
3.760094058324484
30
0
10
-4.6756260600569144
20
3.7601224642977611
30
0
0
ARC
5
160
100
AcDbEntity
8
0
100
AcDbCircle
10
-2.1788126858268697e-13
20
-3.1086244689504383e-13
30
0
40
6.0000000000000249
210
0
220
0
230
1
100
AcDbArc
50
141.19387814196907
51
146.80612185802369
0
SPLINE
5
161
100
AcDbEntity
8
0
100
AcDbSpline
70
4
71
5
72
81
73
75
74
0
42
0.000000001
43
0.0000000001
44
0.0000000001
40
0
40
0
40
0
40
0
40
0
40
0
40
0.014285714285714285
40
0.028571428571428571
40
0.042857142857142858
40
0.057142857142857141
40
0.071428571428571425
40
0.085714285714285715
40
0.10000000000000001
40
0.1142857142857143
40
0.12857142857142859
40
0.14285714285714288
40
0.15714285714285717
40
0.17142857142857146
40
0.18571428571428575
40
0.20000000000000004
40
0.21428571428571433
40
0.22857142857142862
40
0.24285714285714291
40
0.25714285714285717
40
0.27142857142857146
40
0.28571428571428575
40
0.30000000000000004
40
0.31428571428571433
40
0.32857142857142863
40
0.34285714285714292
40
0.35714285714285721
40
0.3714285714285715
40
0.38571428571428579
40
0.40000000000000008
40
0.41428571428571437
40
0.42857142857142866
40
0.44285714285714295
40
0.45714285714285724
40
0.47142857142857153
40
0.48571428571428582
40
0.50000000000000011
40
0.51428571428571435
40
0.52857142857142858
40
0.54285714285714282
40
0.55714285714285705
40
0.57142857142857129
40
0.58571428571428552
40
0.59999999999999976
40
0.61428571428571399
40
0.62857142857142823
40
0.64285714285714246
40
0.6571428571428567
40
0.67142857142857093
40
0.68571428571428517
40
0.6999999999999994
40
0.71428571428571364
40
0.72857142857142787
40
0.74285714285714211
40
0.75714285714285634
40
0.77142857142857058
40
0.78571428571428481
40
0.79999999999999905
40
0.81428571428571328
40
0.82857142857142752
40
0.84285714285714175
40
0.85714285714285599
40
0.87142857142857022
40
0.88571428571428445
40
0.89999999999999869
40
0.91428571428571292
40
0.92857142857142716
40
0.94285714285714139
40
0.95714285714285563
40
0.97142857142856986
40
0.9857142857142841
40
1
40
1
40
1
40
1
40
1
40
1
41
1
41
1
41
1
41
1
41
1
41
1
41
1
41
1
41
1
41
1
41
1
41
1
41
1
41
1
41
1
41
1
41
1
41
1
41
1
41
1
41
1
41
1
41
1
41
1
41
1
41
1
41
1
41
1
41
1
41
1
41
1
41
1
41
1
41
1
41
1
41
1
41
1
41
1
41
1
41
1
41
1
41
1
41
1
41
1
41
1
41
1
41
1
41
1
41
1
41
1
41
1
41
1
41
1
41
1
41
1
41
1
41
1
41
1
41
1
41
1
41
1
41
1
41
1
41
1
41
1
41
1
41
1
41
1
41
1
41
1
41
1
41
1
41
1
41
1
41
1
10
-4.2176870397773776
20
2.0704278720789016
30
0
10
-4.2211279217834283
20
2.0721244871241842
30
0
10
-4.2279460426772832
20
2.0756285664597147
30
0
10
-4.2379822968234144
20
2.0812172296576978
30
0
10
-4.2510011548345101
20
2.0893021543643968
30
0
10
-4.2667803218816864
20
2.1002797771910027
30
0
10
-4.2822050867823966
20
2.1118942780730823
30
0
10
-4.2974132053368539
20
2.1239134323964723
30
0
10
-4.3125060356166856
20
2.1361637522830588
30
0
10
-4.3275204242338203
20
2.1485769719633585
30
0
10
-4.3424501271994318
20
2.1611553853823553
30
0
10
-4.357263039500495
20
2.1739440616781924
30
0
10
-4.3719192681818635
20
2.1870016503009237
30
0
10
-4.3863905149089586
20
2.2003691107399592
30
0
10
-4.4006737581188391
20
2.2140475789171998
30
0
10
-4.4147813162670282
20
2.2280141409658323
30
0
10
-4.4287343298898136
20
2.2422321151768752
30
0
10
-4.4425553259913722
20
2.2566628178446284
30
0
10
-4.4562602195726067
20
2.2712782078175939
30
0
10
-4.4698536427654325
20
2.2860682664270398
30
0
10
-4.4833334134616845
20
2.3010339001476856
30
0
10
-4.4966933231778192
20
2.3161825060890453
30
0
10
-4.5099263808329537
20
2.3315228159037469
30
0
10
-4.5230283541286216
20
2.3470592667406094
30
0
10
-4.5359995179859682
20
2.3627892181240333
30
0
10
-4.5488427370244144
20
2.3787059869146416
30
0
10
-4.5615623177454809
20
2.3948006607890848
30
0
10
-4.5741626506399049
20
2.4110642455372067
30
0
10
-4.5866467136620086
20
2.4274900318071833
30
0
10
-4.5990154429750199
20
2.4440745880159223
30
0
10
-4.6112685620231328
20
2.4608164427687704
30
0
10
-4.6234050819885661
20
2.4777152880719533
30
0
10
-4.6354238916133799
20
2.4947710412615081
30
0
10
-4.6473244133337479
20
2.5119828016798307
30
0
10
-4.6591068571233949
20
2.5293484461689424
30
0
10
-4.6707718711471671
20
2.5468651821169135
30
0
10
-4.6823203349354365
20
2.5645298745798941
30
0
10
-4.6937531142460358
20
2.5823394342305059
30
0
10
-4.7050707891968671
20
2.6002912484095027
30
0
10
-4.7162735546447561
20
2.6183833374450858
30
0
10
-4.7273613699209669
20
2.6366141134223779
30
0
10
-4.7383340500215283
20
2.6549822324621388
30
0
10
-4.7491913733373474
20
2.6734864211645721
30
0
10
-4.7599332019970539
20
2.6921252824465047
30
0
10
-4.7705595295315719
20
2.7108972200563208
30
0
10
-4.7810704186361104
20
2.7298005418471143
30
0
10
-4.7914659657207084
20
2.7488335202273442
30
0
10
-4.80174625823211
20
2.7679944637141629
30
0
10
-4.8119113293618536
20
2.7872817953666109
30
0
10
-4.8219611377319813
20
2.8066940833574634
30
0
10
-4.8318955899546063
20
2.8262299908338981
30
0
10
-4.8417145540271269
20
2.8458882429051471
30
0
10
-4.851417876407436
20
2.8656675888563599
30
0
10
-4.861005400272858
20
2.8855667584668949
30
0
10
-4.8704769775471988
20
2.9055844437702829
30
0
10
-4.8798324663255706
20
2.9257193327757536
30
0
10
-4.8890717326280253
20
2.9459701320815816
30
0
10
-4.8981946505157392
20
2.9663355908945981
30
0
10
-4.9072011055797073
20
2.9868145288909584
30
0
10
-4.916090992119452
20
3.0074058448255823
30
0
10
-4.9248641944737299
20
3.0281084749639557
30
0
10
-4.9335205713230721
20
3.0489213590981867
30
0
10
-4.942059941137896
20
3.0698434056079025
30
0
10
-4.9504820644067502
20
3.0908734493510397
30
0
10
-4.9587866388488964
20
3.1120102322565959
30
0
10
-4.9669733453160338
20
3.133252479418795
30
0
10
-4.9750418874729849
20
3.1545989608424199
30
0
10
-4.9829920333899729
20
3.1760485567992509
30
0
10
-4.9908236605211531
20
3.1976003239733215
30
0
10
-4.9985367908126728
20
3.2192535520844698
30
0
10
-5.0061315316327928
20
3.2410077330611369
30
0
10
-5.0121127271031174
20
3.2584915768745315
30
0
10
-5.0165454695549734
20
3.2716496609194143
30
0
10
-5.0194770149792101
20
3.2804417997000086
30
0
10
-5.0209368836381421
20
3.2848428897775488
30
0
0
LINE
5
162
100
AcDbEntity
8
0
100
AcDbLine
10
-4.2176870397773776
20
2.0704278720789016
30
0
11
-3.7873889773658993
21
1.85825838606934
31
0
0
ARC
5
163
100
AcDbEntity
8
0
100
AcDbCircle
10
-4.0085081432084673
20
1.4098095991414601
30
0
40
0.49999999999999989
210
-0
220
0
230
1
100
AcDbArc
50
-19.376993169683875
51
63.753217057866834
0
ARC
5
164
100
AcDbEntity
8
0
100
AcDbCircle
10
-2.1788126858268697e-13
20
-3.1086244689504383e-13
30
0
40
3.7491999999998975
210
0
220
0
230
1
100
AcDbArc
50
160.62300683031052
51
163.37699316967831
0
ARC
5
165
100
AcDbEntity
8
0
100
AcDbCircle
10
-4.0716165008617295
20
1.215582045733848
30
0
40
0.49999999999999989
210
0
220
0
230
1
100
AcDbArc
50
260.24678294213322
51
343.37699316968474
0
LINE
5
166
100
AcDbEntity
8
0
100
AcDbLine
10
-4.1563189212777365
20
0.72280877132088861
30
0
11
-4.6291474612781291
21
0.80408290662684911
31
0
0
SPLINE
5
167
100
AcDbEntity
8
0
100
AcDbSpline
70
4
71
5
72
81
73
75
74
0
42
0.000000001
43
0.0000000001
44
0.0000000001
40
0
40
0
40
0
40
0
40
0
40
0
40
0.014285714285714285
40
0.028571428571428571
40
0.042857142857142858
40
0.057142857142857141
40
0.071428571428571425
40
0.085714285714285715
40
0.10000000000000001
40
0.1142857142857143
40
0.12857142857142859
40
0.14285714285714288
40
0.15714285714285717
40
0.17142857142857146
40
0.18571428571428575
40
0.20000000000000004
40
0.21428571428571433
40
0.22857142857142862
40
0.24285714285714291
40
0.25714285714285717
40
0.27142857142857146
40
0.28571428571428575
40
0.30000000000000004
40
0.31428571428571433
40
0.32857142857142863
40
0.34285714285714292
40
0.35714285714285721
40
0.3714285714285715
40
0.38571428571428579
40
0.40000000000000008
40
0.41428571428571437
40
0.42857142857142866
40
0.44285714285714295
40
0.45714285714285724
40
0.47142857142857153
40
0.48571428571428582
40
0.50000000000000011
40
0.51428571428571435
40
0.52857142857142858
40
0.54285714285714282
40
0.55714285714285705
40
0.57142857142857129
40
0.58571428571428552
40
0.59999999999999976
40
0.61428571428571399
40
0.62857142857142823
40
0.64285714285714246
40
0.6571428571428567
40
0.67142857142857093
40
0.68571428571428517
40
0.6999999999999994
40
0.71428571428571364
40
0.72857142857142787
40
0.74285714285714211
40
0.75714285714285634
40
0.77142857142857058
40
0.78571428571428481
40
0.79999999999999905
40
0.81428571428571328
40
0.82857142857142752
40
0.84285714285714175
40
0.85714285714285599
40
0.87142857142857022
40
0.88571428571428445
40
0.89999999999999869
40
0.91428571428571292
40
0.92857142857142716
40
0.94285714285714139
40
0.95714285714285563
40
0.97142857142856986
40
0.9857142857142841
40
1
40
1
40
1
40
1
40
1
40
1
41
1
41
1
41
1
41
1
41
1
41
1
41
1
41
1
41
1
41
1
41
1
41
1
41
1
41
1
41
1
41
1
41
1
41
1
41
1
41
1
41
1
41
1
41
1
41
1
41
1
41
1
41
1
41
1
41
1
41
1
41
1
41
1
41
1
41
1
41
1
41
1
41
1
41
1
41
1
41
1
41
1
41
1
41
1
41
1
41
1
41
1
41
1
41
1
41
1
41
1
41
1
41
1
41
1
41
1
41
1
41
1
41
1
41
1
41
1
41
1
41
1
41
1
41
1
41
1
41
1
41
1
41
1
41
1
41
1
41
1
41
1
41
1
41
1
41
1
41
1
10
-4.6291474612781291
20
0.80408290662684911
30
0
10
-4.6329284385990972
20
0.80473281592033818
30
0
10
-4.6405040604282171
20
0.80590554709801121
30
0
10
-4.6519084944001072
20
0.80728338577036052
30
0
10
-4.6671931712869315
20
0.80839483702501069
30
0
10
-4.6864112703878851
20
0.80878851528423779
30
0
10
-4.7057169996580219
20
0.80845863601816825
30
0
10
-4.7250853076773636
20
0.80767404371395568
30
0
10
-4.7444962212321649
20
0.80663466979301646
30
0
10
-4.7639394242451232
20
0.80541740031808406
30
0
10
-4.7834112135701972
20
0.80401670932413594
30
0
10
-4.8029121066809779
20
0.80237726425931022
30
0
10
-4.8224443027805943
20
0.80042816823109775
30
0
10
-4.8420089834192748
20
0.79811965097275528
30
0
10
-4.8616043717793929
20
0.79544901747402519
30
0
10
-4.8812269652678246
20
0.79244204604905377
30
0
10
-4.9008723059701289
20
0.78914083891924447
30
0
10
-4.9205358809038033
20
0.78558993290074786
30
0
10
-4.9402140833997343
20
0.78182136836448923
30
0
10
-4.9599047721056335
20
0.77784597328255933
30
0
10
-4.9796067144713865
20
0.773661731690508
30
0
10
-4.9993192356401757
20
0.76925900994596119
30
0
10
-5.0190418120454012
20
0.76462663473931436
30
0
10
-5.0387736277763198
20
0.75975852865914595
30
0
10
-5.0585133532161883
20
0.75465698948968141
30
0
10
-5.0782593776400393
20
0.74932910778530271
30
0
10
-5.0980099465485615
20
0.74378462506514265
30
0
10
-5.1177633252592871
20
0.73803339846377325
30
0
10
-5.137517979329818
20
0.73208260635847378
30
0
10
-5.1572726490981786
20
0.72593557522122276
30
0
10
-5.1770262459619492
20
0.71959333287987659
30
0
10
-5.1967777889165383
20
0.71305554729412302
30
0
10
-5.2165263303467304
20
0.70632163215948451
30
0
10
-5.2362708736003167
20
0.69939197663977037
30
0
10
-5.2560103405886629
20
0.69226842182532455
30
0
10
-5.2757436142320362
20
0.68495360796839555
30
0
10
-5.2954695634116922
20
0.67745058826681648
30
0
10
-5.3151870726793575
20
0.66976237091862056
30
0
10
-5.3348950756777
20
0.6618914105942908
30
0
10
-5.3545925664273177
20
0.65383942341592005
30
0
10
-5.3742785786735627
20
0.64560767012914799
30
0
10
-5.3939521728326802
20
0.63719712921251281
30
0
10
-5.4136124211335286
20
0.62860870060953256
30
0
10
-5.4332583908509404
20
0.61984343354547988
30
0
10
-5.4528891384981639
20
0.61090261561261194
30
0
10
-5.472503720177694
20
0.60178765263785139
30
0
10
-5.4921011984340584
20
0.59249999894051264
30
0
10
-5.5116806497844895
20
0.58304107435887309
30
0
10
-5.5312411741788647
20
0.573412174174464
30
0
10
-5.5507818965347875
20
0.56361443243849074
30
0
10
-5.570301955517496
20
0.55364887579558053
30
0
10
-5.5898004949726499
20
0.5435164580648516
30
0
10
-5.6092766555303335
20
0.53321810084608412
30
0
10
-5.6287295637013735
20
0.52275473959130891
30
0
10
-5.648158330886214
20
0.51212734543062399
30
0
10
-5.6675620711125614
20
0.50133689637725964
30
0
10
-5.6869399157459046
20
0.49038436006375469
30
0
10
-5.7062910277018126
20
0.47927067437805437
30
0
10
-5.7256146206445102
20
0.46799672697428329
30
0
10
-5.744909961764896
20
0.45656334664924464
30
0
10
-5.7641763322435979
20
0.44497132599826339
30
0
10
-5.7834129945762029
20
0.4332214396820433
30
0
10
-5.8026191602638368
20
0.42131446413960472
30
0
10
-5.8217939506843406
20
0.40925120120938019
30
0
10
-5.8409363818118827
20
0.39703249101603044
30
0
10
-5.8600454460792486
20
0.38465917738932842
30
0
10
-5.879120180773195
20
0.37213208123486324
30
0
10
-5.8981597400988566
20
0.35945197210688956
30
0
10
-5.917163470447349
20
0.34661954113341542
30
0
10
-5.9361309720812736
20
0.33363537584278458
30
0
10
-5.9550620332264099
20
0.32049995038300239
30
0
10
-5.9701776675554807
20
0.30987088209950514
30
0
10
-5.981497959280726
20
0.30183126913419245
30
0
10
-5.9890375188600578
20
0.29644139861058111
30
0
10
-5.9928054732562774
20
0.29373893121207961
30
0
0
ARC
5
168
100
AcDbEntity
8
0
100
AcDbCircle
10
-2.1788126858268697e-13
20
-3.1086244689504383e-13
30
0
40
5.9999999999997993
210
0
220
0
230
1
100
AcDbArc
50
177.19387814196963
51
182.80612185802437
0
SPLINE
5
169
100
AcDbEntity
8
0
100
AcDbSpline
70
4
71
5
72
81
73
75
74
0
42
0.000000001
43
0.0000000001
44
0.0000000001
40
0
40
0
40
0
40
0
40
0
40
0
40
0.014285714285714285
40
0.028571428571428571
40
0.042857142857142858
40
0.057142857142857141
40
0.071428571428571425
40
0.085714285714285715
40
0.10000000000000001
40
0.1142857142857143
40
0.12857142857142859
40
0.14285714285714288
40
0.15714285714285717
40
0.17142857142857146
40
0.18571428571428575
40
0.20000000000000004
40
0.21428571428571433
40
0.22857142857142862
40
0.24285714285714291
40
0.25714285714285717
40
0.27142857142857146
40
0.28571428571428575
40
0.30000000000000004
40
0.31428571428571433
40
0.32857142857142863
40
0.34285714285714292
40
0.35714285714285721
40
0.3714285714285715
40
0.38571428571428579
40
0.40000000000000008
40
0.41428571428571437
40
0.42857142857142866
40
0.44285714285714295
40
0.45714285714285724
40
0.47142857142857153
40
0.48571428571428582
40
0.50000000000000011
40
0.51428571428571435
40
0.52857142857142858
40
0.54285714285714282
40
0.55714285714285705
40
0.57142857142857129
40
0.58571428571428552
40
0.59999999999999976
40
0.61428571428571399
40
0.62857142857142823
40
0.64285714285714246
40
0.6571428571428567
40
0.67142857142857093
40
0.68571428571428517
40
0.6999999999999994
40
0.71428571428571364
40
0.72857142857142787
40
0.74285714285714211
40
0.75714285714285634
40
0.77142857142857058
40
0.78571428571428481
40
0.79999999999999905
40
0.81428571428571328
40
0.82857142857142752
40
0.84285714285714175
40
0.85714285714285599
40
0.87142857142857022
40
0.88571428571428445
40
0.89999999999999869
40
0.91428571428571292
40
0.92857142857142716
40
0.94285714285714139
40
0.95714285714285563
40
0.97142857142856986
40
0.9857142857142841
40
1
40
1
40
1
40
1
40
1
40
1
41
1
41
1
41
1
41
1
41
1
41
1
41
1
41
1
41
1
41
1
41
1
41
1
41
1
41
1
41
1
41
1
41
1
41
1
41
1
41
1
41
1
41
1
41
1
41
1
41
1
41
1
41
1
41
1
41
1
41
1
41
1
41
1
41
1
41
1
41
1
41
1
41
1
41
1
41
1
41
1
41
1
41
1
41
1
41
1
41
1
41
1
41
1
41
1
41
1
41
1
41
1
41
1
41
1
41
1
41
1
41
1
41
1
41
1
41
1
41
1
41
1
41
1
41
1
41
1
41
1
41
1
41
1
41
1
41
1
41
1
41
1
41
1
41
1
41
1
41
1
10
-4.6291474612781291
20
-0.80408290662684911
30
0
10
-4.6329284385990972
20
-0.80473281592033818
30
0
10
-4.6405040604282171
20
-0.80590554709801121
30
0
10
-4.6519084944001072
20
-0.80728338577036052
30
0
10
-4.6671931712869315
20
-0.80839483702501069
30
0
10
-4.6864112703878851
20
-0.80878851528423779
30
0
10
-4.7057169996580219
20
-0.80845863601816825
30
0
10
-4.7250853076773636
20
-0.80767404371395568
30
0
10
-4.7444962212321649
20
-0.80663466979301646
30
0
10
-4.7639394242451232
20
-0.80541740031808406
30
0
10
-4.7834112135701972
20
-0.80401670932413594
30
0
10
-4.8029121066809779
20
-0.80237726425931022
30
0
10
-4.8224443027805943
20
-0.80042816823109775
30
0
10
-4.8420089834192748
20
-0.79811965097275528
30
0
10
-4.8616043717793929
20
-0.79544901747402519
30
0
10
-4.8812269652678246
20
-0.79244204604905377
30
0
10
-4.9008723059701289
20
-0.78914083891924447
30
0
10
-4.9205358809038033
20
-0.78558993290074786
30
0
10
-4.9402140833997343
20
-0.78182136836448923
30
0
10
-4.9599047721056335
20
-0.77784597328255933
30
0
10
-4.9796067144713865
20
-0.773661731690508
30
0
10
-4.9993192356401757
20
-0.76925900994596119
30
0
10
-5.0190418120454012
20
-0.76462663473931436
30
0
10
-5.0387736277763198
20
-0.75975852865914595
30
0
10
-5.0585133532161883
20
-0.75465698948968141
30
0
10
-5.0782593776400393
20
-0.74932910778530271
30
0
10
-5.0980099465485615
20
-0.74378462506514265
30
0
10
-5.1177633252592871
20
-0.73803339846377325
30
0
10
-5.137517979329818
20
-0.73208260635847378
30
0
10
-5.1572726490981786
20
-0.72593557522122276
30
0
10
-5.1770262459619492
20
-0.71959333287987659
30
0
10
-5.1967777889165383
20
-0.71305554729412302
30
0
10
-5.2165263303467304
20
-0.70632163215948451
30
0
10
-5.2362708736003167
20
-0.69939197663977037
30
0
10
-5.2560103405886629
20
-0.69226842182532455
30
0
10
-5.2757436142320362
20
-0.68495360796839555
30
0
10
-5.2954695634116922
20
-0.67745058826681648
30
0
10
-5.3151870726793575
20
-0.66976237091862056
30
0
10
-5.3348950756777
20
-0.6618914105942908
30
0
10
-5.3545925664273177
20
-0.65383942341592005
30
0
10
-5.3742785786735627
20
-0.64560767012914799
30
0
10
-5.3939521728326802
20
-0.63719712921251281
30
0
10
-5.4136124211335286
20
-0.62860870060953256
30
0
10
-5.4332583908509404
20
-0.61984343354547988
30
0
10
-5.4528891384981639
20
-0.61090261561261194
30
0
10
-5.472503720177694
20
-0.60178765263785139
30
0
10
-5.4921011984340584
20
-0.59249999894051264
30
0
10
-5.5116806497844895
20
-0.58304107435887309
30
0
10
-5.5312411741788647
20
-0.573412174174464
30
0
10
-5.5507818965347875
20
-0.56361443243849074
30
0
10
-5.570301955517496
20
-0.55364887579558053
30
0
10
-5.5898004949726499
20
-0.5435164580648516
30
0
10
-5.6092766555303335
20
-0.53321810084608412
30
0
10
-5.6287295637013735
20
-0.52275473959130891
30
0
10
-5.648158330886214
20
-0.51212734543062399
30
0
10
-5.6675620711125614
20
-0.50133689637725964
30
0
10
-5.6869399157459046
20
-0.49038436006375469
30
0
10
-5.7062910277018126
20
-0.47927067437805437
30
0
10
-5.7256146206445102
20
-0.46799672697428329
30
0
10
-5.744909961764896
20
-0.45656334664924464
30
0
10
-5.7641763322435979
20
-0.44497132599826339
30
0
10
-5.7834129945762029
20
-0.4332214396820433
30
0
10
-5.8026191602638368
20
-0.42131446413960472
30
0
10
-5.8217939506843406
20
-0.40925120120938019
30
0
10
-5.8409363818118827
20
-0.39703249101603044
30
0
10
-5.8600454460792486
20
-0.38465917738932842
30
0
10
-5.879120180773195
20
-0.37213208123486324
30
0
10
-5.8981597400988566
20
-0.35945197210688956
30
0
10
-5.917163470447349
20
-0.34661954113341542
30
0
10
-5.9361309720812736
20
-0.33363537584278458
30
0
10
-5.9550620332264099
20
-0.32049995038300239
30
0
10
-5.9701776675554807
20
-0.30987088209950514
30
0
10
-5.981497959280726
20
-0.30183126913419245
30
0
10
-5.9890375188600578
20
-0.29644139861058111
30
0
10
-5.9928054732562774
20
-0.29373893121207961
30
0
0
LINE
5
170
100
AcDbEntity
8
0
100
AcDbLine
10
-4.6291474612781291
20
-0.80408290662684911
30
0
11
-4.1563189212777365
21
-0.72280877132088861
31
0
0
ARC
5
171
100
AcDbEntity
8
0
100
AcDbCircle
10
-4.0716165008617295
20
-1.215582045733848
30
0
40
0.50000000000000022
210
0
220
-0
230
1
100
AcDbArc
50
16.623006830316058
51
99.753217057866763
0
ARC
5
172
100
AcDbEntity
8
0
100
AcDbCircle
10
-2.1788126858268697e-13
20
-3.1086244689504383e-13
30
0
40
3.7491999999997021
210
0
220
0
230
1
100
AcDbArc
50
196.62300683031251
51
199.37699316968045
0
ARC
5
173
100
AcDbEntity
8
0
100
AcDbCircle
10
-4.0085081432084664
20
-1.4098095991414616
30
0
40
0.5
210
-0
220
0
230
1
100
AcDbArc
50
-63.753217057866785
51
19.376993169684713
0
LINE
5
174
100
AcDbEntity
8
0
100
AcDbLine
10
-3.7873889773658984
20
-1.8582583860693414
30
0
11
-4.2176870397773776
21
-2.0704278720789029
31
0
0
SPLINE
5
175
100
AcDbEntity
8
0
100
AcDbSpline
70
4
71
5
72
81
73
75
74
0
42
0.000000001
43
0.0000000001
44
0.0000000001
40
0
40
0
40
0
40
0
40
0
40
0
40
0.014285714285714285
40
0.028571428571428571
40
0.042857142857142858
40
0.057142857142857141
40
0.071428571428571425
40
0.085714285714285715
40
0.10000000000000001
40
0.1142857142857143
40
0.12857142857142859
40
0.14285714285714288
40
0.15714285714285717
40
0.17142857142857146
40
0.18571428571428575
40
0.20000000000000004
40
0.21428571428571433
40
0.22857142857142862
40
0.24285714285714291
40
0.25714285714285717
40
0.27142857142857146
40
0.28571428571428575
40
0.30000000000000004
40
0.31428571428571433
40
0.32857142857142863
40
0.34285714285714292
40
0.35714285714285721
40
0.3714285714285715
40
0.38571428571428579
40
0.40000000000000008
40
0.41428571428571437
40
0.42857142857142866
40
0.44285714285714295
40
0.45714285714285724
40
0.47142857142857153
40
0.48571428571428582
40
0.50000000000000011
40
0.51428571428571435
40
0.52857142857142858
40
0.54285714285714282
40
0.55714285714285705
40
0.57142857142857129
40
0.58571428571428552
40
0.59999999999999976
40
0.61428571428571399
40
0.62857142857142823
40
0.64285714285714246
40
0.6571428571428567
40
0.67142857142857093
40
0.68571428571428517
40
0.6999999999999994
40
0.71428571428571364
40
0.72857142857142787
40
0.74285714285714211
40
0.75714285714285634
40
0.77142857142857058
40
0.78571428571428481
40
0.79999999999999905
40
0.81428571428571328
40
0.82857142857142752
40
0.84285714285714175
40
0.85714285714285599
40
0.87142857142857022
40
0.88571428571428445
40
0.89999999999999869
40
0.91428571428571292
40
0.92857142857142716
40
0.94285714285714139
40
0.95714285714285563
40
0.97142857142856986
40
0.9857142857142841
40
1
40
1
40
1
40
1
40
1
40
1
41
1
41
1
41
1
41
1
41
1
41
1
41
1
41
1
41
1
41
1
41
1
41
1
41
1
41
1
41
1
41
1
41
1
41
1
41
1
41
1
41
1
41
1
41
1
41
1
41
1
41
1
41
1
41
1
41
1
41
1
41
1
41
1
41
1
41
1
41
1
41
1
41
1
41
1
41
1
41
1
41
1
41
1
41
1
41
1
41
1
41
1
41
1
41
1
41
1
41
1
41
1
41
1
41
1
41
1
41
1
41
1
41
1
41
1
41
1
41
1
41
1
41
1
41
1
41
1
41
1
41
1
41
1
41
1
41
1
41
1
41
1
41
1
41
1
41
1
41
1
10
-4.2176870397773776
20
-2.0704278720789029
30
0
10
-4.2211279217834274
20
-2.0721244871241851
30
0
10
-4.2279460426772832
20
-2.0756285664597156
30
0
10
-4.2379822968234144
20
-2.0812172296576987
30
0
10
-4.251001154834511
20
-2.0893021543643981
30
0
10
-4.2667803218816864
20
-2.1002797771910036
30
0
10
-4.2822050867823958
20
-2.1118942780730832
30
0
10
-4.2974132053368539
20
-2.1239134323964737
30
0
10
-4.3125060356166847
20
-2.1361637522830601
30
0
10
-4.3275204242338194
20
-2.1485769719633598
30
0
10
-4.3424501271994318
20
-2.1611553853823566
30
0
10
-4.357263039500495
20
-2.1739440616781938
30
0
10
-4.3719192681818626
20
-2.1870016503009251
30
0
10
-4.3863905149089577
20
-2.2003691107399606
30
0
10
-4.4006737581188382
20
-2.2140475789172012
30
0
10
-4.4147813162670282
20
-2.2280141409658332
30
0
10
-4.4287343298898136
20
-2.2422321151768765
30
0
10
-4.4425553259913722
20
-2.2566628178446297
30
0
10
-4.4562602195726067
20
-2.2712782078175953
30
0
10
-4.4698536427654316
20
-2.2860682664270411
30
0
10
-4.4833334134616845
20
-2.3010339001476865
30
0
10
-4.4966933231778192
20
-2.3161825060890466
30
0
10
-4.5099263808329528
20
-2.3315228159037482
30
0
10
-4.5230283541286216
20
-2.3470592667406103
30
0
10
-4.5359995179859682
20
-2.3627892181240346
30
0
10
-4.5488427370244136
20
-2.3787059869146425
30
0
10
-4.5615623177454809
20
-2.3948006607890857
30
0
10
-4.5741626506399049
20
-2.411064245537208
30
0
10
-4.5866467136620086
20
-2.4274900318071846
30
0
10
-4.5990154429750199
20
-2.4440745880159236
30
0
10
-4.6112685620231328
20
-2.4608164427687713
30
0
10
-4.6234050819885661
20
-2.4777152880719546
30
0
10
-4.6354238916133799
20
-2.4947710412615094
30
0
10
-4.647324413333747
20
-2.5119828016798316
30
0
10
-4.659106857123394
20
-2.5293484461689437
30
0
10
-4.6707718711471662
20
-2.5468651821169148
30
0
10
-4.6823203349354365
20
-2.5645298745798955
30
0
10
-4.6937531142460349
20
-2.5823394342305077
30
0
10
-4.7050707891968671
20
-2.6002912484095035
30
0
10
-4.7162735546447561
20
-2.6183833374450871
30
0
10
-4.7273613699209669
20
-2.6366141134223793
30
0
10
-4.7383340500215274
20
-2.6549822324621397
30
0
10
-4.7491913733373465
20
-2.6734864211645739
30
0
10
-4.7599332019970539
20
-2.6921252824465061
30
0
10
-4.7705595295315719
20
-2.7108972200563217
30
0
10
-4.7810704186361104
20
-2.7298005418471156
30
0
10
-4.7914659657207075
20
-2.7488335202273455
30
0
10
-4.8017462582321091
20
-2.7679944637141638
30
0
10
-4.8119113293618536
20
-2.7872817953666118
30
0
10
-4.8219611377319813
20
-2.8066940833574643
30
0
10
-4.8318955899546063
20
-2.8262299908338995
30
0
10
-4.841714554027126
20
-2.845888242905148
30
0
10
-4.8514178764074352
20
-2.8656675888563616
30
0
10
-4.8610054002728571
20
-2.8855667584668958
30
0
10
-4.8704769775471979
20
-2.9055844437702847
30
0
10
-4.8798324663255697
20
-2.9257193327757545
30
0
10
-4.8890717326280253
20
-2.945970132081583
30
0
10
-4.8981946505157383
20
-2.9663355908945994
30
0
10
-4.9072011055797065
20
-2.9868145288909602
30
0
10
-4.916090992119452
20
-3.0074058448255836
30
0
10
-4.924864194473729
20
-3.0281084749639571
30
0
10
-4.9335205713230712
20
-3.0489213590981876
30
0
10
-4.942059941137896
20
-3.0698434056079051
30
0
10
-4.9504820644067484
20
-3.090873449351041
30
0
10
-4.9587866388488964
20
-3.1120102322565968
30
0
10
-4.966973345316033
20
-3.1332524794187968
30
0
10
-4.9750418874729849
20
-3.1545989608424216
30
0
10
-4.9829920333899729
20
-3.1760485567992518
30
0
10
-4.9908236605211522
20
-3.1976003239733233
30
0
10
-4.9985367908126719
20
-3.2192535520844712
30
0
10
-5.006131531632791
20
-3.2410077330611387
30
0
10
-5.0121127271031174
20
-3.2584915768745324
30
0
10
-5.0165454695549725
20
-3.2716496609194157
30
0
10
-5.0194770149792101
20
-3.2804417997000095
30
0
10
-5.0209368836381412
20
-3.2848428897775501
30
0
0
ARC
5
176
100
AcDbEntity
8
0
100
AcDbCircle
10
-2.1788126858268697e-13
20
-3.1086244689504383e-13
30
0
40
5.9999999999996483
210
0
220
0
230
1
100
AcDbArc
50
213.19387814197137
51
218.80612185802627
0
SPLINE
5
177
100
AcDbEntity
8
0
100
AcDbSpline
70
4
71
5
72
81
73
75
74
0
42
0.000000001
43
0.0000000001
44
0.0000000001
40
0
40
0
40
0
40
0
40
0
40
0
40
0.014285714285714285
40
0.028571428571428571
40
0.042857142857142858
40
0.057142857142857141
40
0.071428571428571425
40
0.085714285714285715
40
0.10000000000000001
40
0.1142857142857143
40
0.12857142857142859
40
0.14285714285714288
40
0.15714285714285717
40
0.17142857142857146
40
0.18571428571428575
40
0.20000000000000004
40
0.21428571428571433
40
0.22857142857142862
40
0.24285714285714291
40
0.25714285714285717
40
0.27142857142857146
40
0.28571428571428575
40
0.30000000000000004
40
0.31428571428571433
40
0.32857142857142863
40
0.34285714285714292
40
0.35714285714285721
40
0.3714285714285715
40
0.38571428571428579
40
0.40000000000000008
40
0.41428571428571437
40
0.42857142857142866
40
0.44285714285714295
40
0.45714285714285724
40
0.47142857142857153
40
0.48571428571428582
40
0.50000000000000011
40
0.51428571428571435
40
0.52857142857142858
40
0.54285714285714282
40
0.55714285714285705
40
0.57142857142857129
40
0.58571428571428552
40
0.59999999999999976
40
0.61428571428571399
40
0.62857142857142823
40
0.64285714285714246
40
0.6571428571428567
40
0.67142857142857093
40
0.68571428571428517
40
0.6999999999999994
40
0.71428571428571364
40
0.72857142857142787
40
0.74285714285714211
40
0.75714285714285634
40
0.77142857142857058
40
0.78571428571428481
40
0.79999999999999905
40
0.81428571428571328
40
0.82857142857142752
40
0.84285714285714175
40
0.85714285714285599
40
0.87142857142857022
40
0.88571428571428445
40
0.89999999999999869
40
0.91428571428571292
40
0.92857142857142716
40
0.94285714285714139
40
0.95714285714285563
40
0.97142857142856986
40
0.9857142857142841
40
1
40
1
40
1
40
1
40
1
40
1
41
1
41
1
41
1
41
1
41
1
41
1
41
1
41
1
41
1
41
1
41
1
41
1
41
1
41
1
41
1
41
1
41
1
41
1
41
1
41
1
41
1
41
1
41
1
41
1
41
1
41
1
41
1
41
1
41
1
41
1
41
1
41
1
41
1
41
1
41
1
41
1
41
1
41
1
41
1
41
1
41
1
41
1
41
1
41
1
41
1
41
1
41
1
41
1
41
1
41
1
41
1
41
1
41
1
41
1
41
1
41
1
41
1
41
1
41
1
41
1
41
1
41
1
41
1
41
1
41
1
41
1
41
1
41
1
41
1
41
1
41
1
41
1
41
1
41
1
41
1
10
-3.2724308915059219
20
-3.3714613447739525
30
0
10
-3.2751077593158904
20
-3.3742095351457047
30
0
10
-3.2805472520274668
20
-3.3796111333863772
30
0
10
-3.2889637596703079
20
-3.3874291863872346
30
0
10
-3.3006760283691534
20
-3.3973124770007974
30
0
10
-3.3159923988664848
20
-3.4089270846314639
30
0
10
-3.3318049601024602
20
-3.420007829648859
30
0
10
-3.3479354222278741
20
-3.4307574869567228
30
0
10
-3.3642501098323967
20
-3.441326064512209
30
0
10
-3.3806954845403938
20
-3.4517697008086001
30
0
10
-3.3972717985245287
20
-3.4620817485916526
30
0
10
-3.4140119940876885
20
-3.472217747049914
30
0
10
-3.430959522570427
20
-3.4821216320516601
30
0
10
-3.4481445940957545
20
-3.4917538331030817
30
0
10
-3.4655673552752986
20
-3.5011111255078831
30
0
10
-3.4832098203388142
20
-3.5102123055877117
30
0
10
-3.5010436356929291
20
-3.5190888144588195
30
0
10
-3.5190389721743855
20
-3.5277740304977891
30
0
10
-3.5371740790690707
20
-3.5362917549622908
30
0
10
-3.5554408594642846
20
-3.5446494892104647
30
0
10
-3.5738395011602102
20
-3.5528448778180302
30
0
10
-3.592375120699129
20
-3.5608697303337049
30
0
10
-3.6110538620133674
20
-3.5687146996154095
30
0
10
-3.6298786372300729
20
-3.5763743893537199
30
0
10
-3.6488470200630263
20
-3.5838498769660108
30
0
10
-3.6679535396850578
20
-3.5911459520708959
30
0
10
-3.6871910507551258
20
-3.5982694644540834
30
0
10
-3.7065523560073039
20
-3.6052273690841874
30
0
10
-3.7260319947073146
20
-3.6120245714678045
30
0
10
-3.7456269925160433
20
-3.6186630223665679
30
0
10
-3.7653358645935726
20
-3.6251429134462287
30
0
10
-3.7851580124589184
20
-3.6314633994605039
30
0
10
-3.805093014096391
20
-3.6376234490848565
30
0
10
-3.8251398344526693
20
-3.6436227913419525
30
0
10
-3.8452965191699731
20
-3.6494622820205684
30
0
10
-3.8655606126104796
20
-3.6551434005266499
30
0
10
-3.8859294050552462
20
-3.6606679520942147
30
0
10
-3.906400225913222
20
-3.6660377147625494
30
0
10
-3.9269707696640941
20
-3.671254047612678
30
0
10
-3.9476392137421716
20
-3.6763177477166797
30
0
10
-3.9684040353833323
20
-3.6812292670889706
30
0
10
-3.9892638993130944
20
-3.6859888450618437
30
0
10
-4.0102175259753112
20
-3.6905966643747048
30
0
10
-4.0312635440603275
20
-3.695053025626529
30
0
10
-4.052400433443589
20
-3.69935841593374
30
0
10
-4.0736266041716407
20
-3.7035134178251745
30
0
10
-4.0949404429996292
20
-3.707518656847371
30
0
10
-4.1163403682543001
20
-3.711374738864075
30
0
10
-4.1378248904324266
20
-3.7150821827438696
30
0
10
-4.1593926349989063
20
-3.7186413915929233
30
0
10
-4.181042301672707
20
-3.7220526897043182
30
0
10
-4.2027726371696055
20
-3.7253163454990346
30
0
10
-4.2245824045419775
20
-3.7284325994419949
30
0
10
-4.24647034727733
20
-3.7314016949057343
30
0
10
-4.2684351756675696
20
-3.7342238952452922
30
0
10
-4.2904755980843028
20
-3.7368994709285452
30
0
10
-4.3125903430273107
20
-3.7394286942161044
30
0
10
-4.3347781820043609
20
-3.7418118318493749
30
0
10
-4.3570379571064448
20
-3.7440491397590554
30
0
10
-4.3793685883240077
20
-3.7461408577214614
30
0
10
-4.401769028244118
20
-3.7480872044482565
30
0
10
-4.4242382248790344
20
-3.7498883731588961
30
0
10
-4.4467750839403646
20
-3.7515445285377336
30
0
10
-4.4693784232990428
20
-3.75305580284454
30
0
10
-4.4920469530485629
20
-3.7544222973585715
30
0
10
-4.5147793620592296
20
-3.7556441025193044
30
0
10
-4.5375743889634705
20
-3.7567213165846667
30
0
10
-4.5604308971662224
20
-3.7576540649913786
30
0
10
-4.5833479516519411
20
-3.7584425226920812
30
0
10
-4.6063248836857813
20
-3.7590869300474417
30
0
10
-4.6293612432415951
20
-3.759587546173492
30
0
10
-4.6478376578772194
20
-3.7598731962354437
30
0
10
-4.6617215321993752
20
-3.7600229132460559
30
0
10
-4.6709892504347019
20
-3.7600940583244853
30
0
10
-4.6756260600569135
20
-3.760122464297762
30
0
0
LINE
5
178
100
AcDbEntity
8
0
100
AcDbLine
10
-3.2724308915059219
20
-3.3714613447739525
30
0
11
-2.9376763053457773
21
-3.0277875454330889
31
0
0
ARC
5
179
100
AcDbEntity
8
0
100
AcDbCircle
10
-2.5795057443407252
20
-3.3766626652529568
30
0
40
0.50000000000000011
210
0
220
-0
230
1
100
AcDbArc
50
52.623006830315951
51
135.75321705786689
0
ENDSEC
0
SECTION
2
OBJECTS
0
DICTIONARY
5
C
100
AcDbDictionary
3
ACAD_GROUP
350
D
3
ACAD_MLINESTYLE
350
17
0
DICTIONARY
5
D
100
AcDbDictionary
0
DICTIONARY
5
1A
330
C
100
AcDbDictionary
0
DICTIONARY
5
17
100
AcDbDictionary
0
ENDSEC
0
EOF
