0
SECTION
2
HEADER
9
$INSUNITS
70
4
9
$ACADVER
1
AC1014
9
$HANDSEED
5
FFFF
0
ENDSEC
0
SECTION
2
TABLES
0
TABLE
2
VPORT
5
8
100
AcDbSymbolTable
0
ENDTAB
0
TABLE
2
LTYPE
5
5
100
AcDbSymbolTable
0
LTYPE
5
14
100
AcDbSymbolTableRecord
100
AcDbLinetypeTableRecord
2
BYBLOCK
70
0
0
LTYPE
5
15
100
AcDbSymbolTableRecord
100
AcDbLinetypeTableRecord
2
BYLAYER
70
0
0
ENDTAB
0
TABLE
2
LAYER
5
2
100
AcDbSymbolTable
70
2
0
LAYER
5
50
100
AcDbSymbolTableRecord
100
AcDbLayerTableRecord
2
0
70
0
6
CONTINUOUS
0
ENDTAB
0
TABLE
2
STYLE
5
3
100
AcDbSymbolTable
70
1
0
STYLE
5
11
100
AcDbSymbolTableRecord
100
AcDbTextStyleTableRecord
2
STANDARD
70
0
0
ENDTAB
0
TABLE
2
VIEW
5
6
100
AcDbSymbolTable
70
0
0
ENDTAB
0
TABLE
2
UCS
5
7
100
AcDbSymbolTable
70
0
0
ENDTAB
0
TABLE
2
APPID
5
9
100
AcDbSymbolTable
70
2
0
APPID
5
12
100
AcDbSymbolTableRecord
100
AcDbRegAppTableRecord
2
ACAD
70
0
0
ENDTAB
0
TABLE
2
DIMSTYLE
5
A
100
AcDbSymbolTable
70
1
0
ENDTAB
0
TABLE
2
BLOCK_RECORD
5
1
100
AcDbSymbolTable
70
1
0
BLOCK_RECORD
5
1F
100
AcDbSymbolTableRecord
100
AcDbBlockTableRecord
2
*MODEL_SPACE
0
BLOCK_RECORD
5
1B
100
AcDbSymbolTableRecord
100
AcDbBlockTableRecord
2
*PAPER_SPACE
0
ENDTAB
0
ENDSEC
0
SECTION
2
BLOCKS
0
BLOCK
5
20
100
AcDbEntity
100
AcDbBlockBegin
2
*MODEL_SPACE
0
ENDBLK
5
21
100
AcDbEntity
100
AcDbBlockEnd
0
BLOCK
5
1C
100
AcDbEntity
100
AcDbBlockBegin
2
*PAPER_SPACE
0
ENDBLK
5
1D
100
AcDbEntity
100
AcDbBlockEnd
0
ENDSEC
0
SECTION
2
ENTITIES
0
LWPOLYLINE
5
100
100
AcDbEntity
8
0
100
AcDbPolyline
90
36
70
1
43
0.0
10
13.522711641858304
20
14.73554443687609
42
-0.50654796018674153
10
12.994304895579559
20
9.927136559991359
10
7.6102540378443866
20
6.8186533479473219
10
9.7102540378443862
20
3.1813466520526799
10
15.094304895579558
20
6.2898298640967187
42
-0.5065479601867422
10
19.522711641858294
20
4.3432395914628161
42
-0.10989224704063352
10
19.522711641858308
20
-4.3432395914628197
42
-0.50654796018674164
10
15.094304895579562
20
-6.2898298640967116
10
9.710254037844388
20
-3.1813466520526763
10
7.6102540378443884
20
-6.8186533479473184
10
12.994304895579564
20
-9.9271365599913501
42
-0.50654796018674264
10
13.522711641858297
20
-14.735544436876078
42
-0.10989224704063386
10
6.0000000000000018
20
-19.078784028338912
42
-0.50654796018674131
10
2.1000000000000023
20
-16.216966424088074
10
2.1000000000000014
20
-10
10
-2.0999999999999992
20
-10
10
-2.0999999999999988
20
-16.216966424088074
42
-0.50654796018674242
10
-6.0000000000000071
20
-19.078784028338916
42
-0.10989224704063374
10
-13.522711641858303
20
-14.735544436876101
42
-0.50654796018674109
10
-12.994304895579557
20
-9.9271365599913626
10
-7.610254037844383
20
-6.8186533479473237
10
-9.7102540378443845
20
-3.1813466520526812
10
-15.094304895579555
20
-6.2898298640967178
42
-0.50654796018674075
10
-19.522711641858312
20
-4.3432395914628419
42
-0.10989224704063374
10
-19.522711641858315
20
4.3432395914628055
42
-0.50654796018674186
10
-15.094304895579565
20
6.2898298640967054
10
-9.7102540378443898
20
3.181346652052671
10
-7.6102540378443919
20
6.8186533479473157
10
-12.994304895579564
20
9.9271365599913466
42
-0.5065479601867412
10
-13.52271164185832
20
14.735544436876097
42
-0.10989224704063363
10
-6.0000000000000009
20
19.078784028338916
42
-0.50654796018674153
10
-2.1000000000000001
20
16.216966424088074
10
-2.1000000000000001
20
10
10
2.1000000000000001
20
10
10
2.1000000000000032
20
16.216966424088074
42
-0.50654796018674297
10
6.0000000000000133
20
19.078784028338905
42
-0.1098922470406333
0
ENDSEC
0
SECTION
2
OBJECTS
0
DICTIONARY
5
C
100
AcDbDictionary
3
ACAD_GROUP
350
D
3
ACAD_MLINESTYLE
350
17
0
DICTIONARY
5
D
100
AcDbDictionary
0
DICTIONARY
5
1A
330
C
100
AcDbDictionary
0
DICTIONARY
5
17
100
AcDbDictionary
0
ENDSEC
0
EOF
