0
SECTION
2
HEADER
9
$INSUNITS
70
4
9
$ACADVER
1
AC1014
9
$HANDSEED
5
FFFF
0
ENDSEC
0
SECTION
2
TABLES
0
TABLE
2
VPORT
5
8
100
AcDbSymbolTable
0
ENDTAB
0
TABLE
2
LTYPE
5
5
100
AcDbSymbolTable
0
LTYPE
5
14
100
AcDbSymbolTableRecord
100
AcDbLinetypeTableRecord
2
BYBLOCK
70
0
0
LTYPE
5
15
100
AcDbSymbolTableRecord
100
AcDbLinetypeTableRecord
2
BYLAYER
70
0
0
ENDTAB
0
TABLE
2
LAYER
5
2
100
AcDbSymbolTable
70
2
0
LAYER
5
50
100
AcDbSymbolTableRecord
100
AcDbLayerTableRecord
2
0
70
0
6
CONTINUOUS
0
ENDTAB
0
TABLE
2
STYLE
5
3
100
AcDbSymbolTable
70
1
0
STYLE
5
11
100
AcDbSymbolTableRecord
100
AcDbTextStyleTableRecord
2
STANDARD
70
0
0
ENDTAB
0
TABLE
2
VIEW
5
6
100
AcDbSymbolTable
70
0
0
ENDTAB
0
TABLE
2
UCS
5
7
100
AcDbSymbolTable
70
0
0
ENDTAB
0
TABLE
2
APPID
5
9
100
AcDbSymbolTable
70
2
0
APPID
5
12
100
AcDbSymbolTableRecord
100
AcDbRegAppTableRecord
2
ACAD
70
0
0
ENDTAB
0
TABLE
2
DIMSTYLE
5
A
100
AcDbSymbolTable
70
1
0
ENDTAB
0
TABLE
2
BLOCK_RECORD
5
1
100
AcDbSymbolTable
70
1
0
BLOCK_RECORD
5
1F
100
AcDbSymbolTableRecord
100
AcDbBlockTableRecord
2
*MODEL_SPACE
0
BLOCK_RECORD
5
1B
100
AcDbSymbolTableRecord
100
AcDbBlockTableRecord
2
*PAPER_SPACE
0
ENDTAB
0
ENDSEC
0
SECTION
2
BLOCKS
0
BLOCK
5
20
100
AcDbEntity
100
AcDbBlockBegin
2
*MODEL_SPACE
0
ENDBLK
5
21
100
AcDbEntity
100
AcDbBlockEnd
0
BLOCK
5
1C
100
AcDbEntity
100
AcDbBlockBegin
2
*PAPER_SPACE
0
ENDBLK
5
1D
100
AcDbEntity
100
AcDbBlockEnd
0
ENDSEC
0
SECTION
2
ENTITIES
0
ARC
5
100
100
AcDbEntity
8
0
100
AcDbCircle
10
0
20
0
30
0
40
5.5492000000000008
210
-0
220
0
230
1
100
AcDbArc
50
331.85985568249413
51
343.14014431750587
0
ARC
5
101
100
AcDbEntity
8
0
100
AcDbCircle
10
5.789187416834336
20
-1.7544599433349877
30
0
40
0.5
210
0
220
-0
230
1
100
AcDbArc
50
77.955433125200415
51
163.14014431750576
0
LINE
5
102
100
AcDbEntity
8
0
100
AcDbLine
10
5.893523651286837
20
-1.2654671517927476
30
0
11
7.3504166553279173
21
-1.5763239428763618
31
0
0
SPLINE
5
103
100
AcDbEntity
8
0
100
AcDbSpline
70
4
71
5
72
81
73
75
74
0
42
0.000000001
43
0.0000000001
44
0.0000000001
40
0
40
0
40
0
40
0
40
0
40
0
40
0.014285714285714285
40
0.028571428571428571
40
0.042857142857142858
40
0.057142857142857141
40
0.071428571428571425
40
0.085714285714285715
40
0.10000000000000001
40
0.1142857142857143
40
0.12857142857142859
40
0.14285714285714288
40
0.15714285714285717
40
0.17142857142857146
40
0.18571428571428575
40
0.20000000000000004
40
0.21428571428571433
40
0.22857142857142862
40
0.24285714285714291
40
0.25714285714285717
40
0.27142857142857146
40
0.28571428571428575
40
0.30000000000000004
40
0.31428571428571433
40
0.32857142857142863
40
0.34285714285714292
40
0.35714285714285721
40
0.3714285714285715
40
0.38571428571428579
40
0.40000000000000008
40
0.41428571428571437
40
0.42857142857142866
40
0.44285714285714295
40
0.45714285714285724
40
0.47142857142857153
40
0.48571428571428582
40
0.50000000000000011
40
0.51428571428571435
40
0.52857142857142858
40
0.54285714285714282
40
0.55714285714285705
40
0.57142857142857129
40
0.58571428571428552
40
0.59999999999999976
40
0.61428571428571399
40
0.62857142857142823
40
0.64285714285714246
40
0.6571428571428567
40
0.67142857142857093
40
0.68571428571428517
40
0.6999999999999994
40
0.71428571428571364
40
0.72857142857142787
40
0.74285714285714211
40
0.75714285714285634
40
0.77142857142857058
40
0.78571428571428481
40
0.79999999999999905
40
0.81428571428571328
40
0.82857142857142752
40
0.84285714285714175
40
0.85714285714285599
40
0.87142857142857022
40
0.88571428571428445
40
0.89999999999999869
40
0.91428571428571292
40
0.92857142857142716
40
0.94285714285714139
40
0.95714285714285563
40
0.97142857142856986
40
0.9857142857142841
40
1
40
1
40
1
40
1
40
1
40
1
41
1
41
1
41
1
41
1
41
1
41
1
41
1
41
1
41
1
41
1
41
1
41
1
41
1
41
1
41
1
41
1
41
1
41
1
41
1
41
1
41
1
41
1
41
1
41
1
41
1
41
1
41
1
41
1
41
1
41
1
41
1
41
1
41
1
41
1
41
1
41
1
41
1
41
1
41
1
41
1
41
1
41
1
41
1
41
1
41
1
41
1
41
1
41
1
41
1
41
1
41
1
41
1
41
1
41
1
41
1
41
1
41
1
41
1
41
1
41
1
41
1
41
1
41
1
41
1
41
1
41
1
41
1
41
1
41
1
41
1
41
1
41
1
41
1
41
1
41
1
10
7.3504166553279173
20
-1.5763239428763618
30
0
10
7.3577036526535524
20
-1.5778787671489738
30
0
10
7.372314877714615
20
-1.5807136329819409
30
0
10
7.3943434047878327
20
-1.5841415991960313
30
0
10
7.4239282671554001
20
-1.5871459527209466
30
0
10
7.4612074242843978
20
-1.5887673662659507
30
0
10
7.498710681621457
20
-1.5888565399060508
30
0
10
7.5363638011821577
20
-1.5880028267246518
30
0
10
7.574110065234656
20
-1.5866292074372055
30
0
10
7.6119228837475248
20
-1.5848845878291593
30
0
10
7.6497953321254855
20
-1.5827420942079209
30
0
10
7.6877326589989226
20
-1.5800710593434348
30
0
10
7.7257441618437355
20
-1.5767141339810944
30
0
10
7.7638341388772139
20
-1.5725739282651541
30
0
10
7.8019972853545667
20
-1.5676559033899595
30
0
10
7.8402230286142505
20
-1.5620238055114524
30
0
10
7.8784980070663391
20
-1.5557731780669299
30
0
10
7.9168090485458729
20
-1.5490001845223855
30
0
10
7.9551465171583837
20
-1.541766371090848
30
0
10
7.9935052626320164
20
-1.5340885306856409
30
0
10
8.0318827771550829
20
-1.5259576558251953
30
0
10
8.0702780551122597
20
-1.5173505753362113
30
0
10
8.1086902773851204
20
-1.5082434297552518
30
0
10
8.1471173010022859
20
-1.4986271488725538
30
0
10
8.1855554279003755
20
-1.4885097293017036
30
0
10
8.2240001356748529
20
-1.4779085810346217
30
0
10
8.2624465408132135
20
-1.4668456381511001
30
0
10
8.3008899273017391
20
-1.4553418012342221
30
0
10
8.3393263584316806
20
-1.4434105136597764
30
0
10
8.3777526925635204
20
-1.4310575424067709
30
0
10
8.4161662737417267
20
-1.4182841438123797
30
0
10
8.4545647173614107
20
-1.4050892434938025
30
0
10
8.4929456752278458
20
-1.3914718355052134
30
0
10
8.5313065632876217
20
-1.3774337691731899
30
0
10
8.5696445628856033
20
-1.3629797147266496
30
0
10
8.6079567432216937
20
-1.3481158797773043
30
0
10
8.6462401479456332
20
-1.332849101456397
30
0
10
8.684491889065864
20
-1.3171858637449181
30
0
10
8.7227092576701502
20
-1.3011311529307377
30
0
10
8.7608897150592924
20
-1.284688512559419
30
0
10
8.7990308347700577
20
-1.2678605950449395
30
0
10
8.8371302593692764
20
-1.2506495679036602
30
0
10
8.875185655268222
20
-1.2330575477538288
30
0
10
8.9131946591648283
20
-1.2150871133905858
30
0
10
8.9511548810268362
20
-1.1967413012615058
30
0
10
8.9890639319767693
20
-1.1780233717272783
30
0
10
9.0269194457213082
20
-1.1589366456222021
30
0
10
9.064719100252459
20
-1.1394843294109298
30
0
10
9.1024606469384661
20
-1.119669310268367
30
0
10
9.1401419019449435
20
-1.0994941539615166
30
0
10
9.1777607181322338
20
-1.0789612148064669
30
0
10
9.2153149619040828
20
-1.0580727165085442
30
0
10
9.2528024920503444
20
-1.036830839021595
30
0
10
9.2902211293826351
20
-1.0152378264358515
30
0
10
9.3275686690034814
20
-0.99329599650882516
30
0
10
9.3648429225809231
20
-0.97100767674191413
30
0
10
9.4020417554176525
20
-0.94837516217091578
30
0
10
9.4391631194367118
20
-0.92540067174490692
30
0
10
9.4762051052192326
20
-0.90208629554922903
30
0
10
9.5131659236379864
20
-0.87843399476388251
30
0
10
9.5500438106848513
20
-0.85444566142946765
30
0
10
9.5868369479483064
20
-0.83012316739587522
30
0
10
9.6235433883430268
20
-0.80546841391897472
30
0
10
9.660160953510168
20
-0.78048339832679581
30
0
10
9.6966872327013096
20
-0.75517022614315088
30
0
10
9.7331197833931036
20
-0.72953101106235207
30
0
10
9.7694562926879964
20
-0.70356780035262756
30
0
10
9.8056947476677578
20
-0.67728249400174689
30
0
10
9.8418336207754429
20
-0.65067676498877558
30
0
10
9.8778719964478991
20
-0.62375199259352854
30
0
10
9.9138094017436948
20
-0.59650926078182731
30
0
10
9.9424784232014449
20
-0.57446133144219458
30
0
10
9.9639346877092603
20
-0.55778286539405242
30
0
10
9.9782186478829988
20
-0.54660056726293649
30
0
10
9.9853555739260518
20
-0.54099358800630748
30
0
0
ARC
5
104
100
AcDbEntity
8
0
100
AcDbCircle
10
0
20
0
30
0
40
10
210
-0
220
0
230
1
100
AcDbArc
50
-3.1011789143313431
51
3.1011789143313608
0
SPLINE
5
105
100
AcDbEntity
8
0
100
AcDbSpline
70
4
71
5
72
81
73
75
74
0
42
0.000000001
43
0.0000000001
44
0.0000000001
40
-1
40
-1
40
-1
40
-1
40
-1
40
-1
40
-0.9857142857142841
40
-0.97142857142856986
40
-0.95714285714285563
40
-0.94285714285714139
40
-0.92857142857142716
40
-0.91428571428571292
40
-0.89999999999999869
40
-0.88571428571428445
40
-0.87142857142857022
40
-0.85714285714285599
40
-0.84285714285714175
40
-0.82857142857142752
40
-0.81428571428571328
40
-0.79999999999999905
40
-0.78571428571428481
40
-0.77142857142857058
40
-0.75714285714285634
40
-0.74285714285714211
40
-0.72857142857142787
40
-0.71428571428571364
40
-0.6999999999999994
40
-0.68571428571428517
40
-0.67142857142857093
40
-0.6571428571428567
40
-0.64285714285714246
40
-0.62857142857142823
40
-0.61428571428571399
40
-0.59999999999999976
40
-0.58571428571428552
40
-0.57142857142857129
40
-0.55714285714285705
40
-0.54285714285714282
40
-0.52857142857142858
40
-0.51428571428571435
40
-0.50000000000000011
40
-0.48571428571428582
40
-0.47142857142857153
40
-0.45714285714285724
40
-0.44285714285714295
40
-0.42857142857142866
40
-0.41428571428571437
40
-0.40000000000000008
40
-0.38571428571428579
40
-0.3714285714285715
40
-0.35714285714285721
40
-0.34285714285714292
40
-0.32857142857142863
40
-0.31428571428571433
40
-0.30000000000000004
40
-0.28571428571428575
40
-0.27142857142857146
40
-0.25714285714285717
40
-0.24285714285714291
40
-0.22857142857142862
40
-0.21428571428571433
40
-0.20000000000000004
40
-0.18571428571428575
40
-0.17142857142857146
40
-0.15714285714285717
40
-0.14285714285714288
40
-0.12857142857142859
40
-0.1142857142857143
40
-0.10000000000000001
40
-0.085714285714285715
40
-0.071428571428571425
40
-0.057142857142857141
40
-0.042857142857142858
40
-0.028571428571428571
40
-0.014285714285714285
40
0
40
0
40
0
40
0
40
0
40
0
41
1
41
1
41
1
41
1
41
1
41
1
41
1
41
1
41
1
41
1
41
1
41
1
41
1
41
1
41
1
41
1
41
1
41
1
41
1
41
1
41
1
41
1
41
1
41
1
41
1
41
1
41
1
41
1
41
1
41
1
41
1
41
1
41
1
41
1
41
1
41
1
41
1
41
1
41
1
41
1
41
1
41
1
41
1
41
1
41
1
41
1
41
1
41
1
41
1
41
1
41
1
41
1
41
1
41
1
41
1
41
1
41
1
41
1
41
1
41
1
41
1
41
1
41
1
41
1
41
1
41
1
41
1
41
1
41
1
41
1
41
1
41
1
41
1
41
1
41
1
10
9.9853555739260518
20
0.54099358800630748
30
0
10
9.9782186478829988
20
0.54660056726293649
30
0
10
9.9639346877092603
20
0.55778286539405242
30
0
10
9.9424784232014449
20
0.57446133144219458
30
0
10
9.9138094017436948
20
0.59650926078182731
30
0
10
9.8778719964478991
20
0.62375199259352854
30
0
10
9.8418336207754429
20
0.65067676498877558
30
0
10
9.8056947476677578
20
0.67728249400174689
30
0
10
9.7694562926879964
20
0.70356780035262756
30
0
10
9.7331197833931036
20
0.72953101106235207
30
0
10
9.6966872327013096
20
0.75517022614315088
30
0
10
9.660160953510168
20
0.78048339832679581
30
0
10
9.6235433883430268
20
0.80546841391897472
30
0
10
9.5868369479483064
20
0.83012316739587522
30
0
10
9.5500438106848513
20
0.85444566142946765
30
0
10
9.5131659236379864
20
0.87843399476388251
30
0
10
9.4762051052192326
20
0.90208629554922903
30
0
10
9.4391631194367118
20
0.92540067174490692
30
0
10
9.4020417554176525
20
0.94837516217091578
30
0
10
9.3648429225809231
20
0.97100767674191413
30
0
10
9.3275686690034814
20
0.99329599650882516
30
0
10
9.2902211293826351
20
1.0152378264358515
30
0
10
9.2528024920503444
20
1.036830839021595
30
0
10
9.2153149619040828
20
1.0580727165085442
30
0
10
9.1777607181322338
20
1.0789612148064669
30
0
10
9.1401419019449435
20
1.0994941539615166
30
0
10
9.1024606469384661
20
1.119669310268367
30
0
10
9.064719100252459
20
1.1394843294109298
30
0
10
9.0269194457213082
20
1.1589366456222021
30
0
10
8.9890639319767693
20
1.1780233717272783
30
0
10
8.9511548810268362
20
1.1967413012615058
30
0
10
8.9131946591648283
20
1.2150871133905858
30
0
10
8.875185655268222
20
1.2330575477538288
30
0
10
8.8371302593692764
20
1.2506495679036602
30
0
10
8.7990308347700577
20
1.2678605950449395
30
0
10
8.7608897150592924
20
1.284688512559419
30
0
10
8.7227092576701502
20
1.3011311529307377
30
0
10
8.684491889065864
20
1.3171858637449181
30
0
10
8.6462401479456332
20
1.332849101456397
30
0
10
8.6079567432216937
20
1.3481158797773043
30
0
10
8.5696445628856033
20
1.3629797147266496
30
0
10
8.5313065632876217
20
1.3774337691731899
30
0
10
8.4929456752278458
20
1.3914718355052134
30
0
10
8.4545647173614107
20
1.4050892434938025
30
0
10
8.4161662737417267
20
1.4182841438123797
30
0
10
8.3777526925635204
20
1.4310575424067709
30
0
10
8.3393263584316806
20
1.4434105136597764
30
0
10
8.3008899273017391
20
1.4553418012342221
30
0
10
8.2624465408132135
20
1.4668456381511001
30
0
10
8.2240001356748529
20
1.4779085810346217
30
0
10
8.1855554279003755
20
1.4885097293017036
30
0
10
8.1471173010022859
20
1.4986271488725538
30
0
10
8.1086902773851204
20
1.5082434297552518
30
0
10
8.0702780551122597
20
1.5173505753362113
30
0
10
8.0318827771550829
20
1.5259576558251953
30
0
10
7.9935052626320164
20
1.5340885306856409
30
0
10
7.9551465171583837
20
1.541766371090848
30
0
10
7.9168090485458729
20
1.5490001845223855
30
0
10
7.8784980070663391
20
1.5557731780669299
30
0
10
7.8402230286142505
20
1.5620238055114524
30
0
10
7.8019972853545667
20
1.5676559033899595
30
0
10
7.7638341388772139
20
1.5725739282651541
30
0
10
7.7257441618437355
20
1.5767141339810944
30
0
10
7.6877326589989226
20
1.5800710593434348
30
0
10
7.6497953321254855
20
1.5827420942079209
30
0
10
7.6119228837475248
20
1.5848845878291593
30
0
10
7.574110065234656
20
1.5866292074372055
30
0
10
7.5363638011821577
20
1.5880028267246518
30
0
10
7.498710681621457
20
1.5888565399060508
30
0
10
7.4612074242843978
20
1.5887673662659507
30
0
10
7.4239282671554001
20
1.5871459527209466
30
0
10
7.3943434047878327
20
1.5841415991960313
30
0
10
7.372314877714615
20
1.5807136329819409
30
0
10
7.3577036526535524
20
1.5778787671489738
30
0
10
7.3504166553279173
20
1.5763239428763618
30
0
0
LINE
5
106
100
AcDbEntity
8
0
100
AcDbLine
10
7.3504166553279173
20
1.5763239428763618
30
0
11
5.893523651286837
21
1.2654671517927476
31
0
0
ARC
5
107
100
AcDbEntity
8
0
100
AcDbCircle
10
5.789187416834336
20
1.7544599433349877
30
0
40
0.49999999999999956
210
0
220
0
230
1
100
AcDbArc
50
196.85985568249416
51
282.04456687479961
0
ARC
5
108
100
AcDbEntity
8
0
100
AcDbCircle
10
0
20
0
30
0
40
5.5492000000000017
210
0
220
-0
230
1
100
AcDbArc
50
16.859855682494182
51
28.140144317505804
0
ARC
5
109
100
AcDbEntity
8
0
100
AcDbCircle
10
5.3341642032557264
20
2.8529831567510557
30
0
40
0.49999999999999978
210
0
220
0
230
1
100
AcDbArc
50
122.95543312520044
51
208.14014431750587
0
LINE
5
110
100
AcDbEntity
8
0
100
AcDbLine
10
5.0621709433097015
20
3.2725301345067459
30
0
11
6.3121588108835036
21
4.0829001121743218
31
0
0
SPLINE
5
111
100
AcDbEntity
8
0
100
AcDbSpline
70
4
71
5
72
81
73
75
74
0
42
0.000000001
43
0.0000000001
44
0.0000000001
40
0
40
0
40
0
40
0
40
0
40
0
40
0.014285714285714285
40
0.028571428571428571
40
0.042857142857142858
40
0.057142857142857141
40
0.071428571428571425
40
0.085714285714285715
40
0.10000000000000001
40
0.1142857142857143
40
0.12857142857142859
40
0.14285714285714288
40
0.15714285714285717
40
0.17142857142857146
40
0.18571428571428575
40
0.20000000000000004
40
0.21428571428571433
40
0.22857142857142862
40
0.24285714285714291
40
0.25714285714285717
40
0.27142857142857146
40
0.28571428571428575
40
0.30000000000000004
40
0.31428571428571433
40
0.32857142857142863
40
0.34285714285714292
40
0.35714285714285721
40
0.3714285714285715
40
0.38571428571428579
40
0.40000000000000008
40
0.41428571428571437
40
0.42857142857142866
40
0.44285714285714295
40
0.45714285714285724
40
0.47142857142857153
40
0.48571428571428582
40
0.50000000000000011
40
0.51428571428571435
40
0.52857142857142858
40
0.54285714285714282
40
0.55714285714285705
40
0.57142857142857129
40
0.58571428571428552
40
0.59999999999999976
40
0.61428571428571399
40
0.62857142857142823
40
0.64285714285714246
40
0.6571428571428567
40
0.67142857142857093
40
0.68571428571428517
40
0.6999999999999994
40
0.71428571428571364
40
0.72857142857142787
40
0.74285714285714211
40
0.75714285714285634
40
0.77142857142857058
40
0.78571428571428481
40
0.79999999999999905
40
0.81428571428571328
40
0.82857142857142752
40
0.84285714285714175
40
0.85714285714285599
40
0.87142857142857022
40
0.88571428571428445
40
0.89999999999999869
40
0.91428571428571292
40
0.92857142857142716
40
0.94285714285714139
40
0.95714285714285563
40
0.97142857142856986
40
0.9857142857142841
40
1
40
1
40
1
40
1
40
1
40
1
41
1
41
1
41
1
41
1
41
1
41
1
41
1
41
1
41
1
41
1
41
1
41
1
41
1
41
1
41
1
41
1
41
1
41
1
41
1
41
1
41
1
41
1
41
1
41
1
41
1
41
1
41
1
41
1
41
1
41
1
41
1
41
1
41
1
41
1
41
1
41
1
41
1
41
1
41
1
41
1
41
1
41
1
41
1
41
1
41
1
41
1
41
1
41
1
41
1
41
1
41
1
41
1
41
1
41
1
41
1
41
1
41
1
41
1
41
1
41
1
41
1
41
1
41
1
41
1
41
1
41
1
41
1
41
1
41
1
41
1
41
1
41
1
41
1
41
1
41
1
10
6.3121588108835036
20
4.0829001121743218
30
0
10
6.3184109228936673
20
4.0869533706110488
30
0
10
6.3307471720700317
20
4.0952805140789241
30
0
10
6.3487476310987168
20
4.1084330967962863
30
0
10
6.3717916866498436
20
4.1272283548463138
30
0
10
6.3992985439654575
20
4.1524421871363675
30
0
10
6.4258804068306938
20
4.1788979394303674
30
0
10
6.4519015166251368
20
4.2061263819843218
30
0
10
6.4776208603881962
20
4.2337883167732242
30
0
10
6.5031249284189805
20
4.2617596495148904
30
0
10
6.528389821718946
20
4.2900544863513099
30
0
10
6.5533268559457811
20
4.3187689343090732
30
0
10
6.5778313426827921
20
4.3480208304213788
30
0
10
6.6018374562011566
20
4.3778820790142401
30
0
10
6.6253453071274135
20
4.4083450674190869
30
0
10
6.6483924948000332
20
4.4393572442961027
30
0
10
6.671037130560582
20
4.4708416021620376
30
0
10
6.6933378981207987
20
4.5027208290508147
30
0
10
6.7153315036189536
20
4.5349445916115254
30
0
10
6.7370261796457784
20
4.5674973736691307
30
0
10
6.7584137836593232
20
4.6003837711842754
30
0
10
6.7794772200884061
20
4.6336194575733174
30
0
10
6.8001990385404421
20
4.667220724820452
30
0
10
6.8205713100990053
20
4.7011924712229156
30
0
10
6.8405970742980937
20
4.7355264273953201
30
0
10
6.860285444038146
20
4.7702070847914069
30
0
10
6.8796484758909084
20
4.8052154805098048
30
0
10
6.8986976140751297
20
4.8405335008812047
30
0
10
6.9174395808195444
20
4.8761488563299729
30
0
10
6.9358762325195062
20
4.9120552475115407
30
0
10
6.9540065794953829
20
4.9482499080172024
30
0
10
6.9718281758735241
20
4.9847319113800364
30
0
10
6.9893386499184009
20
5.0215003084867424
30
0
10
7.0065374820996862
20
5.058551964464268
30
0
10
7.0234259816777573
20
5.0958815838719174
30
0
10
7.0400064657083288
20
5.1334827048767284
30
0
10
7.0562816783179514
20
5.1713484024415211
30
0
10
7.0722541622551338
20
5.2094720495809526
30
0
10
7.0879255278676343
20
5.2478482049668438
30
0
10
7.1032964856891301
20
5.2864725678026829
30
0
10
7.118367195490924
20
5.3253415467799492
30
0
10
7.1331375229815528
20
5.3644519422761459
30
0
10
7.1476073147397203
20
5.4038006075197451
30
0
10
7.1617767231420393
20
5.4433840479202988
30
0
10
7.1756462052731642
20
5.4831984263771174
30
0
10
7.1892163773647848
20
5.5232397482755857
30
0
10
7.202487914379299
20
5.5635039922091973
30
0
10
7.2154614417220087
20
5.6039872489574609
30
0
10
7.2281374109111054
20
5.6446858869566521
30
0
10
7.2405160920137321
20
5.6855965477314232
30
0
10
7.2525976315257488
20
5.7267160482718928
30
0
10
7.2643820931638912
20
5.7680413075005657
30
0
10
7.275869504324092
20
5.8095692698930765
30
0
10
7.2870599108988898
20
5.8512968077191267
30
0
10
7.2979533926923823
20
5.8932207229787021
30
0
10
7.3085500481122203
20
5.9353378224954154
30
0
10
7.3188499905348392
20
5.9776449739749467
30
0
10
7.3288533407850744
20
6.0201391601742547
30
0
10
7.3385602266134136
20
6.0628175530167887
30
0
10
7.3479707696795362
20
6.1056775006348776
30
0
10
7.3570850605160762
20
6.1487164178116736
30
0
10
7.3659031369096715
20
6.1919316951383143
30
0
10
7.3744249664539998
20
6.2353206114266388
30
0
10
7.3826504211409443
20
6.2788802140201465
30
0
10
7.3905792851441152
20
6.3226073094321142
30
0
10
7.3982113259462707
20
6.3664986759301367
30
0
10
7.4055463557191175
20
6.4105512304114249
30
0
10
7.4125842946087559
20
6.4547622060336121
30
0
10
7.4193252454441563
20
6.4991293396759788
30
0
10
7.425769536122516
20
6.5436510086395048
30
0
10
7.4319175987033219
20
6.5883261120245118
30
0
10
7.4365994178389023
20
6.6241884118544458
30
0
10
7.4399778315288811
20
6.6511537384292847
30
0
10
7.4421710377921677
20
6.6691611023680961
30
0
10
7.443252873539703
20
6.6781724042243003
30
0
0
ARC
5
112
100
AcDbEntity
8
0
100
AcDbCircle
10
0
20
0
30
0
40
10.000000000000002
210
0
220
-0
230
1
100
AcDbArc
50
41.898821085668523
51
48.101178914331413
0
SPLINE
5
113
100
AcDbEntity
8
0
100
AcDbSpline
70
4
71
5
72
81
73
75
74
0
42
0.000000001
43
0.0000000001
44
0.0000000001
40
-1
40
-1
40
-1
40
-1
40
-1
40
-1
40
-0.9857142857142841
40
-0.97142857142856986
40
-0.95714285714285563
40
-0.94285714285714139
40
-0.92857142857142716
40
-0.91428571428571292
40
-0.89999999999999869
40
-0.88571428571428445
40
-0.87142857142857022
40
-0.85714285714285599
40
-0.84285714285714175
40
-0.82857142857142752
40
-0.81428571428571328
40
-0.79999999999999905
40
-0.78571428571428481
40
-0.77142857142857058
40
-0.75714285714285634
40
-0.74285714285714211
40
-0.72857142857142787
40
-0.71428571428571364
40
-0.6999999999999994
40
-0.68571428571428517
40
-0.67142857142857093
40
-0.6571428571428567
40
-0.64285714285714246
40
-0.62857142857142823
40
-0.61428571428571399
40
-0.59999999999999976
40
-0.58571428571428552
40
-0.57142857142857129
40
-0.55714285714285705
40
-0.54285714285714282
40
-0.52857142857142858
40
-0.51428571428571435
40
-0.50000000000000011
40
-0.48571428571428582
40
-0.47142857142857153
40
-0.45714285714285724
40
-0.44285714285714295
40
-0.42857142857142866
40
-0.41428571428571437
40
-0.40000000000000008
40
-0.38571428571428579
40
-0.3714285714285715
40
-0.35714285714285721
40
-0.34285714285714292
40
-0.32857142857142863
40
-0.31428571428571433
40
-0.30000000000000004
40
-0.28571428571428575
40
-0.27142857142857146
40
-0.25714285714285717
40
-0.24285714285714291
40
-0.22857142857142862
40
-0.21428571428571433
40
-0.20000000000000004
40
-0.18571428571428575
40
-0.17142857142857146
40
-0.15714285714285717
40
-0.14285714285714288
40
-0.12857142857142859
40
-0.1142857142857143
40
-0.10000000000000001
40
-0.085714285714285715
40
-0.071428571428571425
40
-0.057142857142857141
40
-0.042857142857142858
40
-0.028571428571428571
40
-0.014285714285714285
40
0
40
0
40
0
40
0
40
0
40
0
41
1
41
1
41
1
41
1
41
1
41
1
41
1
41
1
41
1
41
1
41
1
41
1
41
1
41
1
41
1
41
1
41
1
41
1
41
1
41
1
41
1
41
1
41
1
41
1
41
1
41
1
41
1
41
1
41
1
41
1
41
1
41
1
41
1
41
1
41
1
41
1
41
1
41
1
41
1
41
1
41
1
41
1
41
1
41
1
41
1
41
1
41
1
41
1
41
1
41
1
41
1
41
1
41
1
41
1
41
1
41
1
41
1
41
1
41
1
41
1
41
1
41
1
41
1
41
1
41
1
41
1
41
1
41
1
41
1
41
1
41
1
41
1
41
1
41
1
41
1
10
6.6781724042243003
20
7.443252873539703
30
0
10
6.6691611023680961
20
7.4421710377921677
30
0
10
6.6511537384292847
20
7.4399778315288811
30
0
10
6.6241884118544458
20
7.4365994178389023
30
0
10
6.5883261120245118
20
7.4319175987033219
30
0
10
6.5436510086395048
20
7.425769536122516
30
0
10
6.4991293396759788
20
7.4193252454441563
30
0
10
6.4547622060336121
20
7.4125842946087559
30
0
10
6.4105512304114249
20
7.4055463557191175
30
0
10
6.3664986759301367
20
7.3982113259462707
30
0
10
6.3226073094321142
20
7.3905792851441152
30
0
10
6.2788802140201465
20
7.3826504211409443
30
0
10
6.2353206114266388
20
7.3744249664539998
30
0
10
6.1919316951383143
20
7.3659031369096715
30
0
10
6.1487164178116736
20
7.3570850605160762
30
0
10
6.1056775006348776
20
7.3479707696795362
30
0
10
6.0628175530167887
20
7.3385602266134136
30
0
10
6.0201391601742547
20
7.3288533407850744
30
0
10
5.9776449739749467
20
7.3188499905348392
30
0
10
5.9353378224954154
20
7.3085500481122203
30
0
10
5.8932207229787021
20
7.2979533926923823
30
0
10
5.8512968077191267
20
7.2870599108988898
30
0
10
5.8095692698930765
20
7.275869504324092
30
0
10
5.7680413075005657
20
7.2643820931638912
30
0
10
5.7267160482718928
20
7.2525976315257488
30
0
10
5.6855965477314232
20
7.2405160920137321
30
0
10
5.6446858869566521
20
7.2281374109111054
30
0
10
5.6039872489574609
20
7.2154614417220087
30
0
10
5.5635039922091973
20
7.202487914379299
30
0
10
5.5232397482755857
20
7.1892163773647848
30
0
10
5.4831984263771174
20
7.1756462052731642
30
0
10
5.4433840479202988
20
7.1617767231420393
30
0
10
5.4038006075197451
20
7.1476073147397203
30
0
10
5.3644519422761459
20
7.1331375229815528
30
0
10
5.3253415467799492
20
7.118367195490924
30
0
10
5.2864725678026829
20
7.1032964856891301
30
0
10
5.2478482049668438
20
7.0879255278676343
30
0
10
5.2094720495809526
20
7.0722541622551338
30
0
10
5.1713484024415211
20
7.0562816783179514
30
0
10
5.1334827048767284
20
7.0400064657083288
30
0
10
5.0958815838719174
20
7.0234259816777573
30
0
10
5.058551964464268
20
7.0065374820996862
30
0
10
5.0215003084867424
20
6.9893386499184009
30
0
10
4.9847319113800364
20
6.9718281758735241
30
0
10
4.9482499080172024
20
6.9540065794953829
30
0
10
4.9120552475115407
20
6.9358762325195062
30
0
10
4.8761488563299729
20
6.9174395808195444
30
0
10
4.8405335008812047
20
6.8986976140751297
30
0
10
4.8052154805098048
20
6.8796484758909084
30
0
10
4.7702070847914069
20
6.860285444038146
30
0
10
4.7355264273953201
20
6.8405970742980937
30
0
10
4.7011924712229156
20
6.8205713100990053
30
0
10
4.667220724820452
20
6.8001990385404421
30
0
10
4.6336194575733174
20
6.7794772200884061
30
0
10
4.6003837711842754
20
6.7584137836593232
30
0
10
4.5674973736691307
20
6.7370261796457784
30
0
10
4.5349445916115254
20
6.7153315036189536
30
0
10
4.5027208290508147
20
6.6933378981207987
30
0
10
4.4708416021620376
20
6.671037130560582
30
0
10
4.4393572442961027
20
6.6483924948000332
30
0
10
4.4083450674190869
20
6.6253453071274135
30
0
10
4.3778820790142401
20
6.6018374562011566
30
0
10
4.3480208304213788
20
6.5778313426827921
30
0
10
4.3187689343090732
20
6.5533268559457811
30
0
10
4.2900544863513099
20
6.528389821718946
30
0
10
4.2617596495148904
20
6.5031249284189805
30
0
10
4.2337883167732242
20
6.4776208603881962
30
0
10
4.2061263819843218
20
6.4519015166251368
30
0
10
4.1788979394303674
20
6.4258804068306938
30
0
10
4.1524421871363675
20
6.3992985439654575
30
0
10
4.1272283548463138
20
6.3717916866498436
30
0
10
4.1084330967962863
20
6.3487476310987168
30
0
10
4.0952805140789241
20
6.3307471720700317
30
0
10
4.0869533706110488
20
6.3184109228936673
30
0
10
4.0829001121743218
20
6.3121588108835036
30
0
0
LINE
5
114
100
AcDbEntity
8
0
100
AcDbLine
10
4.0829001121743218
20
6.3121588108835036
30
0
11
3.2725301345067468
21
5.0621709433097024
31
0
0
ARC
5
115
100
AcDbEntity
8
0
100
AcDbCircle
10
2.8529831567510562
20
5.3341642032557264
30
0
40
0.50000000000000022
210
0
220
0
230
1
100
AcDbArc
50
241.85985568249419
51
327.04456687479961
0
ARC
5
116
100
AcDbEntity
8
0
100
AcDbCircle
10
0
20
0
30
0
40
5.5492000000000017
210
0
220
-0
230
1
100
AcDbArc
50
61.859855682494178
51
73.140144317505815
0
ARC
5
117
100
AcDbEntity
8
0
100
AcDbCircle
10
1.7544599433349883
20
5.7891874168343351
30
0
40
0.5
210
0
220
0
230
1
100
AcDbArc
50
167.95543312520041
51
253.14014431750576
0
LINE
5
118
100
AcDbEntity
8
0
100
AcDbLine
10
1.2654671517927483
20
5.8935236512868361
30
0
11
1.5763239428763622
21
7.3504166553279173
31
0
0
SPLINE
5
119
100
AcDbEntity
8
0
100
AcDbSpline
70
4
71
5
72
81
73
75
74
0
42
0.000000001
43
0.0000000001
44
0.0000000001
40
0
40
0
40
0
40
0
40
0
40
0
40
0.014285714285714285
40
0.028571428571428571
40
0.042857142857142858
40
0.057142857142857141
40
0.071428571428571425
40
0.085714285714285715
40
0.10000000000000001
40
0.1142857142857143
40
0.12857142857142859
40
0.14285714285714288
40
0.15714285714285717
40
0.17142857142857146
40
0.18571428571428575
40
0.20000000000000004
40
0.21428571428571433
40
0.22857142857142862
40
0.24285714285714291
40
0.25714285714285717
40
0.27142857142857146
40
0.28571428571428575
40
0.30000000000000004
40
0.31428571428571433
40
0.32857142857142863
40
0.34285714285714292
40
0.35714285714285721
40
0.3714285714285715
40
0.38571428571428579
40
0.40000000000000008
40
0.41428571428571437
40
0.42857142857142866
40
0.44285714285714295
40
0.45714285714285724
40
0.47142857142857153
40
0.48571428571428582
40
0.50000000000000011
40
0.51428571428571435
40
0.52857142857142858
40
0.54285714285714282
40
0.55714285714285705
40
0.57142857142857129
40
0.58571428571428552
40
0.59999999999999976
40
0.61428571428571399
40
0.62857142857142823
40
0.64285714285714246
40
0.6571428571428567
40
0.67142857142857093
40
0.68571428571428517
40
0.6999999999999994
40
0.71428571428571364
40
0.72857142857142787
40
0.74285714285714211
40
0.75714285714285634
40
0.77142857142857058
40
0.78571428571428481
40
0.79999999999999905
40
0.81428571428571328
40
0.82857142857142752
40
0.84285714285714175
40
0.85714285714285599
40
0.87142857142857022
40
0.88571428571428445
40
0.89999999999999869
40
0.91428571428571292
40
0.92857142857142716
40
0.94285714285714139
40
0.95714285714285563
40
0.97142857142856986
40
0.9857142857142841
40
1
40
1
40
1
40
1
40
1
40
1
41
1
41
1
41
1
41
1
41
1
41
1
41
1
41
1
41
1
41
1
41
1
41
1
41
1
41
1
41
1
41
1
41
1
41
1
41
1
41
1
41
1
41
1
41
1
41
1
41
1
41
1
41
1
41
1
41
1
41
1
41
1
41
1
41
1
41
1
41
1
41
1
41
1
41
1
41
1
41
1
41
1
41
1
41
1
41
1
41
1
41
1
41
1
41
1
41
1
41
1
41
1
41
1
41
1
41
1
41
1
41
1
41
1
41
1
41
1
41
1
41
1
41
1
41
1
41
1
41
1
41
1
41
1
41
1
41
1
41
1
41
1
41
1
41
1
41
1
41
1
10
1.5763239428763622
20
7.3504166553279173
30
0
10
1.5778787671489745
20
7.3577036526535524
30
0
10
1.5807136329819416
20
7.372314877714615
30
0
10
1.5841415991960317
20
7.3943434047878327
30
0
10
1.5871459527209473
20
7.4239282671554001
30
0
10
1.5887673662659512
20
7.4612074242843978
30
0
10
1.5888565399060515
20
7.498710681621457
30
0
10
1.5880028267246524
20
7.5363638011821577
30
0
10
1.5866292074372059
20
7.574110065234656
30
0
10
1.5848845878291598
20
7.6119228837475248
30
0
10
1.5827420942079216
20
7.6497953321254855
30
0
10
1.5800710593434353
20
7.6877326589989226
30
0
10
1.5767141339810951
20
7.7257441618437355
30
0
10
1.5725739282651547
20
7.7638341388772139
30
0
10
1.56765590338996
20
7.8019972853545667
30
0
10
1.562023805511453
20
7.8402230286142505
30
0
10
1.5557731780669304
20
7.8784980070663391
30
0
10
1.5490001845223862
20
7.9168090485458729
30
0
10
1.5417663710908487
20
7.9551465171583837
30
0
10
1.5340885306856413
20
7.9935052626320164
30
0
10
1.5259576558251959
20
8.0318827771550829
30
0
10
1.5173505753362118
20
8.0702780551122597
30
0
10
1.5082434297552525
20
8.1086902773851204
30
0
10
1.4986271488725544
20
8.1471173010022859
30
0
10
1.488509729301704
20
8.1855554279003755
30
0
10
1.4779085810346224
20
8.2240001356748529
30
0
10
1.4668456381511008
20
8.2624465408132135
30
0
10
1.4553418012342225
20
8.3008899273017391
30
0
10
1.443410513659777
20
8.3393263584316806
30
0
10
1.4310575424067715
20
8.3777526925635204
30
0
10
1.4182841438123803
20
8.4161662737417267
30
0
10
1.4050892434938032
20
8.4545647173614107
30
0
10
1.3914718355052138
20
8.4929456752278458
30
0
10
1.3774337691731906
20
8.5313065632876217
30
0
10
1.36297971472665
20
8.5696445628856033
30
0
10
1.348115879777305
20
8.6079567432216937
30
0
10
1.3328491014563975
20
8.6462401479456332
30
0
10
1.3171858637449185
20
8.684491889065864
30
0
10
1.3011311529307381
20
8.7227092576701502
30
0
10
1.2846885125594196
20
8.7608897150592924
30
0
10
1.2678605950449402
20
8.7990308347700577
30
0
10
1.2506495679036609
20
8.8371302593692764
30
0
10
1.2330575477538295
20
8.875185655268222
30
0
10
1.2150871133905863
20
8.9131946591648283
30
0
10
1.1967413012615062
20
8.9511548810268362
30
0
10
1.178023371727279
20
8.9890639319767693
30
0
10
1.1589366456222026
20
9.0269194457213082
30
0
10
1.1394843294109305
20
9.064719100252459
30
0
10
1.1196693102683675
20
9.1024606469384661
30
0
10
1.0994941539615173
20
9.1401419019449435
30
0
10
1.0789612148064676
20
9.1777607181322338
30
0
10
1.0580727165085446
20
9.2153149619040828
30
0
10
1.0368308390215955
20
9.2528024920503444
30
0
10
1.0152378264358521
20
9.2902211293826351
30
0
10
0.99329599650882572
20
9.3275686690034814
30
0
10
0.97100767674191468
20
9.3648429225809231
30
0
10
0.94837516217091633
20
9.4020417554176525
30
0
10
0.92540067174490748
20
9.4391631194367118
30
0
10
0.90208629554922948
20
9.4762051052192326
30
0
10
0.87843399476388306
20
9.5131659236379864
30
0
10
0.85444566142946821
20
9.5500438106848513
30
0
10
0.83012316739587577
20
9.5868369479483064
30
0
10
0.80546841391897517
20
9.6235433883430268
30
0
10
0.78048339832679647
20
9.660160953510168
30
0
10
0.75517022614315144
20
9.6966872327013096
30
0
10
0.72953101106235263
20
9.7331197833931036
30
0
10
0.70356780035262811
20
9.7694562926879964
30
0
10
0.67728249400174745
20
9.8056947476677578
30
0
10
0.65067676498877614
20
9.8418336207754429
30
0
10
0.62375199259352909
20
9.8778719964478991
30
0
10
0.59650926078182798
20
9.9138094017436948
30
0
10
0.57446133144219524
20
9.9424784232014449
30
0
10
0.55778286539405308
20
9.9639346877092603
30
0
10
0.54660056726293715
20
9.9782186478829988
30
0
10
0.54099358800630815
20
9.9853555739260518
30
0
0
ARC
5
120
100
AcDbEntity
8
0
100
AcDbCircle
10
0
20
0
30
0
40
10
210
0
220
-0
230
1
100
AcDbArc
50
86.898821085668516
51
93.101178914331399
0
SPLINE
5
121
100
AcDbEntity
8
0
100
AcDbSpline
70
4
71
5
72
81
73
75
74
0
42
0.000000001
43
0.0000000001
44
0.0000000001
40
-1
40
-1
40
-1
40
-1
40
-1
40
-1
40
-0.9857142857142841
40
-0.97142857142856986
40
-0.95714285714285563
40
-0.94285714285714139
40
-0.92857142857142716
40
-0.91428571428571292
40
-0.89999999999999869
40
-0.88571428571428445
40
-0.87142857142857022
40
-0.85714285714285599
40
-0.84285714285714175
40
-0.82857142857142752
40
-0.81428571428571328
40
-0.79999999999999905
40
-0.78571428571428481
40
-0.77142857142857058
40
-0.75714285714285634
40
-0.74285714285714211
40
-0.72857142857142787
40
-0.71428571428571364
40
-0.6999999999999994
40
-0.68571428571428517
40
-0.67142857142857093
40
-0.6571428571428567
40
-0.64285714285714246
40
-0.62857142857142823
40
-0.61428571428571399
40
-0.59999999999999976
40
-0.58571428571428552
40
-0.57142857142857129
40
-0.55714285714285705
40
-0.54285714285714282
40
-0.52857142857142858
40
-0.51428571428571435
40
-0.50000000000000011
40
-0.48571428571428582
40
-0.47142857142857153
40
-0.45714285714285724
40
-0.44285714285714295
40
-0.42857142857142866
40
-0.41428571428571437
40
-0.40000000000000008
40
-0.38571428571428579
40
-0.3714285714285715
40
-0.35714285714285721
40
-0.34285714285714292
40
-0.32857142857142863
40
-0.31428571428571433
40
-0.30000000000000004
40
-0.28571428571428575
40
-0.27142857142857146
40
-0.25714285714285717
40
-0.24285714285714291
40
-0.22857142857142862
40
-0.21428571428571433
40
-0.20000000000000004
40
-0.18571428571428575
40
-0.17142857142857146
40
-0.15714285714285717
40
-0.14285714285714288
40
-0.12857142857142859
40
-0.1142857142857143
40
-0.10000000000000001
40
-0.085714285714285715
40
-0.071428571428571425
40
-0.057142857142857141
40
-0.042857142857142858
40
-0.028571428571428571
40
-0.014285714285714285
40
0
40
0
40
0
40
0
40
0
40
0
41
1
41
1
41
1
41
1
41
1
41
1
41
1
41
1
41
1
41
1
41
1
41
1
41
1
41
1
41
1
41
1
41
1
41
1
41
1
41
1
41
1
41
1
41
1
41
1
41
1
41
1
41
1
41
1
41
1
41
1
41
1
41
1
41
1
41
1
41
1
41
1
41
1
41
1
41
1
41
1
41
1
41
1
41
1
41
1
41
1
41
1
41
1
41
1
41
1
41
1
41
1
41
1
41
1
41
1
41
1
41
1
41
1
41
1
41
1
41
1
41
1
41
1
41
1
41
1
41
1
41
1
41
1
41
1
41
1
41
1
41
1
41
1
41
1
41
1
41
1
10
-0.54099358800630681
20
9.9853555739260518
30
0
10
-0.54660056726293582
20
9.9782186478829988
30
0
10
-0.55778286539405186
20
9.9639346877092603
30
0
10
-0.57446133144219402
20
9.9424784232014449
30
0
10
-0.59650926078182664
20
9.9138094017436948
30
0
10
-0.62375199259352787
20
9.8778719964478991
30
0
10
-0.65067676498877502
20
9.8418336207754429
30
0
10
-0.67728249400174634
20
9.8056947476677578
30
0
10
-0.703567800352627
20
9.7694562926879964
30
0
10
-0.72953101106235152
20
9.7331197833931036
30
0
10
-0.75517022614315032
20
9.6966872327013096
30
0
10
-0.78048339832679536
20
9.660160953510168
30
0
10
-0.80546841391897406
20
9.6235433883430268
30
0
10
-0.83012316739587466
20
9.5868369479483064
30
0
10
-0.8544456614294671
20
9.5500438106848513
30
0
10
-0.87843399476388195
20
9.5131659236379864
30
0
10
-0.90208629554922837
20
9.4762051052192326
30
0
10
-0.92540067174490637
20
9.4391631194367118
30
0
10
-0.94837516217091522
20
9.4020417554176525
30
0
10
-0.97100767674191357
20
9.3648429225809231
30
0
10
-0.99329599650882461
20
9.3275686690034814
30
0
10
-1.015237826435851
20
9.2902211293826351
30
0
10
-1.0368308390215943
20
9.2528024920503444
30
0
10
-1.0580727165085435
20
9.2153149619040828
30
0
10
-1.0789612148064665
20
9.1777607181322338
30
0
10
-1.099494153961516
20
9.1401419019449435
30
0
10
-1.1196693102683664
20
9.1024606469384661
30
0
10
-1.1394843294109294
20
9.064719100252459
30
0
10
-1.1589366456222014
20
9.0269194457213082
30
0
10
-1.1780233717272779
20
8.9890639319767693
30
0
10
-1.1967413012615054
20
8.9511548810268362
30
0
10
-1.2150871133905852
20
8.9131946591648283
30
0
10
-1.2330575477538284
20
8.875185655268222
30
0
10
-1.2506495679036598
20
8.8371302593692764
30
0
10
-1.2678605950449389
20
8.7990308347700577
30
0
10
-1.2846885125594185
20
8.7608897150592924
30
0
10
-1.301131152930737
20
8.7227092576701502
30
0
10
-1.3171858637449174
20
8.684491889065864
30
0
10
-1.3328491014563966
20
8.6462401479456332
30
0
10
-1.3481158797773038
20
8.6079567432216937
30
0
10
-1.3629797147266489
20
8.5696445628856033
30
0
10
-1.3774337691731895
20
8.5313065632876217
30
0
10
-1.3914718355052127
20
8.4929456752278458
30
0
10
-1.405089243493802
20
8.4545647173614107
30
0
10
-1.4182841438123792
20
8.4161662737417267
30
0
10
-1.4310575424067704
20
8.3777526925635204
30
0
10
-1.4434105136597757
20
8.3393263584316806
30
0
10
-1.4553418012342214
20
8.3008899273017391
30
0
10
-1.4668456381510997
20
8.2624465408132135
30
0
10
-1.4779085810346213
20
8.2240001356748529
30
0
10
-1.4885097293017031
20
8.1855554279003755
30
0
10
-1.4986271488725533
20
8.1471173010022859
30
0
10
-1.5082434297552514
20
8.1086902773851204
30
0
10
-1.5173505753362106
20
8.0702780551122597
30
0
10
-1.5259576558251946
20
8.0318827771550829
30
0
10
-1.5340885306856402
20
7.9935052626320164
30
0
10
-1.5417663710908474
20
7.9551465171583837
30
0
10
-1.5490001845223849
20
7.9168090485458729
30
0
10
-1.5557731780669293
20
7.8784980070663391
30
0
10
-1.5620238055114519
20
7.8402230286142505
30
0
10
-1.5676559033899591
20
7.8019972853545667
30
0
10
-1.5725739282651534
20
7.7638341388772139
30
0
10
-1.5767141339810939
20
7.7257441618437355
30
0
10
-1.5800710593434342
20
7.6877326589989226
30
0
10
-1.5827420942079204
20
7.6497953321254855
30
0
10
-1.5848845878291586
20
7.6119228837475248
30
0
10
-1.5866292074372048
20
7.574110065234656
30
0
10
-1.5880028267246513
20
7.5363638011821577
30
0
10
-1.5888565399060504
20
7.498710681621457
30
0
10
-1.5887673662659503
20
7.4612074242843978
30
0
10
-1.5871459527209462
20
7.4239282671554001
30
0
10
-1.5841415991960306
20
7.3943434047878327
30
0
10
-1.5807136329819405
20
7.372314877714615
30
0
10
-1.5778787671489733
20
7.3577036526535524
30
0
10
-1.5763239428763611
20
7.3504166553279173
30
0
0
LINE
5
122
100
AcDbEntity
8
0
100
AcDbLine
10
-1.5763239428763611
20
7.3504166553279173
30
0
11
-1.2654671517927474
21
5.893523651286837
31
0
0
ARC
5
123
100
AcDbEntity
8
0
100
AcDbCircle
10
-1.7544599433349877
20
5.789187416834336
30
0
40
0.49999999999999956
210
-0
220
0
230
1
100
AcDbArc
50
-73.140144317505815
51
12.044566874799594
0
ARC
5
124
100
AcDbEntity
8
0
100
AcDbCircle
10
0
20
0
30
0
40
5.5492000000000017
210
0
220
0
230
1
100
AcDbArc
50
106.85985568249419
51
118.14014431750581
0
ARC
5
125
100
AcDbEntity
8
0
100
AcDbCircle
10
-2.8529831567510544
20
5.3341642032557264
30
0
40
0.49999999999999978
210
0
220
0
230
1
100
AcDbArc
50
212.95543312520039
51
298.14014431750576
0
LINE
5
126
100
AcDbEntity
8
0
100
AcDbLine
10
-3.272530134506745
20
5.0621709433097015
30
0
11
-4.08290011217432
21
6.3121588108835036
31
0
0
SPLINE
5
127
100
AcDbEntity
8
0
100
AcDbSpline
70
4
71
5
72
81
73
75
74
0
42
0.000000001
43
0.0000000001
44
0.0000000001
40
0
40
0
40
0
40
0
40
0
40
0
40
0.014285714285714285
40
0.028571428571428571
40
0.042857142857142858
40
0.057142857142857141
40
0.071428571428571425
40
0.085714285714285715
40
0.10000000000000001
40
0.1142857142857143
40
0.12857142857142859
40
0.14285714285714288
40
0.15714285714285717
40
0.17142857142857146
40
0.18571428571428575
40
0.20000000000000004
40
0.21428571428571433
40
0.22857142857142862
40
0.24285714285714291
40
0.25714285714285717
40
0.27142857142857146
40
0.28571428571428575
40
0.30000000000000004
40
0.31428571428571433
40
0.32857142857142863
40
0.34285714285714292
40
0.35714285714285721
40
0.3714285714285715
40
0.38571428571428579
40
0.40000000000000008
40
0.41428571428571437
40
0.42857142857142866
40
0.44285714285714295
40
0.45714285714285724
40
0.47142857142857153
40
0.48571428571428582
40
0.50000000000000011
40
0.51428571428571435
40
0.52857142857142858
40
0.54285714285714282
40
0.55714285714285705
40
0.57142857142857129
40
0.58571428571428552
40
0.59999999999999976
40
0.61428571428571399
40
0.62857142857142823
40
0.64285714285714246
40
0.6571428571428567
40
0.67142857142857093
40
0.68571428571428517
40
0.6999999999999994
40
0.71428571428571364
40
0.72857142857142787
40
0.74285714285714211
40
0.75714285714285634
40
0.77142857142857058
40
0.78571428571428481
40
0.79999999999999905
40
0.81428571428571328
40
0.82857142857142752
40
0.84285714285714175
40
0.85714285714285599
40
0.87142857142857022
40
0.88571428571428445
40
0.89999999999999869
40
0.91428571428571292
40
0.92857142857142716
40
0.94285714285714139
40
0.95714285714285563
40
0.97142857142856986
40
0.9857142857142841
40
1
40
1
40
1
40
1
40
1
40
1
41
1
41
1
41
1
41
1
41
1
41
1
41
1
41
1
41
1
41
1
41
1
41
1
41
1
41
1
41
1
41
1
41
1
41
1
41
1
41
1
41
1
41
1
41
1
41
1
41
1
41
1
41
1
41
1
41
1
41
1
41
1
41
1
41
1
41
1
41
1
41
1
41
1
41
1
41
1
41
1
41
1
41
1
41
1
41
1
41
1
41
1
41
1
41
1
41
1
41
1
41
1
41
1
41
1
41
1
41
1
41
1
41
1
41
1
41
1
41
1
41
1
41
1
41
1
41
1
41
1
41
1
41
1
41
1
41
1
41
1
41
1
41
1
41
1
41
1
41
1
10
-4.08290011217432
20
6.3121588108835036
30
0
10
-4.0869533706110479
20
6.3184109228936673
30
0
10
-4.0952805140789224
20
6.3307471720700317
30
0
10
-4.1084330967962854
20
6.3487476310987168
30
0
10
-4.127228354846312
20
6.3717916866498436
30
0
10
-4.1524421871363657
20
6.3992985439654575
30
0
10
-4.1788979394303665
20
6.4258804068306929
30
0
10
-4.2061263819843218
20
6.4519015166251368
30
0
10
-4.2337883167732233
20
6.4776208603881944
30
0
10
-4.2617596495148895
20
6.5031249284189796
30
0
10
-4.2900544863513099
20
6.528389821718946
30
0
10
-4.3187689343090714
20
6.5533268559457811
30
0
10
-4.3480208304213779
20
6.5778313426827921
30
0
10
-4.3778820790142383
20
6.6018374562011548
30
0
10
-4.4083450674190852
20
6.6253453071274135
30
0
10
-4.4393572442961027
20
6.6483924948000332
30
0
10
-4.4708416021620359
20
6.671037130560582
30
0
10
-4.5027208290508138
20
6.6933378981207987
30
0
10
-4.5349445916115236
20
6.7153315036189536
30
0
10
-4.5674973736691298
20
6.7370261796457775
30
0
10
-4.6003837711842746
20
6.7584137836593232
30
0
10
-4.6336194575733156
20
6.7794772200884061
30
0
10
-4.6672207248204503
20
6.8001990385404412
30
0
10
-4.7011924712229147
20
6.8205713100990053
30
0
10
-4.7355264273953193
20
6.8405970742980937
30
0
10
-4.770207084791406
20
6.860285444038146
30
0
10
-4.8052154805098031
20
6.8796484758909084
30
0
10
-4.8405335008812038
20
6.8986976140751297
30
0
10
-4.876148856329972
20
6.9174395808195444
30
0
10
-4.9120552475115389
20
6.9358762325195062
30
0
10
-4.9482499080172015
20
6.9540065794953829
30
0
10
-4.9847319113800355
20
6.9718281758735241
30
0
10
-5.0215003084867416
20
6.9893386499184
30
0
10
-5.058551964464268
20
7.0065374820996853
30
0
10
-5.0958815838719165
20
7.0234259816777573
30
0
10
-5.1334827048767275
20
7.0400064657083288
30
0
10
-5.1713484024415202
20
7.0562816783179514
30
0
10
-5.2094720495809499
20
7.0722541622551338
30
0
10
-5.2478482049668429
20
7.0879255278676343
30
0
10
-5.2864725678026803
20
7.1032964856891301
30
0
10
-5.3253415467799483
20
7.118367195490924
30
0
10
-5.364451942276145
20
7.1331375229815528
30
0
10
-5.4038006075197442
20
7.1476073147397203
30
0
10
-5.443384047920298
20
7.1617767231420393
30
0
10
-5.4831984263771165
20
7.1756462052731642
30
0
10
-5.5232397482755848
20
7.1892163773647848
30
0
10
-5.5635039922091973
20
7.2024879143792973
30
0
10
-5.6039872489574591
20
7.2154614417220087
30
0
10
-5.6446858869566512
20
7.2281374109111054
30
0
10
-5.6855965477314214
20
7.2405160920137321
30
0
10
-5.7267160482718911
20
7.2525976315257488
30
0
10
-5.7680413075005639
20
7.2643820931638912
30
0
10
-5.8095692698930756
20
7.275869504324092
30
0
10
-5.851296807719125
20
7.2870599108988898
30
0
10
-5.8932207229787013
20
7.2979533926923823
30
0
10
-5.9353378224954145
20
7.3085500481122203
30
0
10
-5.9776449739749458
20
7.3188499905348392
30
0
10
-6.0201391601742538
20
7.3288533407850744
30
0
10
-6.0628175530167887
20
7.3385602266134136
30
0
10
-6.1056775006348758
20
7.3479707696795362
30
0
10
-6.1487164178116736
20
7.3570850605160762
30
0
10
-6.1919316951383134
20
7.3659031369096715
30
0
10
-6.235320611426638
20
7.3744249664539998
30
0
10
-6.2788802140201447
20
7.3826504211409443
30
0
10
-6.3226073094321134
20
7.3905792851441152
30
0
10
-6.3664986759301359
20
7.3982113259462707
30
0
10
-6.4105512304114241
20
7.4055463557191175
30
0
10
-6.4547622060336103
20
7.4125842946087559
30
0
10
-6.4991293396759779
20
7.4193252454441563
30
0
10
-6.5436510086395039
20
7.425769536122516
30
0
10
-6.5883261120245109
20
7.4319175987033219
30
0
10
-6.624188411854445
20
7.4365994178389023
30
0
10
-6.6511537384292838
20
7.4399778315288811
30
0
10
-6.6691611023680952
20
7.4421710377921677
30
0
10
-6.6781724042242994
20
7.443252873539703
30
0
0
ARC
5
128
100
AcDbEntity
8
0
100
AcDbCircle
10
0
20
0
30
0
40
10
210
0
220
0
230
1
100
AcDbArc
50
131.89882108566852
51
138.1011789143314
0
SPLINE
5
129
100
AcDbEntity
8
0
100
AcDbSpline
70
4
71
5
72
81
73
75
74
0
42
0.000000001
43
0.0000000001
44
0.0000000001
40
-1
40
-1
40
-1
40
-1
40
-1
40
-1
40
-0.9857142857142841
40
-0.97142857142856986
40
-0.95714285714285563
40
-0.94285714285714139
40
-0.92857142857142716
40
-0.91428571428571292
40
-0.89999999999999869
40
-0.88571428571428445
40
-0.87142857142857022
40
-0.85714285714285599
40
-0.84285714285714175
40
-0.82857142857142752
40
-0.81428571428571328
40
-0.79999999999999905
40
-0.78571428571428481
40
-0.77142857142857058
40
-0.75714285714285634
40
-0.74285714285714211
40
-0.72857142857142787
40
-0.71428571428571364
40
-0.6999999999999994
40
-0.68571428571428517
40
-0.67142857142857093
40
-0.6571428571428567
40
-0.64285714285714246
40
-0.62857142857142823
40
-0.61428571428571399
40
-0.59999999999999976
40
-0.58571428571428552
40
-0.57142857142857129
40
-0.55714285714285705
40
-0.54285714285714282
40
-0.52857142857142858
40
-0.51428571428571435
40
-0.50000000000000011
40
-0.48571428571428582
40
-0.47142857142857153
40
-0.45714285714285724
40
-0.44285714285714295
40
-0.42857142857142866
40
-0.41428571428571437
40
-0.40000000000000008
40
-0.38571428571428579
40
-0.3714285714285715
40
-0.35714285714285721
40
-0.34285714285714292
40
-0.32857142857142863
40
-0.31428571428571433
40
-0.30000000000000004
40
-0.28571428571428575
40
-0.27142857142857146
40
-0.25714285714285717
40
-0.24285714285714291
40
-0.22857142857142862
40
-0.21428571428571433
40
-0.20000000000000004
40
-0.18571428571428575
40
-0.17142857142857146
40
-0.15714285714285717
40
-0.14285714285714288
40
-0.12857142857142859
40
-0.1142857142857143
40
-0.10000000000000001
40
-0.085714285714285715
40
-0.071428571428571425
40
-0.057142857142857141
40
-0.042857142857142858
40
-0.028571428571428571
40
-0.014285714285714285
40
0
40
0
40
0
40
0
40
0
40
0
41
1
41
1
41
1
41
1
41
1
41
1
41
1
41
1
41
1
41
1
41
1
41
1
41
1
41
1
41
1
41
1
41
1
41
1
41
1
41
1
41
1
41
1
41
1
41
1
41
1
41
1
41
1
41
1
41
1
41
1
41
1
41
1
41
1
41
1
41
1
41
1
41
1
41
1
41
1
41
1
41
1
41
1
41
1
41
1
41
1
41
1
41
1
41
1
41
1
41
1
41
1
41
1
41
1
41
1
41
1
41
1
41
1
41
1
41
1
41
1
41
1
41
1
41
1
41
1
41
1
41
1
41
1
41
1
41
1
41
1
41
1
41
1
41
1
41
1
41
1
10
-7.4432528735397021
20
6.6781724042243003
30
0
10
-7.4421710377921668
20
6.6691611023680961
30
0
10
-7.4399778315288803
20
6.6511537384292847
30
0
10
-7.4365994178389014
20
6.6241884118544458
30
0
10
-7.4319175987033201
20
6.5883261120245118
30
0
10
-7.4257695361225151
20
6.5436510086395048
30
0
10
-7.4193252454441545
20
6.4991293396759788
30
0
10
-7.412584294608755
20
6.4547622060336121
30
0
10
-7.4055463557191157
20
6.4105512304114249
30
0
10
-7.3982113259462698
20
6.3664986759301367
30
0
10
-7.3905792851441143
20
6.3226073094321142
30
0
10
-7.3826504211409425
20
6.2788802140201465
30
0
10
-7.3744249664539989
20
6.2353206114266388
30
0
10
-7.3659031369096706
20
6.1919316951383143
30
0
10
-7.3570850605160762
20
6.1487164178116736
30
0
10
-7.3479707696795344
20
6.1056775006348776
30
0
10
-7.3385602266134109
20
6.0628175530167887
30
0
10
-7.3288533407850736
20
6.0201391601742547
30
0
10
-7.3188499905348383
20
5.9776449739749467
30
0
10
-7.3085500481122185
20
5.9353378224954154
30
0
10
-7.2979533926923814
20
5.8932207229787021
30
0
10
-7.2870599108988889
20
5.8512968077191267
30
0
10
-7.2758695043240902
20
5.8095692698930765
30
0
10
-7.2643820931638903
20
5.7680413075005657
30
0
10
-7.2525976315257479
20
5.7267160482718928
30
0
10
-7.2405160920137313
20
5.6855965477314232
30
0
10
-7.2281374109111045
20
5.6446858869566521
30
0
10
-7.2154614417220078
20
5.6039872489574609
30
0
10
-7.202487914379299
20
5.5635039922091991
30
0
10
-7.189216377364783
20
5.5232397482755857
30
0
10
-7.1756462052731624
20
5.4831984263771174
30
0
10
-7.1617767231420384
20
5.4433840479202988
30
0
10
-7.1476073147397194
20
5.4038006075197451
30
0
10
-7.1331375229815519
20
5.3644519422761459
30
0
10
-7.1183671954909231
20
5.3253415467799492
30
0
10
-7.1032964856891301
20
5.2864725678026829
30
0
10
-7.0879255278676334
20
5.2478482049668438
30
0
10
-7.0722541622551338
20
5.2094720495809526
30
0
10
-7.0562816783179505
20
5.1713484024415211
30
0
10
-7.040006465708327
20
5.1334827048767284
30
0
10
-7.0234259816777564
20
5.0958815838719174
30
0
10
-7.0065374820996844
20
5.0585519644642698
30
0
10
-6.9893386499184
20
5.0215003084867433
30
0
10
-6.9718281758735232
20
4.9847319113800364
30
0
10
-6.954006579495382
20
4.9482499080172024
30
0
10
-6.9358762325195054
20
4.9120552475115407
30
0
10
-6.9174395808195435
20
4.8761488563299737
30
0
10
-6.8986976140751288
20
4.8405335008812047
30
0
10
-6.8796484758909067
20
4.8052154805098048
30
0
10
-6.8602854440381442
20
4.7702070847914069
30
0
10
-6.8405970742980928
20
4.7355264273953201
30
0
10
-6.8205713100990035
20
4.7011924712229156
30
0
10
-6.8001990385404394
20
4.667220724820452
30
0
10
-6.7794772200884044
20
4.6336194575733174
30
0
10
-6.7584137836593214
20
4.6003837711842763
30
0
10
-6.7370261796457775
20
4.5674973736691307
30
0
10
-6.7153315036189518
20
4.5349445916115254
30
0
10
-6.6933378981207978
20
4.5027208290508147
30
0
10
-6.6710371305605811
20
4.4708416021620376
30
0
10
-6.6483924948000332
20
4.4393572442961027
30
0
10
-6.6253453071274127
20
4.4083450674190869
30
0
10
-6.6018374562011539
20
4.3778820790142401
30
0
10
-6.5778313426827921
20
4.3480208304213788
30
0
10
-6.5533268559457802
20
4.3187689343090732
30
0
10
-6.528389821718946
20
4.2900544863513099
30
0
10
-6.5031249284189796
20
4.2617596495148904
30
0
10
-6.4776208603881935
20
4.2337883167732242
30
0
10
-6.4519015166251368
20
4.2061263819843218
30
0
10
-6.4258804068306929
20
4.1788979394303674
30
0
10
-6.3992985439654557
20
4.1524421871363675
30
0
10
-6.3717916866498427
20
4.1272283548463138
30
0
10
-6.3487476310987168
20
4.1084330967962863
30
0
10
-6.3307471720700299
20
4.0952805140789241
30
0
10
-6.3184109228936656
20
4.0869533706110488
30
0
10
-6.3121588108835027
20
4.0829001121743218
30
0
0
LINE
5
130
100
AcDbEntity
8
0
100
AcDbLine
10
-6.3121588108835027
20
4.0829001121743218
30
0
11
-5.0621709433097015
21
3.2725301345067463
31
0
0
ARC
5
131
100
AcDbEntity
8
0
100
AcDbCircle
10
-5.3341642032557264
20
2.8529831567510557
30
0
40
0.49999999999999967
210
-0
220
0
230
1
100
AcDbArc
50
-28.140144317505857
51
57.044566874799592
0
ARC
5
132
100
AcDbEntity
8
0
100
AcDbCircle
10
0
20
0
30
0
40
5.5492000000000017
210
0
220
0
230
1
100
AcDbArc
50
151.85985568249419
51
163.14014431750581
0
ARC
5
133
100
AcDbEntity
8
0
100
AcDbCircle
10
-5.7891874168343351
20
1.754459943334989
30
0
40
0.5
210
0
220
0
230
1
100
AcDbArc
50
257.95543312520039
51
343.1401443175057
0
LINE
5
134
100
AcDbEntity
8
0
100
AcDbLine
10
-5.8935236512868361
20
1.2654671517927487
30
0
11
-7.3504166553279173
21
1.5763239428763627
31
0
0
SPLINE
5
135
100
AcDbEntity
8
0
100
AcDbSpline
70
4
71
5
72
81
73
75
74
0
42
0.000000001
43
0.0000000001
44
0.0000000001
40
0
40
0
40
0
40
0
40
0
40
0
40
0.014285714285714285
40
0.028571428571428571
40
0.042857142857142858
40
0.057142857142857141
40
0.071428571428571425
40
0.085714285714285715
40
0.10000000000000001
40
0.1142857142857143
40
0.12857142857142859
40
0.14285714285714288
40
0.15714285714285717
40
0.17142857142857146
40
0.18571428571428575
40
0.20000000000000004
40
0.21428571428571433
40
0.22857142857142862
40
0.24285714285714291
40
0.25714285714285717
40
0.27142857142857146
40
0.28571428571428575
40
0.30000000000000004
40
0.31428571428571433
40
0.32857142857142863
40
0.34285714285714292
40
0.35714285714285721
40
0.3714285714285715
40
0.38571428571428579
40
0.40000000000000008
40
0.41428571428571437
40
0.42857142857142866
40
0.44285714285714295
40
0.45714285714285724
40
0.47142857142857153
40
0.48571428571428582
40
0.50000000000000011
40
0.51428571428571435
40
0.52857142857142858
40
0.54285714285714282
40
0.55714285714285705
40
0.57142857142857129
40
0.58571428571428552
40
0.59999999999999976
40
0.61428571428571399
40
0.62857142857142823
40
0.64285714285714246
40
0.6571428571428567
40
0.67142857142857093
40
0.68571428571428517
40
0.6999999999999994
40
0.71428571428571364
40
0.72857142857142787
40
0.74285714285714211
40
0.75714285714285634
40
0.77142857142857058
40
0.78571428571428481
40
0.79999999999999905
40
0.81428571428571328
40
0.82857142857142752
40
0.84285714285714175
40
0.85714285714285599
40
0.87142857142857022
40
0.88571428571428445
40
0.89999999999999869
40
0.91428571428571292
40
0.92857142857142716
40
0.94285714285714139
40
0.95714285714285563
40
0.97142857142856986
40
0.9857142857142841
40
1
40
1
40
1
40
1
40
1
40
1
41
1
41
1
41
1
41
1
41
1
41
1
41
1
41
1
41
1
41
1
41
1
41
1
41
1
41
1
41
1
41
1
41
1
41
1
41
1
41
1
41
1
41
1
41
1
41
1
41
1
41
1
41
1
41
1
41
1
41
1
41
1
41
1
41
1
41
1
41
1
41
1
41
1
41
1
41
1
41
1
41
1
41
1
41
1
41
1
41
1
41
1
41
1
41
1
41
1
41
1
41
1
41
1
41
1
41
1
41
1
41
1
41
1
41
1
41
1
41
1
41
1
41
1
41
1
41
1
41
1
41
1
41
1
41
1
41
1
41
1
41
1
41
1
41
1
41
1
41
1
10
-7.3504166553279173
20
1.5763239428763627
30
0
10
-7.3577036526535524
20
1.5778787671489747
30
0
10
-7.372314877714615
20
1.5807136329819418
30
0
10
-7.3943434047878327
20
1.5841415991960319
30
0
10
-7.4239282671554001
20
1.5871459527209475
30
0
10
-7.4612074242843978
20
1.5887673662659516
30
0
10
-7.498710681621457
20
1.5888565399060517
30
0
10
-7.5363638011821577
20
1.5880028267246526
30
0
10
-7.574110065234656
20
1.5866292074372064
30
0
10
-7.6119228837475248
20
1.5848845878291602
30
0
10
-7.6497953321254855
20
1.5827420942079218
30
0
10
-7.6877326589989226
20
1.5800710593434355
30
0
10
-7.7257441618437355
20
1.5767141339810953
30
0
10
-7.7638341388772139
20
1.572573928265155
30
0
10
-7.8019972853545667
20
1.5676559033899604
30
0
10
-7.8402230286142505
20
1.5620238055114533
30
0
10
-7.8784980070663391
20
1.5557731780669306
30
0
10
-7.9168090485458729
20
1.5490001845223864
30
0
10
-7.9551465171583837
20
1.5417663710908491
30
0
10
-7.9935052626320164
20
1.534088530685642
30
0
10
-8.0318827771550829
20
1.5259576558251964
30
0
10
-8.0702780551122597
20
1.5173505753362124
30
0
10
-8.1086902773851204
20
1.5082434297552529
30
0
10
-8.1471173010022859
20
1.4986271488725551
30
0
10
-8.1855554279003755
20
1.4885097293017047
30
0
10
-8.2240001356748529
20
1.4779085810346229
30
0
10
-8.2624465408132135
20
1.4668456381511015
30
0
10
-8.3008899273017391
20
1.4553418012342232
30
0
10
-8.3393263584316806
20
1.4434105136597775
30
0
10
-8.3777526925635204
20
1.431057542406772
30
0
10
-8.4161662737417267
20
1.4182841438123808
30
0
10
-8.4545647173614107
20
1.4050892434938036
30
0
10
-8.4929456752278458
20
1.3914718355052145
30
0
10
-8.5313065632876217
20
1.377433769173191
30
0
10
-8.5696445628856033
20
1.3629797147266507
30
0
10
-8.6079567432216937
20
1.3481158797773054
30
0
10
-8.6462401479456332
20
1.3328491014563981
30
0
10
-8.684491889065864
20
1.317185863744919
30
0
10
-8.7227092576701502
20
1.3011311529307388
30
0
10
-8.7608897150592924
20
1.2846885125594201
30
0
10
-8.7990308347700577
20
1.2678605950449406
30
0
10
-8.8371302593692764
20
1.2506495679036613
30
0
10
-8.875185655268222
20
1.2330575477538299
30
0
10
-8.9131946591648283
20
1.2150871133905869
30
0
10
-8.9511548810268362
20
1.1967413012615069
30
0
10
-8.9890639319767693
20
1.1780233717272794
30
0
10
-9.0269194457213082
20
1.1589366456222032
30
0
10
-9.064719100252459
20
1.1394843294109309
30
0
10
-9.1024606469384661
20
1.1196693102683679
30
0
10
-9.1401419019449435
20
1.0994941539615177
30
0
10
-9.1777607181322338
20
1.0789612148064682
30
0
10
-9.2153149619040828
20
1.0580727165085451
30
0
10
-9.2528024920503444
20
1.0368308390215961
30
0
10
-9.2902211293826351
20
1.0152378264358526
30
0
10
-9.3275686690034814
20
0.99329599650882627
30
0
10
-9.3648429225809231
20
0.97100767674191524
30
0
10
-9.4020417554176525
20
0.94837516217091689
30
0
10
-9.4391631194367118
20
0.92540067174490803
30
0
10
-9.4762051052192326
20
0.90208629554923014
30
0
10
-9.5131659236379864
20
0.87843399476388362
30
0
10
-9.5500438106848513
20
0.85444566142946876
30
0
10
-9.5868369479483064
20
0.83012316739587633
30
0
10
-9.6235433883430268
20
0.80546841391897583
30
0
10
-9.660160953510168
20
0.78048339832679714
30
0
10
-9.6966872327013096
20
0.7551702261431521
30
0
10
-9.7331197833931036
20
0.7295310110623533
30
0
10
-9.7694562926879964
20
0.70356780035262889
30
0
10
-9.8056947476677578
20
0.67728249400174811
30
0
10
-9.8418336207754429
20
0.6506767649887768
30
0
10
-9.8778719964478991
20
0.62375199259352965
30
0
10
-9.9138094017436948
20
0.59650926078182853
30
0
10
-9.9424784232014449
20
0.5744613314421958
30
0
10
-9.9639346877092603
20
0.55778286539405375
30
0
10
-9.9782186478829988
20
0.54660056726293771
30
0
10
-9.9853555739260518
20
0.5409935880063087
30
0
0
ARC
5
136
100
AcDbEntity
8
0
100
AcDbCircle
10
0
20
0
30
0
40
10
210
0
220
0
230
1
100
AcDbArc
50
176.89882108566866
51
183.10117891433134
0
SPLINE
5
137
100
AcDbEntity
8
0
100
AcDbSpline
70
4
71
5
72
81
73
75
74
0
42
0.000000001
43
0.0000000001
44
0.0000000001
40
-1
40
-1
40
-1
40
-1
40
-1
40
-1
40
-0.9857142857142841
40
-0.97142857142856986
40
-0.95714285714285563
40
-0.94285714285714139
40
-0.92857142857142716
40
-0.91428571428571292
40
-0.89999999999999869
40
-0.88571428571428445
40
-0.87142857142857022
40
-0.85714285714285599
40
-0.84285714285714175
40
-0.82857142857142752
40
-0.81428571428571328
40
-0.79999999999999905
40
-0.78571428571428481
40
-0.77142857142857058
40
-0.75714285714285634
40
-0.74285714285714211
40
-0.72857142857142787
40
-0.71428571428571364
40
-0.6999999999999994
40
-0.68571428571428517
40
-0.67142857142857093
40
-0.6571428571428567
40
-0.64285714285714246
40
-0.62857142857142823
40
-0.61428571428571399
40
-0.59999999999999976
40
-0.58571428571428552
40
-0.57142857142857129
40
-0.55714285714285705
40
-0.54285714285714282
40
-0.52857142857142858
40
-0.51428571428571435
40
-0.50000000000000011
40
-0.48571428571428582
40
-0.47142857142857153
40
-0.45714285714285724
40
-0.44285714285714295
40
-0.42857142857142866
40
-0.41428571428571437
40
-0.40000000000000008
40
-0.38571428571428579
40
-0.3714285714285715
40
-0.35714285714285721
40
-0.34285714285714292
40
-0.32857142857142863
40
-0.31428571428571433
40
-0.30000000000000004
40
-0.28571428571428575
40
-0.27142857142857146
40
-0.25714285714285717
40
-0.24285714285714291
40
-0.22857142857142862
40
-0.21428571428571433
40
-0.20000000000000004
40
-0.18571428571428575
40
-0.17142857142857146
40
-0.15714285714285717
40
-0.14285714285714288
40
-0.12857142857142859
40
-0.1142857142857143
40
-0.10000000000000001
40
-0.085714285714285715
40
-0.071428571428571425
40
-0.057142857142857141
40
-0.042857142857142858
40
-0.028571428571428571
40
-0.014285714285714285
40
0
40
0
40
0
40
0
40
0
40
0
41
1
41
1
41
1
41
1
41
1
41
1
41
1
41
1
41
1
41
1
41
1
41
1
41
1
41
1
41
1
41
1
41
1
41
1
41
1
41
1
41
1
41
1
41
1
41
1
41
1
41
1
41
1
41
1
41
1
41
1
41
1
41
1
41
1
41
1
41
1
41
1
41
1
41
1
41
1
41
1
41
1
41
1
41
1
41
1
41
1
41
1
41
1
41
1
41
1
41
1
41
1
41
1
41
1
41
1
41
1
41
1
41
1
41
1
41
1
41
1
41
1
41
1
41
1
41
1
41
1
41
1
41
1
41
1
41
1
41
1
41
1
41
1
41
1
41
1
41
1
10
-9.9853555739260518
20
-0.54099358800630626
30
0
10
-9.9782186478829988
20
-0.54660056726293527
30
0
10
-9.9639346877092603
20
-0.5577828653940512
30
0
10
-9.9424784232014449
20
-0.57446133144219336
30
0
10
-9.9138094017436948
20
-0.59650926078182609
30
0
10
-9.8778719964478991
20
-0.62375199259352732
30
0
10
-9.8418336207754429
20
-0.65067676498877436
30
0
10
-9.8056947476677578
20
-0.67728249400174567
30
0
10
-9.7694562926879964
20
-0.70356780035262634
30
0
10
-9.7331197833931036
20
-0.72953101106235085
30
0
10
-9.6966872327013096
20
-0.75517022614314966
30
0
10
-9.660160953510168
20
-0.78048339832679459
30
0
10
-9.6235433883430268
20
-0.80546841391897361
30
0
10
-9.5868369479483064
20
-0.83012316739587411
30
0
10
-9.5500438106848513
20
-0.85444566142946654
30
0
10
-9.5131659236379864
20
-0.8784339947638814
30
0
10
-9.4762051052192326
20
-0.90208629554922792
30
0
10
-9.4391631194367118
20
-0.92540067174490581
30
0
10
-9.4020417554176525
20
-0.94837516217091467
30
0
10
-9.3648429225809231
20
-0.97100767674191302
30
0
10
-9.3275686690034814
20
-0.99329599650882405
30
0
10
-9.2902211293826351
20
-1.0152378264358504
30
0
10
-9.2528024920503444
20
-1.0368308390215939
30
0
10
-9.2153149619040828
20
-1.0580727165085428
30
0
10
-9.1777607181322338
20
-1.078961214806466
30
0
10
-9.1401419019449435
20
-1.0994941539615155
30
0
10
-9.1024606469384661
20
-1.1196693102683657
30
0
10
-9.064719100252459
20
-1.1394843294109287
30
0
10
-9.0269194457213082
20
-1.158936645622201
30
0
10
-8.9890639319767693
20
-1.1780233717272772
30
0
10
-8.9511548810268362
20
-1.1967413012615047
30
0
10
-8.9131946591648283
20
-1.2150871133905847
30
0
10
-8.875185655268222
20
-1.2330575477538277
30
0
10
-8.8371302593692764
20
-1.2506495679036591
30
0
10
-8.7990308347700577
20
-1.2678605950449384
30
0
10
-8.7608897150592924
20
-1.2846885125594179
30
0
10
-8.7227092576701502
20
-1.3011311529307366
30
0
10
-8.684491889065864
20
-1.3171858637449168
30
0
10
-8.6462401479456332
20
-1.3328491014563959
30
0
10
-8.6079567432216937
20
-1.3481158797773032
30
0
10
-8.5696445628856033
20
-1.3629797147266485
30
0
10
-8.5313065632876217
20
-1.3774337691731888
30
0
10
-8.4929456752278458
20
-1.3914718355052123
30
0
10
-8.4545647173614107
20
-1.4050892434938014
30
0
10
-8.4161662737417267
20
-1.4182841438123786
30
0
10
-8.3777526925635204
20
-1.4310575424067697
30
0
10
-8.3393263584316806
20
-1.4434105136597752
30
0
10
-8.3008899273017391
20
-1.455341801234221
30
0
10
-8.2624465408132135
20
-1.4668456381510993
30
0
10
-8.2240001356748529
20
-1.4779085810346206
30
0
10
-8.1855554279003755
20
-1.4885097293017024
30
0
10
-8.1471173010022859
20
-1.4986271488725529
30
0
10
-8.1086902773851204
20
-1.5082434297552507
30
0
10
-8.0702780551122597
20
-1.5173505753362102
30
0
10
-8.0318827771550829
20
-1.5259576558251942
30
0
10
-7.9935052626320164
20
-1.5340885306856398
30
0
10
-7.9551465171583837
20
-1.5417663710908469
30
0
10
-7.9168090485458729
20
-1.5490001845223846
30
0
10
-7.8784980070663391
20
-1.5557731780669291
30
0
10
-7.8402230286142505
20
-1.5620238055114517
30
0
10
-7.8019972853545667
20
-1.5676559033899586
30
0
10
-7.7638341388772139
20
-1.5725739282651532
30
0
10
-7.7257441618437355
20
-1.5767141339810937
30
0
10
-7.6877326589989226
20
-1.5800710593434339
30
0
10
-7.6497953321254855
20
-1.5827420942079202
30
0
10
-7.6119228837475248
20
-1.5848845878291584
30
0
10
-7.574110065234656
20
-1.5866292074372046
30
0
10
-7.5363638011821577
20
-1.5880028267246509
30
0
10
-7.498710681621457
20
-1.5888565399060499
30
0
10
-7.4612074242843978
20
-1.5887673662659498
30
0
10
-7.4239282671554001
20
-1.5871459527209457
30
0
10
-7.3943434047878327
20
-1.5841415991960304
30
0
10
-7.372314877714615
20
-1.5807136329819402
30
0
10
-7.3577036526535524
20
-1.5778787671489729
30
0
10
-7.3504166553279173
20
-1.5763239428763609
30
0
0
LINE
5
138
100
AcDbEntity
8
0
100
AcDbLine
10
-7.3504166553279173
20
-1.5763239428763609
30
0
11
-5.893523651286837
21
-1.2654671517927469
31
0
0
ARC
5
139
100
AcDbEntity
8
0
100
AcDbCircle
10
-5.789187416834336
20
-1.7544599433349861
30
0
40
0.49999999999999967
210
0
220
-0
230
1
100
AcDbArc
50
16.859855682494249
51
102.04456687479961
0
ARC
5
140
100
AcDbEntity
8
0
100
AcDbCircle
10
0
20
0
30
0
40
5.5492000000000008
210
0
220
0
230
1
100
AcDbArc
50
196.85985568249416
51
208.14014431750581
0
ARC
5
141
100
AcDbEntity
8
0
100
AcDbCircle
10
-5.3341642032557264
20
-2.8529831567510557
30
0
40
0.50000000000000022
210
-0
220
0
230
1
100
AcDbArc
50
-57.044566874799607
51
28.140144317505722
0
LINE
5
142
100
AcDbEntity
8
0
100
AcDbLine
10
-5.0621709433097015
20
-3.2725301345067463
30
0
11
-6.3121588108835045
21
-4.08290011217432
31
0
0
SPLINE
5
143
100
AcDbEntity
8
0
100
AcDbSpline
70
4
71
5
72
81
73
75
74
0
42
0.000000001
43
0.0000000001
44
0.0000000001
40
0
40
0
40
0
40
0
40
0
40
0
40
0.014285714285714285
40
0.028571428571428571
40
0.042857142857142858
40
0.057142857142857141
40
0.071428571428571425
40
0.085714285714285715
40
0.10000000000000001
40
0.1142857142857143
40
0.12857142857142859
40
0.14285714285714288
40
0.15714285714285717
40
0.17142857142857146
40
0.18571428571428575
40
0.20000000000000004
40
0.21428571428571433
40
0.22857142857142862
40
0.24285714285714291
40
0.25714285714285717
40
0.27142857142857146
40
0.28571428571428575
40
0.30000000000000004
40
0.31428571428571433
40
0.32857142857142863
40
0.34285714285714292
40
0.35714285714285721
40
0.3714285714285715
40
0.38571428571428579
40
0.40000000000000008
40
0.41428571428571437
40
0.42857142857142866
40
0.44285714285714295
40
0.45714285714285724
40
0.47142857142857153
40
0.48571428571428582
40
0.50000000000000011
40
0.51428571428571435
40
0.52857142857142858
40
0.54285714285714282
40
0.55714285714285705
40
0.57142857142857129
40
0.58571428571428552
40
0.59999999999999976
40
0.61428571428571399
40
0.62857142857142823
40
0.64285714285714246
40
0.6571428571428567
40
0.67142857142857093
40
0.68571428571428517
40
0.6999999999999994
40
0.71428571428571364
40
0.72857142857142787
40
0.74285714285714211
40
0.75714285714285634
40
0.77142857142857058
40
0.78571428571428481
40
0.79999999999999905
40
0.81428571428571328
40
0.82857142857142752
40
0.84285714285714175
40
0.85714285714285599
40
0.87142857142857022
40
0.88571428571428445
40
0.89999999999999869
40
0.91428571428571292
40
0.92857142857142716
40
0.94285714285714139
40
0.95714285714285563
40
0.97142857142856986
40
0.9857142857142841
40
1
40
1
40
1
40
1
40
1
40
1
41
1
41
1
41
1
41
1
41
1
41
1
41
1
41
1
41
1
41
1
41
1
41
1
41
1
41
1
41
1
41
1
41
1
41
1
41
1
41
1
41
1
41
1
41
1
41
1
41
1
41
1
41
1
41
1
41
1
41
1
41
1
41
1
41
1
41
1
41
1
41
1
41
1
41
1
41
1
41
1
41
1
41
1
41
1
41
1
41
1
41
1
41
1
41
1
41
1
41
1
41
1
41
1
41
1
41
1
41
1
41
1
41
1
41
1
41
1
41
1
41
1
41
1
41
1
41
1
41
1
41
1
41
1
41
1
41
1
41
1
41
1
41
1
41
1
41
1
41
1
10
-6.3121588108835045
20
-4.08290011217432
30
0
10
-6.3184109228936673
20
-4.086953370611047
30
0
10
-6.3307471720700326
20
-4.0952805140789224
30
0
10
-6.3487476310987168
20
-4.1084330967962854
30
0
10
-6.3717916866498436
20
-4.127228354846312
30
0
10
-6.3992985439654575
20
-4.1524421871363657
30
0
10
-6.4258804068306929
20
-4.1788979394303656
30
0
10
-6.4519015166251386
20
-4.2061263819843218
30
0
10
-6.4776208603881962
20
-4.2337883167732233
30
0
10
-6.5031249284189823
20
-4.2617596495148895
30
0
10
-6.5283898217189478
20
-4.2900544863513099
30
0
10
-6.5533268559457811
20
-4.3187689343090714
30
0
10
-6.5778313426827921
20
-4.3480208304213779
30
0
10
-6.6018374562011566
20
-4.3778820790142383
30
0
10
-6.6253453071274135
20
-4.4083450674190852
30
0
10
-6.6483924948000341
20
-4.4393572442961027
30
0
10
-6.671037130560582
20
-4.4708416021620359
30
0
10
-6.6933378981207987
20
-4.5027208290508138
30
0
10
-6.7153315036189545
20
-4.5349445916115236
30
0
10
-6.7370261796457775
20
-4.5674973736691289
30
0
10
-6.7584137836593241
20
-4.6003837711842746
30
0
10
-6.779477220088407
20
-4.6336194575733156
30
0
10
-6.8001990385404421
20
-4.6672207248204503
30
0
10
-6.8205713100990053
20
-4.7011924712229147
30
0
10
-6.8405970742980946
20
-4.7355264273953193
30
0
10
-6.8602854440381469
20
-4.770207084791406
30
0
10
-6.8796484758909093
20
-4.8052154805098031
30
0
10
-6.8986976140751306
20
-4.8405335008812029
30
0
10
-6.9174395808195444
20
-4.876148856329972
30
0
10
-6.9358762325195062
20
-4.9120552475115389
30
0
10
-6.9540065794953829
20
-4.9482499080172015
30
0
10
-6.9718281758735241
20
-4.9847319113800346
30
0
10
-6.9893386499184018
20
-5.0215003084867416
30
0
10
-7.0065374820996862
20
-5.0585519644642671
30
0
10
-7.0234259816777591
20
-5.0958815838719165
30
0
10
-7.0400064657083297
20
-5.1334827048767266
30
0
10
-7.0562816783179532
20
-5.1713484024415202
30
0
10
-7.0722541622551347
20
-5.2094720495809499
30
0
10
-7.0879255278676361
20
-5.2478482049668429
30
0
10
-7.103296485689131
20
-5.2864725678026803
30
0
10
-7.1183671954909258
20
-5.3253415467799474
30
0
10
-7.1331375229815546
20
-5.364451942276145
30
0
10
-7.1476073147397212
20
-5.4038006075197442
30
0
10
-7.1617767231420393
20
-5.4433840479202971
30
0
10
-7.1756462052731651
20
-5.4831984263771165
30
0
10
-7.1892163773647848
20
-5.5232397482755848
30
0
10
-7.202487914379299
20
-5.5635039922091973
30
0
10
-7.2154614417220095
20
-5.6039872489574591
30
0
10
-7.2281374109111063
20
-5.6446858869566512
30
0
10
-7.240516092013733
20
-5.6855965477314214
30
0
10
-7.2525976315257505
20
-5.7267160482718911
30
0
10
-7.2643820931638921
20
-5.7680413075005639
30
0
10
-7.2758695043240929
20
-5.8095692698930756
30
0
10
-7.2870599108988907
20
-5.851296807719125
30
0
10
-7.2979533926923823
20
-5.8932207229787013
30
0
10
-7.3085500481122212
20
-5.9353378224954145
30
0
10
-7.3188499905348401
20
-5.9776449739749458
30
0
10
-7.3288533407850753
20
-6.0201391601742538
30
0
10
-7.3385602266134136
20
-6.0628175530167869
30
0
10
-7.3479707696795371
20
-6.1056775006348758
30
0
10
-7.3570850605160771
20
-6.1487164178116736
30
0
10
-7.3659031369096724
20
-6.1919316951383134
30
0
10
-7.3744249664540007
20
-6.235320611426638
30
0
10
-7.3826504211409452
20
-6.2788802140201447
30
0
10
-7.390579285144117
20
-6.3226073094321134
30
0
10
-7.3982113259462725
20
-6.3664986759301359
30
0
10
-7.4055463557191183
20
-6.4105512304114241
30
0
10
-7.4125842946087559
20
-6.4547622060336103
30
0
10
-7.4193252454441572
20
-6.4991293396759779
30
0
10
-7.4257695361225178
20
-6.5436510086395039
30
0
10
-7.4319175987033228
20
-6.5883261120245109
30
0
10
-7.4365994178389041
20
-6.624188411854445
30
0
10
-7.439977831528882
20
-6.6511537384292838
30
0
10
-7.4421710377921695
20
-6.6691611023680952
30
0
10
-7.4432528735397039
20
-6.6781724042242994
30
0
0
ARC
5
144
100
AcDbEntity
8
0
100
AcDbCircle
10
0
20
0
30
0
40
10.000000000000002
210
0
220
0
230
1
100
AcDbArc
50
221.89882108566852
51
228.10117891433137
0
SPLINE
5
145
100
AcDbEntity
8
0
100
AcDbSpline
70
4
71
5
72
81
73
75
74
0
42
0.000000001
43
0.0000000001
44
0.0000000001
40
-1
40
-1
40
-1
40
-1
40
-1
40
-1
40
-0.9857142857142841
40
-0.97142857142856986
40
-0.95714285714285563
40
-0.94285714285714139
40
-0.92857142857142716
40
-0.91428571428571292
40
-0.89999999999999869
40
-0.88571428571428445
40
-0.87142857142857022
40
-0.85714285714285599
40
-0.84285714285714175
40
-0.82857142857142752
40
-0.81428571428571328
40
-0.79999999999999905
40
-0.78571428571428481
40
-0.77142857142857058
40
-0.75714285714285634
40
-0.74285714285714211
40
-0.72857142857142787
40
-0.71428571428571364
40
-0.6999999999999994
40
-0.68571428571428517
40
-0.67142857142857093
40
-0.6571428571428567
40
-0.64285714285714246
40
-0.62857142857142823
40
-0.61428571428571399
40
-0.59999999999999976
40
-0.58571428571428552
40
-0.57142857142857129
40
-0.55714285714285705
40
-0.54285714285714282
40
-0.52857142857142858
40
-0.51428571428571435
40
-0.50000000000000011
40
-0.48571428571428582
40
-0.47142857142857153
40
-0.45714285714285724
40
-0.44285714285714295
40
-0.42857142857142866
40
-0.41428571428571437
40
-0.40000000000000008
40
-0.38571428571428579
40
-0.3714285714285715
40
-0.35714285714285721
40
-0.34285714285714292
40
-0.32857142857142863
40
-0.31428571428571433
40
-0.30000000000000004
40
-0.28571428571428575
40
-0.27142857142857146
40
-0.25714285714285717
40
-0.24285714285714291
40
-0.22857142857142862
40
-0.21428571428571433
40
-0.20000000000000004
40
-0.18571428571428575
40
-0.17142857142857146
40
-0.15714285714285717
40
-0.14285714285714288
40
-0.12857142857142859
40
-0.1142857142857143
40
-0.10000000000000001
40
-0.085714285714285715
40
-0.071428571428571425
40
-0.057142857142857141
40
-0.042857142857142858
40
-0.028571428571428571
40
-0.014285714285714285
40
0
40
0
40
0
40
0
40
0
40
0
41
1
41
1
41
1
41
1
41
1
41
1
41
1
41
1
41
1
41
1
41
1
41
1
41
1
41
1
41
1
41
1
41
1
41
1
41
1
41
1
41
1
41
1
41
1
41
1
41
1
41
1
41
1
41
1
41
1
41
1
41
1
41
1
41
1
41
1
41
1
41
1
41
1
41
1
41
1
41
1
41
1
41
1
41
1
41
1
41
1
41
1
41
1
41
1
41
1
41
1
41
1
41
1
41
1
41
1
41
1
41
1
41
1
41
1
41
1
41
1
41
1
41
1
41
1
41
1
41
1
41
1
41
1
41
1
41
1
41
1
41
1
41
1
41
1
41
1
41
1
10
-6.678172404224302
20
-7.4432528735397021
30
0
10
-6.669161102368097
20
-7.4421710377921668
30
0
10
-6.6511537384292865
20
-7.4399778315288803
30
0
10
-6.6241884118544467
20
-7.4365994178389014
30
0
10
-6.5883261120245127
20
-7.4319175987033201
30
0
10
-6.5436510086395057
20
-7.4257695361225151
30
0
10
-6.4991293396759797
20
-7.4193252454441545
30
0
10
-6.4547622060336121
20
-7.412584294608755
30
0
10
-6.4105512304114267
20
-7.4055463557191157
30
0
10
-6.3664986759301376
20
-7.3982113259462698
30
0
10
-6.3226073094321151
20
-7.3905792851441143
30
0
10
-6.2788802140201474
20
-7.3826504211409425
30
0
10
-6.2353206114266406
20
-7.3744249664539989
30
0
10
-6.1919316951383152
20
-7.3659031369096706
30
0
10
-6.1487164178116753
20
-7.3570850605160762
30
0
10
-6.1056775006348785
20
-7.3479707696795344
30
0
10
-6.0628175530167905
20
-7.3385602266134118
30
0
10
-6.0201391601742564
20
-7.3288533407850736
30
0
10
-5.9776449739749484
20
-7.3188499905348383
30
0
10
-5.9353378224954163
20
-7.3085500481122185
30
0
10
-5.8932207229787021
20
-7.2979533926923814
30
0
10
-5.8512968077191276
20
-7.2870599108988889
30
0
10
-5.8095692698930783
20
-7.2758695043240902
30
0
10
-5.7680413075005665
20
-7.2643820931638903
30
0
10
-5.7267160482718937
20
-7.2525976315257479
30
0
10
-5.6855965477314241
20
-7.2405160920137313
30
0
10
-5.644685886956653
20
-7.2281374109111045
30
0
10
-5.6039872489574618
20
-7.2154614417220078
30
0
10
-5.5635039922092
20
-7.202487914379299
30
0
10
-5.5232397482755857
20
-7.189216377364783
30
0
10
-5.4831984263771183
20
-7.1756462052731624
30
0
10
-5.4433840479202988
20
-7.1617767231420393
30
0
10
-5.4038006075197469
20
-7.1476073147397194
30
0
10
-5.3644519422761476
20
-7.1331375229815519
30
0
10
-5.3253415467799501
20
-7.118367195490924
30
0
10
-5.2864725678026838
20
-7.1032964856891301
30
0
10
-5.2478482049668447
20
-7.0879255278676334
30
0
10
-5.2094720495809534
20
-7.0722541622551338
30
0
10
-5.1713484024415219
20
-7.0562816783179505
30
0
10
-5.1334827048767293
20
-7.0400064657083288
30
0
10
-5.0958815838719183
20
-7.0234259816777564
30
0
10
-5.0585519644642707
20
-7.0065374820996853
30
0
10
-5.0215003084867433
20
-6.9893386499184
30
0
10
-4.9847319113800372
20
-6.9718281758735232
30
0
10
-4.9482499080172024
20
-6.954006579495382
30
0
10
-4.9120552475115415
20
-6.9358762325195054
30
0
10
-4.8761488563299737
20
-6.9174395808195444
30
0
10
-4.8405335008812056
20
-6.8986976140751288
30
0
10
-4.8052154805098057
20
-6.8796484758909067
30
0
10
-4.7702070847914078
20
-6.8602854440381442
30
0
10
-4.735526427395321
20
-6.8405970742980928
30
0
10
-4.7011924712229156
20
-6.8205713100990035
30
0
10
-4.6672207248204529
20
-6.8001990385404412
30
0
10
-4.6336194575733183
20
-6.7794772200884044
30
0
10
-4.6003837711842772
20
-6.7584137836593214
30
0
10
-4.5674973736691307
20
-6.7370261796457775
30
0
10
-4.5349445916115263
20
-6.7153315036189518
30
0
10
-4.5027208290508147
20
-6.6933378981207978
30
0
10
-4.4708416021620376
20
-6.6710371305605811
30
0
10
-4.4393572442961036
20
-6.6483924948000332
30
0
10
-4.4083450674190869
20
-6.6253453071274127
30
0
10
-4.3778820790142419
20
-6.6018374562011548
30
0
10
-4.3480208304213788
20
-6.5778313426827921
30
0
10
-4.3187689343090732
20
-6.5533268559457802
30
0
10
-4.2900544863513108
20
-6.5283898217189478
30
0
10
-4.2617596495148922
20
-6.5031249284189796
30
0
10
-4.2337883167732251
20
-6.4776208603881944
30
0
10
-4.2061263819843226
20
-6.4519015166251368
30
0
10
-4.1788979394303674
20
-6.4258804068306929
30
0
10
-4.1524421871363675
20
-6.3992985439654557
30
0
10
-4.1272283548463147
20
-6.3717916866498427
30
0
10
-4.1084330967962863
20
-6.3487476310987168
30
0
10
-4.095280514078925
20
-6.3307471720700299
30
0
10
-4.0869533706110488
20
-6.3184109228936656
30
0
10
-4.0829001121743227
20
-6.3121588108835027
30
0
0
LINE
5
146
100
AcDbEntity
8
0
100
AcDbLine
10
-4.0829001121743227
20
-6.3121588108835027
30
0
11
-3.2725301345067468
21
-5.0621709433097006
31
0
0
ARC
5
147
100
AcDbEntity
8
0
100
AcDbCircle
10
-2.8529831567510566
20
-5.3341642032557255
30
0
40
0.50000000000000022
210
0
220
-0
230
1
100
AcDbArc
50
61.859855682494235
51
147.04456687479959
0
ARC
5
148
100
AcDbEntity
8
0
100
AcDbCircle
10
0
20
0
30
0
40
5.5492000000000008
210
0
220
0
230
1
100
AcDbArc
50
241.85985568249419
51
253.14014431750576
0
ARC
5
149
100
AcDbEntity
8
0
100
AcDbCircle
10
-1.7544599433349892
20
-5.7891874168343351
30
0
40
0.5
210
-0
220
0
230
1
100
AcDbArc
50
-12.044566874799608
51
73.140144317505985
0
LINE
5
150
100
AcDbEntity
8
0
100
AcDbLine
10
-1.2654671517927492
20
-5.8935236512868361
30
0
11
-1.5763239428763631
21
-7.3504166553279173
31
0
0
SPLINE
5
151
100
AcDbEntity
8
0
100
AcDbSpline
70
4
71
5
72
81
73
75
74
0
42
0.000000001
43
0.0000000001
44
0.0000000001
40
0
40
0
40
0
40
0
40
0
40
0
40
0.014285714285714285
40
0.028571428571428571
40
0.042857142857142858
40
0.057142857142857141
40
0.071428571428571425
40
0.085714285714285715
40
0.10000000000000001
40
0.1142857142857143
40
0.12857142857142859
40
0.14285714285714288
40
0.15714285714285717
40
0.17142857142857146
40
0.18571428571428575
40
0.20000000000000004
40
0.21428571428571433
40
0.22857142857142862
40
0.24285714285714291
40
0.25714285714285717
40
0.27142857142857146
40
0.28571428571428575
40
0.30000000000000004
40
0.31428571428571433
40
0.32857142857142863
40
0.34285714285714292
40
0.35714285714285721
40
0.3714285714285715
40
0.38571428571428579
40
0.40000000000000008
40
0.41428571428571437
40
0.42857142857142866
40
0.44285714285714295
40
0.45714285714285724
40
0.47142857142857153
40
0.48571428571428582
40
0.50000000000000011
40
0.51428571428571435
40
0.52857142857142858
40
0.54285714285714282
40
0.55714285714285705
40
0.57142857142857129
40
0.58571428571428552
40
0.59999999999999976
40
0.61428571428571399
40
0.62857142857142823
40
0.64285714285714246
40
0.6571428571428567
40
0.67142857142857093
40
0.68571428571428517
40
0.6999999999999994
40
0.71428571428571364
40
0.72857142857142787
40
0.74285714285714211
40
0.75714285714285634
40
0.77142857142857058
40
0.78571428571428481
40
0.79999999999999905
40
0.81428571428571328
40
0.82857142857142752
40
0.84285714285714175
40
0.85714285714285599
40
0.87142857142857022
40
0.88571428571428445
40
0.89999999999999869
40
0.91428571428571292
40
0.92857142857142716
40
0.94285714285714139
40
0.95714285714285563
40
0.97142857142856986
40
0.9857142857142841
40
1
40
1
40
1
40
1
40
1
40
1
41
1
41
1
41
1
41
1
41
1
41
1
41
1
41
1
41
1
41
1
41
1
41
1
41
1
41
1
41
1
41
1
41
1
41
1
41
1
41
1
41
1
41
1
41
1
41
1
41
1
41
1
41
1
41
1
41
1
41
1
41
1
41
1
41
1
41
1
41
1
41
1
41
1
41
1
41
1
41
1
41
1
41
1
41
1
41
1
41
1
41
1
41
1
41
1
41
1
41
1
41
1
41
1
41
1
41
1
41
1
41
1
41
1
41
1
41
1
41
1
41
1
41
1
41
1
41
1
41
1
41
1
41
1
41
1
41
1
41
1
41
1
41
1
41
1
41
1
41
1
10
-1.5763239428763631
20
-7.3504166553279173
30
0
10
-1.5778787671489751
20
-7.3577036526535524
30
0
10
-1.5807136329819425
20
-7.372314877714615
30
0
10
-1.5841415991960326
20
-7.3943434047878327
30
0
10
-1.5871459527209479
20
-7.4239282671554001
30
0
10
-1.5887673662659521
20
-7.4612074242843978
30
0
10
-1.5888565399060521
20
-7.498710681621457
30
0
10
-1.5880028267246531
20
-7.5363638011821577
30
0
10
-1.5866292074372068
20
-7.574110065234656
30
0
10
-1.5848845878291606
20
-7.6119228837475248
30
0
10
-1.5827420942079224
20
-7.6497953321254855
30
0
10
-1.5800710593434362
20
-7.6877326589989226
30
0
10
-1.5767141339810959
20
-7.7257441618437355
30
0
10
-1.5725739282651554
20
-7.7638341388772139
30
0
10
-1.5676559033899609
20
-7.8019972853545667
30
0
10
-1.5620238055114539
20
-7.8402230286142505
30
0
10
-1.5557731780669313
20
-7.8784980070663391
30
0
10
-1.5490001845223869
20
-7.9168090485458729
30
0
10
-1.5417663710908494
20
-7.9551465171583837
30
0
10
-1.5340885306856422
20
-7.9935052626320164
30
0
10
-1.5259576558251966
20
-8.0318827771550829
30
0
10
-1.5173505753362126
20
-8.0702780551122597
30
0
10
-1.5082434297552534
20
-8.1086902773851204
30
0
10
-1.4986271488725553
20
-8.1471173010022859
30
0
10
-1.4885097293017049
20
-8.1855554279003755
30
0
10
-1.4779085810346233
20
-8.2240001356748529
30
0
10
-1.4668456381511017
20
-8.2624465408132135
30
0
10
-1.4553418012342234
20
-8.3008899273017391
30
0
10
-1.4434105136597779
20
-8.3393263584316806
30
0
10
-1.4310575424067726
20
-8.3777526925635204
30
0
10
-1.4182841438123814
20
-8.4161662737417267
30
0
10
-1.4050892434938043
20
-8.4545647173614107
30
0
10
-1.3914718355052149
20
-8.4929456752278458
30
0
10
-1.3774337691731917
20
-8.5313065632876217
30
0
10
-1.3629797147266511
20
-8.5696445628856033
30
0
10
-1.3481158797773061
20
-8.6079567432216937
30
0
10
-1.3328491014563988
20
-8.6462401479456332
30
0
10
-1.3171858637449196
20
-8.684491889065864
30
0
10
-1.3011311529307392
20
-8.7227092576701502
30
0
10
-1.2846885125594207
20
-8.7608897150592924
30
0
10
-1.2678605950449411
20
-8.7990308347700577
30
0
10
-1.250649567903662
20
-8.8371302593692764
30
0
10
-1.2330575477538306
20
-8.875185655268222
30
0
10
-1.2150871133905874
20
-8.9131946591648283
30
0
10
-1.1967413012615076
20
-8.9511548810268362
30
0
10
-1.1780233717272801
20
-8.9890639319767693
30
0
10
-1.1589366456222037
20
-9.0269194457213082
30
0
10
-1.1394843294109316
20
-9.064719100252459
30
0
10
-1.1196693102683686
20
-9.1024606469384661
30
0
10
-1.0994941539615182
20
-9.1401419019449435
30
0
10
-1.0789612148064687
20
-9.1777607181322338
30
0
10
-1.0580727165085457
20
-9.2153149619040828
30
0
10
-1.0368308390215966
20
-9.2528024920503444
30
0
10
-1.0152378264358533
20
-9.2902211293826351
30
0
10
-0.99329599650882683
20
-9.3275686690034814
30
0
10
-0.97100767674191579
20
-9.3648429225809231
30
0
10
-0.94837516217091744
20
-9.4020417554176525
30
0
10
-0.92540067174490859
20
-9.4391631194367118
30
0
10
-0.90208629554923081
20
-9.4762051052192326
30
0
10
-0.87843399476388428
20
-9.5131659236379864
30
0
10
-0.85444566142946943
20
-9.5500438106848513
30
0
10
-0.83012316739587699
20
-9.5868369479483064
30
0
10
-0.8054684139189765
20
-9.6235433883430268
30
0
10
-0.78048339832679769
20
-9.660160953510168
30
0
10
-0.75517022614315266
20
-9.6966872327013096
30
0
10
-0.72953101106235385
20
-9.7331197833931036
30
0
10
-0.70356780035262934
20
-9.7694562926879964
30
0
10
-0.67728249400174867
20
-9.8056947476677578
30
0
10
-0.65067676498877736
20
-9.8418336207754429
30
0
10
-0.62375199259353031
20
-9.8778719964478991
30
0
10
-0.59650926078182909
20
-9.9138094017436948
30
0
10
-0.57446133144219635
20
-9.9424784232014449
30
0
10
-0.55778286539405431
20
-9.9639346877092603
30
0
10
-0.54660056726293826
20
-9.9782186478829988
30
0
10
-0.54099358800630926
20
-9.9853555739260518
30
0
0
ARC
5
152
100
AcDbEntity
8
0
100
AcDbCircle
10
0
20
0
30
0
40
10
210
0
220
0
230
1
100
AcDbArc
50
266.89882108566849
51
273.1011789143314
0
SPLINE
5
153
100
AcDbEntity
8
0
100
AcDbSpline
70
4
71
5
72
81
73
75
74
0
42
0.000000001
43
0.0000000001
44
0.0000000001
40
-1
40
-1
40
-1
40
-1
40
-1
40
-1
40
-0.9857142857142841
40
-0.97142857142856986
40
-0.95714285714285563
40
-0.94285714285714139
40
-0.92857142857142716
40
-0.91428571428571292
40
-0.89999999999999869
40
-0.88571428571428445
40
-0.87142857142857022
40
-0.85714285714285599
40
-0.84285714285714175
40
-0.82857142857142752
40
-0.81428571428571328
40
-0.79999999999999905
40
-0.78571428571428481
40
-0.77142857142857058
40
-0.75714285714285634
40
-0.74285714285714211
40
-0.72857142857142787
40
-0.71428571428571364
40
-0.6999999999999994
40
-0.68571428571428517
40
-0.67142857142857093
40
-0.6571428571428567
40
-0.64285714285714246
40
-0.62857142857142823
40
-0.61428571428571399
40
-0.59999999999999976
40
-0.58571428571428552
40
-0.57142857142857129
40
-0.55714285714285705
40
-0.54285714285714282
40
-0.52857142857142858
40
-0.51428571428571435
40
-0.50000000000000011
40
-0.48571428571428582
40
-0.47142857142857153
40
-0.45714285714285724
40
-0.44285714285714295
40
-0.42857142857142866
40
-0.41428571428571437
40
-0.40000000000000008
40
-0.38571428571428579
40
-0.3714285714285715
40
-0.35714285714285721
40
-0.34285714285714292
40
-0.32857142857142863
40
-0.31428571428571433
40
-0.30000000000000004
40
-0.28571428571428575
40
-0.27142857142857146
40
-0.25714285714285717
40
-0.24285714285714291
40
-0.22857142857142862
40
-0.21428571428571433
40
-0.20000000000000004
40
-0.18571428571428575
40
-0.17142857142857146
40
-0.15714285714285717
40
-0.14285714285714288
40
-0.12857142857142859
40
-0.1142857142857143
40
-0.10000000000000001
40
-0.085714285714285715
40
-0.071428571428571425
40
-0.057142857142857141
40
-0.042857142857142858
40
-0.028571428571428571
40
-0.014285714285714285
40
0
40
0
40
0
40
0
40
0
40
0
41
1
41
1
41
1
41
1
41
1
41
1
41
1
41
1
41
1
41
1
41
1
41
1
41
1
41
1
41
1
41
1
41
1
41
1
41
1
41
1
41
1
41
1
41
1
41
1
41
1
41
1
41
1
41
1
41
1
41
1
41
1
41
1
41
1
41
1
41
1
41
1
41
1
41
1
41
1
41
1
41
1
41
1
41
1
41
1
41
1
41
1
41
1
41
1
41
1
41
1
41
1
41
1
41
1
41
1
41
1
41
1
41
1
41
1
41
1
41
1
41
1
41
1
41
1
41
1
41
1
41
1
41
1
41
1
41
1
41
1
41
1
41
1
41
1
41
1
41
1
10
0.5409935880063057
20
-9.9853555739260518
30
0
10
0.54660056726293471
20
-9.9782186478829988
30
0
10
0.55778286539405064
20
-9.9639346877092603
30
0
10
0.5744613314421928
20
-9.9424784232014449
30
0
10
0.59650926078182553
20
-9.9138094017436948
30
0
10
0.62375199259352665
20
-9.8778719964478991
30
0
10
0.65067676498877369
20
-9.8418336207754429
30
0
10
0.67728249400174512
20
-9.8056947476677578
30
0
10
0.70356780035262578
20
-9.7694562926879964
30
0
10
0.7295310110623503
20
-9.7331197833931036
30
0
10
0.7551702261431491
20
-9.6966872327013096
30
0
10
0.78048339832679403
20
-9.660160953510168
30
0
10
0.80546841391897284
20
-9.6235433883430268
30
0
10
0.83012316739587333
20
-9.5868369479483064
30
0
10
0.85444566142946587
20
-9.5500438106848513
30
0
10
0.87843399476388073
20
-9.5131659236379864
30
0
10
0.90208629554922715
20
-9.4762051052192326
30
0
10
0.92540067174490526
20
-9.4391631194367118
30
0
10
0.94837516217091411
20
-9.4020417554176525
30
0
10
0.97100767674191246
20
-9.3648429225809231
30
0
10
0.9932959965088235
20
-9.3275686690034814
30
0
10
1.0152378264358499
20
-9.2902211293826351
30
0
10
1.0368308390215932
20
-9.2528024920503444
30
0
10
1.0580727165085424
20
-9.2153149619040828
30
0
10
1.0789612148064653
20
-9.1777607181322338
30
0
10
1.0994941539615151
20
-9.1401419019449435
30
0
10
1.1196693102683652
20
-9.1024606469384661
30
0
10
1.1394843294109283
20
-9.064719100252459
30
0
10
1.1589366456222003
20
-9.0269194457213082
30
0
10
1.1780233717272768
20
-8.9890639319767693
30
0
10
1.196741301261504
20
-8.9511548810268362
30
0
10
1.2150871133905841
20
-8.9131946591648283
30
0
10
1.2330575477538273
20
-8.875185655268222
30
0
10
1.2506495679036587
20
-8.8371302593692764
30
0
10
1.267860595044938
20
-8.7990308347700577
30
0
10
1.2846885125594174
20
-8.7608897150592924
30
0
10
1.3011311529307359
20
-8.7227092576701502
30
0
10
1.3171858637449163
20
-8.684491889065864
30
0
10
1.3328491014563952
20
-8.6462401479456332
30
0
10
1.3481158797773027
20
-8.6079567432216937
30
0
10
1.3629797147266478
20
-8.5696445628856033
30
0
10
1.3774337691731884
20
-8.5313065632876217
30
0
10
1.3914718355052116
20
-8.4929456752278458
30
0
10
1.4050892434938009
20
-8.4545647173614107
30
0
10
1.4182841438123781
20
-8.4161662737417267
30
0
10
1.4310575424067693
20
-8.3777526925635204
30
0
10
1.4434105136597748
20
-8.3393263584316806
30
0
10
1.4553418012342205
20
-8.3008899273017391
30
0
10
1.4668456381510988
20
-8.2624465408132135
30
0
10
1.4779085810346204
20
-8.2240001356748529
30
0
10
1.4885097293017022
20
-8.1855554279003755
30
0
10
1.4986271488725524
20
-8.1471173010022859
30
0
10
1.5082434297552505
20
-8.1086902773851204
30
0
10
1.5173505753362098
20
-8.0702780551122597
30
0
10
1.5259576558251939
20
-8.0318827771550829
30
0
10
1.5340885306856396
20
-7.9935052626320164
30
0
10
1.5417663710908467
20
-7.9551465171583837
30
0
10
1.5490001845223842
20
-7.9168090485458729
30
0
10
1.5557731780669284
20
-7.8784980070663391
30
0
10
1.562023805511451
20
-7.8402230286142505
30
0
10
1.5676559033899582
20
-7.8019972853545667
30
0
10
1.5725739282651527
20
-7.7638341388772139
30
0
10
1.5767141339810931
20
-7.7257441618437355
30
0
10
1.5800710593434333
20
-7.6877326589989226
30
0
10
1.5827420942079196
20
-7.6497953321254855
30
0
10
1.584884587829158
20
-7.6119228837475248
30
0
10
1.5866292074372041
20
-7.574110065234656
30
0
10
1.5880028267246504
20
-7.5363638011821577
30
0
10
1.5888565399060495
20
-7.498710681621457
30
0
10
1.5887673662659494
20
-7.4612074242843978
30
0
10
1.5871459527209453
20
-7.4239282671554001
30
0
10
1.5841415991960297
20
-7.3943434047878327
30
0
10
1.5807136329819396
20
-7.372314877714615
30
0
10
1.5778787671489725
20
-7.3577036526535524
30
0
10
1.5763239428763605
20
-7.3504166553279173
30
0
0
LINE
5
154
100
AcDbEntity
8
0
100
AcDbLine
10
1.5763239428763605
20
-7.3504166553279173
30
0
11
1.2654671517927465
21
-5.893523651286837
31
0
0
ARC
5
155
100
AcDbEntity
8
0
100
AcDbCircle
10
1.754459943334987
20
-5.789187416834336
30
0
40
0.49999999999999967
210
0
220
0
230
1
100
AcDbArc
50
106.85985568249426
51
192.04456687479959
0
ARC
5
156
100
AcDbEntity
8
0
100
AcDbCircle
10
0
20
0
30
0
40
5.5492000000000017
210
-0
220
0
230
1
100
AcDbArc
50
286.85985568249419
51
298.14014431750581
0
ARC
5
157
100
AcDbEntity
8
0
100
AcDbCircle
10
2.8529831567510526
20
-5.3341642032557282
30
0
40
0.50000000000000056
210
0
220
-0
230
1
100
AcDbArc
50
32.955433125200209
51
118.14014431750577
0
LINE
5
158
100
AcDbEntity
8
0
100
AcDbLine
10
3.272530134506745
20
-5.0621709433097042
30
0
11
4.0829001121743183
21
-6.3121588108835045
31
0
0
SPLINE
5
159
100
AcDbEntity
8
0
100
AcDbSpline
70
4
71
5
72
81
73
75
74
0
42
0.000000001
43
0.0000000001
44
0.0000000001
40
0
40
0
40
0
40
0
40
0
40
0
40
0.014285714285714285
40
0.028571428571428571
40
0.042857142857142858
40
0.057142857142857141
40
0.071428571428571425
40
0.085714285714285715
40
0.10000000000000001
40
0.1142857142857143
40
0.12857142857142859
40
0.14285714285714288
40
0.15714285714285717
40
0.17142857142857146
40
0.18571428571428575
40
0.20000000000000004
40
0.21428571428571433
40
0.22857142857142862
40
0.24285714285714291
40
0.25714285714285717
40
0.27142857142857146
40
0.28571428571428575
40
0.30000000000000004
40
0.31428571428571433
40
0.32857142857142863
40
0.34285714285714292
40
0.35714285714285721
40
0.3714285714285715
40
0.38571428571428579
40
0.40000000000000008
40
0.41428571428571437
40
0.42857142857142866
40
0.44285714285714295
40
0.45714285714285724
40
0.47142857142857153
40
0.48571428571428582
40
0.50000000000000011
40
0.51428571428571435
40
0.52857142857142858
40
0.54285714285714282
40
0.55714285714285705
40
0.57142857142857129
40
0.58571428571428552
40
0.59999999999999976
40
0.61428571428571399
40
0.62857142857142823
40
0.64285714285714246
40
0.6571428571428567
40
0.67142857142857093
40
0.68571428571428517
40
0.6999999999999994
40
0.71428571428571364
40
0.72857142857142787
40
0.74285714285714211
40
0.75714285714285634
40
0.77142857142857058
40
0.78571428571428481
40
0.79999999999999905
40
0.81428571428571328
40
0.82857142857142752
40
0.84285714285714175
40
0.85714285714285599
40
0.87142857142857022
40
0.88571428571428445
40
0.89999999999999869
40
0.91428571428571292
40
0.92857142857142716
40
0.94285714285714139
40
0.95714285714285563
40
0.97142857142856986
40
0.9857142857142841
40
1
40
1
40
1
40
1
40
1
40
1
41
1
41
1
41
1
41
1
41
1
41
1
41
1
41
1
41
1
41
1
41
1
41
1
41
1
41
1
41
1
41
1
41
1
41
1
41
1
41
1
41
1
41
1
41
1
41
1
41
1
41
1
41
1
41
1
41
1
41
1
41
1
41
1
41
1
41
1
41
1
41
1
41
1
41
1
41
1
41
1
41
1
41
1
41
1
41
1
41
1
41
1
41
1
41
1
41
1
41
1
41
1
41
1
41
1
41
1
41
1
41
1
41
1
41
1
41
1
41
1
41
1
41
1
41
1
41
1
41
1
41
1
41
1
41
1
41
1
41
1
41
1
41
1
41
1
41
1
41
1
10
4.0829001121743183
20
-6.3121588108835045
30
0
10
4.0869533706110461
20
-6.3184109228936656
30
0
10
4.0952805140789224
20
-6.3307471720700326
30
0
10
4.1084330967962837
20
-6.3487476310987168
30
0
10
4.127228354846312
20
-6.3717916866498436
30
0
10
4.1524421871363648
20
-6.3992985439654575
30
0
10
4.1788979394303647
20
-6.4258804068306929
30
0
10
4.2061263819843209
20
-6.4519015166251386
30
0
10
4.2337883167732224
20
-6.4776208603881962
30
0
10
4.2617596495148877
20
-6.5031249284189805
30
0
10
4.2900544863513081
20
-6.5283898217189478
30
0
10
4.3187689343090705
20
-6.5533268559457811
30
0
10
4.3480208304213761
20
-6.5778313426827921
30
0
10
4.3778820790142383
20
-6.6018374562011566
30
0
10
4.4083450674190843
20
-6.6253453071274135
30
0
10
4.4393572442961018
20
-6.6483924948000341
30
0
10
4.4708416021620341
20
-6.6710371305605811
30
0
10
4.5027208290508121
20
-6.6933378981207987
30
0
10
4.5349445916115227
20
-6.7153315036189536
30
0
10
4.567497373669128
20
-6.7370261796457775
30
0
10
4.6003837711842728
20
-6.7584137836593232
30
0
10
4.6336194575733156
20
-6.779477220088407
30
0
10
4.6672207248204494
20
-6.8001990385404421
30
0
10
4.7011924712229138
20
-6.8205713100990053
30
0
10
4.7355264273953193
20
-6.8405970742980946
30
0
10
4.770207084791406
20
-6.8602854440381469
30
0
10
4.8052154805098022
20
-6.8796484758909093
30
0
10
4.8405335008812029
20
-6.8986976140751306
30
0
10
4.8761488563299711
20
-6.9174395808195444
30
0
10
4.9120552475115371
20
-6.9358762325195062
30
0
10
4.9482499080172007
20
-6.9540065794953829
30
0
10
4.9847319113800337
20
-6.9718281758735241
30
0
10
5.0215003084867407
20
-6.9893386499184009
30
0
10
5.0585519644642662
20
-7.0065374820996862
30
0
10
5.0958815838719147
20
-7.0234259816777573
30
0
10
5.1334827048767266
20
-7.0400064657083297
30
0
10
5.1713484024415193
20
-7.0562816783179532
30
0
10
5.209472049580949
20
-7.0722541622551347
30
0
10
5.247848204966842
20
-7.0879255278676361
30
0
10
5.2864725678026794
20
-7.103296485689131
30
0
10
5.3253415467799474
20
-7.1183671954909258
30
0
10
5.3644519422761441
20
-7.1331375229815546
30
0
10
5.4038006075197433
20
-7.1476073147397212
30
0
10
5.4433840479202971
20
-7.1617767231420393
30
0
10
5.4831984263771139
20
-7.1756462052731651
30
0
10
5.5232397482755839
20
-7.1892163773647848
30
0
10
5.5635039922091964
20
-7.202487914379299
30
0
10
5.6039872489574583
20
-7.2154614417220095
30
0
10
5.6446858869566494
20
-7.2281374109111063
30
0
10
5.6855965477314214
20
-7.240516092013733
30
0
10
5.7267160482718902
20
-7.2525976315257505
30
0
10
5.768041307500563
20
-7.2643820931638921
30
0
10
5.8095692698930748
20
-7.2758695043240929
30
0
10
5.8512968077191241
20
-7.2870599108988907
30
0
10
5.8932207229787004
20
-7.2979533926923823
30
0
10
5.9353378224954128
20
-7.3085500481122212
30
0
10
5.9776449739749449
20
-7.3188499905348401
30
0
10
6.0201391601742529
20
-7.3288533407850753
30
0
10
6.062817553016786
20
-7.3385602266134136
30
0
10
6.1056775006348749
20
-7.3479707696795371
30
0
10
6.1487164178116727
20
-7.3570850605160771
30
0
10
6.1919316951383117
20
-7.3659031369096724
30
0
10
6.2353206114266371
20
-7.3744249664540007
30
0
10
6.2788802140201447
20
-7.3826504211409452
30
0
10
6.3226073094321125
20
-7.390579285144117
30
0
10
6.366498675930135
20
-7.3982113259462725
30
0
10
6.4105512304114232
20
-7.4055463557191183
30
0
10
6.4547622060336094
20
-7.4125842946087559
30
0
10
6.4991293396759762
20
-7.4193252454441572
30
0
10
6.543651008639503
20
-7.4257695361225178
30
0
10
6.5883261120245091
20
-7.4319175987033228
30
0
10
6.6241884118544441
20
-7.4365994178389041
30
0
10
6.6511537384292829
20
-7.439977831528882
30
0
10
6.6691611023680943
20
-7.4421710377921695
30
0
10
6.6781724042242985
20
-7.4432528735397039
30
0
0
ARC
5
160
100
AcDbEntity
8
0
100
AcDbCircle
10
0
20
0
30
0
40
10
210
-0
220
0
230
1
100
AcDbArc
50
311.89882108566849
51
318.1011789143314
0
SPLINE
5
161
100
AcDbEntity
8
0
100
AcDbSpline
70
4
71
5
72
81
73
75
74
0
42
0.000000001
43
0.0000000001
44
0.0000000001
40
-1
40
-1
40
-1
40
-1
40
-1
40
-1
40
-0.9857142857142841
40
-0.97142857142856986
40
-0.95714285714285563
40
-0.94285714285714139
40
-0.92857142857142716
40
-0.91428571428571292
40
-0.89999999999999869
40
-0.88571428571428445
40
-0.87142857142857022
40
-0.85714285714285599
40
-0.84285714285714175
40
-0.82857142857142752
40
-0.81428571428571328
40
-0.79999999999999905
40
-0.78571428571428481
40
-0.77142857142857058
40
-0.75714285714285634
40
-0.74285714285714211
40
-0.72857142857142787
40
-0.71428571428571364
40
-0.6999999999999994
40
-0.68571428571428517
40
-0.67142857142857093
40
-0.6571428571428567
40
-0.64285714285714246
40
-0.62857142857142823
40
-0.61428571428571399
40
-0.59999999999999976
40
-0.58571428571428552
40
-0.57142857142857129
40
-0.55714285714285705
40
-0.54285714285714282
40
-0.52857142857142858
40
-0.51428571428571435
40
-0.50000000000000011
40
-0.48571428571428582
40
-0.47142857142857153
40
-0.45714285714285724
40
-0.44285714285714295
40
-0.42857142857142866
40
-0.41428571428571437
40
-0.40000000000000008
40
-0.38571428571428579
40
-0.3714285714285715
40
-0.35714285714285721
40
-0.34285714285714292
40
-0.32857142857142863
40
-0.31428571428571433
40
-0.30000000000000004
40
-0.28571428571428575
40
-0.27142857142857146
40
-0.25714285714285717
40
-0.24285714285714291
40
-0.22857142857142862
40
-0.21428571428571433
40
-0.20000000000000004
40
-0.18571428571428575
40
-0.17142857142857146
40
-0.15714285714285717
40
-0.14285714285714288
40
-0.12857142857142859
40
-0.1142857142857143
40
-0.10000000000000001
40
-0.085714285714285715
40
-0.071428571428571425
40
-0.057142857142857141
40
-0.042857142857142858
40
-0.028571428571428571
40
-0.014285714285714285
40
0
40
0
40
0
40
0
40
0
40
0
41
1
41
1
41
1
41
1
41
1
41
1
41
1
41
1
41
1
41
1
41
1
41
1
41
1
41
1
41
1
41
1
41
1
41
1
41
1
41
1
41
1
41
1
41
1
41
1
41
1
41
1
41
1
41
1
41
1
41
1
41
1
41
1
41
1
41
1
41
1
41
1
41
1
41
1
41
1
41
1
41
1
41
1
41
1
41
1
41
1
41
1
41
1
41
1
41
1
41
1
41
1
41
1
41
1
41
1
41
1
41
1
41
1
41
1
41
1
41
1
41
1
41
1
41
1
41
1
41
1
41
1
41
1
41
1
41
1
41
1
41
1
41
1
41
1
41
1
41
1
10
7.4432528735397003
20
-6.678172404224302
30
0
10
7.4421710377921659
20
-6.669161102368097
30
0
10
7.4399778315288785
20
-6.6511537384292865
30
0
10
7.4365994178389005
20
-6.6241884118544467
30
0
10
7.4319175987033192
20
-6.5883261120245127
30
0
10
7.4257695361225142
20
-6.5436510086395057
30
0
10
7.4193252454441536
20
-6.4991293396759797
30
0
10
7.4125842946087541
20
-6.4547622060336121
30
0
10
7.4055463557191148
20
-6.4105512304114267
30
0
10
7.398211325946269
20
-6.3664986759301376
30
0
10
7.3905792851441134
20
-6.3226073094321151
30
0
10
7.3826504211409425
20
-6.2788802140201474
30
0
10
7.3744249664539971
20
-6.2353206114266406
30
0
10
7.3659031369096697
20
-6.1919316951383152
30
0
10
7.3570850605160754
20
-6.1487164178116753
30
0
10
7.3479707696795336
20
-6.1056775006348785
30
0
10
7.3385602266134109
20
-6.0628175530167905
30
0
10
7.3288533407850718
20
-6.0201391601742564
30
0
10
7.3188499905348365
20
-5.9776449739749484
30
0
10
7.3085500481122185
20
-5.9353378224954163
30
0
10
7.2979533926923796
20
-5.8932207229787021
30
0
10
7.287059910898888
20
-5.8512968077191276
30
0
10
7.2758695043240893
20
-5.8095692698930783
30
0
10
7.2643820931638894
20
-5.7680413075005665
30
0
10
7.252597631525747
20
-5.7267160482718937
30
0
10
7.2405160920137313
20
-5.6855965477314241
30
0
10
7.2281374109111027
20
-5.644685886956653
30
0
10
7.215461441722006
20
-5.6039872489574618
30
0
10
7.2024879143792973
20
-5.5635039922092
30
0
10
7.1892163773647821
20
-5.5232397482755857
30
0
10
7.1756462052731624
20
-5.4831984263771183
30
0
10
7.1617767231420366
20
-5.4433840479202988
30
0
10
7.1476073147397177
20
-5.4038006075197469
30
0
10
7.133137522981551
20
-5.3644519422761476
30
0
10
7.1183671954909222
20
-5.3253415467799501
30
0
10
7.1032964856891292
20
-5.2864725678026838
30
0
10
7.0879255278676325
20
-5.2478482049668447
30
0
10
7.0722541622551329
20
-5.2094720495809534
30
0
10
7.0562816783179496
20
-5.1713484024415219
30
0
10
7.0400064657083261
20
-5.1334827048767293
30
0
10
7.0234259816777556
20
-5.09588158387192
30
0
10
7.0065374820996844
20
-5.0585519644642707
30
0
10
6.9893386499183983
20
-5.0215003084867451
30
0
10
6.9718281758735223
20
-4.9847319113800372
30
0
10
6.9540065794953811
20
-4.9482499080172024
30
0
10
6.9358762325195045
20
-4.9120552475115415
30
0
10
6.9174395808195417
20
-4.8761488563299737
30
0
10
6.8986976140751288
20
-4.8405335008812056
30
0
10
6.8796484758909058
20
-4.8052154805098057
30
0
10
6.8602854440381442
20
-4.7702070847914078
30
0
10
6.8405970742980928
20
-4.735526427395321
30
0
10
6.8205713100990026
20
-4.7011924712229156
30
0
10
6.8001990385404394
20
-4.6672207248204529
30
0
10
6.7794772200884044
20
-4.6336194575733183
30
0
10
6.7584137836593206
20
-4.6003837711842772
30
0
10
6.7370261796457767
20
-4.5674973736691307
30
0
10
6.7153315036189509
20
-4.5349445916115263
30
0
10
6.6933378981207969
20
-4.5027208290508147
30
0
10
6.6710371305605793
20
-4.4708416021620376
30
0
10
6.6483924948000315
20
-4.4393572442961045
30
0
10
6.6253453071274127
20
-4.4083450674190869
30
0
10
6.6018374562011548
20
-4.3778820790142419
30
0
10
6.5778313426827903
20
-4.3480208304213797
30
0
10
6.5533268559457802
20
-4.3187689343090732
30
0
10
6.5283898217189451
20
-4.2900544863513108
30
0
10
6.5031249284189787
20
-4.2617596495148922
30
0
10
6.4776208603881935
20
-4.233788316773226
30
0
10
6.4519015166251359
20
-4.2061263819843235
30
0
10
6.4258804068306921
20
-4.1788979394303682
30
0
10
6.3992985439654548
20
-4.1524421871363675
30
0
10
6.3717916866498427
20
-4.1272283548463147
30
0
10
6.3487476310987159
20
-4.1084330967962863
30
0
10
6.3307471720700299
20
-4.095280514078925
30
0
10
6.3184109228936647
20
-4.0869533706110488
30
0
10
6.3121588108835009
20
-4.0829001121743227
30
0
0
LINE
5
162
100
AcDbEntity
8
0
100
AcDbLine
10
6.3121588108835009
20
-4.0829001121743227
30
0
11
5.0621709433097006
21
-3.2725301345067477
31
0
0
ARC
5
163
100
AcDbEntity
8
0
100
AcDbCircle
10
5.3341642032557255
20
-2.8529831567510571
30
0
40
0.50000000000000044
210
0
220
0
230
1
100
AcDbArc
50
151.85985568249433
51
237.04456687479961
0
ENDSEC
0
SECTION
2
OBJECTS
0
DICTIONARY
5
C
100
AcDbDictionary
3
ACAD_GROUP
350
D
3
ACAD_MLINESTYLE
350
17
0
DICTIONARY
5
D
100
AcDbDictionary
0
DICTIONARY
5
1A
330
C
100
AcDbDictionary
0
DICTIONARY
5
17
100
AcDbDictionary
0
ENDSEC
0
EOF
